<?xml version="1.0" standalone="no"?>
<!DOCTYPE svg PUBLIC "-//W3C//DTD SVG 1.1//EN" "http://www.w3.org/Graphics/SVG/1.1/DTD/svg11.dtd" >
<svg xmlns="http://www.w3.org/2000/svg">
<metadata>
Created by FontPrep 20130207 at Sun Jun 19 04:07:27 2016
 By Baptiste Briel
Copyright (c) 2016 by Jeremy Dooley. All rights reserved.
</metadata>
<defs>
<font id="b5d2d7983adbf4f9c394f022279f30b1" horiz-adv-x='1024' >
  <font-face 
    font-family="Gineso-NorBol"
    font-weight="800"
    font-stretch="normal"
    units-per-em="2048"
    panose-1="0 0 0 0 0 0 0 0 0 0"
    ascent="1638"
    descent="-410"
    x-height="1106"
    cap-height="1475"
    bbox="-164 -532 2986 2063"
    underline-thickness="102"
    underline-position="-102"
    unicode-range="U+000D-F739"
  />
<missing-glyph horiz-adv-x="1024" 
 />
    <glyph glyph-name=".notdef" horiz-adv-x="1024" 
 />
    <glyph glyph-name=".null" horiz-adv-x="0" 
 />
    <glyph glyph-name="nonmarkingreturn" horiz-adv-x="681" 
 />
    <glyph glyph-name="NULL" horiz-adv-x="0" 
 />
    <glyph glyph-name="NULL" horiz-adv-x="0" 
 />
    <glyph glyph-name="CR" unicode="&#xd;" horiz-adv-x="364" 
 />
    <glyph glyph-name="space" unicode=" " horiz-adv-x="364" 
 />
    <glyph glyph-name="exclam" unicode="!" horiz-adv-x="526" 
d="M412 0h-297v328h297v-328zM106 1475h314v-500l-68 -569h-176l-70 569v500z" />
    <glyph glyph-name="quotedbl" unicode="&#x22;" horiz-adv-x="806" 
d="M494 965l-76 510h330l-76 -510h-178zM137 965l-76 510h330l-76 -510h-178z" />
    <glyph glyph-name="numbersign" unicode="#" horiz-adv-x="1236" 
d="M530 889l-38 -314h223l39 314h-224zM57 397v178h236l41 314h-223v178h245l52 408h194l-51 -408h225l51 408h195l-49 -408h207v-178h-230l-37 -314h215v-178h-237l-47 -397h-201l49 397h-223l-47 -397h-201l49 397h-213z" />
    <glyph glyph-name="dollar" unicode="$" horiz-adv-x="1056" 
d="M569 1679h78v-192q145 -20 226 -95t81 -196v-152h-282v82q0 70 -30 100t-97 29h-39q-68 1 -96 -31t-27 -118v-45q0 -82 24 -113t99 -47l135 -31q209 -49 282 -135t72 -280v-68q0 -195 -87 -292t-261 -111v-189h-78v185h-51v-185h-78v185q-182 6 -273 78t-91 221v190h280
v-88q0 -88 30 -117t101 -28h78q76 0 110 28t34 123v80q0 111 -138 137l-155 33q-172 35 -246 126t-74 288v73q0 168 88 260t256 107v188h78v-184h21l30 -2v186z" />
    <glyph glyph-name="percent" unicode="%" horiz-adv-x="2215" 
d="M850 -41h-252l688 1557h244zM1587 285q0 -103 118 -103t118 103v344q0 57 -28 80t-89 23t-90 -24q-29 -22 -29 -79v-344zM2056 684v-455q0 -117 -94 -185t-256 -67q-162 0 -256 68t-94 184v455q0 116 94 184t256 68t256 -68t94 -184zM309 846q0 -103 118 -103t118 103
v344q0 57 -28 80q-28 22 -89 22t-90 -22t-29 -80v-344zM778 1245v-454q0 -117 -94 -185t-256 -68t-256 68t-94 185v454q0 117 94 185t256 68t256 -68t94 -185z" />
    <glyph glyph-name="ampersand" unicode="&#x26;" horiz-adv-x="1306" 
d="M358 516v-147q0 -150 172 -150h101q156 0 155 143v295h-245q-98 0 -141 -33q-42 -34 -42 -108zM1266 870v-213h-207v-329q0 -168 -110 -258t-308 -90h-102q-225 0 -339 95t-114 312v133q0 201 186 262q-158 70 -157 248v115q0 172 110 261q111 89 314 89h49
q208 0 320 -77t112 -218v-156h-272v76q0 74 -36 105t-120 30h-49q-82 1 -115 -31t-33 -112v-88q0 -154 178 -154h693z" />
    <glyph glyph-name="quotesingle" unicode="'" horiz-adv-x="450" 
d="M137 965l-76 510h330l-76 -510h-178z" />
    <glyph glyph-name="parenleft" unicode="(" horiz-adv-x="696" 
d="M391 580q0 -276 72 -484t221 -465h-313q-299 441 -299 949t299 948h313q-150 -256 -222 -464t-71 -484z" />
    <glyph glyph-name="parenright" unicode=")" horiz-adv-x="696" 
d="M305 580q0 276 -72 484t-221 464h314q299 -440 299 -948t-299 -949h-314q150 257 222 465t71 484z" />
    <glyph glyph-name="asterisk" unicode="*" horiz-adv-x="940" 
d="M74 1192l104 184l244 -211l-60 318h213l-59 -318l246 211l106 -184l-307 -107l305 -106l-104 -184l-246 209l59 -316h-213l60 318l-244 -211l-106 184l305 106z" />
    <glyph glyph-name="plus" unicode="+" horiz-adv-x="1038" 
d="M401 1229h236v-338h340v-238h-340v-338h-236v338h-340v238h340v338z" />
    <glyph glyph-name="comma" unicode="," horiz-adv-x="514" 
d="M242 -221h-189l62 551h331z" />
    <glyph glyph-name="hyphen" unicode="-" horiz-adv-x="925" 
d="M825 793v-238h-725v238h725z" />
    <glyph glyph-name="period" unicode="." horiz-adv-x="489" 
d="M393 0h-297v328h297v-328z" />
    <glyph glyph-name="slash" unicode="/" horiz-adv-x="1206" 
d="M352 -45h-319l831 1565h310z" />
    <glyph glyph-name="zero" unicode="0" horiz-adv-x="1124" 
d="M389 358q0 -129 173 -129t173 129v758q0 129 -173 129t-173 -129v-758zM1016 1176v-877q0 -152 -122 -236q-122 -83 -332 -83t-332 84t-121 235v877q-1 152 121 236t332 83q210 1 332 -83t122 -236z" />
    <glyph glyph-name="one" unicode="1" horiz-adv-x="729" 
d="M600 0h-289v1157l-260 -106v254l346 170h203v-1475z" />
    <glyph glyph-name="two" unicode="2" horiz-adv-x="1042" 
d="M969 238v-238h-893v117q-2 19 -2 91q0 240 238 452q62 56 156 125t144 131q49 62 50 145v59q0 135 -125 135h-39q-129 0 -129 -127v-129h-273v197q0 143 108 221t300 78h37q197 0 302 -87t105 -255v-86q0 -158 -74 -262q-74 -105 -278 -243t-236 -324h609z" />
    <glyph glyph-name="three" unicode="3" horiz-adv-x="1054" 
d="M358 657v213h160q143 0 144 138v120q0 70 -27 99t-92 28h-35q-74 1 -108 -27t-33 -91v-121h-252v184q0 141 104 218t293 77h35q393 0 393 -350v-115q0 -170 -162 -227q188 -59 189 -283v-133q1 -217 -105 -312t-315 -95h-90q-197 0 -291 70t-94 229v174h254v-91
q0 -127 141 -126h74q158 0 157 149v131q0 72 -36 107q-37 35 -119 34h-185z" />
    <glyph glyph-name="four" unicode="4" horiz-adv-x="1021" 
d="M817 0h-280v221h-500v129l270 1125h283l-246 -1020h193v129l77 299h203v-428h156v-234h-156v-221z" />
    <glyph glyph-name="five" unicode="5" horiz-adv-x="1007" 
d="M879 1475v-238h-467l-6 -287l118 2q408 6 408 -395v-170q0 -217 -100 -312t-304 -95h-71q-197 0 -292 72t-95 231v170h270v-66q0 -84 30 -118t95 -33h74q61 0 92 34t31 117v166q0 150 -140 149h-391l19 773h729z" />
    <glyph glyph-name="six" unicode="6" horiz-adv-x="1095" 
d="M713 545q0 131 -158 131t-158 -131v-178q0 -131 158 -131t158 131v178zM610 915q182 0 286 -75q103 -76 103 -211v-330q-1 -152 -119 -236q-118 -83 -325 -83t-326 84t-118 235v877q-1 152 119 236t326 83q206 0 325 -83t118 -232v-144h-286v76q0 127 -158 127t-158 -131
v-248q88 55 213 55z" />
    <glyph glyph-name="seven" unicode="7" horiz-adv-x="907" 
d="M47 1237v238h821v-201l-481 -1274h-287l467 1237h-520z" />
    <glyph glyph-name="eight" unicode="8" horiz-adv-x="1091" 
d="M707 1147q0 125 -161 125t-161 -125v-127q0 -125 161 -125t161 125v127zM713 551q0 133 -167 133t-167 -133v-215q0 -133 167 -133t167 133v215zM113 1180q1 150 117 232t316 83q200 0 316 -83t117 -232v-142q0 -184 -152 -252q174 -80 174 -249v-238q1 -152 -121 -236
q-122 -83 -334 -83t-334 84t-122 235v238q0 172 176 251q-154 72 -153 250v142z" />
    <glyph glyph-name="nine" unicode="9" horiz-adv-x="1095" 
d="M381 930q0 -131 158 -131t157 131v178q0 131 -158 131t-157 -131v-178zM483 559q-182 0 -285 76t-104 211v330q0 152 120 236t327 83q207 0 325 -84t117 -235v-877q0 -152 -119 -236q-120 -83 -326 -83t-325 82t-119 233v143h287v-76q0 -126 158 -126t157 131v245
q-88 -53 -213 -53z" />
    <glyph glyph-name="colon" unicode=":" horiz-adv-x="507" 
d="M403 807h-297v328h297v-328zM403 0h-297v328h297v-328z" />
    <glyph glyph-name="semicolon" unicode=";" horiz-adv-x="555" 
d="M260 -221h-188l61 551h332zM451 807h-297v328h297v-328z" />
    <glyph glyph-name="less" unicode="&#x3c;" horiz-adv-x="862" 
d="M47 528v211l436 531h326l-528 -635l528 -635h-326z" />
    <glyph glyph-name="equal" unicode="=" horiz-adv-x="937" 
d="M831 465v-238h-725v238h725zM831 874v-237h-725v237h725z" />
    <glyph glyph-name="greater" unicode="&#x3e;" horiz-adv-x="862" 
d="M815 739v-211l-436 -528h-326l529 635l-529 635h326z" />
    <glyph glyph-name="question" unicode="?" 
d="M580 0h-297v328h297v-328zM565 365h-278v190q0 111 43 170t143 95t136 76t36 112v102q0 82 -29 115t-96 32h-37q-69 -1 -99 -33t-30 -114v-115h-282v201q0 145 109 222q110 77 304 77h37q196 0 304 -77t108 -224v-246q0 -131 -47 -184q-47 -52 -161 -98t-138 -80
t-23 -101v-120z" />
    <glyph glyph-name="at" unicode="@" horiz-adv-x="1628" 
d="M807 516q96 0 145 59v293q-47 41 -141 41q-127 0 -127 -118v-156q0 -119 123 -119zM1251 483q35 -1 60 19t24 51v594q0 156 -209 156h-612q-193 0 -192 -156v-850q0 -156 192 -156h901v-174h-921q-176 0 -278 82q-101 82 -101 230v886q0 147 101 229t278 83h653
q183 0 289 -82t106 -230v-630q0 -105 -83 -165t-235 -60t-223 79q-104 -80 -256 -80q-153 0 -227 84t-74 211v217q0 129 74 212t211 83t223 -63v49h224v-549q-1 -70 75 -70z" />
    <glyph glyph-name="A" unicode="A" horiz-adv-x="1198" 
d="M598 1165l-162 -612h324zM291 0h-289l426 1475h340l428 -1475h-289l-80 299h-458z" />
    <glyph glyph-name="B" unicode="B" horiz-adv-x="1146" 
d="M537 1253h-115v-376h115q186 0 186 165v45q0 86 -45 126t-141 40zM590 672h-168v-451h168q195 0 194 174v125q1 152 -194 152zM590 0h-457v1475h404q225 0 350 -85t125 -262v-94q0 -156 -162 -223q223 -63 223 -276v-187q0 -174 -128 -261t-355 -87z" />
    <glyph glyph-name="C" unicode="C" horiz-adv-x="1134" 
d="M406 367q0 -131 179 -131t179 131v165h272v-233q0 -152 -126 -236q-126 -83 -339 -83t-333 84t-121 235v877q0 152 125 236t339 83q215 0 335 -84t120 -235v-234h-272v166q0 131 -179 131t-179 -131v-741z" />
    <glyph glyph-name="D" unicode="D" horiz-adv-x="1218" 
d="M571 1235h-149v-995h153q262 0 263 254v487q-1 254 -267 254zM133 0v1475h438q285 0 412 -121t127 -359v-516q0 -251 -125 -365t-410 -114h-442z" />
    <glyph glyph-name="E" unicode="E" 
d="M961 238v-238h-828v1475h828v-238h-539v-363h418v-237h-418v-399h539z" />
    <glyph glyph-name="F" unicode="F" horiz-adv-x="997" 
d="M422 0h-289v1475h828v-238h-539v-424h418v-238h-418v-575z" />
    <glyph glyph-name="G" unicode="G" horiz-adv-x="1173" 
d="M1069 0h-149l-48 82q-110 -102 -316 -102t-323 84t-116 235v877q0 152 130 236t350 83q220 0 346 -84t126 -235v-234h-272v166q0 131 -196 131t-195 -131v-739q0 -133 192 -133t199 124v181h-195v237h467v-778z" />
    <glyph glyph-name="H" unicode="H" horiz-adv-x="1230" 
d="M422 0h-289v1475h289v-601h389v601h289v-1475h-289v637h-389v-637z" />
    <glyph glyph-name="I" unicode="I" horiz-adv-x="552" 
d="M422 0h-289v1475h289v-1475z" />
    <glyph glyph-name="J" unicode="J" horiz-adv-x="1075" 
d="M662 1475h288v-1074q0 -422 -467 -421q-203 0 -323 85t-119 234v262h272v-164q0 -161 174 -161t175 165v1074z" />
    <glyph glyph-name="K" unicode="K" horiz-adv-x="1138" 
d="M422 0h-289v1475h289v-664l385 664h309l-420 -721l443 -754h-324l-393 686v-686z" />
    <glyph glyph-name="L" unicode="L" horiz-adv-x="974" 
d="M952 238v-238h-819v1475h289v-1237h530z" />
    <glyph glyph-name="M" unicode="M" horiz-adv-x="1581" 
d="M403 0h-270v1475h305l353 -676l354 676h305v-1475h-274v834l6 184l-295 -559h-195l-295 561l6 -186v-834z" />
    <glyph glyph-name="N" unicode="N" horiz-adv-x="1288" 
d="M1157 0h-235l-537 913l2 -65v-848h-254v1475h234l536 -910l-2 84v826h256v-1475z" />
    <glyph glyph-name="O" unicode="O" horiz-adv-x="1202" 
d="M601 1239q-101 0 -148 -37t-47 -119v-692q0 -82 47 -119q47 -36 148 -36t150 36q48 37 48 119v692q0 82 -48 119q-49 37 -150 37zM601 1495q226 0 356 -90t130 -250v-836q0 -159 -130 -249t-356 -90t-355 90t-129 249v836q0 160 129 250t355 90z" />
    <glyph glyph-name="P" unicode="P" horiz-adv-x="1118" 
d="M582 1237h-160v-473h156q193 0 192 174v119q0 180 -188 180zM422 0h-289v1475h438q256 -1 372 -103t116 -299v-182q0 -178 -116 -271t-372 -94h-149v-526z" />
    <glyph glyph-name="Q" unicode="Q" horiz-adv-x="1202" 
d="M601 1239q-101 0 -148 -37t-47 -119v-692q0 -82 47 -119q47 -36 148 -36t150 36q48 37 48 119v692q0 82 -48 119q-49 37 -150 37zM601 1495q226 0 356 -90t130 -250v-836q0 -213 -219 -296l211 -246l-194 -154l-291 357q-223 2 -350 91t-127 248v836q0 160 129 250
t355 90z" />
    <glyph glyph-name="R" unicode="R" horiz-adv-x="1150" 
d="M549 1237h-127v-473h123q193 0 192 174v119q0 180 -188 180zM422 0h-289v1475h406q255 -1 371 -103t116 -299v-182q0 -242 -205 -322l338 -569h-323l-295 526h-119v-526z" />
    <glyph glyph-name="S" unicode="S" horiz-adv-x="1071" 
d="M999 455v-68q0 -215 -105 -311t-316 -96h-97q-199 0 -300 70t-101 229v190h280v-88q0 -88 30 -117t102 -28h77q76 0 110 28t34 123v80q0 111 -138 137l-155 33q-172 35 -246 126t-74 288v73q0 182 104 276t302 95h37q195 0 305 -79t110 -220v-152h-282v82q0 70 -30 100
t-97 29h-39q-68 1 -96 -31t-27 -118v-45q0 -82 24 -113t99 -47l135 -31q209 -48 281 -134t73 -281z" />
    <glyph glyph-name="T" unicode="T" horiz-adv-x="980" 
d="M637 0h-289v1237h-321v238h927v-238h-317v-1237z" />
    <glyph glyph-name="U" unicode="U" horiz-adv-x="1222" 
d="M807 1475h289v-1110q0 -181 -130 -283t-354 -102t-356 102q-131 102 -131 283v1110h289v-1055q0 -184 196 -184t197 184v1055z" />
    <glyph glyph-name="V" unicode="V" horiz-adv-x="1128" 
d="M819 1475h285l-385 -1475h-309l-385 1475h284l254 -1141z" />
    <glyph glyph-name="W" unicode="W" horiz-adv-x="1683" 
d="M1364 1475h283l-265 -1475h-329l-211 1040l-211 -1040h-330l-264 1475h282l160 -1170l230 1170h264l229 -1172z" />
    <glyph glyph-name="X" unicode="X" horiz-adv-x="1142" 
d="M47 1475h311l213 -517l213 517h312l-332 -711l381 -764h-320l-254 573l-252 -573h-321l379 764z" />
    <glyph glyph-name="Y" unicode="Y" horiz-adv-x="1120" 
d="M705 0h-289v512l-406 963h305l244 -674l246 674h303l-403 -957v-518z" />
    <glyph glyph-name="Z" unicode="Z" horiz-adv-x="1032" 
d="M80 1237v238h868v-207l-563 -1030h602v-238h-942v207l576 1030h-541z" />
    <glyph glyph-name="bracketleft" unicode="[" horiz-adv-x="661" 
d="M598 -39v-237h-473v1751h473v-238h-203v-1276h203z" />
    <glyph glyph-name="backslash" unicode="\" horiz-adv-x="1206" 
d="M1174 -45h-320l-821 1565h309z" />
    <glyph glyph-name="bracketright" unicode="]" horiz-adv-x="661" 
d="M63 -276v237h203v1276h-203v238h474v-1751h-474z" />
    <glyph glyph-name="asciicircum" unicode="^" horiz-adv-x="1148" 
d="M350 813h-305l399 657h261l397 -657h-301l-228 430z" />
    <glyph glyph-name="underscore" unicode="_" horiz-adv-x="1171" 
d="M1094 0v-238h-1016v238h1016z" />
    <glyph glyph-name="grave" unicode="`" horiz-adv-x="794" 
d="M457 1126h-195l-307 344h328z" />
    <glyph glyph-name="a" unicode="a" horiz-adv-x="1009" 
d="M350 297q0 -94 108 -94t165 35v176h-148q-125 0 -125 -97v-20zM63 274v33q0 311 343 311h217v166q0 104 -124 104t-124 -104v-67h-262v114q0 141 101 219t291 76q190 0 293 -76t103 -219v-839h-239l-19 76q-123 -82 -277 -82t-228 74q-75 74 -75 214z" />
    <glyph glyph-name="b" unicode="b" horiz-adv-x="1069" 
d="M582 872q-59 0 -191 -69v-504q94 -59 180 -59q123 0 123 145v350q1 137 -112 137zM113 -8v1483h278v-439q162 90 293 90t209 -82t78 -229v-510q0 -147 -80 -233q-79 -86 -229 -86t-271 88v-2l-20 -80h-258z" />
    <glyph glyph-name="c" unicode="c" horiz-adv-x="1009" 
d="M369 362q0 -129 148 -129t149 129v97h262v-164q0 -150 -108 -233q-108 -82 -306 -82t-312 82q-112 82 -112 233v516q0 151 113 233t311 82t306 -83t108 -232v-168h-262v100q0 129 -149 129t-148 -129v-381z" />
    <glyph glyph-name="d" unicode="d" horiz-adv-x="1058" 
d="M492 240q88 0 176 47v536q-84 49 -176 49q-115 0 -115 -137v-350q0 -145 115 -145zM946 0h-258l-18 66q-122 -80 -266 -80t-225 86t-81 229v514q0 145 81 228t223 83t266 -55v404h278v-1475z" />
    <glyph glyph-name="e" unicode="e" horiz-adv-x="1030" 
d="M369 756v-90h297v90q0 133 -148 133t-149 -133zM369 350q1 -133 149 -133t148 133v19h278v-70q0 -152 -113 -236q-113 -83 -315 -83t-314 84t-112 235v508q0 151 113 235t315 84t314 -84t112 -235v-361h-575v-96z" />
    <glyph glyph-name="f" unicode="f" horiz-adv-x="704" 
d="M561 1319q-129 0 -129 -117v-96h246v-219h-246v-887h-278v887h-103v219h103v111q0 163 97 251t277 88q123 0 170 -16v-237q-45 16 -137 16z" />
    <glyph glyph-name="g" unicode="g" horiz-adv-x="1040" 
d="M492 260q82 0 157 37v537q-76 39 -157 38q-115 0 -115 -137v-329q0 -146 115 -146zM98 322v493q0 145 81 228t227 83t276 -61l12 49h234v-1163q0 -164 -133 -252t-392 -88q-147 0 -290 27v237q106 -27 260 -27q276 0 276 183v43q-113 -68 -251 -68t-219 86t-81 230z" />
    <glyph glyph-name="h" unicode="h" horiz-adv-x="1044" 
d="M391 0h-278v1475h278v-420q154 71 281 71q126 0 194 -76t68 -212v-838h-279v756q0 117 -104 116q-57 0 -160 -49v-823z" />
    <glyph glyph-name="i" unicode="i" horiz-adv-x="505" 
d="M401 1257h-297v328h297v-328zM393 0h-278v1106h278v-1106z" />
    <glyph glyph-name="j" unicode="j" horiz-adv-x="522" 
d="M422 1262h-297v327h297v-327zM129 88v1018h279v-1016q0 -264 -84 -372t-293 -107l-94 6v236q45 -4 65 -5q70 0 98 54t29 186z" />
    <glyph glyph-name="k" unicode="k" horiz-adv-x="980" 
d="M391 0h-278v1475h278v-822l266 453h310l-330 -494l350 -612h-311l-285 524v-524z" />
    <glyph glyph-name="l" unicode="l" horiz-adv-x="557" 
d="M109 1475h278v-1102q0 -145 94 -146q47 0 78 11v-232q-59 -16 -189 -16t-196 79t-65 257v1149z" />
    <glyph glyph-name="m" unicode="m" horiz-adv-x="1574" 
d="M647 1126q178 0 242 -120q98 121 307 120q131 0 201 -78t69 -214v-834h-278v756q0 63 -22 94t-74 31q-90 0 -164 -60v-821h-277v756q0 63 -21 94q-22 31 -75 31q-98 0 -164 -58v-823h-278v1114h233l25 -86q98 98 276 98z" />
    <glyph glyph-name="n" unicode="n" horiz-adv-x="1050" 
d="M674 1126q130 0 198 -76t68 -212v-838h-278v756q0 117 -105 116q-63 0 -166 -53v-819h-278v1114h233l21 -74q176 86 307 86z" />
    <glyph glyph-name="o" unicode="o" 
d="M369 743v-381q0 -129 148 -129t149 129v381q0 129 -148 129t-149 -129zM944 811v-516q0 -150 -112 -233q-112 -82 -314 -82q-204 0 -316 82t-112 233v516q0 151 113 233t315 82t314 -82t112 -233z" />
    <glyph glyph-name="p" unicode="p" horiz-adv-x="1064" 
d="M578 872q-57 0 -187 -67v-508q92 -57 176 -57q123 0 123 145v350q1 137 -112 137zM391 -369h-278v1483h233l23 -88q180 100 311 100t209 -82t78 -229v-510q0 -147 -80 -233q-81 -86 -229 -86t-267 86v-441z" />
    <glyph glyph-name="q" unicode="q" horiz-adv-x="1064" 
d="M492 240q94 0 182 51v528q-86 53 -182 53q-115 0 -115 -137v-350q0 -145 115 -145zM952 -369h-278v437q-122 -82 -268 -82t-227 86t-81 229v514q0 145 81 228t237 83t286 -71l17 59h233v-1483z" />
    <glyph glyph-name="r" unicode="r" horiz-adv-x="897" 
d="M877 610h-279v193q0 78 -63 78q-70 0 -144 -64v-817h-278v1114h235l17 -94q135 106 290 106q221 0 222 -268v-248z" />
    <glyph glyph-name="s" unicode="s" horiz-adv-x="983" 
d="M915 369v-50q1 -184 -109 -262t-323 -77q-416 0 -415 274v115h262v-68q0 -49 37 -67t119 -17t123 21q42 20 42 79v39q0 36 -33 56t-116 30l-133 19q-166 20 -224 92q-57 72 -57 244v43q0 141 103 214q103 72 297 72t300 -70t107 -200v-104h-262v73q0 80 -142 80t-143 -80
v-28q0 -51 29 -71t106 -32l119 -18q186 -27 250 -91t63 -216z" />
    <glyph glyph-name="t" unicode="t" horiz-adv-x="733" 
d="M37 887v219h123v246h278v-246h230v-219h-230v-500q0 -88 35 -127t113 -39t123 19v-230q-61 -20 -195 -20q-354 0 -354 338v559h-123z" />
    <glyph glyph-name="u" unicode="u" horiz-adv-x="1060" 
d="M946 0h-231l-17 74q-174 -94 -314 -94t-208 76t-67 216v834h278v-752q0 -121 107 -121q63 0 174 58v815h278v-1106z" />
    <glyph glyph-name="v" unicode="v" horiz-adv-x="995" 
d="M684 1106h289l-320 -1106h-309l-321 1106h288l187 -834z" />
    <glyph glyph-name="w" unicode="w" horiz-adv-x="1495" 
d="M27 1106h290l138 -811l151 811h281l151 -813l142 813h290l-272 -1106h-295l-155 778l-156 -778h-297z" />
    <glyph glyph-name="x" unicode="x" horiz-adv-x="952" 
d="M29 1106h295l153 -363l158 363h289l-293 -528l313 -578h-291l-176 381l-176 -381h-291l312 578z" />
    <glyph glyph-name="y" unicode="y" horiz-adv-x="1015" 
d="M193 -389q-80 0 -138 14v234q41 -11 107 -11q139 -1 209 168l-355 1090h308l190 -778l191 778h307l-330 -1016q-94 -285 -207 -382t-282 -97z" />
    <glyph glyph-name="z" unicode="z" horiz-adv-x="909" 
d="M82 887v219h758v-199l-492 -688h512v-219h-819v199l479 688h-438z" />
    <glyph glyph-name="braceleft" unicode="{" horiz-adv-x="690" 
d="M457 770q0 -180 -144 -242q143 -63 144 -241v-404q0 -158 174 -157v-238q-240 0 -346 88t-107 260v412q0 162 -143 162v237q143 0 143 162v338q0 172 106 260t347 88v-238q-174 0 -174 -157v-330z" />
    <glyph glyph-name="bar" unicode="|" horiz-adv-x="528" 
d="M403 -512h-278v2048h278v-2048z" />
    <glyph glyph-name="braceright" unicode="}" horiz-adv-x="688" 
d="M233 770v330q0 158 -174 157v238q241 0 347 -88t106 -260v-338q0 -162 143 -162v-237q-143 0 -143 -162v-412q0 -172 -106 -260t-347 -88v238q174 0 174 157v404q0 178 144 241q-144 62 -144 242z" />
    <glyph glyph-name="asciitilde" unicode="~" horiz-adv-x="1134" 
d="M774 698q-78 0 -134 30t-102 58t-100 29q-88 0 -94 -104h-256q2 174 78 268t207 94q88 0 151 -29q62 -30 108 -58t91 -28t65 30t21 87h256q-10 -377 -291 -377z" />
    <glyph glyph-name="uni00A0" unicode="&#xa0;" horiz-adv-x="364" 
 />
    <glyph glyph-name="exclamdown" unicode="&#xa1;" horiz-adv-x="526" 
d="M115 1475h299v-328h-299v328zM420 0h-314v434l70 619h176l68 -619v-434z" />
    <glyph glyph-name="cent" unicode="&#xa2;" horiz-adv-x="989" 
d="M563 -266h-129v250q-170 14 -263 94t-93 217v516q0 135 93 216t263 95v209h129v-207q168 -12 260 -93t92 -220v-168h-262v100q-1 129 -149 129t-148 -129v-381q0 -129 148 -129t149 129v97h262v-164q0 -139 -92 -220t-260 -93v-248z" />
    <glyph glyph-name="sterling" unicode="&#xa3;" horiz-adv-x="1110" 
d="M545 1257q-150 1 -150 -137q0 -108 26 -187q7 -24 29 -84t25 -71h250v-237h-213q-10 -150 -96 -305h612v-236h-940v193q135 211 143 348h-145v237h100q-78 225 -78 384t111 246t320 87h41q208 0 328 -79t120 -220v-147h-280v53q0 80 -38 118t-124 37h-41z" />
    <glyph glyph-name="currency" unicode="&#xa4;" horiz-adv-x="1138" 
d="M500 885q-113 0 -113 -72v-299q0 -74 113 -74h139q113 0 113 74v299q0 72 -113 72h-139zM688 246h-239q-76 0 -136 18l-100 -106l-141 141l102 107v516l-119 122l140 142l118 -123q59 18 136 18h239q78 0 135 -18l119 123l139 -142l-116 -120l2 -23v-475l-2 -25l100 -102
l-139 -141l-103 104q-61 -16 -135 -16z" />
    <glyph glyph-name="yen" unicode="&#xa5;" horiz-adv-x="1177" 
d="M731 0h-289v166h-272v237h272v109l-4 6h-268v238h168l-301 719h305l244 -674l245 674h304l-304 -719h170v-238h-270v-115h270v-237h-270v-166z" />
    <glyph glyph-name="brokenbar" unicode="&#xa6;" horiz-adv-x="528" 
d="M403 717h-278v819h278v-819zM125 307h278v-819h-278v819z" />
    <glyph glyph-name="section" unicode="&#xa7;" horiz-adv-x="1169" 
d="M481 545q-135 0 -135 -80v-29q0 -54 27 -74t106 -32l109 -17q4 -2 12 -2h68q80 -1 118 19t39 78v30q0 39 -35 62q-36 23 -128 37l-54 8h-127zM1106 410q0 -242 -205 -308q6 -43 6 -94v-33q1 -186 -107 -265t-329 -79q-422 0 -422 279v90h262v-47q0 -49 39 -67t119 -17
q80 0 119 20t39 80v31q0 40 -34 64t-124 36l-125 17q-162 20 -218 87t-56 232v43q0 199 209 262q-10 47 -11 133v48q0 141 104 214q104 72 300 72q194 0 304 -70t109 -200v-88h-262v53q0 45 -33 65q-34 19 -112 19q-135 0 -135 -80v-33q1 -51 27 -71t102 -33l104 -16
q198 -31 264 -92t66 -211v-41z" />
    <glyph glyph-name="dieresis" unicode="&#xa8;" horiz-adv-x="1001" 
d="M858 1167h-299v279h299v-279zM424 1167h-299v279h299v-279z" />
    <glyph glyph-name="copyright" unicode="&#xa9;" horiz-adv-x="1556" 
d="M686 549q0 -72 92 -72t92 72v88h183v-141q0 -90 -74 -140t-203 -51q-129 0 -204 50t-74 141v467q0 90 74 140q75 50 204 50t203 -50t74 -140v-142h-183v88q0 72 -92 72t-92 -72v-360zM1040 1294h-524q-195 0 -194 -127v-860q0 -127 194 -127h524q197 0 197 127v860
q0 127 -197 127zM1442 1196v-917q0 -133 -102 -206t-279 -73h-565q-176 0 -278 73q-101 73 -101 206v917q0 133 101 206t278 73h565q177 0 279 -73t102 -206z" />
    <glyph glyph-name="ordfeminine" unicode="&#xaa;" horiz-adv-x="831" 
d="M389 848q47 0 80 16v94q-43 14 -80 15q-68 0 -67 -53v-19q-1 -53 67 -53zM70 903v12q0 101 57 157t159 56t183 -20v109q0 57 -57 57t-58 -57v-37h-243v104q0 100 79 156q80 55 224 55t229 -54q86 -54 86 -157v-577h-231l-13 45q-82 -60 -191 -60q-108 0 -166 56t-58 155z
" />
    <glyph glyph-name="guillemotleft" unicode="&#xab;" horiz-adv-x="1079" 
d="M520 672l228 356h268l-250 -442l-6 -2l6 -2l250 -443h-268l-228 357v176zM70 672l227 356h268l-250 -442l-6 -2l6 -2l250 -443h-268l-227 357v176z" />
    <glyph glyph-name="logicalnot" unicode="&#xac;" horiz-adv-x="1114" 
d="M1001 463h-245v170h-658v237h903v-407z" />
    <glyph glyph-name="uni00AD" unicode="&#xad;" horiz-adv-x="925" 
d="M825 793v-238h-725v238h725z" />
    <glyph glyph-name="registered" unicode="&#xae;" horiz-adv-x="1556" 
d="M760 981h-64v-215h58q55 0 82 18t26 66v47q0 84 -102 84zM696 332h-192v801h278q272 0 273 -220v-102q0 -137 -133 -178l149 -301h-215l-125 282h-35v-282zM1040 1294h-524q-195 0 -194 -127v-860q0 -127 194 -127h524q197 0 197 127v860q0 127 -197 127zM1442 1196v-917
q0 -133 -102 -206t-279 -73h-565q-176 0 -278 73q-101 73 -101 206v917q0 133 101 206t278 73h565q177 0 279 -73t102 -206z" />
    <glyph glyph-name="macron" unicode="&#xaf;" horiz-adv-x="1705" 
d="M594 1292h-594v207h594v-207z" />
    <glyph glyph-name="degree" unicode="&#xb0;" horiz-adv-x="796" 
d="M289 1167q1 -94 111 -94t110 94v33q0 94 -111 94t-110 -94v-33zM725 1241v-115q0 -254 -326 -254q-159 0 -243 66t-84 188v115q0 123 84 189t244 66t242 -66q83 -66 83 -189z" />
    <glyph glyph-name="plusminus" unicode="&#xb1;" horiz-adv-x="1101" 
d="M1008 236v-238h-914v238h914zM432 1257h236v-337h340v-238h-340v-338h-236v338h-340v238h340v337z" />
    <glyph glyph-name="twosuperior" unicode="&#xb2;" horiz-adv-x="819" 
d="M762 657v-206h-705v98q0 285 228 422q67 41 105 69t72 69q34 42 34 81v35q0 63 -72 63h-43q-68 0 -68 -63v-90h-235v153q0 100 85 154t236 55h27q156 0 239 -61t83 -179v-59q0 -116 -52 -190t-196 -166q-146 -92 -183 -185h445z" />
    <glyph glyph-name="threesuperior" unicode="&#xb3;" horiz-adv-x="821" 
d="M270 889v182h133q88 0 89 88v49q0 48 -14 64t-56 16h-27q-39 0 -56 -17t-17 -61v-43h-234v119q0 100 81 156t230 55h27q307 0 307 -258v-72q0 -117 -117 -153q141 -41 142 -199v-74q0 -161 -83 -233t-249 -72h-68q-156 0 -230 49t-73 160v146h236v-66q0 -66 92 -66h53
q86 0 86 82v70q0 43 -23 60q-24 17 -79 18h-150z" />
    <glyph glyph-name="acute" unicode="&#xb4;" horiz-adv-x="770" 
d="M297 1128h-195l170 342h328z" />
    <glyph glyph-name="mu" unicode="&#xb5;" horiz-adv-x="1081" 
d="M401 -512h-278v735q-2 16 -2 49v834h278v-512h2v-272q12 -88 105 -89q63 0 174 58v815h278v-1106h-231l-16 74q-172 -92 -310 -94v-492z" />
    <glyph glyph-name="paragraph" unicode="&#xb6;" horiz-adv-x="1087" 
d="M606 -229h-231v868h-56q-125 0 -193 53t-67 150v432q0 96 67 148t193 53h639v-1704h-231v1505h-121v-1505z" />
    <glyph glyph-name="periodcentered" unicode="&#xb7;" horiz-adv-x="507" 
d="M403 471h-297v328h297v-328z" />
    <glyph glyph-name="cedilla" unicode="&#xb8;" horiz-adv-x="772" 
d="M344 14h139v-96h19q188 0 188 -172q0 -102 -68 -144t-221 -42h-118v131h120q63 0 85 12t22 45v8q0 35 -18 48t-72 14h-76v196z" />
    <glyph glyph-name="onesuperior" unicode="&#xb9;" horiz-adv-x="571" 
d="M475 451h-254v735l-182 -62v236l256 123h180v-1032z" />
    <glyph glyph-name="ordmasculine" unicode="&#xba;" horiz-adv-x="829" 
d="M336 1210v-229q0 -57 74 -57t73 57v229q1 57 -73 57t-74 -57zM733 1274v-356q0 -104 -86 -164q-85 -60 -237 -60t-238 58t-86 166v356q0 106 86 164t238 59t238 -59t85 -164z" />
    <glyph glyph-name="guillemotright" unicode="&#xbb;" horiz-adv-x="1077" 
d="M780 1028l228 -356v-176l-228 -357h-268l250 443l6 2l-6 2l-250 442h268zM332 1028l227 -356v-176l-227 -357h-269l250 443l6 2l-6 2l-250 442h269z" />
    <glyph glyph-name="onequarter" unicode="&#xbc;" horiz-adv-x="1884" 
d="M1456 373v250l-145 -250h145zM1708 0h-252v168h-395v174l426 690h221v-659h125v-205h-125v-168zM676 -41h-252l688 1557h244zM483 451h-254v735l-182 -62v236l256 123h180v-1032z" />
    <glyph glyph-name="onehalf" unicode="&#xbd;" horiz-adv-x="1964" 
d="M1896 207v-207h-704v98q0 285 227 422q66 41 105 69q38 27 72 69t34 81v35q0 63 -71 64h-43q-68 0 -68 -64v-90h-236v154q0 100 85 154t237 55h27q157 1 239 -61t82 -179v-59q0 -117 -51 -191t-197 -166t-182 -184h444zM676 -41h-252l688 1557h244zM483 451h-254v735
l-182 -62v236l256 123h180v-1032z" />
    <glyph glyph-name="threequarters" unicode="&#xbe;" horiz-adv-x="2070" 
d="M1645 373v250l-146 -250h146zM1896 0h-251v168h-396v174l426 690h221v-659h125v-205h-125v-168zM864 -41h-252l688 1557h244zM276 889v182h134q88 0 88 88v49q0 48 -14 64t-56 16h-27q-39 0 -56 -17t-17 -61v-43h-234v119q0 100 81 156t231 55h26q307 0 307 -258v-72
q0 -117 -116 -153q141 -41 141 -199v-74q0 -161 -83 -233t-249 -72h-67q-156 0 -230 49t-74 160v146h236v-66q0 -66 92 -66h53q86 0 86 82v70q0 43 -23 60q-24 17 -79 18h-150z" />
    <glyph glyph-name="questiondown" unicode="&#xbf;" horiz-adv-x="1028" 
d="M750 791h-297v327h297v-327zM487 684h279v-190q0 -109 -43 -169q-43 -61 -143 -97t-137 -75q-36 -40 -35 -112v-102q0 -82 28 -115t96 -33h37q70 0 101 33t30 115v114h281v-200q0 -145 -110 -223t-302 -76h-37q-198 0 -306 76t-107 225v245q0 130 47 184t161 99
q113 45 137 80t23 100v121z" />
    <glyph glyph-name="Agrave" unicode="&#xc0;" horiz-adv-x="1198" 
d="M729 1554h-194l-308 344h328zM598 1165l-162 -612h324zM291 0h-289l426 1475h340l428 -1475h-289l-80 299h-458z" />
    <glyph glyph-name="Aacute" unicode="&#xc1;" horiz-adv-x="1198" 
d="M692 1556h-194l170 342h327zM598 1165l-162 -612h324zM291 0h-289l426 1475h340l428 -1475h-289l-80 299h-458z" />
    <glyph glyph-name="Acircumflex" unicode="&#xc2;" horiz-adv-x="1198" 
d="M504 1853h207l278 -301h-258l-125 148l-125 -148h-258zM598 1165l-162 -612h324zM291 0h-289l426 1475h340l428 -1475h-289l-80 299h-458z" />
    <glyph glyph-name="Atilde" unicode="&#xc3;" horiz-adv-x="1198" 
d="M725 1554q-71 0 -139 43t-86 43q-45 0 -49 -86h-201q2 135 59 213t147 78t158 -43q70 -43 84 -43q43 0 47 88h201q-4 -141 -60 -217t-161 -76zM598 1165l-162 -612h324zM291 0h-289l426 1475h340l428 -1475h-289l-80 299h-458z" />
    <glyph glyph-name="Adieresis" unicode="&#xc4;" horiz-adv-x="1198" 
d="M975 1554h-299v279h299v-279zM541 1554h-299v279h299v-279zM598 1165l-162 -612h324zM291 0h-289l426 1475h340l428 -1475h-289l-80 299h-458z" />
    <glyph glyph-name="Aring" unicode="&#xc5;" horiz-adv-x="1198" 
d="M514 1812q0 -94 92 -94t92 94v9q0 90 -92 90t-92 -90v-9zM877 1870v-109q-1 -193 -271 -193t-270 193v109q0 193 270 193t271 -193zM598 1165l-162 -612h324zM291 0h-289l426 1475h340l428 -1475h-289l-80 299h-458z" />
    <glyph glyph-name="AE" unicode="&#xc6;" horiz-adv-x="1748" 
d="M846 551v588l-285 -588h285zM1673 1475v-238h-538v-363h419v-237h-419v-399h538v-238h-827v313h-402l-151 -313h-305l741 1475h944z" />
    <glyph glyph-name="Ccedilla" unicode="&#xc7;" horiz-adv-x="1134" 
d="M406 367q0 -131 179 -131t179 131v165h272v-233q0 -127 -90 -208t-250 -103v-70h19q188 0 188 -172q1 -102 -67 -144t-222 -42h-118v131h120q63 0 85 12t22 45v8q0 35 -18 48t-72 14h-76v162q-207 4 -324 87t-116 232v877q0 152 125 236t339 83q215 0 335 -84t120 -235
v-234h-272v166q0 131 -179 131t-179 -131v-741z" />
    <glyph glyph-name="Egrave" unicode="&#xc8;" 
d="M686 1554h-194l-308 344h328zM961 238v-238h-828v1475h828v-238h-539v-363h418v-237h-418v-399h539z" />
    <glyph glyph-name="Eacute" unicode="&#xc9;" 
d="M578 1556h-195l170 342h328zM961 238v-238h-828v1475h828v-238h-539v-363h418v-237h-418v-399h539z" />
    <glyph glyph-name="Ecircumflex" unicode="&#xca;" 
d="M461 1853h207l278 -301h-258l-125 148l-125 -148h-258zM961 238v-238h-828v1475h828v-238h-539v-363h418v-237h-418v-399h539z" />
    <glyph glyph-name="Edieresis" unicode="&#xcb;" 
d="M940 1554h-297v328h297v-328zM489 1554h-296v328h296v-328zM961 238v-238h-828v1475h828v-238h-539v-363h418v-237h-418v-399h539z" />
    <glyph glyph-name="Igrave" unicode="&#xcc;" horiz-adv-x="552" 
d="M397 1554h-194l-307 344h327zM422 0h-289v1475h289v-1475z" />
    <glyph glyph-name="Iacute" unicode="&#xcd;" horiz-adv-x="555" 
d="M289 1556h-195l170 342h328zM422 0h-289v1475h289v-1475z" />
    <glyph glyph-name="Icircumflex" unicode="&#xce;" horiz-adv-x="552" 
d="M172 1853h207l278 -301h-258l-125 148l-124 -148h-259zM422 0h-289v1475h289v-1475z" />
    <glyph glyph-name="Idieresis" unicode="&#xcf;" horiz-adv-x="552" 
d="M651 1554h-297v328h297v-328zM201 1554h-297v328h297v-328zM422 0h-289v1475h289v-1475z" />
    <glyph glyph-name="Eth" unicode="&#xd0;" horiz-adv-x="1257" 
d="M635 850v-238h-182v-356h176q127 0 187 39t61 149v578q0 197 -269 197l-155 -2v-367h182zM164 0v612h-139v238h139v625h444q283 -1 412 -107t129 -315v-672q0 -197 -122 -289t-398 -92h-465z" />
    <glyph glyph-name="Ntilde" unicode="&#xd1;" horiz-adv-x="1288" 
d="M786 1554q-70 0 -138 43t-87 43q-45 0 -49 -86h-201q1 135 59 213t147 78t159 -43t84 -43q43 0 47 88h201q-4 -141 -60 -217t-162 -76zM1157 0h-235l-537 913l2 -65v-848h-254v1475h234l536 -910l-2 84v826h256v-1475z" />
    <glyph glyph-name="Ograve" unicode="&#xd2;" horiz-adv-x="1202" 
d="M723 1575h-195l-307 344h328zM601 1239q-101 0 -148 -37t-47 -119v-692q0 -82 47 -119q47 -36 148 -36t150 36q48 37 48 119v692q0 82 -48 119q-49 37 -150 37zM601 1495q226 0 356 -90t130 -250v-836q0 -159 -130 -249t-356 -90t-355 90t-129 249v836q0 160 129 250
t355 90z" />
    <glyph glyph-name="Oacute" unicode="&#xd3;" horiz-adv-x="1202" 
d="M686 1577h-194l170 342h327zM601 1239q-101 0 -148 -37t-47 -119v-692q0 -82 47 -119q47 -36 148 -36t150 36q48 37 48 119v692q0 82 -48 119q-49 37 -150 37zM601 1495q226 0 356 -90t130 -250v-836q0 -159 -130 -249t-356 -90t-355 90t-129 249v836q0 160 129 250
t355 90z" />
    <glyph glyph-name="Ocircumflex" unicode="&#xd4;" horiz-adv-x="1202" 
d="M498 1874h207l278 -301h-258l-125 147l-125 -147h-258zM601 1239q-101 0 -148 -37t-47 -119v-692q0 -82 47 -119q47 -36 148 -36t150 36q48 37 48 119v692q0 82 -48 119q-49 37 -150 37zM601 1495q226 0 356 -90t130 -250v-836q0 -159 -130 -249t-356 -90t-355 90
t-129 249v836q0 160 129 250t355 90z" />
    <glyph glyph-name="Otilde" unicode="&#xd5;" horiz-adv-x="1202" 
d="M760 1587q-70 0 -138 43t-87 43q-45 0 -50 -86h-200q2 135 59 213q56 78 146 78t160 -43t83 -43q43 0 47 88h201q-4 -141 -60 -217t-161 -76zM601 1239q-101 0 -148 -37t-47 -119v-692q0 -82 47 -119q47 -36 148 -36t150 36q48 37 48 119v692q0 82 -48 119
q-49 37 -150 37zM601 1495q226 0 356 -90t130 -250v-836q0 -159 -130 -249t-356 -90t-355 90t-129 249v836q0 160 129 250t355 90z" />
    <glyph glyph-name="Odieresis" unicode="&#xd6;" horiz-adv-x="1202" 
d="M977 1575h-297v328h297v-328zM526 1575h-297v328h297v-328zM601 1239q-101 0 -148 -37t-47 -119v-692q0 -82 47 -119q47 -36 148 -36t150 36q48 37 48 119v692q0 82 -48 119q-49 37 -150 37zM601 1495q226 0 356 -90t130 -250v-836q0 -159 -130 -249t-356 -90t-355 90
t-129 249v836q0 160 129 250t355 90z" />
    <glyph glyph-name="multiply" unicode="&#xd7;" horiz-adv-x="946" 
d="M713 346l-240 240l-240 -240l-163 164l239 240l-239 239l163 164l240 -240l240 240l164 -164l-240 -239l240 -240z" />
    <glyph glyph-name="Oslash" unicode="&#xd8;" horiz-adv-x="1202" 
d="M612 1239q-112 0 -159 -37t-47 -119v-553l364 652q-46 57 -158 57zM602 236q100 0 149 36q48 37 48 119v594l-377 -676q39 -73 180 -73zM582 1495q206 0 329 -63l50 88h135l-88 -158q80 -86 79 -207v-836q0 -159 -130 -249t-342 -90t-339 69l-47 -84h-141l92 164
q-63 76 -63 190v836q0 160 129 250q130 90 336 90z" />
    <glyph glyph-name="Ugrave" unicode="&#xd9;" horiz-adv-x="1222" 
d="M733 1554h-194l-308 344h328zM807 1475h289v-1110q0 -181 -130 -283t-354 -102t-356 102q-131 102 -131 283v1110h289v-1055q0 -184 196 -184t197 184v1055z" />
    <glyph glyph-name="Uacute" unicode="&#xda;" horiz-adv-x="1222" 
d="M696 1556h-194l170 342h327zM807 1475h289v-1110q0 -181 -130 -283t-354 -102t-356 102q-131 102 -131 283v1110h289v-1055q0 -184 196 -184t197 184v1055z" />
    <glyph glyph-name="Ucircumflex" unicode="&#xdb;" horiz-adv-x="1222" 
d="M506 1853h207l278 -301h-258l-125 148l-125 -148h-258zM807 1475h289v-1110q0 -181 -130 -283t-354 -102t-356 102q-131 102 -131 283v1110h289v-1055q0 -184 196 -184t197 184v1055z" />
    <glyph glyph-name="Udieresis" unicode="&#xdc;" horiz-adv-x="1222" 
d="M977 1554h-299v279h299v-279zM543 1554h-299v279h299v-279zM807 1475h289v-1110q0 -181 -130 -283t-354 -102t-356 102q-131 102 -131 283v1110h289v-1055q0 -184 196 -184t197 184v1055z" />
    <glyph glyph-name="Yacute" unicode="&#xdd;" horiz-adv-x="1120" 
d="M643 1556h-194l169 342h328zM705 0h-289v512l-406 963h305l244 -674l246 674h303l-403 -957v-518z" />
    <glyph glyph-name="Thorn" unicode="&#xde;" horiz-adv-x="1161" 
d="M614 874h-202v-634h202q184 0 185 147v340q-1 147 -185 147zM412 -369h-279v1844h279v-361h202q215 0 337 -86t122 -254v-434q0 -170 -121 -255t-338 -85h-202v-369z" />
    <glyph glyph-name="germandbls" unicode="&#xdf;" horiz-adv-x="1138" 
d="M401 0h-288v1219q0 178 107 258q108 79 325 79t336 -80t118 -241v-176q0 -125 -116 -187q178 -88 178 -301v-223q0 -174 -120 -261t-335 -87h-104v240h104q182 0 182 159v154q0 172 -174 172h-112v201h10v6h49q166 0 166 168v61q0 82 -34 118t-107 36h-27q-78 0 -118 -42
t-40 -112v-1161z" />
    <glyph glyph-name="agrave" unicode="&#xe0;" horiz-adv-x="1009" 
d="M618 1247h-194l-307 344h327zM350 297q0 -94 108 -94t165 35v176h-148q-125 0 -125 -97v-20zM63 274v33q0 311 343 311h217v166q0 104 -124 104t-124 -104v-67h-262v114q0 141 101 219t291 76q190 0 293 -76t103 -219v-839h-239l-19 76q-123 -82 -277 -82t-228 74
q-75 74 -75 214z" />
    <glyph glyph-name="aacute" unicode="&#xe1;" horiz-adv-x="1009" 
d="M582 1249h-195l170 342h328zM350 297q0 -94 108 -94t165 35v176h-148q-125 0 -125 -97v-20zM63 274v33q0 311 343 311h217v166q0 104 -124 104t-124 -104v-67h-262v114q0 141 101 219t291 76q190 0 293 -76t103 -219v-839h-239l-19 76q-123 -82 -277 -82t-228 74
q-75 74 -75 214z" />
    <glyph glyph-name="acircumflex" unicode="&#xe2;" horiz-adv-x="1009" 
d="M393 1546h207l279 -301h-258l-125 148l-125 -148h-258zM350 297q0 -94 108 -94t165 35v176h-148q-125 0 -125 -97v-20zM63 274v33q0 311 343 311h217v166q0 104 -124 104t-124 -104v-67h-262v114q0 141 101 219t291 76q190 0 293 -76t103 -219v-839h-239l-19 76
q-123 -82 -277 -82t-228 74q-75 74 -75 214z" />
    <glyph glyph-name="atilde" unicode="&#xe3;" horiz-adv-x="1009" 
d="M614 1247q-70 0 -138 43t-87 43q-45 0 -49 -86h-201q1 135 59 213t147 78t159 -43t84 -43q43 0 47 88h201q-4 -141 -60 -217t-162 -76zM350 297q0 -94 108 -94t165 35v176h-148q-125 0 -125 -97v-20zM63 274v33q0 311 343 311h217v166q0 104 -124 104t-124 -104v-67h-262
v114q0 141 101 219t291 76q190 0 293 -76t103 -219v-839h-239l-19 76q-123 -82 -277 -82t-228 74q-75 74 -75 214z" />
    <glyph glyph-name="adieresis" unicode="&#xe4;" horiz-adv-x="1009" 
d="M864 1247h-299v279h299v-279zM430 1247h-299v279h299v-279zM350 297q0 -94 108 -94t165 35v176h-148q-125 0 -125 -97v-20zM63 274v33q0 311 343 311h217v166q0 104 -124 104t-124 -104v-67h-262v114q0 141 101 219t291 76q190 0 293 -76t103 -219v-839h-239l-19 76
q-123 -82 -277 -82t-228 74q-75 74 -75 214z" />
    <glyph glyph-name="aring" unicode="&#xe5;" horiz-adv-x="1009" 
d="M426 1505q0 -94 92 -94t92 94v8q0 91 -92 91t-92 -91v-8zM788 1563v-109q0 -192 -270 -192t-270 192v109q0 193 270 193t270 -193zM350 297q0 -94 108 -94t165 35v176h-148q-125 0 -125 -97v-20zM63 274v33q0 311 343 311h217v166q0 104 -124 104t-124 -104v-67h-262v114
q0 141 101 219t291 76q190 0 293 -76t103 -219v-839h-239l-19 76q-123 -82 -277 -82t-228 74q-75 74 -75 214z" />
    <glyph glyph-name="ae" unicode="&#xe6;" horiz-adv-x="1562" 
d="M467 184q92 0 156 21v162q-57 31 -162 31t-105 -97v-20q0 -97 111 -97zM901 756v-90h297v90q0 133 -148 133t-149 -133zM113 717v114q0 141 100 219t292 76q192 0 296 -82q91 82 271 82t292 -84t113 -235v-361h-576v-110q6 -119 152 -119t145 133v19h279v-70
q0 -152 -113 -236q-113 -83 -301 -83t-279 94q-178 -94 -401 -94q-158 0 -244 76t-86 218v33q0 141 87 218q86 77 230 77t253 -49v215q0 121 -124 121t-124 -121v-51h-262z" />
    <glyph glyph-name="ccedilla" unicode="&#xe7;" horiz-adv-x="1015" 
d="M369 362q0 -129 148 -129t149 129v97h262v-164q0 -141 -93 -222t-264 -91v-64h19q188 0 188 -172q0 -102 -68 -144t-221 -42h-118v131h121q63 0 85 12t21 45v8q0 35 -18 48t-72 14h-76v166q-164 16 -253 97t-89 214v516q0 151 113 233t311 82t306 -83t108 -232v-168h-262
v100q0 129 -149 129t-148 -129v-381z" />
    <glyph glyph-name="egrave" unicode="&#xe8;" horiz-adv-x="1030" 
d="M629 1247h-195l-307 344h328zM369 756v-90h297v90q0 133 -148 133t-149 -133zM369 350q1 -133 149 -133t148 133v19h278v-70q0 -152 -113 -236q-113 -83 -315 -83t-314 84t-112 235v508q0 151 113 235t315 84t314 -84t112 -235v-361h-575v-96z" />
    <glyph glyph-name="eacute" unicode="&#xe9;" horiz-adv-x="1030" 
d="M594 1249h-195l170 342h328zM369 756v-90h297v90q0 133 -148 133t-149 -133zM369 350q1 -133 149 -133t148 133v19h278v-70q0 -152 -113 -236q-113 -83 -315 -83t-314 84t-112 235v508q0 151 113 235t315 84t314 -84t112 -235v-361h-575v-96z" />
    <glyph glyph-name="ecircumflex" unicode="&#xea;" horiz-adv-x="1030" 
d="M403 1546h207l279 -301h-258l-125 148l-125 -148h-258zM369 756v-90h297v90q0 133 -148 133t-149 -133zM369 350q1 -133 149 -133t148 133v19h278v-70q0 -152 -113 -236q-113 -83 -315 -83t-314 84t-112 235v508q0 151 113 235t315 84t314 -84t112 -235v-361h-575v-96z
" />
    <glyph glyph-name="edieresis" unicode="&#xeb;" horiz-adv-x="1030" 
d="M874 1247h-299v279h299v-279zM440 1247h-299v279h299v-279zM369 756v-90h297v90q0 133 -148 133t-149 -133zM369 350q1 -133 149 -133t148 133v19h278v-70q0 -152 -113 -236q-113 -83 -315 -83t-314 84t-112 235v508q0 151 113 235t315 84t314 -84t112 -235v-361h-575
v-96z" />
    <glyph glyph-name="igrave" unicode="&#xec;" horiz-adv-x="507" 
d="M375 1227h-195l-307 344h328zM393 0h-278v1106h278v-1106z" />
    <glyph glyph-name="iacute" unicode="&#xed;" horiz-adv-x="507" 
d="M338 1229h-195l170 342h328zM393 0h-278v1106h278v-1106z" />
    <glyph glyph-name="icircumflex" unicode="&#xee;" horiz-adv-x="507" 
d="M150 1526h206l279 -301h-258l-125 147l-125 -147h-258zM393 0h-278v1106h278v-1106z" />
    <glyph glyph-name="idieresis" unicode="&#xef;" horiz-adv-x="507" 
d="M621 1227h-299v278h299v-278zM186 1227h-299v278h299v-278zM393 0h-278v1106h278v-1106z" />
    <glyph glyph-name="eth" unicode="&#xf0;" horiz-adv-x="1060" 
d="M686 549q0 141 -165 141t-165 -125v-198q0 -133 165 -133t165 133v182zM973 547v-248q0 -152 -121 -236q-121 -83 -332 -83t-331 84t-119 235v350q0 131 97 205t245 74t235 -62q-27 109 -82 215l-114 -84l-144 191l123 88l-84 92l234 174q63 -59 92 -92l119 86l141 -186
l-121 -88q162 -289 162 -715z" />
    <glyph glyph-name="ntilde" unicode="&#xf1;" horiz-adv-x="1064" 
d="M696 1229q-70 0 -138 43t-87 43q-45 0 -49 -86h-201q1 135 59 213t147 78t159 -43t84 -43q43 0 47 88h201q-4 -141 -60 -217t-162 -76zM391 0h-278v1114h233l23 -82q178 94 315 94t205 -76t67 -212v-838h-278v756q0 117 -105 116q-63 0 -182 -61v-811z" />
    <glyph glyph-name="ograve" unicode="&#xf2;" 
d="M596 1247h-195l-307 344h328zM369 743v-381q0 -129 148 -129t149 129v381q0 129 -148 129t-149 -129zM944 811v-516q0 -150 -112 -233q-112 -82 -314 -82q-204 0 -316 82t-112 233v516q0 151 113 233t315 82t314 -82t112 -233z" />
    <glyph glyph-name="oacute" unicode="&#xf3;" 
d="M559 1249h-194l170 342h327zM369 743v-381q0 -129 148 -129t149 129v381q0 129 -148 129t-149 -129zM944 811v-516q0 -150 -112 -233q-112 -82 -314 -82q-204 0 -316 82t-112 233v516q0 151 113 233t315 82t314 -82t112 -233z" />
    <glyph glyph-name="ocircumflex" unicode="&#xf4;" 
d="M371 1546h207l278 -301h-258l-125 148l-125 -148h-258zM369 743v-381q0 -129 148 -129t149 129v381q0 129 -148 129t-149 -129zM944 811v-516q0 -150 -112 -233q-112 -82 -314 -82q-204 0 -316 82t-112 233v516q0 151 113 233t315 82t314 -82t112 -233z" />
    <glyph glyph-name="otilde" unicode="&#xf5;" 
d="M627 1229q-70 0 -139 43t-87 43q-45 0 -49 -86h-200q2 135 59 213t147 78t158 -43q70 -43 84 -43q43 0 47 88h201q-4 -141 -60 -217t-161 -76zM369 743v-381q0 -129 148 -129t149 129v381q0 129 -148 129t-149 -129zM944 811v-516q0 -150 -112 -233q-112 -82 -314 -82
q-204 0 -316 82t-112 233v516q0 151 113 233t315 82t314 -82t112 -233z" />
    <glyph glyph-name="odieresis" unicode="&#xf6;" 
d="M842 1247h-299v279h299v-279zM408 1247h-299v279h299v-279zM369 743v-381q0 -129 148 -129t149 129v381q0 129 -148 129t-149 -129zM944 811v-516q0 -150 -112 -233q-112 -82 -314 -82q-204 0 -316 82t-112 233v516q0 151 113 233t315 82t314 -82t112 -233z" />
    <glyph glyph-name="divide" unicode="&#xf7;" horiz-adv-x="1052" 
d="M983 694v-237h-913v237h913zM676 807h-297v328h297v-328zM676 0h-297v328h297v-328z" />
    <glyph glyph-name="oslash" unicode="&#xf8;" 
d="M369 743v-208l188 333q-25 4 -39 4q-149 0 -149 -129zM518 233q147 0 148 129v351l-254 -455q36 -25 106 -25zM90 295v516q0 151 113 233t315 82q86 0 172 -20l29 51h194l-69 -123q100 -82 100 -223v-516q0 -150 -112 -233t-314 -82q-135 0 -239 38l-35 -63h-201l96 170
q-49 72 -49 170z" />
    <glyph glyph-name="ugrave" unicode="&#xf9;" horiz-adv-x="1060" 
d="M643 1227h-194l-308 344h328zM946 0h-231l-17 74q-174 -94 -314 -94t-208 76t-67 216v834h278v-752q0 -121 107 -121q63 0 174 58v815h278v-1106z" />
    <glyph glyph-name="uacute" unicode="&#xfa;" horiz-adv-x="1060" 
d="M608 1229h-194l170 342h327zM946 0h-231l-17 74q-174 -94 -314 -94t-208 76t-67 216v834h278v-752q0 -121 107 -121q63 0 174 58v815h278v-1106z" />
    <glyph glyph-name="ucircumflex" unicode="&#xfb;" horiz-adv-x="1058" 
d="M418 1526h207l278 -301h-258l-125 147l-125 -147h-258zM946 0h-231l-17 74q-174 -94 -314 -94t-208 76t-67 216v834h278v-752q0 -121 107 -121q63 0 174 58v815h278v-1106z" />
    <glyph glyph-name="udieresis" unicode="&#xfc;" horiz-adv-x="1060" 
d="M889 1227h-299v278h299v-278zM455 1227h-299v278h299v-278zM946 0h-231l-17 74q-174 -94 -314 -94t-208 76t-67 216v834h278v-752q0 -121 107 -121q63 0 174 58v815h278v-1106z" />
    <glyph glyph-name="yacute" unicode="&#xfd;" horiz-adv-x="1015" 
d="M604 1229h-194l170 342h327zM193 -389q-80 0 -138 14v234q41 -11 107 -11q139 -1 209 168l-355 1090h308l190 -778l191 778h307l-330 -1016q-94 -285 -207 -382t-282 -97z" />
    <glyph glyph-name="thorn" unicode="&#xfe;" horiz-adv-x="1060" 
d="M573 872q-59 0 -180 -63v-516q88 -53 170 -53q123 0 123 145v350q0 137 -113 137zM393 -369h-280v1844h280v-435q158 86 287 86t207 -82t78 -229v-510q0 -147 -81 -233q-80 -86 -228 -86t-263 82v-437z" />
    <glyph glyph-name="ydieresis" unicode="&#xff;" horiz-adv-x="1015" 
d="M887 1227h-299v278h299v-278zM453 1227h-299v278h299v-278zM193 -389q-80 0 -138 14v234q41 -11 107 -11q139 -1 209 168l-355 1090h308l190 -778l191 778h307l-330 -1016q-94 -285 -207 -382t-282 -97z" />
    <glyph glyph-name="Amacron" unicode="&#x100;" horiz-adv-x="1198" 
d="M899 1538h-594v207h594v-207zM598 1165l-162 -612h324zM291 0h-289l426 1475h340l428 -1475h-289l-80 299h-458z" />
    <glyph glyph-name="amacron" unicode="&#x101;" horiz-adv-x="1009" 
d="M788 1231h-593v207h593v-207zM350 297q0 -94 108 -94t165 35v176h-148q-125 0 -125 -97v-20zM63 274v33q0 311 343 311h217v166q0 104 -124 104t-124 -104v-67h-262v114q0 141 101 219t291 76q190 0 293 -76t103 -219v-839h-239l-19 76q-123 -82 -277 -82t-228 74
q-75 74 -75 214z" />
    <glyph glyph-name="Abreve" unicode="&#x102;" horiz-adv-x="1198" 
d="M287 1847h217v-26q0 -106 104 -107q104 0 105 107v26h217v-71q0 -118 -82 -182t-240 -64t-240 63t-81 183v71zM598 1165l-162 -612h324zM291 0h-289l426 1475h340l428 -1475h-289l-80 299h-458z" />
    <glyph glyph-name="abreve" unicode="&#x103;" horiz-adv-x="1009" 
d="M176 1540h217v-27q1 -106 105 -106t104 106v27h217v-72q0 -119 -82 -182q-81 -63 -239 -63t-240 63t-82 182v72zM350 297q0 -94 108 -94t165 35v176h-148q-125 0 -125 -97v-20zM63 274v33q0 311 343 311h217v166q0 104 -124 104t-124 -104v-67h-262v114q0 141 101 219
t291 76q190 0 293 -76t103 -219v-839h-239l-19 76q-123 -82 -277 -82t-228 74q-75 74 -75 214z" />
    <glyph glyph-name="Aogonek" unicode="&#x104;" horiz-adv-x="1198" 
d="M598 1165l-162 -612h324zM819 -279q0 88 53 163t127 116h-92l-80 299h-458l-78 -299h-289l426 1475h340l428 -1475h-55q-125 -143 -125 -244q0 -66 74 -66t127 29l34 -141q-90 -59 -207 -59q-225 -1 -225 202z" />
    <glyph glyph-name="aogonek" unicode="&#x105;" horiz-adv-x="1009" 
d="M350 297q0 -94 108 -94t165 35v176h-148q-125 0 -125 -97v-20zM63 274v33q0 311 343 311h217v166q0 104 -124 104t-124 -104v-67h-262v114q0 141 101 219t291 76q190 0 293 -76t103 -219v-839h-29q-141 -152 -141 -252q0 -82 98 -82q66 0 119 29l35 -125
q-90 -59 -207 -60q-225 0 -225 203q0 94 53 169t131 118h-73l-19 76q-123 -82 -277 -82t-228 74q-75 74 -75 214z" />
    <glyph glyph-name="Cacute" unicode="&#x106;" horiz-adv-x="1134" 
d="M596 1577h-195l170 342h328zM406 367q0 -131 179 -131t179 131v165h272v-233q0 -152 -126 -236q-126 -83 -339 -83t-333 84t-121 235v877q0 152 125 236t339 83q215 0 335 -84t120 -235v-234h-272v166q0 131 -179 131t-179 -131v-741z" />
    <glyph glyph-name="cacute" unicode="&#x107;" horiz-adv-x="1015" 
d="M602 1249h-194l170 342h327zM369 362q0 -129 148 -129t149 129v97h262v-164q0 -150 -108 -233q-108 -82 -306 -82t-312 82q-112 82 -112 233v516q0 151 113 233t311 82t306 -83t108 -232v-168h-262v100q0 129 -149 129t-148 -129v-381z" />
    <glyph glyph-name="Ccircumflex" unicode="&#x108;" horiz-adv-x="1134" 
d="M479 1874h207l279 -301h-258l-125 147l-125 -147h-258zM406 367q0 -131 179 -131t179 131v165h272v-233q0 -152 -126 -236q-126 -83 -339 -83t-333 84t-121 235v877q0 152 125 236t339 83q215 0 335 -84t120 -235v-234h-272v166q0 131 -179 131t-179 -131v-741z" />
    <glyph glyph-name="ccircumflex" unicode="&#x109;" horiz-adv-x="1015" 
d="M414 1546h207l278 -301h-258l-125 148l-125 -148h-258zM369 362q0 -129 148 -129t149 129v97h262v-164q0 -150 -108 -233q-108 -82 -306 -82t-312 82q-112 82 -112 233v516q0 151 113 233t311 82t306 -83t108 -232v-168h-262v100q0 129 -149 129t-148 -129v-381z" />
    <glyph glyph-name="Cdotaccent" unicode="&#x10a;" horiz-adv-x="1134" 
d="M735 1575h-297v328h297v-328zM406 367q0 -131 179 -131t179 131v165h272v-233q0 -152 -126 -236q-126 -83 -339 -83t-333 84t-121 235v877q0 152 125 236t339 83q215 0 335 -84t120 -235v-234h-272v166q0 131 -179 131t-179 -131v-741z" />
    <glyph glyph-name="cdotaccent" unicode="&#x10b;" horiz-adv-x="1015" 
d="M672 1247h-297v328h297v-328zM369 362q0 -129 148 -129t149 129v97h262v-164q0 -150 -108 -233q-108 -82 -306 -82t-312 82q-112 82 -112 233v516q0 151 113 233t311 82t306 -83t108 -232v-168h-262v100q0 129 -149 129t-148 -129v-381z" />
    <glyph glyph-name="Ccaron" unicode="&#x10c;" horiz-adv-x="1134" 
d="M702 1587h-239l-281 328h299l103 -160l100 160h299zM406 367q0 -131 179 -131t179 131v165h272v-233q0 -152 -126 -236q-126 -83 -339 -83t-333 84t-121 235v877q0 152 125 236t339 83q215 0 335 -84t120 -235v-234h-272v166q0 131 -179 131t-179 -131v-741z" />
    <glyph glyph-name="ccaron" unicode="&#x10d;" horiz-adv-x="1015" 
d="M637 1260h-240l-280 327h299l102 -160l100 160h300zM369 362q0 -129 148 -129t149 129v97h262v-164q0 -150 -108 -233q-108 -82 -306 -82t-312 82q-112 82 -112 233v516q0 151 113 233t311 82t306 -83t108 -232v-168h-262v100q0 129 -149 129t-148 -129v-381z" />
    <glyph glyph-name="Dcaron" unicode="&#x10e;" horiz-adv-x="1218" 
d="M731 1548h-239l-281 328h299l102 -160l101 160h299zM571 1235h-149v-995h153q262 0 263 254v487q-1 254 -267 254zM133 0v1475h438q285 0 412 -121t127 -359v-516q0 -251 -125 -365t-410 -114h-442z" />
    <glyph glyph-name="dcaron" unicode="&#x10f;" horiz-adv-x="1185" 
d="M492 240q86 0 172 45v540q-84 47 -172 47q-115 0 -115 -137v-350q0 -145 115 -145zM942 0h-258l-18 63q-118 -77 -262 -77t-225 86t-81 229v514q0 145 81 228t225 83t260 -53v402h278v-1475z" />
    <glyph glyph-name="Dcroat" unicode="&#x110;" horiz-adv-x="1255" 
d="M748 842v-238h-291v-364h157q260 0 260 254v487q0 254 -266 254h-151v-393h291zM170 842v633h438q285 0 412 -121t127 -359v-516q0 -251 -125 -365t-408 -114h-444v604h-147v238h147z" />
    <glyph glyph-name="dcroat" unicode="&#x111;" horiz-adv-x="1054" 
d="M492 240q86 0 172 45v540q-84 47 -172 47q-115 0 -115 -137v-350q0 -145 115 -145zM98 301v514q0 145 81 228t225 83t260 -53v111h-254v205h254v86h278v-86h90v-205h-90v-1184h-258l-18 63q-118 -77 -262 -77t-225 86t-81 229z" />
    <glyph glyph-name="Emacron" unicode="&#x112;" 
d="M856 1538h-594v207h594v-207zM961 238v-238h-828v1475h828v-238h-539v-363h418v-237h-418v-399h539z" />
    <glyph glyph-name="emacron" unicode="&#x113;" horiz-adv-x="1030" 
d="M801 1231h-594v207h594v-207zM369 756v-90h297v90q0 133 -148 133t-149 -133zM369 350q1 -133 149 -133t148 133v19h278v-70q0 -152 -113 -236q-113 -83 -315 -83t-314 84t-112 235v508q0 151 113 235t315 84t314 -84t112 -235v-361h-575v-96z" />
    <glyph glyph-name="Ebreve" unicode="&#x114;" 
d="M244 1847h217v-26q0 -106 104 -107q104 0 105 107v26h217v-71q0 -118 -82 -182t-240 -64q-157 0 -239 63t-82 183v71zM961 238v-238h-828v1475h828v-238h-539v-363h418v-237h-418v-399h539z" />
    <glyph glyph-name="ebreve" unicode="&#x115;" horiz-adv-x="1030" 
d="M186 1540h217v-27q1 -106 105 -106t104 106v27h217v-72q1 -119 -81 -182t-240 -63t-240 63t-82 182v72zM369 756v-90h297v90q0 133 -148 133t-149 -133zM369 350q1 -133 149 -133t148 133v19h278v-70q0 -152 -113 -236q-113 -83 -315 -83t-314 84t-112 235v508
q0 151 113 235t315 84t314 -84t112 -235v-361h-575v-96z" />
    <glyph glyph-name="Edotaccent" unicode="&#x116;" 
d="M717 1554h-297v328h297v-328zM961 238v-238h-828v1475h828v-238h-539v-363h418v-237h-418v-399h539z" />
    <glyph glyph-name="edotaccent" unicode="&#x117;" horiz-adv-x="1030" 
d="M662 1247h-297v328h297v-328zM369 756v-90h297v90q0 133 -148 133t-149 -133zM369 350q1 -133 149 -133t148 133v19h278v-70q0 -152 -113 -236q-113 -83 -315 -83t-314 84t-112 235v508q0 151 113 235t315 84t314 -84t112 -235v-361h-575v-96z" />
    <glyph glyph-name="Eogonek" unicode="&#x118;" 
d="M635 -281q0 88 53 163t127 116h141q-125 -143 -125 -244q0 -66 74 -66t127 29l35 -141q-90 -59 -207 -59q-225 -1 -225 202zM961 238v-238h-828v1475h828v-238h-539v-363h418v-237h-418v-399h539z" />
    <glyph glyph-name="eogonek" unicode="&#x119;" horiz-adv-x="1030" 
d="M369 756v-90h297v90q0 133 -148 133t-149 -133zM285 -279q0 82 43 151t108 112q-166 16 -256 98t-90 217v508q0 151 113 235t315 84t314 -84t112 -235v-361h-575v-96q1 -133 149 -133t148 133v19h278v-70q0 -137 -93 -219t-261 -96q-109 -133 -109 -228q0 -66 74 -66
t127 29l35 -141q-90 -59 -207 -59q-225 -1 -225 202z" />
    <glyph glyph-name="Ecaron" unicode="&#x11a;" 
d="M684 1567h-240l-280 327h299l102 -159l101 159h299zM961 238v-238h-828v1475h828v-238h-539v-363h418v-237h-418v-399h539z" />
    <glyph glyph-name="ecaron" unicode="&#x11b;" horiz-adv-x="1030" 
d="M627 1260h-240l-281 327h300l102 -160l100 160h299zM369 756v-90h297v90q0 133 -148 133t-149 -133zM369 350q1 -133 149 -133t148 133v19h278v-70q0 -152 -113 -236q-113 -83 -315 -83t-314 84t-112 235v508q0 151 113 235t315 84t314 -84t112 -235v-361h-575v-96z" />
    <glyph glyph-name="Gcircumflex" unicode="&#x11c;" horiz-adv-x="1173" 
d="M498 1874h207l278 -301h-258l-125 147l-125 -147h-258zM1069 0h-149l-48 82q-110 -102 -316 -102t-323 84t-116 235v877q0 152 130 236t350 83q220 0 346 -84t126 -235v-234h-272v166q0 131 -196 131t-195 -131v-739q0 -133 192 -133t199 124v181h-195v237h467v-778z" />
    <glyph glyph-name="gcircumflex" unicode="&#x11d;" horiz-adv-x="1052" 
d="M416 1546h207l278 -301h-258l-125 148l-125 -148h-258zM492 240q88 0 170 45v540q-80 47 -170 47q-115 0 -115 -137v-350q0 -145 115 -145zM98 301v514q0 145 81 228t231 83t282 -67l15 55h233v-1163q0 -164 -133 -252t-391 -88q-147 0 -291 27v237q111 -27 260 -27
q276 0 277 183v30q-114 -75 -258 -75t-225 86t-81 229z" />
    <glyph glyph-name="Gbreve" unicode="&#x11e;" horiz-adv-x="1173" 
d="M281 1868h217v-27q0 -106 104 -106t105 106v27h217v-72q0 -119 -82 -182q-82 -64 -240 -64t-240 64t-81 182v72zM1069 0h-149l-48 82q-110 -102 -316 -102t-323 84t-116 235v877q0 152 130 236t350 83q220 0 346 -84t126 -235v-234h-272v166q0 131 -196 131t-195 -131
v-739q0 -133 192 -133t199 124v181h-195v237h467v-778z" />
    <glyph glyph-name="gbreve" unicode="&#x11f;" horiz-adv-x="1052" 
d="M199 1540h217v-27q0 -106 104 -106t105 106v27h217v-72q0 -119 -82 -182t-240 -63t-240 63t-81 182v72zM492 240q88 0 170 45v540q-80 47 -170 47q-115 0 -115 -137v-350q0 -145 115 -145zM98 301v514q0 145 81 228t231 83t282 -67l15 55h233v-1163q0 -164 -133 -252
t-391 -88q-147 0 -291 27v237q111 -27 260 -27q276 0 277 183v30q-114 -75 -258 -75t-225 86t-81 229z" />
    <glyph glyph-name="Gdotaccent" unicode="&#x120;" horiz-adv-x="1173" 
d="M756 1575h-297v328h297v-328zM1069 0h-149l-48 82q-110 -102 -316 -102t-323 84t-116 235v877q0 152 130 236t350 83q220 0 346 -84t126 -235v-234h-272v166q0 131 -196 131t-195 -131v-739q0 -133 192 -133t199 124v181h-195v237h467v-778z" />
    <glyph glyph-name="gdotaccent" unicode="&#x121;" horiz-adv-x="1052" 
d="M674 1247h-297v328h297v-328zM492 240q88 0 170 45v540q-80 47 -170 47q-115 0 -115 -137v-350q0 -145 115 -145zM98 301v514q0 145 81 228t231 83t282 -67l15 55h233v-1163q0 -164 -133 -252t-391 -88q-147 0 -291 27v237q111 -27 260 -27q276 0 277 183v30
q-114 -75 -258 -75t-225 86t-81 229z" />
    <glyph glyph-name="Gcommaaccent" unicode="&#x122;" horiz-adv-x="1173" 
d="M1069 0h-149l-48 82q-110 -102 -316 -102t-323 84t-116 235v877q0 152 130 236t350 83q220 0 346 -84t126 -235v-234h-272v166q0 131 -196 131t-195 -131v-739q0 -133 192 -133t199 124v181h-195v237h467v-778z" />
    <glyph glyph-name="gcommaaccent" unicode="&#x123;" horiz-adv-x="1052" 
d="M492 240q88 0 170 45v540q-80 47 -170 47q-115 0 -115 -137v-350q0 -145 115 -145zM98 301v514q0 145 81 228t231 83t282 -67l15 55h233v-1163q0 -164 -133 -252t-391 -88q-147 0 -291 27v237q111 -27 260 -27q276 0 277 183v30q-114 -75 -258 -75t-225 86t-81 229z" />
    <glyph glyph-name="Hcircumflex" unicode="&#x124;" horiz-adv-x="1263" 
d="M520 1835h207l279 -301h-258l-125 147l-125 -147h-258zM422 0h-289v1475h289v-601h422v601h286v-1475h-286v637h-422v-637z" />
    <glyph glyph-name="hcircumflex" unicode="&#x125;" horiz-adv-x="1060" 
d="M145 1849h207l279 -301h-258l-125 148l-125 -148h-258zM391 0h-278v1475h278v-428q160 79 292 79t200 -76t67 -212v-838h-278v756q0 117 -105 116q-61 0 -176 -57v-815z" />
    <glyph glyph-name="Hbar" unicode="&#x126;" horiz-adv-x="1282" 
d="M430 1081v-207h422v207h-422zM430 0h-289v1081h-114v236h114v158h289v-158h422v158h289v-158h116v-236h-116v-1081h-289v637h-422v-637z" />
    <glyph glyph-name="hbar" unicode="&#x127;" horiz-adv-x="1060" 
d="M393 0h-278v1182h-117v174h117v119h278v-119h199v-174h-199v-135q156 79 289 79t201 -76t67 -212v-838h-276v756q0 117 -107 116q-59 0 -174 -57v-815z" />
    <glyph glyph-name="Itilde" unicode="&#x128;" horiz-adv-x="552" 
d="M393 1554q-71 0 -139 43t-86 43q-45 0 -49 -86h-201q2 135 59 213t147 78t159 -43q70 -43 84 -43q43 0 47 88h200q-4 -141 -60 -217t-161 -76zM422 0h-289v1475h289v-1475z" />
    <glyph glyph-name="itilde" unicode="&#x129;" horiz-adv-x="507" 
d="M371 1227q-70 0 -139 43t-87 43q-45 0 -49 -86h-200q2 135 59 213t147 78t158 -43q70 -43 84 -43q43 0 47 88h201q-4 -141 -60 -217t-161 -76zM393 0h-278v1106h278v-1106z" />
    <glyph glyph-name="Imacron" unicode="&#x12a;" horiz-adv-x="552" 
d="M567 1538h-594v207h594v-207zM422 0h-289v1475h289v-1475z" />
    <glyph glyph-name="imacron" unicode="&#x12b;" horiz-adv-x="507" 
d="M545 1210h-594v207h594v-207zM393 0h-278v1106h278v-1106z" />
    <glyph glyph-name="Ibreve" unicode="&#x12c;" horiz-adv-x="552" 
d="M-45 1847h217v-26q0 -106 104 -107q104 0 105 107v26h217v-71q0 -118 -82 -182t-240 -64t-240 63t-81 183v71zM422 0h-289v1475h289v-1475z" />
    <glyph glyph-name="ibreve" unicode="&#x12d;" horiz-adv-x="507" 
d="M-68 1520h218v-27q0 -106 104 -107q104 0 104 107v27h217v-72q1 -119 -81 -182q-82 -64 -240 -64t-240 64t-82 182v72zM393 0h-278v1106h278v-1106z" />
    <glyph glyph-name="Iogonek" unicode="&#x12e;" horiz-adv-x="552" 
d="M43 -279q0 88 53 163t127 116h-90v1475h289v-1475h-57q-125 -143 -125 -244q0 -66 74 -66t126 29l35 -141q-90 -59 -207 -59q-225 -1 -225 202z" />
    <glyph glyph-name="iogonek" unicode="&#x12f;" horiz-adv-x="505" 
d="M401 1212h-297v328h297v-328zM23 -279q0 88 53 163t127 116h-88v1106h278v-1106h-49q-125 -143 -125 -244q0 -66 74 -66t127 29l35 -141q-90 -59 -207 -59q-225 -1 -225 202z" />
    <glyph glyph-name="Idotaccent" unicode="&#x130;" horiz-adv-x="552" 
d="M428 1554h-297v328h297v-328zM422 0h-289v1475h289v-1475z" />
    <glyph glyph-name="dotlessi" unicode="&#x131;" horiz-adv-x="507" 
d="M393 0h-278v1106h278v-1106z" />
    <glyph glyph-name="IJ" unicode="&#x132;" horiz-adv-x="1703" 
d="M1247 1475h289v-1074q0 -422 -467 -421q-203 0 -323 85t-119 234v262h272v-164q0 -161 174 -161t174 165v1074zM422 0h-289v1475h289v-1475z" />
    <glyph glyph-name="ij" unicode="&#x133;" horiz-adv-x="1028" 
d="M928 1327h-297v328h297v-328zM401 1262h-297v327h297v-327zM393 0h-278v1106h278v-1106zM637 1106h278v-1016q0 -264 -84 -372t-292 -107q-2 0 -95 6v236q45 -4 66 -5q70 0 98 54t29 186v1018z" />
    <glyph glyph-name="Jcircumflex" unicode="&#x134;" horiz-adv-x="1075" 
d="M702 1853h207l279 -301h-258l-125 148l-125 -148h-258zM662 1475h288v-1074q0 -422 -467 -421q-203 0 -323 85t-119 234v262h272v-164q0 -161 174 -161t175 165v1074z" />
    <glyph glyph-name="jcircumflex" unicode="&#x135;" horiz-adv-x="522" 
d="M162 1526h207l278 -301h-258l-125 147l-125 -147h-258zM129 88v1018h279v-1016q0 -264 -84 -372t-293 -107l-94 6v236q45 -4 65 -5q70 0 98 54t29 186z" />
    <glyph glyph-name="Kcommaaccent" unicode="&#x136;" horiz-adv-x="1138" 
d="M807 -111l-133 -405h-211l45 405h299zM422 0h-289v1475h289v-664l385 664h309l-420 -721l443 -754h-324l-393 686v-686z" />
    <glyph glyph-name="kcommaaccent" unicode="&#x137;" horiz-adv-x="948" 
d="M754 -111l-133 -405h-211l45 405h299zM391 0h-278v1475h278v-766l234 397h309l-330 -494l350 -612h-311l-252 463v-463z" />
    <glyph glyph-name="Lacute" unicode="&#x139;" horiz-adv-x="974" 
d="M401 1556h-194l170 342h328zM952 238v-238h-819v1475h289v-1237h530z" />
    <glyph glyph-name="lacute" unicode="&#x13a;" horiz-adv-x="557" 
d="M334 1597h-195l170 342h328zM109 1475h278v-1102q0 -145 94 -146q47 0 78 11v-232q-59 -16 -189 -16t-196 79t-65 257v1149z" />
    <glyph glyph-name="Lcommaaccent" unicode="&#x13b;" horiz-adv-x="974" 
d="M717 -111l-133 -405h-211l45 405h299zM952 238v-238h-819v1475h289v-1237h530z" />
    <glyph glyph-name="lcommaaccent" unicode="&#x13c;" horiz-adv-x="557" 
d="M506 -111l-133 -405h-211l45 405h299zM109 1475h278v-1102q0 -145 94 -146q47 0 78 11v-232q-59 -16 -189 -16t-196 79t-65 257v1149z" />
    <glyph glyph-name="Lcaron" unicode="&#x13d;" horiz-adv-x="1087" 
d="M952 238v-238h-819v1475h289v-1237h530z" />
    <glyph glyph-name="lcaron" unicode="&#x13e;" horiz-adv-x="634" 
d="M109 1475h278v-1102q0 -145 94 -146q47 0 78 11v-232q-59 -16 -189 -16t-196 79t-65 257v1149z" />
    <glyph glyph-name="Ldot" unicode="&#x13f;" horiz-adv-x="1007" 
d="M956 471h-297v328h297v-328zM952 238v-238h-819v1475h289v-1237h530z" />
    <glyph glyph-name="ldot" unicode="&#x140;" horiz-adv-x="835" 
d="M819 471h-297v328h297v-328zM109 1475h278v-1102q0 -145 94 -146q47 0 78 11v-232q-59 -16 -189 -16t-196 79t-65 257v1149z" />
    <glyph glyph-name="Lslash" unicode="&#x141;" horiz-adv-x="1013" 
d="M172 1475h289v-572l293 182v-288l-293 -183v-376h530v-238h-819v434l-147 -90v291l147 90v750z" />
    <glyph glyph-name="lslash" unicode="&#x142;" horiz-adv-x="806" 
d="M262 1475h279v-531l227 141v-288l-227 -142v-282q0 -145 94 -146q47 0 78 11v-232q-59 -16 -189 -16t-196 79t-66 257v155l-223 -137v291l223 137v703z" />
    <glyph glyph-name="Nacute" unicode="&#x143;" horiz-adv-x="1288" 
d="M754 1556h-195l170 342h328zM1157 0h-235l-537 913l2 -65v-848h-254v1475h234l536 -910l-2 84v826h256v-1475z" />
    <glyph glyph-name="nacute" unicode="&#x144;" horiz-adv-x="1060" 
d="M639 1249h-195l170 342h328zM680 1126q135 0 203 -76t67 -212v-838h-278v756q0 117 -105 116q-61 0 -176 -57v-815h-278v1114h233l23 -78q176 90 311 90z" />
    <glyph glyph-name="Ncommaaccent" unicode="&#x145;" horiz-adv-x="1288" 
d="M1038 -111l-133 -405h-211l45 405h299zM1157 0h-235l-537 913l2 -65v-848h-254v1475h234l536 -910l-2 84v826h256v-1475z" />
    <glyph glyph-name="ncommaaccent" unicode="&#x146;" horiz-adv-x="1060" 
d="M702 -111l-133 -405h-211l45 405h299zM680 1126q135 0 203 -76t67 -212v-838h-278v756q0 117 -105 116q-61 0 -176 -57v-815h-278v1114h233l23 -78q176 90 311 90z" />
    <glyph glyph-name="Ncaron" unicode="&#x147;" horiz-adv-x="1288" 
d="M788 1567h-239l-281 327h299l103 -159l100 159h299zM1157 0h-235l-537 913l2 -65v-848h-254v1475h234l536 -910l-2 84v826h256v-1475z" />
    <glyph glyph-name="ncaron" unicode="&#x148;" horiz-adv-x="1060" 
d="M672 1260h-240l-280 327h299l102 -160l100 160h299zM680 1126q135 0 203 -76t67 -212v-838h-278v756q0 117 -105 116q-61 0 -176 -57v-815h-278v1114h233l23 -78q176 90 311 90z" />
    <glyph glyph-name="napostrophe" unicode="&#x149;" horiz-adv-x="1060" 
d="M698 -86l-133 -406h-211l45 406h299zM680 1126q135 0 203 -76t67 -212v-838h-278v756q0 117 -105 116q-61 0 -176 -57v-815h-278v1114h233l23 -78q176 90 311 90z" />
    <glyph glyph-name="Omacron" unicode="&#x14c;" horiz-adv-x="1202" 
d="M893 1559h-594v206h594v-206zM601 1239q-101 0 -148 -37t-47 -119v-692q0 -82 47 -119q47 -36 148 -36t150 36q48 37 48 119v692q0 82 -48 119q-49 37 -150 37zM601 1495q226 0 356 -90t130 -250v-836q0 -159 -130 -249t-356 -90t-355 90t-129 249v836q0 160 129 250
t355 90z" />
    <glyph glyph-name="omacron" unicode="&#x14d;" 
d="M766 1231h-594v207h594v-207zM369 743v-381q0 -129 148 -129t149 129v381q0 129 -148 129t-149 -129zM944 811v-516q0 -150 -112 -233q-112 -82 -314 -82q-204 0 -316 82t-112 233v516q0 151 113 233t315 82t314 -82t112 -233z" />
    <glyph glyph-name="Obreve" unicode="&#x14e;" horiz-adv-x="1202" 
d="M281 1868h217v-27q0 -106 104 -106t105 106v27h217v-72q0 -119 -82 -182q-82 -64 -240 -64t-240 64t-81 182v72zM601 1239q-101 0 -148 -37t-47 -119v-692q0 -82 47 -119q47 -36 148 -36t150 36q48 37 48 119v692q0 82 -48 119q-49 37 -150 37zM601 1495q226 0 356 -90
t130 -250v-836q0 -159 -130 -249t-356 -90t-355 90t-129 249v836q0 160 129 250t355 90z" />
    <glyph glyph-name="obreve" unicode="&#x14f;" 
d="M154 1540h217v-27q0 -106 104 -106t105 106v27h217v-72q0 -119 -82 -182t-240 -63q-157 0 -239 63t-82 182v72zM369 743v-381q0 -129 148 -129t149 129v381q0 129 -148 129t-149 -129zM944 811v-516q0 -150 -112 -233q-112 -82 -314 -82q-204 0 -316 82t-112 233v516
q0 151 113 233t315 82t314 -82t112 -233z" />
    <glyph glyph-name="Ohungarumlaut" unicode="&#x150;" horiz-adv-x="1202" 
d="M891 1577h-195l170 342h328zM514 1577h-195l170 342h328zM601 1239q-101 0 -148 -37t-47 -119v-692q0 -82 47 -119q47 -36 148 -36t150 36q48 37 48 119v692q0 82 -48 119q-49 37 -150 37zM601 1495q226 0 356 -90t130 -250v-836q0 -159 -130 -249t-356 -90t-355 90
t-129 249v836q0 160 129 250t355 90z" />
    <glyph glyph-name="ohungarumlaut" unicode="&#x151;" 
d="M764 1249h-195l170 342h328zM387 1249h-194l169 342h328zM369 743v-381q0 -129 148 -129t149 129v381q0 129 -148 129t-149 -129zM944 811v-516q0 -150 -112 -233q-112 -82 -314 -82q-204 0 -316 82t-112 233v516q0 151 113 233t315 82t314 -82t112 -233z" />
    <glyph glyph-name="OE" unicode="&#x152;" horiz-adv-x="1699" 
d="M602 1239q-102 0 -149 -37t-47 -119v-692q0 -82 47 -119q47 -36 148 -36t150 36q48 37 48 119v709q-9 139 -197 139zM1626 238v-238h-827v16q-82 -37 -197 -36q-227 0 -356 90t-129 249v836q0 160 129 250t356 90q115 0 197 -37v17h827v-238h-539v-363h420v-237h-420
v-399h539z" />
    <glyph glyph-name="oe" unicode="&#x153;" horiz-adv-x="1554" 
d="M944 811v-145h248v90q0 133 -150 133q-68 0 -102 -27q4 -33 4 -51zM369 743v-381q0 -129 149 -129q63 0 100 25l-2 41v508l2 41q-37 25 -100 24q-149 0 -149 -129zM1470 446h-526v-151q0 -20 -4 -53q37 -25 102 -25q150 0 150 133v19h278v-70q0 -152 -112 -236
q-112 -83 -292 -83q-178 0 -286 51q-106 -51 -286 -51t-292 82t-112 233v516q0 151 113 233t294 82t283 -53q106 53 286 53t292 -84q113 -84 112 -235v-361z" />
    <glyph glyph-name="Racute" unicode="&#x154;" horiz-adv-x="1150" 
d="M737 1556h-194l170 342h327zM549 1237h-127v-473h123q193 0 192 174v119q0 180 -188 180zM422 0h-289v1475h406q255 -1 371 -103t116 -299v-182q0 -242 -205 -322l338 -569h-323l-295 526h-119v-526z" />
    <glyph glyph-name="racute" unicode="&#x155;" horiz-adv-x="897" 
d="M586 1249h-195l170 342h328zM877 610h-279v193q0 78 -63 78q-70 0 -144 -64v-817h-278v1114h235l17 -94q135 106 290 106q221 0 222 -268v-248z" />
    <glyph glyph-name="Rcommaaccent" unicode="&#x156;" horiz-adv-x="1150" 
d="M766 -111l-133 -405h-211l45 405h299zM549 1237h-127v-473h123q193 0 192 174v119q0 180 -188 180zM422 0h-289v1475h406q255 -1 371 -103t116 -299v-182q0 -242 -205 -322l338 -569h-323l-295 526h-119v-526z" />
    <glyph glyph-name="rcommaaccent" unicode="&#x157;" horiz-adv-x="897" 
d="M469 -111l-133 -405h-211l45 405h299zM877 610h-279v193q0 78 -63 78q-70 0 -144 -64v-817h-278v1114h235l17 -94q135 106 290 106q221 0 222 -268v-248z" />
    <glyph glyph-name="Rcaron" unicode="&#x158;" horiz-adv-x="1150" 
d="M549 1237h-127v-473h123q193 0 192 174v119q0 180 -188 180zM764 1567h-240l-280 327h299l102 -159l100 159h299zM422 0h-289v1475h406q255 -1 371 -103t116 -299v-182q0 -242 -205 -322l338 -569h-323l-295 526h-119v-526z" />
    <glyph glyph-name="rcaron" unicode="&#x159;" horiz-adv-x="894" 
d="M618 1260h-239l-281 327h299l103 -160l100 160h299zM877 610h-279v193q0 78 -63 78q-70 0 -144 -64v-817h-278v1114h235l17 -94q135 106 290 106q221 0 222 -268v-248z" />
    <glyph glyph-name="Sacute" unicode="&#x15a;" horiz-adv-x="1071" 
d="M641 1577h-195l170 342h328zM999 455v-68q0 -215 -105 -311t-316 -96h-97q-199 0 -300 70t-101 229v190h280v-88q0 -88 30 -117t102 -28h77q76 0 110 28t34 123v80q0 111 -138 137l-155 33q-172 35 -246 126t-74 288v73q0 182 104 276t302 95h37q195 0 305 -79t110 -220
v-152h-282v82q0 70 -30 100t-97 29h-39q-68 1 -96 -31t-27 -118v-45q0 -82 24 -113t99 -47l135 -31q209 -48 281 -134t73 -281z" />
    <glyph glyph-name="sacute" unicode="&#x15b;" horiz-adv-x="983" 
d="M584 1249h-195l170 342h328zM915 369v-50q1 -184 -109 -262t-323 -77q-416 0 -415 274v115h262v-68q0 -49 37 -67t119 -17t123 21q42 20 42 79v39q0 36 -33 56t-116 30l-133 19q-166 20 -224 92q-57 72 -57 244v43q0 141 103 214q103 72 297 72t300 -70t107 -200v-104
h-262v73q0 80 -142 80t-143 -80v-28q0 -51 29 -71t106 -32l119 -18q186 -27 250 -91t63 -216z" />
    <glyph glyph-name="Scircumflex" unicode="&#x15c;" horiz-adv-x="1071" 
d="M451 1874h206l279 -301h-258l-125 147l-125 -147h-258zM999 455v-68q0 -215 -105 -311t-316 -96h-97q-199 0 -300 70t-101 229v190h280v-88q0 -88 30 -117t102 -28h77q76 0 110 28t34 123v80q0 111 -138 137l-155 33q-172 35 -246 126t-74 288v73q0 182 104 276t302 95
h37q195 0 305 -79t110 -220v-152h-282v82q0 70 -30 100t-97 29h-39q-68 1 -96 -31t-27 -118v-45q0 -82 24 -113t99 -47l135 -31q209 -48 281 -134t73 -281z" />
    <glyph glyph-name="scircumflex" unicode="&#x15d;" horiz-adv-x="983" 
d="M393 1546h207l279 -301h-258l-125 148l-125 -148h-258zM915 369v-50q1 -184 -109 -262t-323 -77q-416 0 -415 274v115h262v-68q0 -49 37 -67t119 -17t123 21q42 20 42 79v39q0 36 -33 56t-116 30l-133 19q-166 20 -224 92q-57 72 -57 244v43q0 141 103 214q103 72 297 72
t300 -70t107 -200v-104h-262v73q0 80 -142 80t-143 -80v-28q0 -51 29 -71t106 -32l119 -18q186 -27 250 -91t63 -216z" />
    <glyph glyph-name="Scedilla" unicode="&#x15e;" horiz-adv-x="1071" 
d="M999 455v-68q0 -188 -80 -285q-81 -96 -241 -116v-68h18q188 0 189 -172q0 -102 -68 -144t-221 -42h-119v131h121q63 0 85 12t22 45v8q-1 35 -19 48t-72 14h-75v162h-58q-199 0 -300 70t-101 229v190h280v-88q0 -88 30 -117t102 -28h77q76 0 110 28t34 123v80
q0 111 -138 137l-155 33q-172 35 -246 126t-74 288v73q0 182 104 276t302 95h37q195 0 305 -79t110 -220v-152h-282v82q0 70 -30 100t-97 29h-39q-68 1 -96 -31t-27 -118v-45q0 -82 24 -113t99 -47l135 -31q209 -48 281 -134t73 -281z" />
    <glyph glyph-name="scedilla" unicode="&#x15f;" horiz-adv-x="983" 
d="M915 369v-50q0 -182 -105 -259t-310 -80v-68h18q188 0 189 -172q0 -102 -68 -144t-221 -42h-119v131h121q63 0 85 12t21 45v8q0 35 -18 48t-72 14h-76v176q-293 33 -292 266v115h262v-68q0 -49 37 -67t119 -17t123 21q42 20 42 79v39q0 36 -33 56t-116 30l-133 19
q-166 20 -224 92q-57 72 -57 244v43q0 141 103 214q103 72 297 72t300 -70t107 -200v-104h-262v73q0 80 -142 80t-143 -80v-28q0 -51 29 -71t106 -32l119 -18q186 -27 250 -91t63 -216z" />
    <glyph glyph-name="Scaron" unicode="&#x160;" horiz-adv-x="1071" 
d="M674 1587h-240l-280 328h299l102 -160l100 160h299zM999 455v-68q0 -215 -105 -311t-316 -96h-97q-199 0 -300 70t-101 229v190h280v-88q0 -88 30 -117t102 -28h77q76 0 110 28t34 123v80q0 111 -138 137l-155 33q-172 35 -246 126t-74 288v73q0 182 104 276t302 95h37
q195 0 305 -79t110 -220v-152h-282v82q0 70 -30 100t-97 29h-39q-68 1 -96 -31t-27 -118v-45q0 -82 24 -113t99 -47l135 -31q209 -48 281 -134t73 -281z" />
    <glyph glyph-name="scaron" unicode="&#x161;" horiz-adv-x="983" 
d="M616 1260h-239l-281 327h299l103 -160l100 160h299zM915 369v-50q1 -184 -109 -262t-323 -77q-416 0 -415 274v115h262v-68q0 -49 37 -67t119 -17t123 21q42 20 42 79v39q0 36 -33 56t-116 30l-133 19q-166 20 -224 92q-57 72 -57 244v43q0 141 103 214q103 72 297 72
t300 -70t107 -200v-104h-262v73q0 80 -142 80t-143 -80v-28q0 -51 29 -71t106 -32l119 -18q186 -27 250 -91t63 -216z" />
    <glyph glyph-name="Tcommaaccent" unicode="&#x162;" horiz-adv-x="980" 
d="M664 -111l-134 -405h-211l46 405h299zM637 0h-289v1237h-321v238h927v-238h-317v-1237z" />
    <glyph glyph-name="tcommaaccent" unicode="&#x163;" horiz-adv-x="733" 
d="M561 -111l-133 -405h-211l45 405h299zM37 887v219h123v246h278v-246h230v-219h-230v-500q0 -88 35 -127t113 -39t123 19v-230q-61 -20 -195 -20q-354 0 -354 338v559h-123z" />
    <glyph glyph-name="Tcaron" unicode="&#x164;" horiz-adv-x="980" 
d="M610 1567h-239l-281 327h299l103 -159l100 159h299zM637 0h-289v1237h-321v238h927v-238h-317v-1237z" />
    <glyph glyph-name="tcaron" unicode="&#x165;" horiz-adv-x="733" 
d="M37 887v219h123v246h278v-246h230v-219h-230v-500q0 -88 35 -127t113 -39t123 19v-230q-61 -20 -195 -20q-354 0 -354 338v559h-123z" />
    <glyph glyph-name="Tbar" unicode="&#x166;" horiz-adv-x="1009" 
d="M584 0h-289v666h-213v237h213v334h-322v238h930v-238h-319v-334h223v-237h-223v-666z" />
    <glyph glyph-name="tbar" unicode="&#x167;" horiz-adv-x="765" 
d="M70 887v219h123v246h278v-246h229v-219h-229v-86h225v-219h-225v-195q0 -88 35 -127q34 -39 112 -39t123 19v-230q-61 -20 -194 -20q-354 0 -354 338v254h-127v219h127v86h-123z" />
    <glyph glyph-name="Utilde" unicode="&#x168;" horiz-adv-x="1222" 
d="M727 1554q-71 0 -139 43t-86 43q-45 0 -49 -86h-201q2 135 59 213t147 78t158 -43q70 -43 84 -43q44 0 48 88h200q-4 -141 -60 -217t-161 -76zM807 1475h289v-1110q0 -181 -130 -283t-354 -102t-356 102q-131 102 -131 283v1110h289v-1055q0 -184 196 -184t197 184v1055z
" />
    <glyph glyph-name="utilde" unicode="&#x169;" horiz-adv-x="1060" 
d="M702 1227q-70 0 -138 43t-87 43q-45 0 -49 -86h-201q1 135 59 213t147 78t159 -43t84 -43q43 0 47 88h201q-4 -141 -60 -217t-162 -76zM946 0h-231l-17 74q-174 -94 -314 -94t-208 76t-67 216v834h278v-752q0 -121 107 -121q63 0 174 58v815h278v-1106z" />
    <glyph glyph-name="Umacron" unicode="&#x16a;" horiz-adv-x="1222" 
d="M903 1538h-594v207h594v-207zM807 1475h289v-1110q0 -181 -130 -283t-354 -102t-356 102q-131 102 -131 283v1110h289v-1055q0 -184 196 -184t197 184v1055z" />
    <glyph glyph-name="umacron" unicode="&#x16b;" horiz-adv-x="1060" 
d="M815 1210h-594v207h594v-207zM946 0h-231l-17 74q-174 -94 -314 -94t-208 76t-67 216v834h278v-752q0 -121 107 -121q63 0 174 58v815h278v-1106z" />
    <glyph glyph-name="Ubreve" unicode="&#x16c;" horiz-adv-x="1222" 
d="M291 1847h217v-26q0 -106 104 -107q104 0 105 107v26h217v-71q0 -118 -82 -182t-240 -64t-240 63t-81 183v71zM807 1475h289v-1110q0 -181 -130 -283t-354 -102t-356 102q-131 102 -131 283v1110h289v-1055q0 -184 196 -184t197 184v1055z" />
    <glyph glyph-name="ubreve" unicode="&#x16d;" horiz-adv-x="1060" 
d="M201 1520h217v-27q0 -106 104 -107q104 0 105 107v27h217v-72q0 -119 -82 -182q-82 -64 -240 -64t-240 64t-81 182v72zM946 0h-231l-17 74q-174 -94 -314 -94t-208 76t-67 216v834h278v-752q0 -121 107 -121q63 0 174 58v815h278v-1106z" />
    <glyph glyph-name="Uring" unicode="&#x16e;" horiz-adv-x="1222" 
d="M518 1812q0 -94 92 -94t92 94v9q0 90 -92 90t-92 -90v-9zM881 1870v-109q-1 -193 -271 -193t-270 193v109q0 193 270 193t271 -193zM807 1475h289v-1110q0 -181 -130 -283t-354 -102t-356 102q-131 102 -131 283v1110h289v-1055q0 -184 196 -184t197 184v1055z" />
    <glyph glyph-name="uring" unicode="&#x16f;" horiz-adv-x="1060" 
d="M494 1485q0 -94 92 -94t92 94v8q0 90 -92 90t-92 -90v-8zM856 1542v-108q0 -193 -270 -193t-271 193v108q1 193 271 193t270 -193zM946 0h-231l-17 74q-174 -94 -314 -94t-208 76t-67 216v834h278v-752q0 -121 107 -121q63 0 174 58v815h278v-1106z" />
    <glyph glyph-name="Uhungarumlaut" unicode="&#x170;" horiz-adv-x="1222" 
d="M899 1556h-194l169 342h328zM522 1556h-194l170 342h327zM807 1475h289v-1110q0 -181 -130 -283t-354 -102t-356 102q-131 102 -131 283v1110h289v-1055q0 -184 196 -184t197 184v1055z" />
    <glyph glyph-name="uhungarumlaut" unicode="&#x171;" horiz-adv-x="1060" 
d="M811 1229h-195l170 342h328zM434 1229h-194l170 342h327zM946 0h-231l-17 74q-174 -94 -314 -94t-208 76t-67 216v834h278v-752q0 -121 107 -121q63 0 174 58v815h278v-1106z" />
    <glyph glyph-name="Uogonek" unicode="&#x172;" horiz-adv-x="1222" 
d="M412 -279q0 156 147 261q-203 10 -319 111t-115 272v1110h289v-1055q0 -184 196 -184t197 184v1055h289v-1110q0 -158 -100 -256t-275 -121q-113 -135 -113 -232q0 -66 74 -66t127 29l35 -141q-90 -59 -207 -59q-225 -1 -225 202z" />
    <glyph glyph-name="uogonek" unicode="&#x173;" horiz-adv-x="1060" 
d="M946 0h-4q-141 -152 -141 -260q0 -82 98 -82q66 0 119 29l35 -125q-90 -59 -207 -60q-225 0 -225 203q0 94 54 173t130 122h-90l-17 74q-174 -94 -314 -94t-208 76t-67 216v834h278v-752q0 -121 107 -121q63 0 174 58v815h278v-1106z" />
    <glyph glyph-name="Wcircumflex" unicode="&#x174;" horiz-adv-x="1683" 
d="M737 1853h207l279 -301h-258l-125 148l-125 -148h-258zM1364 1475h283l-265 -1475h-329l-211 1040l-211 -1040h-330l-264 1475h282l160 -1170l230 1170h264l229 -1172z" />
    <glyph glyph-name="wcircumflex" unicode="&#x175;" horiz-adv-x="1495" 
d="M643 1526h207l278 -301h-258l-125 147l-124 -147h-259zM27 1106h290l138 -811l151 811h281l151 -813l142 813h290l-272 -1106h-295l-155 778l-156 -778h-297z" />
    <glyph glyph-name="Ycircumflex" unicode="&#x176;" horiz-adv-x="1120" 
d="M453 1853h206l279 -301h-258l-125 148l-125 -148h-258zM705 0h-289v512l-406 963h305l244 -674l246 674h303l-403 -957v-518z" />
    <glyph glyph-name="ycircumflex" unicode="&#x177;" horiz-adv-x="1015" 
d="M416 1526h207l278 -301h-258l-125 147l-125 -147h-258zM193 -389q-80 0 -138 14v234q41 -11 107 -11q139 -1 209 168l-355 1090h308l190 -778l191 778h307l-330 -1016q-94 -285 -207 -382t-282 -97z" />
    <glyph glyph-name="Ydieresis" unicode="&#x178;" horiz-adv-x="1120" 
d="M924 1554h-299v279h299v-279zM489 1554h-299v279h299v-279zM705 0h-289v512l-406 963h305l244 -674l246 674h303l-403 -957v-518z" />
    <glyph glyph-name="Zacute" unicode="&#x179;" horiz-adv-x="1032" 
d="M530 1556h-194l170 342h328zM80 1237v238h868v-207l-563 -1030h602v-238h-942v207l576 1030h-541z" />
    <glyph glyph-name="zacute" unicode="&#x17a;" horiz-adv-x="909" 
d="M506 1229h-195l170 342h328zM82 887v219h758v-199l-492 -688h512v-219h-819v199l479 688h-438z" />
    <glyph glyph-name="Zdotaccent" unicode="&#x17b;" horiz-adv-x="1032" 
d="M598 1554h-297v328h297v-328zM80 1237v238h868v-207l-563 -1030h602v-238h-942v207l576 1030h-541z" />
    <glyph glyph-name="zdotaccent" unicode="&#x17c;" horiz-adv-x="909" 
d="M575 1227h-296v327h296v-327zM82 887v219h758v-199l-492 -688h512v-219h-819v199l479 688h-438z" />
    <glyph glyph-name="Zcaron" unicode="&#x17d;" horiz-adv-x="1032" 
d="M565 1567h-239l-281 327h299l102 -159l101 159h299zM80 1237v238h868v-207l-563 -1030h602v-238h-942v207l576 1030h-541z" />
    <glyph glyph-name="zcaron" unicode="&#x17e;" horiz-adv-x="909" 
d="M541 1239h-240l-281 328h299l103 -160l100 160h299zM82 887v219h758v-199l-492 -688h512v-219h-819v199l479 688h-438z" />
    <glyph glyph-name="florin" unicode="&#x192;" horiz-adv-x="645" 
d="M430 1219v-113h184v-219h-184v-1096q0 -151 -95 -237t-267 -86q-113 0 -172 20v238q51 -20 139 -21q119 0 119 105v1077h-103v219h103v127q0 155 95 239t267 84q117 0 172 -20v-238q-51 20 -139 21q-119 0 -119 -100z" />
    <glyph glyph-name="AEacute" unicode="&#x1fc;" horiz-adv-x="1748" 
d="M1049 1571h-195l170 342h328zM846 551v588l-285 -588h285zM1673 1475v-238h-538v-363h419v-237h-419v-399h538v-238h-827v313h-402l-151 -313h-305l741 1475h944z" />
    <glyph glyph-name="aeacute" unicode="&#x1fd;" horiz-adv-x="1562" 
d="M891 1233h-195l170 342h328zM467 184q92 0 156 21v162q-57 31 -162 31t-105 -97v-20q0 -97 111 -97zM901 756v-90h297v90q0 133 -148 133t-149 -133zM113 717v114q0 141 100 219t292 76q192 0 296 -82q91 82 271 82t292 -84t113 -235v-361h-576v-110q6 -119 152 -119
t145 133v19h279v-70q0 -152 -113 -236q-113 -83 -301 -83t-279 94q-178 -94 -401 -94q-158 0 -244 76t-86 218v33q0 141 87 218q86 77 230 77t253 -49v215q0 121 -124 121t-124 -121v-51h-262z" />
    <glyph glyph-name="Oslashacute" unicode="&#x1fe;" horiz-adv-x="1202" 
d="M694 1577h-194l170 342h327zM612 1239q-112 0 -159 -37t-47 -119v-553l364 652q-46 57 -158 57zM602 236q100 0 149 36q48 37 48 119v594l-377 -676q39 -73 180 -73zM582 1495q206 0 329 -63l50 88h135l-88 -158q80 -86 79 -207v-836q0 -159 -130 -249t-342 -90t-339 69
l-47 -84h-141l92 164q-63 76 -63 190v836q0 160 129 250q130 90 336 90z" />
    <glyph glyph-name="oslashacute" unicode="&#x1ff;" 
d="M369 743v-208l188 333q-25 4 -39 4q-149 0 -149 -129zM518 233q147 0 148 129v351l-254 -455q36 -25 106 -25zM559 1249h-194l170 342h327zM90 295v516q0 151 113 233t315 82q86 0 172 -20l29 51h194l-69 -123q100 -82 100 -223v-516q0 -150 -112 -233t-314 -82
q-135 0 -239 38l-35 -63h-201l96 170q-49 72 -49 170z" />
    <glyph glyph-name="Scommaaccent" unicode="&#x218;" horiz-adv-x="1071" 
d="M999 455v-68q0 -215 -105 -311t-316 -96h-97q-199 0 -300 70t-101 229v190h280v-88q0 -88 30 -117t102 -28h77q76 0 110 28t34 123v80q0 111 -138 137l-155 33q-172 35 -246 126t-74 288v73q0 182 104 276t302 95h37q195 0 305 -79t110 -220v-152h-282v82q0 70 -30 100
t-97 29h-39q-68 1 -96 -31t-27 -118v-45q0 -82 24 -113t99 -47l135 -31q209 -48 281 -134t73 -281z" />
    <glyph glyph-name="scommaaccent" unicode="&#x219;" horiz-adv-x="983" 
d="M668 -111l-133 -405h-211l45 405h299zM915 369v-50q1 -184 -109 -262t-323 -77q-416 0 -415 274v115h262v-68q0 -49 37 -67t119 -17t123 21q42 20 42 79v39q0 36 -33 56t-116 30l-133 19q-166 20 -224 92q-57 72 -57 244v43q0 141 103 214q103 72 297 72t300 -70
t107 -200v-104h-262v73q0 80 -142 80t-143 -80v-28q0 -51 29 -71t106 -32l119 -18q186 -27 250 -91t63 -216z" />
    <glyph glyph-name="dotlessj" unicode="&#x237;" horiz-adv-x="522" 
d="M129 88v1018h279v-1016q0 -264 -84 -372t-293 -107l-94 6v236q45 -4 65 -5q70 0 98 54t29 186z" />
    <glyph glyph-name="circumflex" unicode="&#x2c6;" horiz-adv-x="1073" 
d="M428 1425h207l278 -301h-258l-125 148l-124 -148h-259z" />
    <glyph glyph-name="caron" unicode="&#x2c7;" horiz-adv-x="1116" 
d="M651 1139h-239l-281 327h299l102 -159l101 159h299z" />
    <glyph glyph-name="uni02C9" unicode="&#x2c9;" horiz-adv-x="454" 
 />
    <glyph glyph-name="breve" unicode="&#x2d8;" horiz-adv-x="821" 
d="M84 1470h217v-26q0 -106 105 -107q104 0 104 107v26h217v-71q0 -119 -82 -182q-81 -63 -239 -63t-240 62q-82 64 -82 183v71z" />
    <glyph glyph-name="dotaccent" unicode="&#x2d9;" horiz-adv-x="643" 
d="M418 1167h-297v328h297v-328z" />
    <glyph glyph-name="ring" unicode="&#x2da;" horiz-adv-x="784" 
d="M311 1233q0 -94 95 -94q90 0 90 94v8q0 90 -92 90t-93 -90v-8zM674 1290v-108q0 -193 -270 -193t-271 193v108q1 193 271 193t270 -193z" />
    <glyph glyph-name="ogonek" unicode="&#x2db;" horiz-adv-x="1708" 
d="M119 -279q0 88 53 163t127 116h141q-125 -143 -125 -244q0 -66 74 -66t127 29l35 -141q-90 -59 -207 -59q-225 -1 -225 202z" />
    <glyph glyph-name="tilde" unicode="&#x2dc;" horiz-adv-x="892" 
d="M344 1264q-45 0 -49 -86h-201q2 135 60 213q58 77 146 77q89 0 159 -43t84 -43q43 0 47 88h201q-5 -141 -61 -217t-161 -75q-71 0 -139 43t-86 43z" />
    <glyph glyph-name="hungarumlaut" unicode="&#x2dd;" horiz-adv-x="1130" 
d="M780 1128h-192l168 342h329zM406 1128h-195l170 342h328z" />
    <glyph glyph-name="uni03A9" unicode="&#x3a9;" horiz-adv-x="1204" 
 />
    <glyph glyph-name="Wgrave" unicode="&#x1e80;" horiz-adv-x="1683" 
d="M963 1554h-195l-307 344h327zM1364 1475h283l-265 -1475h-329l-211 1040l-211 -1040h-330l-264 1475h282l160 -1170l230 1170h264l229 -1172z" />
    <glyph glyph-name="wgrave" unicode="&#x1e81;" horiz-adv-x="1495" 
d="M868 1227h-194l-307 344h327zM27 1106h290l138 -811l151 811h281l151 -813l142 813h290l-272 -1106h-295l-155 778l-156 -778h-297z" />
    <glyph glyph-name="Wacute" unicode="&#x1e82;" horiz-adv-x="1683" 
d="M926 1556h-195l170 342h328zM1364 1475h283l-265 -1475h-329l-211 1040l-211 -1040h-330l-264 1475h282l160 -1170l230 1170h264l229 -1172z" />
    <glyph glyph-name="wacute" unicode="&#x1e83;" horiz-adv-x="1495" 
d="M834 1229h-195l170 342h328zM27 1106h290l138 -811l151 811h281l151 -813l142 813h290l-272 -1106h-295l-155 778l-156 -778h-297z" />
    <glyph glyph-name="Wdieresis" unicode="&#x1e84;" horiz-adv-x="1683" 
d="M1208 1554h-299v279h299v-279zM774 1554h-299v279h299v-279zM1364 1475h283l-265 -1475h-329l-211 1040l-211 -1040h-330l-264 1475h282l160 -1170l230 1170h264l229 -1172z" />
    <glyph glyph-name="wdieresis" unicode="&#x1e85;" horiz-adv-x="1495" 
d="M1114 1227h-299v278h299v-278zM680 1227h-299v278h299v-278zM27 1106h290l138 -811l151 811h281l151 -813l142 813h290l-272 -1106h-295l-155 778l-156 -778h-297z" />
    <glyph glyph-name="Ygrave" unicode="&#x1ef2;" horiz-adv-x="1120" 
d="M680 1554h-195l-307 344h328zM705 0h-289v512l-406 963h305l244 -674l246 674h303l-403 -957v-518z" />
    <glyph glyph-name="ygrave" unicode="&#x1ef3;" horiz-adv-x="1015" 
d="M641 1227h-195l-307 344h328zM193 -389q-80 0 -138 14v234q41 -11 107 -11q139 -1 209 168l-355 1090h308l190 -778l191 778h307l-330 -1016q-94 -285 -207 -382t-282 -97z" />
    <glyph glyph-name="thinspace" unicode="&#x2009;" horiz-adv-x="40" 
 />
    <glyph glyph-name="uni2010" unicode="&#x2010;" horiz-adv-x="645" 
 />
    <glyph glyph-name="endash" unicode="&#x2013;" horiz-adv-x="1011" 
d="M911 874v-237h-811v237h811z" />
    <glyph glyph-name="emdash" unicode="&#x2014;" horiz-adv-x="1114" 
d="M1014 874v-237h-914v237h914z" />
    <glyph glyph-name="quoteleft" unicode="&#x2018;" horiz-adv-x="509" 
d="M270 1475h189l-62 -551h-331z" />
    <glyph glyph-name="quoteright" unicode="&#x2019;" horiz-adv-x="512" 
d="M242 924h-189l62 551h331z" />
    <glyph glyph-name="quotesinglbase" unicode="&#x201a;" horiz-adv-x="514" 
d="M242 -221h-189l62 551h331z" />
    <glyph glyph-name="quotedblleft" unicode="&#x201c;" horiz-adv-x="890" 
d="M651 1475h189l-62 -551h-332zM270 1475h189l-62 -551h-331z" />
    <glyph glyph-name="quotedblright" unicode="&#x201d;" horiz-adv-x="890" 
d="M623 924h-189l62 551h331zM242 924h-189l62 551h331z" />
    <glyph glyph-name="quotedblbase" unicode="&#x201e;" horiz-adv-x="892" 
d="M623 -221h-189l62 551h331zM242 -221h-189l62 551h331z" />
    <glyph glyph-name="dagger" unicode="&#x2020;" horiz-adv-x="1112" 
d="M680 -369h-246v1239h-350v236h350v369h246v-369h350v-236h-350v-1239z" />
    <glyph glyph-name="daggerdbl" unicode="&#x2021;" horiz-adv-x="1112" 
d="M434 236v634h-350v236h350v369h246v-369h350v-236h-350v-634h350v-236h-350v-369h-246v369h-350v236h350z" />
    <glyph glyph-name="bullet" unicode="&#x2022;" horiz-adv-x="671" 
d="M121 595q0 81 62 139q63 58 153 58t153 -58t63 -139t-64 -138q-66 -57 -154 -57t-150 56q-62 58 -63 139z" />
    <glyph glyph-name="ellipsis" unicode="&#x2026;" horiz-adv-x="1392" 
d="M1296 0h-297v328h297v-328zM846 0h-297v328h297v-328zM395 0h-297v328h297v-328z" />
    <glyph glyph-name="perthousand" unicode="&#x2030;" horiz-adv-x="3063" 
d="M2626 209q54 -1 80 21t26 73v426q0 55 -25 75t-81 19q-56 0 -83 -19q-26 -19 -26 -75v-426q0 -94 109 -94zM2986 791v-549q0 -121 -96 -189q-96 -67 -264 -67t-265 67q-96 68 -96 189v549q0 121 96 189q97 68 265 67q168 1 264 -67t96 -189zM1778 209q55 -1 81 21t25 73
v426q0 55 -24 75q-25 19 -82 19t-83 -19t-26 -75v-426q0 -94 109 -94zM2138 791v-549q0 -121 -96 -189q-96 -67 -264 -67t-265 67q-96 68 -96 189v549q0 121 96 189q97 68 265 67q168 1 264 -67t96 -189zM438 659q55 0 81 22t26 73v426q0 55 -25 74q-25 20 -82 20t-83 -20
t-25 -74v-426q-1 -95 108 -95zM799 1241v-549q-1 -120 -97 -188t-264 -68t-264 68t-96 188v549q0 121 96 189t264 68t264 -68t97 -189zM883 -41h-252l688 1557h244z" />
    <glyph glyph-name="guilsinglleft" unicode="&#x2039;" horiz-adv-x="628" 
d="M70 672l227 356h268l-250 -442l-6 -2l6 -2l250 -443h-268l-227 357v176z" />
    <glyph glyph-name="guilsinglright" unicode="&#x203a;" horiz-adv-x="628" 
d="M332 1028l227 -356v-176l-227 -357h-269l250 443l6 2l-6 2l-250 442h269z" />
    <glyph glyph-name="fraction" unicode="&#x2044;" horiz-adv-x="606" 
d="M88 -41h-252l688 1557h244z" />
    <glyph glyph-name="zerosuperior" unicode="&#x2070;" horiz-adv-x="882" 
d="M442 659q55 0 81 22t26 73v426q0 55 -25 74q-25 20 -82 20t-83 -20t-25 -74v-426q-1 -95 108 -95zM803 1241v-549q0 -120 -96 -188q-97 -68 -265 -68t-264 68t-96 188v549q0 121 96 189t264 68t265 -68q96 -68 96 -189z" />
    <glyph glyph-name="foursuperior" unicode="&#x2074;" horiz-adv-x="843" 
d="M426 823v250l-145 -250h145zM678 451h-252v167h-395v175l426 690h221v-660h125v-205h-125v-167z" />
    <glyph glyph-name="fivesuperior" unicode="&#x2075;" horiz-adv-x="784" 
d="M682 1483v-207h-340l-2 -139l68 2q322 6 321 -295v-103q0 -161 -80 -233t-237 -72h-56q-156 0 -230 49t-73 160v125h236v-33q0 -49 16 -63t60 -15h57q39 1 55 15t17 65v103q0 80 -86 80h-308l15 561h567z" />
    <glyph glyph-name="sixsuperior" unicode="&#x2076;" horiz-adv-x="854" 
d="M530 836q0 61 -97 61t-99 -55v-121q0 -61 98 -61t98 61v115zM510 1104q110 0 191 -50t81 -143v-252q0 -104 -94 -163q-94 -60 -256 -60t-256 60t-94 163v615q0 104 94 164t256 59q162 0 256 -59t94 -166v-96h-252v36q0 62 -98 62t-98 -60v-143q66 33 176 33z" />
    <glyph glyph-name="sevensuperior" unicode="&#x2077;" horiz-adv-x="710" 
d="M41 1276v207h639v-176l-363 -856h-247l348 825h-377z" />
    <glyph glyph-name="eightsuperior" unicode="&#x2078;" horiz-adv-x="837" 
d="M420 1307q-100 0 -101 -64v-86q1 -63 101 -63t100 63v86q0 64 -100 64zM518 856q0 59 -99 59t-100 -59v-168q-1 -61 99 -61t100 61v168zM420 1497q156 0 245 -59t89 -166v-96q0 -129 -103 -175q117 -59 117 -165v-177q0 -104 -93 -163q-93 -60 -255 -60t-256 60t-94 163
v177q0 111 116 165q-104 51 -104 175v96q0 106 91 166t247 59z" />
    <glyph glyph-name="ninesuperior" unicode="&#x2079;" horiz-adv-x="854" 
d="M520 1214q0 60 -98 60t-98 -60v-116q0 -60 98 -60t98 60v116zM72 1022v252q0 104 94 164t256 59q162 0 256 -59t94 -164v-615q0 -104 -94 -163q-94 -60 -256 -60t-256 60t-94 166v96h252v-37q0 -61 98 -61t98 61v139q-62 -31 -174 -31q-112 1 -193 51t-81 142z" />
    <glyph glyph-name="zeroinferior" unicode="&#x2080;" horiz-adv-x="882" 
d="M442 -262q55 0 81 22t26 72v426q0 54 -25 74t-82 20t-83 -19t-25 -75v-426q-1 -94 108 -94zM803 319v-548q0 -121 -96 -189q-97 -68 -265 -68t-264 68t-96 189v548q0 121 96 189t264 68t265 -68q96 -68 96 -189z" />
    <glyph glyph-name="oneinferior" unicode="&#x2081;" horiz-adv-x="571" 
d="M475 -471h-254v735l-182 -61v235l256 123h180v-1032z" />
    <glyph glyph-name="twoinferior" unicode="&#x2082;" horiz-adv-x="819" 
d="M762 -264v-207h-705v98q0 285 228 422q67 41 105 69t72 70t34 80v35q0 63 -72 64h-43q-68 0 -68 -64v-90h-235v154q0 100 85 154t236 54h27q156 0 239 -61t83 -178v-60q0 -116 -52 -190t-196 -166q-146 -92 -183 -184h445z" />
    <glyph glyph-name="threeinferior" unicode="&#x2083;" horiz-adv-x="821" 
d="M270 -33v183h133q88 0 89 88v49q0 49 -14 64t-56 16h-27q-39 1 -56 -17t-17 -61v-43h-234v119q0 100 81 155t230 55h27q307 0 307 -258v-71q0 -117 -117 -154q141 -41 142 -198v-74q0 -162 -83 -234t-249 -71h-68q-156 0 -230 49t-73 160v145h236v-66q0 -66 92 -65h53
q86 0 86 82v69q0 43 -23 61q-24 17 -79 17h-150z" />
    <glyph glyph-name="fourinferior" unicode="&#x2084;" horiz-adv-x="843" 
d="M426 -98v250l-145 -250h145zM678 -471h-252v168h-395v174l426 690h221v-659h125v-205h-125v-168z" />
    <glyph glyph-name="fiveinferior" unicode="&#x2085;" horiz-adv-x="784" 
d="M682 561v-207h-340l-2 -139l68 2q322 6 321 -295v-102q0 -162 -80 -234t-237 -71h-56q-156 0 -230 49t-73 160v124h236v-32q0 -50 16 -64t60 -14h57q39 0 55 14t17 66v102q0 80 -86 80h-308l15 561h567z" />
    <glyph glyph-name="sixinferior" unicode="&#x2086;" horiz-adv-x="854" 
d="M530 -86q0 61 -97 61t-99 -55v-121q0 -61 98 -61t98 61v115zM510 182q110 0 191 -50t81 -142v-252q0 -104 -94 -164t-256 -59q-162 0 -256 59t-94 164v614q0 104 94 164t256 59q162 0 256 -59t94 -166v-96h-252v37q0 61 -98 61t-98 -59v-143q66 32 176 32z" />
    <glyph glyph-name="seveninferior" unicode="&#x2087;" horiz-adv-x="710" 
d="M41 354v207h639v-176l-363 -856h-247l348 825h-377z" />
    <glyph glyph-name="eightinferior" unicode="&#x2088;" horiz-adv-x="837" 
d="M420 385q-100 0 -101 -63v-86q1 -64 101 -64t100 64v86q0 63 -100 63zM518 -66q0 60 -99 60t-100 -60v-167q-1 -61 99 -61t100 61v167zM420 575q156 0 245 -59t89 -166v-96q0 -129 -103 -174q117 -59 117 -166v-176q0 -104 -93 -164t-255 -59q-162 0 -256 59t-94 164v176
q0 111 116 166q-104 51 -104 174v96q0 106 91 166t247 59z" />
    <glyph glyph-name="nineinferior" unicode="&#x2089;" horiz-adv-x="854" 
d="M520 293q0 59 -98 59t-98 -59v-117q0 -59 98 -59t98 59v117zM346 -92q-112 0 -193 50t-81 142v252q0 104 94 164t256 59q162 0 256 -59t94 -164v-614q0 -104 -94 -164t-256 -59q-162 0 -256 59t-94 166v96h252v-37q0 -61 98 -61t98 61v140q-62 -31 -174 -31z" />
    <glyph glyph-name="Euro" unicode="&#x20ac;" horiz-adv-x="1210" 
d="M487 367q-1 -131 179 -131t180 131v165h272v-233q0 -152 -126 -236q-126 -83 -339 -83t-334 84t-120 235v211h-136v188h136v68h-136v188h136v222q0 152 125 236t339 83q215 0 335 -84t120 -235v-234h-272v166q0 131 -179 131t-180 -131v-154h183v-188h-183v-68h183v-188
h-183v-143z" />
    <glyph glyph-name="trademark" unicode="&#x2122;" horiz-adv-x="1605" 
d="M463 612h-199v686h-217v177h633v-177h-217v-686zM936 612h-199v863h185l192 -363l191 363h186v-863h-197v443l-118 -203h-123l-117 201v-441z" />
    <glyph glyph-name="minus" unicode="&#x2212;" horiz-adv-x="1128" 
d="M1020 874v-237h-914v237h914z" />
    <glyph glyph-name="commaaccent" unicode="&#xf6c3;" horiz-adv-x="491" 
d="M418 -111l-133 -405h-211l45 405h299z" />
    <glyph glyph-name="zerooldstyle" unicode="&#xf730;" horiz-adv-x="1005" 
d="M348 324q0 -117 155 -117t154 117v460q-1 117 -155 117t-154 -117v-460zM911 840v-572q1 -135 -109 -211q-110 -75 -299 -75t-299 76t-110 210v572q0 135 110 211q110 75 299 75t299 -75q109 -76 109 -211z" />
    <glyph glyph-name="oneoldstyle" unicode="&#xf731;" horiz-adv-x="649" 
d="M532 0h-253v829l-232 -84v238l305 143h180v-1126z" />
    <glyph glyph-name="twooldstyle" unicode="&#xf732;" horiz-adv-x="944" 
d="M870 205v-205h-796v98q0 311 245 451q17 10 63 37t68 40q150 89 150 171v37q0 86 -117 86h-32q-121 0 -121 -80v-86h-238v147q0 105 95 165t270 60h30q176 0 271 -65q94 -66 94 -193v-63q0 -123 -64 -203t-243 -182q-180 -102 -217 -215h542z" />
    <glyph glyph-name="threeoldstyle" unicode="&#xf733;" horiz-adv-x="962" 
d="M330 375v188h143q137 0 137 139v80q0 74 -26 104q-27 30 -88 29h-35q-63 -1 -92 -29t-29 -95v-66h-238v135q0 127 96 197t269 69h31q360 0 360 -313v-104q0 -156 -151 -207q176 -53 176 -252v-125q-1 -193 -97 -278t-288 -85h-82q-178 0 -266 64t-89 205v125h238v-52
q0 -117 125 -116h70q152 0 151 137v121q0 129 -149 129h-166z" />
    <glyph glyph-name="fouroldstyle" unicode="&#xf734;" horiz-adv-x="974" 
d="M526 209v450l-233 -450h233zM782 -242h-256v242h-487v174l518 950h225v-915h148v-209h-148v-242z" />
    <glyph glyph-name="fiveoldstyle" unicode="&#xf735;" horiz-adv-x="907" 
d="M788 1126v-208h-419l-7 -267l111 2q365 6 365 -354v-154q0 -195 -90 -279t-273 -85h-63q-176 1 -261 65t-85 209v150h237v-60q0 -83 27 -111t90 -28h63q59 0 87 29t28 110v150q0 139 -127 139h-350l16 692h651z" />
    <glyph glyph-name="sixoldstyle" unicode="&#xf736;" horiz-adv-x="995" 
d="M651 489q0 121 -142 121t-149 -108v-172q0 -123 146 -123t145 123v159zM578 823q138 -1 232 -69q93 -68 93 -191v-295q0 -135 -106 -211q-105 -75 -291 -75t-292 75q-105 76 -105 211v791q0 135 105 211q104 76 290 76t292 -75t107 -208v-131h-252v72q0 116 -145 116
t-146 -121v-227q80 51 218 51z" />
    <glyph glyph-name="sevenoldstyle" unicode="&#xf737;" horiz-adv-x="813" 
d="M41 897v209h735v-176l-434 -1151h-250l420 1118h-471z" />
    <glyph glyph-name="eightoldstyle" unicode="&#xf738;" horiz-adv-x="983" 
d="M635 1032q0 117 -144 117t-145 -117v-114q0 -115 144 -115t145 115v114zM493 618q-151 0 -151 -124v-193q0 -123 151 -123t150 123v193q1 124 -150 124zM491 1346q177 0 280 -75t103 -208v-129q0 -166 -135 -227q156 -72 156 -228v-211q0 -135 -108 -211
q-107 -75 -295 -75t-296 76t-108 210v211q0 156 158 230q-137 63 -137 225v129q0 133 102 208q103 75 280 75z" />
    <glyph glyph-name="nineoldstyle" unicode="&#xf739;" horiz-adv-x="980" 
d="M340 616q0 -120 140 -120t149 108v174q-1 121 -145 121t-144 -121v-162zM412 283q-140 1 -233 69t-93 191v295q0 135 106 211q106 75 293 75q186 0 292 -75q105 -76 106 -211v-791q0 -135 -108 -211t-292 -76t-290 75t-107 208v131h254v-72q0 -116 144 -116t145 123v225
q-77 -51 -217 -51z" />
    <glyph glyph-name="ampersand.001" horiz-adv-x="1273" 
d="M512 1030q0 -55 82 -149q76 18 128 62t52 93v72q0 133 -131 133t-131 -129v-82zM618 233q109 0 191 60l-334 371q-129 -20 -129 -123v-179q0 -129 164 -129h108zM444 -20q-180 0 -282 84t-103 235v305q0 186 254 246q-72 104 -71 215v111q0 152 108 236t293 83
q187 0 293 -84t106 -235v-189q0 -100 -78 -176t-208 -113l225 -249l98 92l164 -179l-98 -96l98 -108l-168 -158l-96 104q-133 -125 -309 -124h-226z" />
    <glyph glyph-name="a.superior" horiz-adv-x="800" 
d="M371 848q47 0 80 16v94q-43 14 -80 15q-68 0 -68 -53v-19q0 -53 68 -53zM51 903v12q-1 101 57 157t160 56t183 -20v109q1 57 -57 57t-58 -57v-37h-244v104q0 100 80 156t223 55q143 0 229 -54t87 -157v-577h-232l-12 45q-81 -60 -191 -60t-168 56t-57 155z" />
    <glyph glyph-name="o.superior" horiz-adv-x="804" 
d="M324 1210v-229q0 -57 74 -57t73 57v229q1 57 -73 57t-74 -57zM721 1274v-356q0 -104 -86 -164t-238 -60q-151 0 -237 58t-86 166v356q0 106 86 164t238 59t237 -59q86 -60 86 -164z" />
    <glyph glyph-name="undercommaaccent" horiz-adv-x="491" 
d="M418 -111l-133 -405h-211l45 405h299z" />
    <glyph glyph-name="zero.sm" horiz-adv-x="882" 
d="M442 209q55 -1 81 21t26 73v426q0 55 -25 75t-82 19q-57 0 -83 -19t-25 -75v-426q-1 -94 108 -94zM803 791v-549q0 -121 -96 -189q-97 -67 -265 -67t-264 68t-96 188v549q0 121 96 189t264 67q168 1 264 -67t97 -189z" />
    <glyph glyph-name="one.sm" horiz-adv-x="571" 
d="M475 0h-254v735l-182 -61v235l256 123h180v-1032z" />
    <glyph glyph-name="two.sm" horiz-adv-x="819" 
d="M762 207v-207h-705v98q0 285 228 422q67 41 105 69q38 27 72 69t34 81v35q0 63 -72 64h-43q-68 0 -68 -64v-90h-235v154q0 100 85 154t236 55h27q156 1 239 -61t83 -179v-59q0 -117 -52 -191t-196 -166q-146 -92 -183 -184h445z" />
    <glyph glyph-name="three.sm" horiz-adv-x="821" 
d="M270 438v183h133q88 0 89 88v49q0 49 -14 64t-56 16h-27q-39 0 -56 -18t-17 -60v-43h-234v119q0 100 81 155t230 56h27q307 0 307 -259v-71q0 -117 -117 -154q141 -41 142 -198v-74q0 -162 -83 -234t-249 -71h-68q-156 0 -230 49t-73 160v145h236v-66q0 -66 92 -65h53
q86 0 86 82v69q0 43 -23 61q-24 17 -79 17h-150z" />
    <glyph glyph-name="four.sm" horiz-adv-x="843" 
d="M426 373v250l-145 -250h145zM678 0h-252v168h-395v174l426 690h221v-659h125v-205h-125v-168z" />
    <glyph glyph-name="five.sm" horiz-adv-x="784" 
d="M682 1032v-207h-340l-2 -139l68 2q322 6 321 -295v-102q0 -162 -80 -234t-237 -71h-56q-156 0 -230 49t-73 160v124h236v-32q0 -49 16 -63t60 -15h57q39 0 55 14t17 66v102q0 80 -86 80h-308l15 561h567z" />
    <glyph glyph-name="six.sm" horiz-adv-x="854" 
d="M530 385q0 61 -97 61t-99 -55v-121q0 -61 98 -61t98 61v115zM510 653q110 0 191 -50t81 -142v-252q0 -103 -94 -163t-256 -60t-256 59t-94 164v614q0 103 94 163t256 60t256 -58q94 -60 94 -167v-96h-252v37q0 61 -98 61t-98 -59v-143q66 32 176 32z" />
    <glyph glyph-name="seven.sm" horiz-adv-x="710" 
d="M41 825v207h639v-176l-363 -856h-247l348 825h-377z" />
    <glyph glyph-name="eight.sm" horiz-adv-x="837" 
d="M420 856q-100 0 -101 -63v-86q1 -63 101 -63t100 63v86q0 63 -100 63zM518 406q0 59 -99 59t-100 -59v-168q-1 -62 99 -62t100 62v168zM420 1047q156 1 245 -59t89 -167v-96q0 -129 -103 -174q117 -59 117 -166v-176q0 -103 -93 -163t-255 -60t-256 59t-94 164v176
q0 111 116 166q-104 51 -104 174v96q0 106 91 166t247 60z" />
    <glyph glyph-name="nine.sm" horiz-adv-x="854" 
d="M520 764q0 59 -98 59t-98 -59v-117q0 -59 98 -59t98 59v117zM346 379q-112 0 -193 50t-81 142v252q0 103 94 163t256 60t256 -58q94 -60 94 -165v-614q0 -103 -94 -163t-256 -60t-256 59t-94 166v96h252v-37q0 -61 98 -61t98 61v140q-62 -31 -174 -31z" />
    <glyph glyph-name="a.ital" horiz-adv-x="1058" 
d="M492 240q88 0 176 47v536q-84 49 -176 49q-115 0 -115 -137v-350q0 -145 115 -145zM946 0h-258l-18 66q-122 -80 -266 -80t-225 86t-81 229v514q0 145 81 228t227 83t268 -57l14 57h258v-1126z" />
    <glyph glyph-name="f.ital" horiz-adv-x="704" 
d="M154 88v799h-103v219h103v111q0 163 97 251t277 88q111 0 170 -20v-238q-55 20 -137 21q-129 0 -129 -117v-96h246v-219h-246v-887h-4q-12 -211 -97 -300t-276 -89l-94 6v236q45 -4 66 -5q71 0 99 54t28 186z" />
    <glyph glyph-name="e.ital" horiz-adv-x="1024" 
d="M369 756v-88h147q150 0 150 104v21q0 96 -148 96t-149 -133zM516 446h-147v-96q1 -133 149 -133t148 133v19h278v-70q0 -152 -113 -236q-113 -83 -315 -83t-314 84t-112 235v508q0 151 113 235t315 84t314 -82t112 -229v-57q0 -148 -112 -230t-316 -82z" />
    <glyph glyph-name="A.SC" horiz-adv-x="997" 
d="M498 918l-119 -465h239zM262 0h-254l340 1180h301l338 -1180h-252l-59 229h-354z" />
    <glyph glyph-name="B.SC" horiz-adv-x="942" 
d="M449 973h-78v-266h78q137 0 137 108v35q0 63 -32 93t-105 30zM494 526h-123v-317h123q141 0 141 108v103q0 106 -141 106zM494 0h-375v1180h330q375 0 374 -279v-76q0 -123 -125 -178q174 -57 174 -213v-160q0 -138 -100 -206t-278 -68z" />
    <glyph glyph-name="C.SC" horiz-adv-x="935" 
d="M356 301q0 -94 127 -94t127 94v125h238v-186q0 -121 -97 -189q-97 -67 -271 -67t-274 68q-101 68 -102 188v700q0 120 102 188t274 68t270 -68t98 -188v-186h-238v125q0 94 -127 94t-127 -94v-578z" />
    <glyph glyph-name="D.SC" horiz-adv-x="1019" 
d="M504 223q92 0 135 28t43 111v451q0 143 -195 143l-116 -2v-731h133zM119 0v1180h368q225 0 329 -85t104 -253v-537q0 -161 -98 -233t-318 -72h-385z" />
    <glyph glyph-name="E.SC" horiz-adv-x="870" 
d="M705 707v-207h-334v-291h428v-209h-680v1180h680v-207h-428v-266h334z" />
    <glyph glyph-name="F.SC" horiz-adv-x="839" 
d="M371 0h-252v1180h680v-207h-428v-316h334v-206h-334v-451z" />
    <glyph glyph-name="G.SC" horiz-adv-x="972" 
d="M879 0h-131l-35 55q-75 -71 -235 -71t-267 67q-106 68 -107 189v700q0 120 106 188t286 68q178 0 280 -68t103 -188v-186h-238v127q0 92 -142 92t-143 -92v-582q0 -92 142 -92t143 92v127h-141v207h379v-633z" />
    <glyph glyph-name="H.SC" horiz-adv-x="1028" 
d="M371 0h-252v1180h252v-473h286v473h254v-1180h-254v500h-286v-500z" />
    <glyph glyph-name="I.SC" horiz-adv-x="489" 
d="M371 0h-252v1180h252v-1180z" />
    <glyph glyph-name="J.SC" horiz-adv-x="925" 
d="M561 1180h252v-850q0 -346 -395 -346q-174 0 -277 67q-102 68 -102 189v155h240v-96q0 -92 141 -92t141 123v850z" />
    <glyph glyph-name="K.SC" horiz-adv-x="962" 
d="M371 0h-252v1180h252v-533l293 533h268l-320 -578l338 -602h-282l-297 543v-543z" />
    <glyph glyph-name="L.SC" horiz-adv-x="823" 
d="M797 209v-209h-678v1180h252v-971h426z" />
    <glyph glyph-name="M.SC" horiz-adv-x="1318" 
d="M356 0h-237v1180h266l274 -523l275 523h266v-1180h-237v623l4 159l-224 -424h-168l-225 424l6 -159v-623z" />
    <glyph glyph-name="N.SC" horiz-adv-x="1075" 
d="M956 0h-204l-412 690l2 -49v-641h-223v1180h207l409 -691l-2 68v623h223v-1180z" />
    <glyph glyph-name="O.SC" horiz-adv-x="999" 
d="M641 862q0 111 -142 111t-143 -111v-545q0 -111 142 -111t143 111v545zM500 1196q184 0 290 -72t105 -200v-668q0 -129 -105 -201q-106 -71 -290 -71t-290 71q-105 72 -106 201v668q0 128 106 200t290 72z" />
    <glyph glyph-name="P.SC" horiz-adv-x="937" 
d="M496 973h-125v-355h116q143 0 144 127v99q0 129 -135 129zM371 0h-252v1180h368q209 0 303 -82t93 -240v-158q0 -143 -93 -216t-303 -72h-116v-412z" />
    <glyph glyph-name="Q.SC" horiz-adv-x="999" 
d="M641 862q0 111 -142 111t-143 -111v-545q0 -111 142 -111t143 111v545zM500 1196q184 0 290 -72t105 -200v-668q0 -162 -160 -231l174 -201l-172 -135l-237 295q-184 0 -290 71q-105 72 -106 201v668q0 128 106 200t290 72z" />
    <glyph glyph-name="R.SC" horiz-adv-x="966" 
d="M467 973h-96v-355h88q141 0 141 127v99q0 129 -133 129zM371 0h-252v1180h340q209 0 301 -82t92 -240v-158q0 -186 -154 -249l267 -451h-283l-229 412h-82v-412z" />
    <glyph glyph-name="S.SC" horiz-adv-x="923" 
d="M856 365v-46q0 -178 -91 -257t-271 -78h-78q-342 0 -342 239v156h245v-64q0 -68 24 -88t83 -20h61q61 0 90 21q28 22 27 89v60q0 37 -26 59t-86 35l-127 27q-147 29 -211 103q-63 75 -64 239v53q0 151 89 227t257 76h31q164 0 258 -62t94 -178v-118h-246v57q0 49 -23 71
q-24 22 -77 21h-33q-55 1 -75 -23t-21 -85v-31q0 -61 18 -84t80 -35l111 -22q179 -37 241 -107t62 -235z" />
    <glyph glyph-name="T.SC" horiz-adv-x="823" 
d="M539 0h-254v973h-252v207h755v-207h-249v-973z" />
    <glyph glyph-name="U.SC" horiz-adv-x="1013" 
d="M649 1180h254v-881q0 -147 -106 -231q-107 -84 -289 -84t-290 84t-107 231v881h254v-834q0 -139 142 -139t142 139v834z" />
    <glyph glyph-name="V.SC" horiz-adv-x="937" 
d="M664 1180h247l-307 -1180h-270l-305 1180h247l193 -889z" />
    <glyph glyph-name="W.SC" horiz-adv-x="1382" 
d="M1092 1180h249l-204 -1180h-287l-160 795l-158 -795h-286l-205 1180h248l112 -914l174 914h230l174 -901z" />
    <glyph glyph-name="X.SC" horiz-adv-x="962" 
d="M47 1180h275l159 -406l160 406h274l-262 -566l301 -614h-282l-191 453l-192 -453h-281l301 614z" />
    <glyph glyph-name="Y.SC" horiz-adv-x="954" 
d="M604 0h-254v406l-338 774h267l198 -529l199 529h266l-338 -774v-406z" />
    <glyph glyph-name="Z.SC" horiz-adv-x="862" 
d="M76 973v207h704v-185l-436 -786h473v-209h-770v184l447 789h-418z" />
    <glyph glyph-name="A.titl" horiz-adv-x="1097" 
d="M547 1042l-139 -538h280zM276 0h-270l383 1327h320l383 -1327h-271l-69 264h-408z" />
    <glyph glyph-name="B.titl" horiz-adv-x="1054" 
d="M492 1106h-95v-313h95q164 0 163 129v39q-1 77 -39 111t-124 34zM543 600h-146v-379h146q168 0 168 135v113q0 131 -168 131zM543 0h-416v1327h365q208 0 322 -77t114 -234v-86q0 -141 -152 -203q207 -66 207 -244v-172q-1 -155 -117 -233t-323 -78z" />
    <glyph glyph-name="C.titl" horiz-adv-x="1036" 
d="M379 336q0 -115 155 -115t154 115v143h254v-211q0 -135 -110 -211q-110 -75 -302 -75q-194 0 -307 76t-112 210v791q0 135 112 211q113 76 307 76t303 -76q110 -76 109 -211v-211h-254v145q0 113 -154 113t-155 -113v-657z" />
    <glyph glyph-name="D.titl" horiz-adv-x="1120" 
d="M762 403v517q0 168 -232 167l-133 -2v-845h152q111 0 162 32t51 131zM127 0v1327h403q252 0 369 -96t117 -283v-606q0 -178 -110 -260t-357 -82h-422z" />
    <glyph glyph-name="E.titl" horiz-adv-x="950" 
d="M772 791v-224h-375v-346h482v-221h-754v1327h754v-221h-482v-315h375z" />
    <glyph glyph-name="F.titl" horiz-adv-x="917" 
d="M397 0h-272v1327h754v-221h-482v-371h375v-223h-375v-512z" />
    <glyph glyph-name="G.titl" horiz-adv-x="1073" 
d="M975 0h-141l-39 63q-85 -81 -267 -81t-300 76t-117 210v791q0 135 117 211q118 76 319 76t315 -76t113 -211v-211h-256v147q0 111 -169 111t-169 -111v-659q0 -115 165 -115t173 103v159h-168v224h424v-707z" />
    <glyph glyph-name="H.titl" horiz-adv-x="1130" 
d="M397 0h-272v1327h272v-536h336v536h273v-1327h-273v567h-336v-567z" />
    <glyph glyph-name="I.titl" horiz-adv-x="522" 
d="M397 0h-272v1327h272v-1327z" />
    <glyph glyph-name="J.titl" horiz-adv-x="1021" 
d="M633 1327h270v-960q0 -385 -440 -385q-195 0 -309 76t-113 210v178h254v-116q0 -109 169 -109t169 146v960z" />
    <glyph glyph-name="K.titl" horiz-adv-x="1050" 
d="M397 0h-272v1327h272v-592l340 592h289l-371 -649l389 -678h-303l-344 614v-614z" />
    <glyph glyph-name="L.titl" horiz-adv-x="901" 
d="M874 221v-221h-749v1327h272v-1106h477z" />
    <glyph glyph-name="M.titl" horiz-adv-x="1452" 
d="M381 0h-256v1327h287l313 -598l315 598h285v-1327h-254v729l4 170l-258 -491h-182l-260 491l6 -170v-729z" />
    <glyph glyph-name="N.titl" horiz-adv-x="1181" 
d="M1057 0h-221l-471 799l2 -54v-745h-242v1327h221l473 -797l-2 74v723h240v-1327z" />
    <glyph glyph-name="O.titl" horiz-adv-x="1101" 
d="M551 1106q-88 0 -129 -31t-41 -100v-621q0 -70 41 -102t129 -31q170 0 170 133v621q0 131 -170 131zM551 1346q205 0 323 -81t117 -225v-753q0 -143 -118 -225q-119 -82 -323 -80q-204 0 -322 80t-117 225v753q0 143 117 225q118 81 323 81z" />
    <glyph glyph-name="P.titl" horiz-adv-x="1028" 
d="M539 1106h-144v-414h135q170 0 170 150v108q1 156 -161 156zM395 0h-270v1327h405q232 0 336 -92t105 -268v-170q-1 -162 -105 -245t-336 -83h-135v-469z" />
    <glyph glyph-name="Q.titl" horiz-adv-x="1101" 
d="M551 1106q-88 0 -129 -31t-41 -100v-621q0 -70 41 -102t129 -31q170 0 170 133v621q0 131 -170 131zM551 1346q205 0 323 -81t117 -225v-753q0 -182 -186 -260l194 -228l-184 -143l-264 326q-205 0 -323 80t-117 225v753q0 143 117 225q118 81 323 81z" />
    <glyph glyph-name="R.titl" horiz-adv-x="1058" 
d="M508 1106h-111v-414h103q172 0 172 150v108q0 156 -164 156zM397 0h-272v1327h375q232 0 336 -92t104 -268v-170q0 -213 -178 -287l303 -510h-305l-260 469h-103v-469z" />
    <glyph glyph-name="S.titl" horiz-adv-x="1015" 
d="M946 410v-56q0 -196 -101 -284t-300 -88h-90q-188 0 -284 63q-95 63 -95 205v174h264v-76q0 -78 29 -102t96 -25h72q71 0 105 26t34 105v72q0 90 -131 115l-150 28q-161 31 -231 114t-70 263v66q0 166 100 251t283 85h39q180 0 284 -71t105 -198v-137h-264v72
q0 59 -29 85t-92 25h-37q-67 0 -93 -28t-25 -101v-39q1 -72 23 -98t93 -43l129 -27q197 -39 267 -117q69 -79 69 -259z" />
    <glyph glyph-name="T.titl" horiz-adv-x="907" 
d="M588 0h-269v1106h-288v221h843v-221h-286v-1106z" />
    <glyph glyph-name="U.titl" horiz-adv-x="1116" 
d="M729 1327h270v-995q-1 -164 -119 -257t-322 -93t-322 93t-117 257v995h270v-944q0 -162 170 -162t170 162v944z" />
    <glyph glyph-name="V.titl" 
d="M741 1327h267l-344 -1327h-291l-346 1327h266l223 -1012z" />
    <glyph glyph-name="W.titl" horiz-adv-x="1533" 
d="M1229 1327h266l-235 -1327h-308l-186 924l-184 -924h-308l-235 1327h266l137 -1036l203 1036h246l201 -1040z" />
    <glyph glyph-name="X.titl" horiz-adv-x="1050" 
d="M47 1327h291l188 -459l185 459h293l-297 -637l342 -690h-301l-224 516l-221 -516h-301l340 688z" />
    <glyph glyph-name="Y.titl" horiz-adv-x="1054" 
d="M662 0h-269v455l-381 872h285l229 -604l232 604h284l-380 -872v-455z" />
    <glyph glyph-name="Z.titl" horiz-adv-x="944" 
d="M78 1106v221h786v-194l-499 -912h536v-221h-854v195l510 911h-479z" />
    <glyph glyph-name="Ecaron.SC" horiz-adv-x="870" 
d="M592 1260h-240l-280 327h299l102 -160l100 160h299zM705 707v-207h-334v-291h428v-209h-680v1180h680v-207h-428v-266h334z" />
    <glyph glyph-name="Rcaron.SC" horiz-adv-x="966" 
d="M645 1260h-239l-281 327h299l102 -160l101 160h299zM467 973h-96v-355h88q141 0 141 127v99q0 129 -133 129zM371 0h-252v1180h340q209 0 301 -82t92 -240v-158q0 -186 -154 -249l267 -451h-283l-229 412h-82v-412z" />
    <glyph glyph-name="Ycaron.SC" horiz-adv-x="954" 
d="M596 1260h-240l-280 327h299l102 -160l101 160h299zM604 0h-254v406l-338 774h267l198 -529l199 529h266l-338 -774v-406z" />
    <glyph glyph-name="Aacute.SC" horiz-adv-x="997" 
d="M584 1249h-195l170 342h328zM498 918l-119 -465h239zM262 0h-254l340 1180h301l338 -1180h-252l-59 229h-354z" />
    <glyph glyph-name="Iacute.SC" horiz-adv-x="489" 
d="M330 1249h-195l170 342h328zM371 0h-252v1180h252v-1180z" />
    <glyph glyph-name="Eacute.SC.001" horiz-adv-x="870" 
d="M559 1249h-194l170 342h327zM705 707v-207h-334v-291h428v-209h-680v1180h680v-207h-428v-266h334z" />
    <glyph glyph-name="Tcaron.SC" horiz-adv-x="823" 
d="M528 1260h-239l-281 327h299l103 -160l100 160h299zM539 0h-254v973h-252v207h755v-207h-249v-973z" />
    <glyph glyph-name="Dcaron.SC" horiz-adv-x="1019" 
d="M643 1260h-240l-280 327h299l102 -160l101 160h299zM504 223q92 0 135 28t43 111v451q0 143 -195 143l-116 -2v-731h133zM119 0v1180h368q225 0 329 -85t104 -253v-537q0 -161 -98 -233t-318 -72h-385z" />
    <glyph glyph-name="Scaron.SC" horiz-adv-x="923" 
d="M573 1260h-239l-281 327h299l103 -160l100 160h299zM856 365v-46q0 -178 -91 -257t-271 -78h-78q-342 0 -342 239v156h245v-64q0 -68 24 -88t83 -20h61q61 0 90 21q28 22 27 89v60q0 37 -26 59t-86 35l-127 27q-147 29 -211 103q-63 75 -64 239v53q0 151 89 227t257 76
h31q164 0 258 -62t94 -178v-118h-246v57q0 49 -23 71q-24 22 -77 21h-33q-55 1 -75 -23t-21 -85v-31q0 -61 18 -84t80 -35l111 -22q179 -37 241 -107t62 -235z" />
    <glyph glyph-name="Ccaron.SC" horiz-adv-x="950" 
d="M602 1260h-240l-280 327h299l102 -160l101 160h299zM356 301q0 -94 127 -94t127 94v125h238v-186q0 -121 -97 -189q-97 -67 -271 -67t-274 68q-101 68 -102 188v700q0 120 102 188t274 68t270 -68t98 -188v-186h-238v125q0 94 -127 94t-127 -94v-578z" />
    <glyph glyph-name="Zcaron.SC" horiz-adv-x="862" 
d="M547 1260h-240l-280 327h299l102 -160l100 160h299zM76 973v207h704v-185l-436 -786h473v-209h-770v184l447 789h-418z" />
    <glyph glyph-name="Uacute.SC" horiz-adv-x="1013" 
d="M592 1249h-195l170 342h328zM649 1180h254v-881q0 -147 -106 -231q-107 -84 -289 -84t-290 84t-107 231v881h254v-834q0 -139 142 -139t142 139v834z" />
    <glyph glyph-name="Oacute.SC.001" horiz-adv-x="999" 
d="M584 1249h-195l170 342h328zM641 862q0 111 -142 111t-143 -111v-545q0 -111 142 -111t143 111v545zM500 1196q184 0 290 -72t105 -200v-668q0 -129 -105 -201q-106 -71 -290 -71t-290 71q-105 72 -106 201v668q0 128 106 200t290 72z" />
    <glyph glyph-name="Aogonek.SC" horiz-adv-x="997" 
d="M498 918l-119 -465h239zM618 -279q0 88 54 163t127 116h-64l-59 229h-354l-60 -229h-254l340 1180h301l338 -1180h-47q-125 -143 -125 -244q0 -66 74 -66t127 29l35 -141q-88 -59 -207 -59q-226 -1 -226 202z" />
    <glyph glyph-name="Cacute.SC" horiz-adv-x="950" 
d="M567 1249h-194l170 342h327zM356 301q0 -94 127 -94t127 94v125h238v-186q0 -121 -97 -189q-97 -67 -271 -67t-274 68q-101 68 -102 188v700q0 120 102 188t274 68t270 -68t98 -188v-186h-238v125q0 94 -127 94t-127 -94v-578z" />
    <glyph glyph-name="Zdotaccent.SC" horiz-adv-x="862" 
d="M582 1247h-297v328h297v-328zM76 973v207h704v-185l-436 -786h473v-209h-770v184l447 789h-418z" />
    <glyph glyph-name="Zacute.SC" horiz-adv-x="862" 
d="M514 1249h-195l170 342h328zM76 973v207h704v-185l-436 -786h473v-209h-770v184l447 789h-418z" />
    <glyph glyph-name="Eogonek.SC" horiz-adv-x="870" 
d="M477 -279q0 88 53 163t127 116h-538v1180h680v-207h-428v-266h334v-207h-334v-291h428v-209q-125 -143 -125 -244q0 -66 74 -66t126 29l35 -141q-90 -59 -207 -59q-225 -1 -225 202z" />
    <glyph glyph-name="Lslash.SC" horiz-adv-x="917" 
d="M211 1180h252v-330l321 199v-289l-321 -201v-350h426v-209h-678v403l-156 -96v291l156 96v486z" />
    <glyph glyph-name="Nacute.SC" horiz-adv-x="1075" 
d="M641 1249h-195l170 342h328zM956 0h-204l-412 690l2 -49v-641h-223v1180h207l409 -691l-2 68v623h223v-1180z" />
    <glyph glyph-name="Oacute.SC" horiz-adv-x="999" 
d="M584 1249h-195l170 342h328zM641 862q0 111 -142 111t-143 -111v-545q0 -111 142 -111t143 111v545zM500 1196q184 0 290 -72t105 -200v-668q0 -129 -105 -201q-106 -71 -290 -71t-290 71q-105 72 -106 201v668q0 128 106 200t290 72z" />
    <glyph glyph-name="Sacute.SC" horiz-adv-x="923" 
d="M541 1249h-195l170 342h328zM856 365v-46q0 -178 -91 -257t-271 -78h-78q-342 0 -342 239v156h245v-64q0 -68 24 -88t83 -20h61q61 0 90 21q28 22 27 89v60q0 37 -26 59t-86 35l-127 27q-147 29 -211 103q-63 75 -64 239v53q0 151 89 227t257 76h31q164 0 258 -62
t94 -178v-118h-246v57q0 49 -23 71q-24 22 -77 21h-33q-55 1 -75 -23t-21 -85v-31q0 -61 18 -84t80 -35l111 -22q179 -37 241 -107t62 -235z" />
    <glyph glyph-name="Agrave.SC" horiz-adv-x="997" 
d="M618 1247h-194l-307 344h327zM498 918l-119 -465h239zM262 0h-254l340 1180h301l338 -1180h-252l-59 229h-354z" />
    <glyph glyph-name="Acircumflex.SC" horiz-adv-x="997" 
d="M393 1546h207l279 -301h-258l-125 148l-125 -148h-258zM498 918l-119 -465h239zM262 0h-254l340 1180h301l338 -1180h-252l-59 229h-354z" />
    <glyph glyph-name="AE.SC" horiz-adv-x="1452" 
d="M684 461v403l-190 -403h190zM1380 1180v-219h-426v-248h328v-221h-328v-273h426v-219h-696v240h-295l-113 -240h-282l579 1180h807z" />
    <glyph glyph-name="Ccedilla.SC" horiz-adv-x="950" 
d="M356 301q0 -94 127 -94t127 94v125h238v-186q0 -110 -81 -176t-222 -76v-70h18q188 0 189 -172q0 -102 -68 -144t-221 -42h-119v131h121q63 0 85 12t21 45v8q0 35 -18 48t-72 14h-75v170q-143 14 -223 80q-79 66 -79 172v700q0 120 102 188t274 68t270 -68t98 -188v-186
h-238v125q0 94 -127 94t-127 -94v-578z" />
    <glyph glyph-name="Egrave.SC" horiz-adv-x="870" 
d="M594 1247h-195l-307 344h328zM705 707v-207h-334v-291h428v-209h-680v1180h680v-207h-428v-266h334z" />
    <glyph glyph-name="Eacute.SC" horiz-adv-x="870" 
d="M559 1249h-194l170 342h327zM705 707v-207h-334v-291h428v-209h-680v1180h680v-207h-428v-266h334z" />
    <glyph glyph-name="Ecircumflex.SC" horiz-adv-x="870" 
d="M369 1546h206l279 -301h-258l-125 148l-125 -148h-258zM705 707v-207h-334v-291h428v-209h-680v1180h680v-207h-428v-266h334z" />
    <glyph glyph-name="Edieresis.SC" horiz-adv-x="870" 
d="M840 1247h-299v279h299v-279zM406 1247h-300v279h300v-279zM705 707v-207h-334v-291h428v-209h-680v1180h680v-207h-428v-266h334z" />
    <glyph glyph-name="Icircumflex.SC" horiz-adv-x="489" 
d="M139 1546h207l279 -301h-258l-125 148l-125 -148h-258zM371 0h-252v1180h252v-1180z" />
    <glyph glyph-name="Idieresis.SC" horiz-adv-x="489" 
d="M610 1247h-299v279h299v-279zM176 1247h-299v279h299v-279zM371 0h-252v1180h252v-1180z" />
    <glyph glyph-name="Ocircumflex.SC" horiz-adv-x="999" 
d="M395 1546h207l279 -301h-258l-125 148l-125 -148h-258zM641 862q0 111 -142 111t-143 -111v-545q0 -111 142 -111t143 111v545zM500 1196q184 0 290 -72t105 -200v-668q0 -129 -105 -201q-106 -71 -290 -71t-290 71q-105 72 -106 201v668q0 128 106 200t290 72z" />
    <glyph glyph-name="OE.SC" horiz-adv-x="1404" 
d="M502 958q-129 0 -129 -98v-541q0 -98 132 -98t132 98v551q-6 88 -135 88zM1331 219v-219h-694v4q-66 -20 -133 -20q-184 0 -292 72t-108 200v668q0 128 108 200t292 72q72 0 133 -22v6h694v-219h-424v-248h328v-221h-328v-273h424z" />
    <glyph glyph-name="Ugrave.SC" horiz-adv-x="1013" 
d="M629 1247h-195l-307 344h328zM649 1180h254v-881q0 -147 -106 -231q-107 -84 -289 -84t-290 84t-107 231v881h254v-834q0 -139 142 -139t142 139v834z" />
    <glyph glyph-name="Ucircumflex.SC" horiz-adv-x="1013" 
d="M403 1546h207l279 -301h-258l-125 148l-125 -148h-258zM649 1180h254v-881q0 -147 -106 -231q-107 -84 -289 -84t-290 84t-107 231v881h254v-834q0 -139 142 -139t142 139v834z" />
    <glyph glyph-name="Udieresis.SC.001" horiz-adv-x="1013" 
d="M874 1247h-299v279h299v-279zM440 1247h-299v279h299v-279zM649 1180h254v-881q0 -147 -106 -231q-107 -84 -289 -84t-290 84t-107 231v881h254v-834q0 -139 142 -139t142 139v834z" />
    <glyph glyph-name="Ydieresis.SC" horiz-adv-x="954" 
d="M844 1247h-299v279h299v-279zM410 1247h-299v279h299v-279zM604 0h-254v406l-338 774h267l198 -529l199 529h266l-338 -774v-406z" />
    <glyph glyph-name="Adieresis.SC" horiz-adv-x="997" 
d="M864 1247h-299v279h299v-279zM430 1247h-299v279h299v-279zM498 918l-119 -465h239zM262 0h-254l340 1180h301l338 -1180h-252l-59 229h-354z" />
    <glyph glyph-name="Odieresis.SC" horiz-adv-x="999" 
d="M866 1247h-299v279h299v-279zM432 1247h-299v279h299v-279zM641 862q0 111 -142 111t-143 -111v-545q0 -111 142 -111t143 111v545zM500 1196q184 0 290 -72t105 -200v-668q0 -129 -105 -201q-106 -71 -290 -71t-290 71q-105 72 -106 201v668q0 128 106 200t290 72z" />
    <glyph glyph-name="Udieresis.SC" horiz-adv-x="1013" 
d="M874 1247h-299v279h299v-279zM440 1247h-299v279h299v-279zM649 1180h254v-881q0 -147 -106 -231q-107 -84 -289 -84t-290 84t-107 231v881h254v-834q0 -139 142 -139t142 139v834z" />
    <glyph glyph-name="a.sm" horiz-adv-x="800" 
d="M369 141q47 0 80 17v94q-43 14 -80 14q-68 0 -68 -53v-18q0 -54 68 -54zM49 197v12q0 101 57 157q58 56 160 56t183 -21v109q1 57 -57 57t-58 -57v-37h-244v105q0 100 80 155t223 55t229 -54t87 -156v-578h-232l-12 45q-81 -59 -191 -59t-168 55q-57 56 -57 156z" />
    <glyph glyph-name="o.sm" horiz-adv-x="794" 
d="M324 502v-230q0 -57 74 -57t73 57v230q1 57 -73 57t-74 -57zM721 565v-356q0 -103 -86 -163t-238 -60q-151 0 -237 58t-86 165v356q0 107 86 165t238 58t237 -60q86 -60 86 -163z" />
    <glyph glyph-name="zero.denominator" horiz-adv-x="882" 
d="M442 209q55 -1 81 21t26 73v426q0 55 -25 75t-82 19q-57 0 -83 -19t-25 -75v-426q-1 -94 108 -94zM803 791v-549q0 -121 -96 -189q-97 -67 -265 -67t-264 68t-96 188v549q0 121 96 189t264 67q168 1 264 -67t97 -189z" />
    <glyph glyph-name="one.denominator" horiz-adv-x="571" 
d="M475 0h-254v735l-182 -61v235l256 123h180v-1032z" />
    <glyph glyph-name="two.denominator" horiz-adv-x="819" 
d="M762 207v-207h-705v98q0 285 228 422q67 41 105 69q38 27 72 69t34 81v35q0 63 -72 64h-43q-68 0 -68 -64v-90h-235v154q0 100 85 154t236 55h27q156 1 239 -61t83 -179v-59q0 -117 -52 -191t-196 -166q-146 -92 -183 -184h445z" />
    <glyph glyph-name="three.denominator" horiz-adv-x="821" 
d="M270 438v183h133q88 0 89 88v49q0 49 -14 64t-56 16h-27q-39 0 -56 -18t-17 -60v-43h-234v119q0 100 81 155t230 56h27q307 0 307 -259v-71q0 -117 -117 -154q141 -41 142 -198v-74q0 -162 -83 -234t-249 -71h-68q-156 0 -230 49t-73 160v145h236v-66q0 -66 92 -65h53
q86 0 86 82v69q0 43 -23 61q-24 17 -79 17h-150z" />
    <glyph glyph-name="four.denominator" horiz-adv-x="843" 
d="M426 373v250l-145 -250h145zM678 0h-252v168h-395v174l426 690h221v-659h125v-205h-125v-168z" />
    <glyph glyph-name="five.denominator" horiz-adv-x="784" 
d="M682 1032v-207h-340l-2 -139l68 2q322 6 321 -295v-102q0 -162 -80 -234t-237 -71h-56q-156 0 -230 49t-73 160v124h236v-32q0 -49 16 -63t60 -15h57q39 0 55 14t17 66v102q0 80 -86 80h-308l15 561h567z" />
    <glyph glyph-name="six.denominator" horiz-adv-x="854" 
d="M530 385q0 61 -97 61t-99 -55v-121q0 -61 98 -61t98 61v115zM510 653q110 0 191 -50t81 -142v-252q0 -103 -94 -163t-256 -60t-256 59t-94 164v614q0 103 94 163t256 60t256 -58q94 -60 94 -167v-96h-252v37q0 61 -98 61t-98 -59v-143q66 32 176 32z" />
    <glyph glyph-name="seven.denominator" horiz-adv-x="710" 
d="M41 825v207h639v-176l-363 -856h-247l348 825h-377z" />
    <glyph glyph-name="eight.denominator" horiz-adv-x="837" 
d="M420 856q-100 0 -101 -63v-86q1 -63 101 -63t100 63v86q0 63 -100 63zM518 406q0 59 -99 59t-100 -59v-168q-1 -62 99 -62t100 62v168zM420 1047q156 1 245 -59t89 -167v-96q0 -129 -103 -174q117 -59 117 -166v-176q0 -103 -93 -163t-255 -60t-256 59t-94 164v176
q0 111 116 166q-104 51 -104 174v96q0 106 91 166t247 60z" />
    <glyph glyph-name="nine.denominator" horiz-adv-x="854" 
d="M520 764q0 59 -98 59t-98 -59v-117q0 -59 98 -59t98 59v117zM346 379q-112 0 -193 50t-81 142v252q0 103 94 163t256 60t256 -58q94 -60 94 -165v-614q0 -103 -94 -163t-256 -60t-256 59t-94 166v96h252v-37q0 -61 98 -61t98 61v140q-62 -31 -174 -31z" />
    <glyph glyph-name="zero.numerator" horiz-adv-x="882" 
d="M442 659q55 0 81 22t26 73v426q0 55 -25 74q-25 20 -82 20t-83 -20t-25 -74v-426q-1 -95 108 -95zM803 1241v-549q0 -120 -96 -188q-97 -68 -265 -68t-264 68t-96 188v549q0 121 96 189t264 68t265 -68q96 -68 96 -189z" />
    <glyph glyph-name="one.numerator" horiz-adv-x="571" 
d="M475 451h-254v735l-182 -62v236l256 123h180v-1032z" />
    <glyph glyph-name="two.numerator" horiz-adv-x="819" 
d="M762 657v-206h-705v98q0 285 228 422q67 41 105 69t72 69q34 42 34 81v35q0 63 -72 63h-43q-68 0 -68 -63v-90h-235v153q0 100 85 154t236 55h27q156 0 239 -61t83 -179v-59q0 -116 -52 -190t-196 -166q-146 -92 -183 -185h445z" />
    <glyph glyph-name="three.numerator" horiz-adv-x="821" 
d="M270 889v182h133q88 0 89 88v49q0 48 -14 64t-56 16h-27q-39 0 -56 -17t-17 -61v-43h-234v119q0 100 81 156t230 55h27q307 0 307 -258v-72q0 -117 -117 -153q141 -41 142 -199v-74q0 -161 -83 -233t-249 -72h-68q-156 0 -230 49t-73 160v146h236v-66q0 -66 92 -66h53
q86 0 86 82v70q0 43 -23 60q-24 17 -79 18h-150z" />
    <glyph glyph-name="four.numerator" horiz-adv-x="843" 
d="M426 823v250l-145 -250h145zM678 451h-252v167h-395v175l426 690h221v-660h125v-205h-125v-167z" />
    <glyph glyph-name="five.numerator" horiz-adv-x="784" 
d="M682 1483v-207h-340l-2 -139l68 2q322 6 321 -295v-103q0 -161 -80 -233t-237 -72h-56q-156 0 -230 49t-73 160v125h236v-33q0 -49 16 -63t60 -15h57q39 1 55 15t17 65v103q0 80 -86 80h-308l15 561h567z" />
    <glyph glyph-name="six.numerator" horiz-adv-x="854" 
d="M530 836q0 61 -97 61t-99 -55v-121q0 -61 98 -61t98 61v115zM510 1104q110 0 191 -50t81 -143v-252q0 -104 -94 -163q-94 -60 -256 -60t-256 60t-94 163v615q0 104 94 164t256 59q162 0 256 -59t94 -166v-96h-252v36q0 62 -98 62t-98 -60v-143q66 33 176 33z" />
    <glyph glyph-name="seven.numerator" horiz-adv-x="710" 
d="M41 1276v207h639v-176l-363 -856h-247l348 825h-377z" />
    <glyph glyph-name="eight.numerator" horiz-adv-x="837" 
d="M420 1307q-100 0 -101 -64v-86q1 -63 101 -63t100 63v86q0 64 -100 64zM518 856q0 59 -99 59t-100 -59v-168q-1 -61 99 -61t100 61v168zM420 1497q156 0 245 -59t89 -166v-96q0 -129 -103 -175q117 -59 117 -165v-177q0 -104 -93 -163q-93 -60 -255 -60t-256 60t-94 163
v177q0 111 116 165q-104 51 -104 175v96q0 106 91 166t247 59z" />
    <glyph glyph-name="nine.numerator" horiz-adv-x="854" 
d="M520 1214q0 60 -98 60t-98 -60v-116q0 -60 98 -60t98 60v116zM72 1022v252q0 104 94 164t256 59q162 0 256 -59t94 -164v-615q0 -104 -94 -163q-94 -60 -256 -60t-256 60t-94 166v96h252v-37q0 -61 98 -61t98 61v139q-62 -31 -174 -31q-112 1 -193 51t-81 142z" />
    <glyph glyph-name="a.uni" horiz-adv-x="1191" 
d="M537 207q145 0 239 72v272q-94 41 -237 41q-86 0 -125 -40t-39 -132v-45q0 -168 162 -168zM61 354v58q-1 186 95 284t273 98t347 -53v361q0 57 -43 96t-141 39q-182 0 -182 -135v-125h-275v184q0 150 115 238t344 88t351 -90t122 -236v-1161h-248l-20 86
q-167 -113 -359 -113q-192 -1 -286 99t-93 282z" />
    <glyph glyph-name="e.uni" horiz-adv-x="1144" 
d="M383 1083v-239h393v239q0 78 -53 119t-148 41q-192 0 -192 -160zM383 387q1 -147 197 -147t196 147v102h268v-120q0 -188 -123 -292q-123 -103 -343 -103t-342 102q-122 104 -121 293v733q0 188 121 290q122 102 342 103q220 0 344 -102t122 -291v-475h-661v-240z" />
    <glyph glyph-name="four.alt" horiz-adv-x="1069" 
d="M567 457v516l-260 -516h260zM854 0h-287v219h-530v199l565 1057h252v-1018h166v-238h-166v-219z" />
    <glyph glyph-name="a.alt" horiz-adv-x="1009" 
d="M356 297q0 -96 106 -96t161 43v149q-55 21 -161 21t-106 -97v-20zM53 274v33q0 141 78 218q77 77 225 77t267 -37v219q0 104 -124 104t-124 -104v-67h-262v114q0 141 100 219t291 76q191 0 294 -76t103 -219v-839h-239l-19 74q-129 -86 -283 -86t-230 76q-77 76 -77 218z
" />
    </font>
</defs>
</svg>
