<?xml version="1.0" standalone="no"?>
<!DOCTYPE svg PUBLIC "-//W3C//DTD SVG 1.1//EN" "http://www.w3.org/Graphics/SVG/1.1/DTD/svg11.dtd" >
<svg xmlns="http://www.w3.org/2000/svg">
<metadata>
Created by FontPrep 20130207 at Sun Jun 19 04:07:32 2016
 By Baptiste Briel
Copyright (c) 2016 by Jeremy Dooley. All rights reserved.
</metadata>
<defs>
<font id="2825f2713ce81d62550429160ed27ee7" horiz-adv-x='1024' >
  <font-face 
    font-family="Gineso-NorMed"
    font-weight="600"
    font-stretch="normal"
    units-per-em="2048"
    panose-1="0 0 0 0 0 0 0 0 0 0"
    ascent="1638"
    descent="-410"
    x-height="1106"
    cap-height="1475"
    bbox="-172 -532 2791 2021"
    underline-thickness="102"
    underline-position="-102"
    unicode-range="U+000D-F739"
  />
<missing-glyph horiz-adv-x="1024" 
 />
    <glyph glyph-name=".notdef" horiz-adv-x="1024" 
 />
    <glyph glyph-name=".null" horiz-adv-x="0" 
 />
    <glyph glyph-name="nonmarkingreturn" horiz-adv-x="681" 
 />
    <glyph glyph-name="NULL" horiz-adv-x="0" 
 />
    <glyph glyph-name="NULL" horiz-adv-x="0" 
 />
    <glyph glyph-name="CR" unicode="&#xd;" horiz-adv-x="397" 
 />
    <glyph glyph-name="space" unicode=" " horiz-adv-x="397" 
 />
    <glyph glyph-name="exclam" unicode="!" horiz-adv-x="466" 
d="M330 0h-195v248h195v-248zM133 1475h203v-517l-43 -602h-119l-41 602v517z" />
    <glyph glyph-name="quotedbl" unicode="&#x22;" horiz-adv-x="690" 
d="M434 971l-55 504h223l-55 -504h-113zM143 971l-55 504h223l-55 -504h-113z" />
    <glyph glyph-name="numbersign" unicode="#" horiz-adv-x="1196" 
d="M481 913l-41 -362h277l43 362h-279zM68 422v129h233l43 362h-215v129h229l52 433h137l-51 -433h278l51 433h138l-52 -433h217v-129h-231l-41 -362h213v-129h-227l-47 -422h-142l49 422h-276l-47 -422h-141l49 422h-219z" />
    <glyph glyph-name="dollar" unicode="$" horiz-adv-x="1038" 
d="M504 -205h-72v185q-170 6 -254 78t-84 221v174h187v-119q0 -109 44 -148t146 -39h90q111 0 162 39t51 162v105q0 82 -41 131t-143 71l-191 41q-151 31 -217 109t-65 254v90q0 315 315 344v186h72v-184h51v184h70v-190q137 -18 215 -95t78 -198v-160h-185v121
q0 178 -196 178h-41q-100 0 -146 -45t-45 -153v-68q0 -104 31 -142t129 -61l176 -39q182 -43 252 -127t70 -251v-101q0 -342 -338 -366v-187h-70v185h-51v-185z" />
    <glyph glyph-name="percent" unicode="%" horiz-adv-x="2105" 
d="M764 -41h-168l688 1557h162zM1640 115q158 0 158 129v426q0 129 -158 129t-157 -129v-426q-1 -129 157 -129zM1954 698v-483q0 -111 -84 -174t-230 -63t-229 62q-84 64 -84 175v483q0 111 84 174q84 64 229 64q146 0 230 -64t84 -174zM250 805q0 -129 159 -129t158 129
v426q-1 129 -159 129t-158 -129v-426zM723 1260v-484q0 -111 -84 -174t-229 -63t-230 63q-84 63 -84 174v484q0 111 84 174t230 63t229 -63q84 -63 84 -174z" />
    <glyph glyph-name="ampersand" unicode="&#x26;" horiz-adv-x="1271" 
d="M289 516v-180q0 -106 56 -152t167 -45h96q201 0 201 183v378h-303q-217 0 -217 -184zM1221 848v-148h-230v-397q0 -324 -377 -323h-102q-203 0 -303 85t-100 281v174q0 205 186 266q-166 70 -166 252v131q0 160 99 243t284 83h66q186 0 288 -75t103 -212v-172h-183v131
q0 168 -208 168h-66q-199 0 -199 -182v-113q0 -193 234 -192h674z" />
    <glyph glyph-name="quotesingle" unicode="'" horiz-adv-x="399" 
d="M143 971l-55 504h223l-55 -504h-113z" />
    <glyph glyph-name="parenleft" unicode="(" horiz-adv-x="624" 
d="M295 580q0 -276 74 -484t227 -465h-207q-299 441 -299 949t299 948h207q-154 -258 -228 -465t-73 -483z" />
    <glyph glyph-name="parenright" unicode=")" horiz-adv-x="624" 
d="M330 580q0 276 -74 483t-227 465h207q299 -440 299 -948t-299 -949h-207q153 257 227 465t74 484z" />
    <glyph glyph-name="asterisk" unicode="*" horiz-adv-x="921" 
d="M98 1202l80 139l250 -200l-49 317h162l-49 -317l251 200l82 -139l-303 -117l301 -116l-80 -140l-251 201l49 -317h-162l49 317l-250 -201l-82 140l299 116z" />
    <glyph glyph-name="plus" unicode="+" horiz-adv-x="987" 
d="M416 1229h155v-338h338v-158h-338v-338h-155v338h-340v158h340v338z" />
    <glyph glyph-name="comma" unicode="," horiz-adv-x="438" 
d="M182 -211h-123l70 461h217z" />
    <glyph glyph-name="hyphen" unicode="-" horiz-adv-x="901" 
d="M788 801v-160h-675v160h675z" />
    <glyph glyph-name="period" unicode="." horiz-adv-x="417" 
d="M305 0h-194v248h194v-248z" />
    <glyph glyph-name="slash" unicode="/" horiz-adv-x="1101" 
d="M240 -53h-205l831 1581h201z" />
    <glyph glyph-name="zero" unicode="0" horiz-adv-x="1075" 
d="M539 145q109 -1 165 49t56 134v819q0 84 -56 133t-166 49q-108 0 -165 -49t-58 -133v-819q-1 -84 57 -134t167 -49zM946 1176v-877q0 -152 -110 -236q-110 -83 -298 -83q-189 0 -298 84t-109 235v877q0 152 109 236t298 83q188 1 298 -83t110 -236z" />
    <glyph glyph-name="one" unicode="1" horiz-adv-x="665" 
d="M516 0h-182v1268l-260 -121v168l313 160h129v-1475z" />
    <glyph glyph-name="two" unicode="2" horiz-adv-x="983" 
d="M895 160v-160h-799v84q-8 221 78 378t272 281q187 123 223 220q17 47 17 106v68q0 199 -178 198h-37q-86 0 -133 -45t-47 -129v-137h-182v172q0 143 96 221t268 78h35q178 0 272 -87t94 -255v-86q0 -104 -45 -190t-112 -145q-68 -58 -189 -138q-238 -154 -254 -434h621z
" />
    <glyph glyph-name="three" unicode="3" horiz-adv-x="1005" 
d="M377 700v148h119q197 0 196 184v129q0 174 -168 174h-37q-188 0 -188 -159v-144h-168v176q0 137 94 212t264 75h35q352 0 353 -326v-131q0 -186 -172 -239q190 -55 190 -279v-174q0 -194 -92 -280t-279 -86h-90q-174 0 -260 70t-86 229v165h170v-122q0 -92 44 -134
t136 -41h80q100 -1 150 45t49 152v172q0 184 -189 184h-151z" />
    <glyph glyph-name="four" unicode="4" horiz-adv-x="968" 
d="M750 0h-187v252h-516v88l328 1135h188l-309 -1067h309v210l53 205h134v-415h159v-156h-159v-252z" />
    <glyph glyph-name="five" unicode="5" horiz-adv-x="966" 
d="M834 1475v-160h-492l-10 -406l170 2q369 2 368 -362v-203q0 -194 -92 -280t-274 -86h-66q-178 0 -264 74t-86 237v153h180v-90q0 -114 43 -160t131 -47h66q180 0 180 205v193q0 201 -190 200h-351l19 730h668z" />
    <glyph glyph-name="six" unicode="6" horiz-adv-x="1044" 
d="M543 731q-103 0 -161 -48t-60 -138v-203q0 -195 210 -195t211 195v195q1 194 -200 194zM578 891q166 0 260 -80t94 -223v-287q0 -153 -108 -237t-296 -84t-291 84t-104 235v877q1 152 107 236t292 83q186 0 292 -81q108 -81 108 -226v-152h-189v109q-1 182 -211 182
t-210 -194v-326q89 84 256 84z" />
    <glyph glyph-name="seven" unicode="7" horiz-adv-x="858" 
d="M53 1315v160h756v-132l-479 -1343h-191l467 1315h-553z" />
    <glyph glyph-name="eight" unicode="8" horiz-adv-x="1042" 
d="M725 1169q0 174 -204 174t-204 -174v-139q0 -170 204 -170t204 170v139zM521 715q-226 0 -226 -203v-182q0 -199 226 -199t227 199v182q-1 203 -227 203zM135 1188q-1 145 103 226t283 81t283 -81t103 -226v-148q0 -188 -159 -256q190 -76 190 -270v-215
q0 -152 -112 -236q-112 -83 -306 -83t-304 84q-112 84 -112 235v215q0 193 193 272q-162 70 -162 254v148z" />
    <glyph glyph-name="nine" unicode="9" horiz-adv-x="1044" 
d="M723 1133q0 195 -212 195t-212 -195v-195q0 -195 203 -195q102 -1 160 47t61 138v205zM465 584q-168 0 -260 80t-92 223v287q-1 152 107 236t296 85q188 0 292 -84t103 -235v-877q1 -152 -107 -236q-108 -83 -292 -83t-292 80t-107 227v151h186v-108q0 -182 212 -182
t212 194v326q-90 -84 -258 -84z" />
    <glyph glyph-name="colon" unicode=":" horiz-adv-x="444" 
d="M322 807h-195v248h195v-248zM322 0h-195v248h195v-248z" />
    <glyph glyph-name="semicolon" unicode=";" horiz-adv-x="495" 
d="M211 -211h-123l70 461h217zM365 807h-195v248h195v-248z" />
    <glyph glyph-name="less" unicode="&#x3c;" horiz-adv-x="808" 
d="M55 559v150l461 561h223l-528 -635l528 -635h-223z" />
    <glyph glyph-name="equal" unicode="=" horiz-adv-x="923" 
d="M801 432v-160h-676v160h676zM801 842v-160h-676v160h676z" />
    <glyph glyph-name="greater" unicode="&#x3e;" horiz-adv-x="811" 
d="M756 709v-150l-461 -559h-223l528 635l-528 635h223z" />
    <glyph glyph-name="question" unicode="?" horiz-adv-x="1001" 
d="M518 0h-194v248h194v-248zM510 297h-180v240q0 102 43 157t146 93t139 81t36 121v160q0 190 -190 190h-37q-193 0 -193 -190v-139h-182v184q0 147 102 224t273 77h37q174 0 275 -77t102 -222v-242q1 -121 -49 -175t-160 -98t-136 -84t-26 -101v-199z" />
    <glyph glyph-name="at" unicode="@" horiz-adv-x="1556" 
d="M754 453q125 0 194 82v372q-59 66 -192 66q-150 0 -150 -158v-205q0 -84 36 -120t112 -37zM1196 440q45 0 74 22t28 58v643q0 186 -258 187h-505q-250 0 -250 -187v-882q0 -186 250 -187h819v-127h-838q-178 0 -279 78t-102 217v920q-1 139 101 217t280 78h545
q179 0 283 -78t104 -217v-680q0 -92 -70 -142t-208 -51q-138 0 -195 88q-101 -88 -245 -88t-217 80t-73 207v233q0 129 72 208t206 79t230 -72v58h158v-582q0 -80 90 -80z" />
    <glyph glyph-name="A" unicode="A" horiz-adv-x="1138" 
d="M569 1264l-213 -756h424zM215 0h-190l436 1475h217l436 -1475h-190l-97 340h-518z" />
    <glyph glyph-name="B" unicode="B" horiz-adv-x="1097" 
d="M522 1323h-180v-465h180q236 0 236 201v53q0 211 -236 211zM559 715h-217v-563h217q123 0 192 59t68 176v117q0 104 -68 158q-69 53 -192 53zM559 0h-407v1475h370q203 0 315 -83t111 -255v-84q0 -180 -180 -246q242 -59 242 -297v-145q0 -181 -120 -273t-331 -92z" />
    <glyph glyph-name="C" unicode="C" horiz-adv-x="1132" 
d="M326 342q0 -102 61 -148t193 -47q256 0 256 195v190h178v-233q0 -152 -119 -236q-119 -83 -323 -83t-320 84t-117 235v877q0 152 119 236t323 83q205 0 321 -84t116 -235v-234h-178v191q0 94 -69 144t-187 50q-254 0 -254 -194v-791z" />
    <glyph glyph-name="D" unicode="D" horiz-adv-x="1163" 
d="M510 1315h-168v-1155h180q334 0 334 317v520q0 166 -83 242t-263 76zM152 0v1475h358q280 0 404 -117t124 -354v-533q0 -243 -122 -357t-394 -114h-370z" />
    <glyph glyph-name="E" unicode="E" 
d="M899 160v-160h-747v1475h747v-160h-557v-473h436v-160h-436v-522h557z" />
    <glyph glyph-name="F" unicode="F" horiz-adv-x="944" 
d="M342 0h-190v1475h747v-160h-557v-535h436v-159h-436v-621z" />
    <glyph glyph-name="G" unicode="G" horiz-adv-x="1153" 
d="M1030 0h-100l-39 100q-103 -120 -315 -120t-326 84t-115 235v877q0 152 121 236t329 83q209 0 327 -84t118 -235v-234h-182v191q0 94 -69 144t-191 50q-262 0 -262 -194v-783q0 -203 257 -203t265 193v235h-260v160h442v-735z" />
    <glyph glyph-name="H" unicode="H" horiz-adv-x="1187" 
d="M342 0h-190v1475h190v-633h504v633h190v-1475h-190v682h-504v-682z" />
    <glyph glyph-name="I" unicode="I" horiz-adv-x="493" 
d="M342 0h-190v1475h190v-1475z" />
    <glyph glyph-name="J" unicode="J" horiz-adv-x="1054" 
d="M244 350q0 -201 238 -202t239 219v1108h190v-1115q-1 -188 -113 -284t-312 -96t-312 84t-113 235v238h183v-187z" />
    <glyph glyph-name="K" unicode="K" horiz-adv-x="1052" 
d="M342 0h-190v1475h190v-676l463 676h205l-486 -715l514 -760h-217l-479 707v-707z" />
    <glyph glyph-name="L" unicode="L" horiz-adv-x="907" 
d="M874 160v-160h-722v1475h190v-1315h532z" />
    <glyph glyph-name="M" unicode="M" horiz-adv-x="1488" 
d="M334 0h-182v1475h198l393 -748l396 748h198v-1475h-182v1028l6 133l-352 -661h-131l-350 665l6 -135v-1030z" />
    <glyph glyph-name="N" unicode="N" horiz-adv-x="1236" 
d="M1085 0h-153l-608 1071l2 -53v-1018h-174v1475h153l608 -1076l-2 76v1000h174v-1475z" />
    <glyph glyph-name="O" unicode="O" horiz-adv-x="1175" 
d="M850 1100q0 121 -64 174t-199 53q-137 0 -199 -53t-62 -174v-725q0 -121 62 -174t198 -53t200 52q63 54 64 175v725zM587 1495q214 0 334 -89t119 -251v-836q0 -163 -120 -251t-333 -88q-214 0 -333 89t-119 250v836q0 162 119 251t333 89z" />
    <glyph glyph-name="P" unicode="P" horiz-adv-x="1042" 
d="M516 1315h-174v-588h168q137 0 203 56t65 180v100q0 129 -64 191t-198 61zM342 0h-190v1475h354q244 -1 354 -103t109 -299v-133q0 -182 -110 -277t-353 -96h-164v-567z" />
    <glyph glyph-name="Q" unicode="Q" horiz-adv-x="1175" 
d="M850 1100q0 121 -64 174t-199 53q-137 0 -199 -53t-62 -174v-725q0 -121 62 -174t198 -53t200 52q63 54 64 175v725zM587 1495q214 0 334 -89t119 -251v-836q0 -244 -260 -317l211 -252l-129 -106l-274 336q-215 0 -334 89t-119 250v836q0 162 119 251t333 89z" />
    <glyph glyph-name="R" unicode="R" horiz-adv-x="1075" 
d="M500 1315h-158v-588h152q136 0 202 56t66 180v100q0 129 -64 191t-198 61zM342 0h-190v1475h337q244 -1 354 -103t109 -299v-133q0 -276 -245 -346l350 -594h-215l-326 567h-174v-567z" />
    <glyph glyph-name="S" unicode="S" horiz-adv-x="1054" 
d="M965 449v-101q0 -369 -394 -368h-104q-186 0 -279 70q-92 71 -92 229v174h187v-119q0 -109 44 -148t146 -39h90q111 0 162 39t51 162v105q0 82 -41 131t-143 71l-191 41q-151 31 -217 109t-65 254v90q0 170 95 258t278 88h45q180 0 281 -79t102 -220v-160h-185v121
q0 178 -196 178h-41q-100 0 -146 -45t-45 -153v-68q0 -104 31 -142t129 -61l176 -39q182 -43 252 -127t70 -251z" />
    <glyph glyph-name="T" unicode="T" horiz-adv-x="940" 
d="M565 0h-190v1315h-342v160h872v-160h-340v-1315z" />
    <glyph glyph-name="U" unicode="U" horiz-adv-x="1191" 
d="M858 1475h191v-1143q0 -166 -121 -259t-331 -93t-332 93t-122 259v1143h191v-1096q0 -231 262 -231t262 231v1096z" />
    <glyph glyph-name="V" unicode="V" horiz-adv-x="1085" 
d="M848 1475h190l-393 -1475h-203l-395 1475h191l305 -1235z" />
    <glyph glyph-name="W" unicode="W" horiz-adv-x="1665" 
d="M1423 1475h189l-295 -1475h-225l-258 1206l-259 -1206h-227l-293 1475h187l227 -1280l270 1280h187l270 -1276z" />
    <glyph glyph-name="X" unicode="X" horiz-adv-x="1054" 
d="M61 1475h205l262 -586l263 586h202l-346 -723l391 -752h-207l-303 618l-305 -618h-207l390 752z" />
    <glyph glyph-name="Y" unicode="Y" horiz-adv-x="1081" 
d="M635 0h-189v530l-407 945h201l299 -752l301 752h200l-405 -945v-530z" />
    <glyph glyph-name="Z" unicode="Z" horiz-adv-x="985" 
d="M86 1315v160h819v-127l-624 -1188h647v-160h-877v127l631 1188h-596z" />
    <glyph glyph-name="bracketleft" unicode="[" horiz-adv-x="548" 
d="M473 -117v-159h-330v1751h330v-160h-154v-1432h154z" />
    <glyph glyph-name="backslash" unicode="\" horiz-adv-x="1101" 
d="M1067 -53h-205l-827 1581h201z" />
    <glyph glyph-name="bracketright" unicode="]" horiz-adv-x="548" 
d="M76 -276v159h153v1432h-153v160h330v-1751h-330z" />
    <glyph glyph-name="asciicircum" unicode="^" horiz-adv-x="1083" 
d="M260 813h-199l400 657h162l399 -657h-199l-282 500z" />
    <glyph glyph-name="underscore" unicode="_" horiz-adv-x="1105" 
d="M1020 0v-160h-934v160h934z" />
    <glyph glyph-name="grave" unicode="`" horiz-adv-x="794" 
d="M424 1126h-129l-299 336h229z" />
    <glyph glyph-name="a" unicode="a" horiz-adv-x="946" 
d="M414 133q135 0 227 62v276h-201q-94 0 -137 -35t-43 -114v-46q0 -143 154 -143zM76 266v49q0 295 332 295h233v205q0 82 -42 119t-131 37t-127 -37t-38 -119v-57h-172v82q0 286 345 286t345 -286v-848h-149l-19 78q-131 -82 -283 -82t-224 70q-70 71 -70 208z" />
    <glyph glyph-name="b" unicode="b" horiz-adv-x="1009" 
d="M565 963q-74 0 -254 -91v-641q113 -82 242 -81q160 0 160 194v449q-1 170 -148 170zM131 -8v1483h180v-445q178 96 297 96q285 0 285 -295v-526q0 -151 -76 -235q-77 -84 -229 -84t-277 88v-2l-20 -80h-160z" />
    <glyph glyph-name="c" unicode="c" horiz-adv-x="968" 
d="M293 330q0 -186 205 -187q92 0 145 46t53 141v104h172v-147q0 -145 -97 -227t-277 -80q-180 0 -281 79q-100 80 -100 228v532q0 147 100 227q101 80 281 80t277 -80t97 -227v-160h-172v117q0 186 -202 186t-201 -186v-446z" />
    <glyph glyph-name="d" unicode="d" horiz-adv-x="997" 
d="M297 344q0 -194 176 -194q92 0 213 67v672q-113 74 -207 74q-182 0 -182 -170v-449zM866 0h-159l-19 66q-131 -80 -272 -80t-220 84t-79 223v538q0 137 79 217t221 78q142 0 269 -69v418h180v-1475z" />
    <glyph glyph-name="e" unicode="e" 
d="M293 772v-147h403v147q0 199 -207 199q-102 1 -149 -47t-47 -152zM293 334q0 -104 47 -152t149 -47q207 0 207 199v35h181v-70q-1 -152 -103 -236q-102 -83 -284 -83t-279 84q-98 84 -98 235v508q0 151 98 235t279 84q182 0 284 -84t103 -235v-328h-584v-145z" />
    <glyph glyph-name="f" unicode="f" horiz-adv-x="620" 
d="M340 1251v-145h246v-148h-246v-958h-180v958h-103v148h103v151q0 299 309 299q92 0 137 -18v-156q-41 18 -118 18q-76 0 -112 -34q-36 -35 -36 -115z" />
    <glyph glyph-name="g" unicode="g" 
d="M297 365q0 -195 173 -195q89 0 198 57v674q-102 61 -192 61q-178 1 -179 -169v-428zM117 313v518q0 137 79 217t220 78q141 0 272 -71l14 59h146v-1163q0 -340 -455 -340q-143 0 -262 27v157q115 -29 250 -28q287 0 287 223v84q-123 -68 -258 -68t-214 84t-79 223z" />
    <glyph glyph-name="h" unicode="h" horiz-adv-x="985" 
d="M311 0h-180v1475h180v-433q160 84 289 84t194 -74t64 -206v-846h-180v797q0 164 -139 164q-92 0 -228 -76v-885z" />
    <glyph glyph-name="i" unicode="i" horiz-adv-x="448" 
d="M324 1282h-195v248h195v-248zM313 0h-180v1106h180v-1106z" />
    <glyph glyph-name="j" unicode="j" horiz-adv-x="458" 
d="M336 1294h-195v248h195v-248zM145 1106h181v-1065q0 -229 -70 -329t-240 -101q-47 0 -90 8v154q74 -6 78 -6q76 0 109 62t32 212v1065z" />
    <glyph glyph-name="k" unicode="k" horiz-adv-x="892" 
d="M311 0h-180v1475h180v-836l348 467h203l-393 -504l414 -602h-205l-367 541v-541z" />
    <glyph glyph-name="l" unicode="l" horiz-adv-x="501" 
d="M131 1475h180v-1133q0 -195 119 -195q47 0 70 11v-154q-36 -12 -146 -12t-167 76q-56 76 -56 251v1156z" />
    <glyph glyph-name="m" unicode="m" horiz-adv-x="1495" 
d="M574 1126q158 0 223 -114q131 115 309 114q128 0 194 -78t66 -214v-834h-180v788q0 178 -137 179q-104 0 -213 -82q2 -16 2 -51v-834h-181v788q0 178 -137 179q-121 0 -209 -76v-891h-180v1114h145l19 -82q121 94 279 94z" />
    <glyph glyph-name="n" unicode="n" horiz-adv-x="987" 
d="M599 1126q132 0 197 -74t64 -206v-846h-180v797q0 164 -137 164q-88 0 -232 -78v-883h-180v1114h145l19 -82q172 94 304 94z" />
    <glyph glyph-name="o" unicode="o" horiz-adv-x="987" 
d="M293 776v-446q0 -186 202 -186t201 186v446q0 186 -202 186t-201 -186zM877 819v-532q1 -145 -99 -227t-283 -80q-183 0 -283 80q-99 81 -99 227v532q0 145 99 227q98 82 282 80q184 0 284 -81t99 -226z" />
    <glyph glyph-name="p" unicode="p" horiz-adv-x="1005" 
d="M561 963q-78 0 -250 -89v-647q113 -78 238 -77q160 0 160 194v449q-1 170 -148 170zM311 -369h-180v1483h145l21 -90q190 102 309 102q283 0 283 -295v-526q0 -151 -76 -235q-75 -84 -225 -84t-277 86v-441z" />
    <glyph glyph-name="q" unicode="q" horiz-adv-x="1009" 
d="M297 344q0 -194 177 -194q93 0 222 73v660q-123 80 -217 80q-182 0 -182 -170v-449zM877 -369h-181v439q-137 -84 -279 -84t-221 84t-79 223v538q0 137 79 217q80 80 230 78q150 0 289 -86l18 74h144v-1483z" />
    <glyph glyph-name="r" unicode="r" horiz-adv-x="796" 
d="M760 668h-176v209q0 90 -79 90t-194 -99v-868h-180v1114h145l19 -102q137 115 274 114q95 0 143 -58t48 -161v-239z" />
    <glyph glyph-name="s" unicode="s" horiz-adv-x="917" 
d="M829 369v-90q0 -164 -95 -232t-283 -67q-365 0 -365 266v123h172v-101q0 -76 48 -104t146 -29q98 0 150 29q51 29 51 112v80q0 49 -30 79q-31 30 -103 42l-162 29q-147 23 -199 84t-53 215v59q0 262 353 262q170 0 260 -66t90 -188v-112h-170v98q0 121 -174 121
q-98 0 -143 -29t-46 -92v-53q0 -78 30 -104t120 -42l147 -26q141 -23 199 -81t57 -183z" />
    <glyph glyph-name="t" unicode="t" horiz-adv-x="655" 
d="M47 958v148h123v246h180v-246h238v-148h-238v-647q0 -86 36 -128t116 -42t127 19v-152q-66 -20 -166 -20q-153 0 -223 74t-70 219v677h-123z" />
    <glyph glyph-name="u" unicode="u" horiz-adv-x="993" 
d="M862 0h-145l-17 78q-176 -98 -309 -98t-199 76t-65 216v834h180v-784q0 -176 139 -177q96 0 236 80v881h180v-1106z" />
    <glyph glyph-name="v" unicode="v" horiz-adv-x="929" 
d="M694 1106h189l-322 -1106h-194l-322 1106h188l230 -909z" />
    <glyph glyph-name="w" unicode="w" horiz-adv-x="1398" 
d="M51 1106h189l172 -928l196 928h183l196 -928l174 928h189l-256 -1106h-203l-191 879l-190 -879h-205z" />
    <glyph glyph-name="x" unicode="x" horiz-adv-x="880" 
d="M51 1106h197l192 -408l197 408h192l-290 -528l315 -578h-195l-219 444l-221 -444h-190l311 578z" />
    <glyph glyph-name="y" unicode="y" horiz-adv-x="944" 
d="M180 -387q-74 0 -110 10v156q32 -10 102 -10t125 48t92 179v4l-350 1106h199l241 -881l232 881h198l-346 -1133q-70 -219 -160 -289t-223 -71z" />
    <glyph glyph-name="z" unicode="z" horiz-adv-x="843" 
d="M90 958v148h676v-127l-522 -832h542v-147h-737v127l510 831h-469z" />
    <glyph glyph-name="braceleft" unicode="{" horiz-adv-x="593" 
d="M188 1212q0 141 79 212t261 71v-156q-160 0 -159 -149v-420q0 -186 -125 -242q125 -57 125 -241v-494q0 -150 159 -149v-156q-182 0 -261 71t-79 212v518q0 162 -143 162v155q143 0 143 162v444z" />
    <glyph glyph-name="bar" unicode="|" horiz-adv-x="464" 
d="M324 -512h-181v2048h181v-2048z" />
    <glyph glyph-name="braceright" unicode="}" horiz-adv-x="593" 
d="M406 1212v-444q0 -162 143 -162v-155q-143 0 -143 -162v-518q0 -141 -79 -212t-261 -71v156q160 0 159 149v494q0 184 125 241q-125 55 -125 242v420q0 150 -159 149v156q182 0 261 -71t79 -212z" />
    <glyph glyph-name="asciitilde" unicode="~" horiz-adv-x="1112" 
d="M768 715q-84 0 -143 38q-59 37 -111 75t-113 38q-119 0 -125 -139h-167q2 147 70 226q69 79 175 79t170 -37q66 -37 114 -73t105 -35t82 37t27 110h168q-10 -319 -252 -319z" />
    <glyph glyph-name="uni00A0" unicode="&#xa0;" horiz-adv-x="397" 
 />
    <glyph glyph-name="exclamdown" unicode="&#xa1;" horiz-adv-x="466" 
d="M133 1475h201v-248h-201v248zM336 0h-203v483l41 627h119l43 -627v-483z" />
    <glyph glyph-name="cent" unicode="&#xa2;" horiz-adv-x="952" 
d="M545 -266h-101v248q-164 8 -252 88t-88 217v532q0 137 88 217t252 88v207h101v-207q151 -12 233 -92t82 -213v-160h-172v117q0 186 -202 186t-201 -186v-446q0 -186 204 -187q92 0 146 46q53 46 53 141v104h172v-147q0 -135 -82 -214t-233 -91v-248z" />
    <glyph glyph-name="sterling" unicode="&#xa3;" horiz-adv-x="1054" 
d="M688 698v-157h-264q-10 -184 -119 -385h653v-156h-858v129q135 248 144 412h-138v157h121q-10 39 -40 125q-66 189 -66 344q0 154 98 241t283 87h41q195 0 305 -79t110 -220v-147h-180v79q0 111 -54 160t-175 49h-41q-111 0 -157 -53q-46 -54 -46 -158t50 -250t57 -178
h276z" />
    <glyph glyph-name="currency" unicode="&#xa4;" horiz-adv-x="1077" 
d="M477 946q-158 0 -158 -104v-355q0 -106 158 -106h123q84 0 121 26t37 80v355q0 55 -36 80t-122 24h-123zM176 434v459q0 37 12 65l-106 111l98 100l113 -116q68 29 158 28h174q92 0 159 -28l111 116l98 -100l-104 -108q14 -35 14 -68v-459q0 -27 -10 -57l92 -94l-98 -101
l-92 94q-68 -31 -170 -30h-174q-104 0 -170 33l-91 -97l-100 101l94 98q-8 23 -8 53z" />
    <glyph glyph-name="yen" unicode="&#xa5;" horiz-adv-x="1091" 
d="M635 0h-189v211h-280v160h280v159h-280v160h211l-338 785h201l299 -752l301 752h200l-338 -785h213v-160h-280v-159h280v-160h-280v-211z" />
    <glyph glyph-name="brokenbar" unicode="&#xa6;" horiz-adv-x="466" 
d="M328 717h-187v819h187v-819zM141 307h187v-819h-187v819z" />
    <glyph glyph-name="section" unicode="&#xa7;" horiz-adv-x="1110" 
d="M467 594q-197 0 -197 -123v-51q0 -70 32 -92t149 -45l122 -21q16 -4 45 -8h35q98 0 147 28q48 28 48 101v55q0 53 -44 82t-175 60l-62 12q-31 2 -100 2zM1030 385q0 -223 -205 -270q23 -51 23 -131v-41q0 -164 -93 -238t-293 -74t-295 66t-95 213v90h172v-80
q0 -78 53 -106t158 -27q105 0 157 30t52 111v56q0 57 -41 90t-164 53l-131 20q-135 25 -186 81q-50 56 -50 192v59q0 193 209 244q-27 55 -27 151v72q0 127 96 195q96 67 270 67q175 0 272 -66t98 -188v-104h-172v78q0 72 -44 102t-146 31q-102 0 -148 -29q-47 -29 -47 -92
v-66q-1 -63 33 -88t139 -47l104 -20q177 -33 239 -89t62 -179v-66z" />
    <glyph glyph-name="dieresis" unicode="&#xa8;" horiz-adv-x="1001" 
d="M793 1167h-201v224h201v-224zM391 1167h-201v224h201v-224z" />
    <glyph glyph-name="copyright" unicode="&#xa9;" horiz-adv-x="1480" 
d="M618 532q0 -104 123 -104q55 0 87 28t32 76v105h129v-141q0 -90 -66 -141q-67 -50 -184 -50t-187 50t-69 141v467q0 90 70 140q71 50 187 50t183 -50t66 -140v-142h-129v105q0 104 -121 104t-121 -104v-394zM946 1346h-409q-256 0 -256 -179v-860q0 -178 256 -178h409
q256 0 256 178v860q0 179 -256 179zM1346 1196v-917q0 -133 -102 -206t-277 -73h-451q-178 0 -279 73t-102 206v917q-1 133 101 206t280 73h451q175 0 277 -73t102 -206z" />
    <glyph glyph-name="ordfeminine" unicode="&#xaa;" horiz-adv-x="776" 
d="M350 805q82 0 137 37v151q-59 27 -135 27q-98 0 -98 -92v-31q0 -92 96 -92zM88 899v27q0 98 53 151t153 53t193 -28v155q0 27 -5 45q-13 48 -95 50q-98 0 -98 -95v-36h-160v71q0 94 66 150q67 56 197 55q130 0 197 -54t66 -151v-583h-143l-12 47q-96 -62 -202 -62
t-158 54t-52 151z" />
    <glyph glyph-name="guillemotleft" unicode="&#xab;" horiz-adv-x="983" 
d="M485 649l232 346h178l-252 -405l-4 -2h4l252 -406h-178l-232 346v121zM76 649l231 346h178l-252 -405l-4 -2h4l252 -406h-178l-231 346v121z" />
    <glyph glyph-name="logicalnot" unicode="&#xac;" horiz-adv-x="1075" 
d="M944 549h-170v121h-657v159h827v-280z" />
    <glyph glyph-name="uni00AD" unicode="&#xad;" horiz-adv-x="901" 
d="M788 801v-160h-675v160h675z" />
    <glyph glyph-name="registered" unicode="&#xae;" horiz-adv-x="1480" 
d="M713 1020h-80v-277h74q77 0 113 25t36 92v43q0 65 -36 91t-107 26zM633 332h-135v801h223q270 0 270 -220v-86q0 -143 -145 -182l153 -313h-153l-135 299h-78v-299zM946 1346h-409q-256 0 -256 -179v-860q0 -178 256 -178h409q256 0 256 178v860q0 179 -256 179z
M1346 1196v-917q0 -133 -102 -206t-277 -73h-451q-178 0 -279 73t-102 206v917q-1 133 101 206t280 73h451q175 0 277 -73t102 -206z" />
    <glyph glyph-name="macron" unicode="&#xaf;" horiz-adv-x="1705" 
d="M569 1358h-569v141h569v-141z" />
    <glyph glyph-name="degree" unicode="&#xb0;" horiz-adv-x="772" 
d="M240 1143q0 -133 146 -133t146 133v82q0 133 -146 133t-146 -133v-82zM680 1241v-115q0 -254 -295 -254q-143 0 -219 66t-76 188v115q0 123 76 189t219 66t219 -66t76 -189z" />
    <glyph glyph-name="plusminus" unicode="&#xb1;" horiz-adv-x="1060" 
d="M946 156v-158h-833v158h833zM453 1194h155v-338h338v-158h-338v-338h-155v338h-340v158h340v338z" />
    <glyph glyph-name="twosuperior" unicode="&#xb2;" horiz-adv-x="770" 
d="M700 590v-139h-624v71q0 270 184 404q27 20 83 56t88 60t59 65q28 42 28 89v43q0 117 -119 117h-34q-117 0 -117 -105v-92h-160v129q0 100 75 154t210 55h26q285 0 285 -240v-59q0 -110 -52 -180t-213 -168t-181 -260h462z" />
    <glyph glyph-name="threesuperior" unicode="&#xb3;" horiz-adv-x="782" 
d="M285 926v127h100q133 0 133 121v69q0 61 -26 87q-27 26 -86 26h-27q-121 0 -121 -107v-73h-156v116q0 98 73 152t206 53h27q274 0 274 -235v-88q0 -125 -123 -162q139 -41 139 -197v-108q0 -143 -72 -207q-73 -63 -218 -64h-68q-137 0 -204 49t-66 160v121h157v-76
q0 -104 125 -104h58q131 0 131 121v104q0 115 -131 115h-125z" />
    <glyph glyph-name="acute" unicode="&#xb4;" horiz-adv-x="770" 
d="M281 1126h-129l186 336h229z" />
    <glyph glyph-name="mu" unicode="&#xb5;" horiz-adv-x="1017" 
d="M322 -512h-181v1618h181v-784q0 -176 139 -177q96 0 235 80v881h181v-1106h-146l-16 78q-176 -98 -316 -98q-47 0 -77 8v-500z" />
    <glyph glyph-name="paragraph" unicode="&#xb6;" horiz-adv-x="964" 
d="M530 -238h-157v916h-86q-102 0 -157 47q-54 47 -54 135v432q0 182 211 183h528v-1713h-158v1573h-127v-1573z" />
    <glyph glyph-name="periodcentered" unicode="&#xb7;" horiz-adv-x="442" 
d="M322 471h-195v248h195v-248z" />
    <glyph glyph-name="cedilla" unicode="&#xb8;" horiz-adv-x="770" 
d="M358 16h103v-112h10q94 0 137 -40t43 -128t-53 -127t-186 -39h-107v98h113q61 0 84 16t22 54v8q0 41 -22 57q-23 16 -78 17h-66v196z" />
    <glyph glyph-name="onesuperior" unicode="&#xb9;" horiz-adv-x="493" 
d="M381 451h-166v841l-170 -63v153l219 101h117v-1032z" />
    <glyph glyph-name="ordmasculine" unicode="&#xba;" horiz-adv-x="784" 
d="M268 1237v-287q0 -108 121 -108t121 108v287q0 109 -121 109t-121 -109zM674 1278v-369q0 -102 -75 -159q-75 -58 -209 -58t-210 58t-76 159v369q0 102 76 160t210 57q134 1 209 -57t75 -160z" />
    <glyph glyph-name="guillemotright" unicode="&#xbb;" horiz-adv-x="983" 
d="M676 995l231 -346v-121l-231 -346h-178l252 406h4l-4 2l-252 405h178zM266 995l232 -346v-121l-232 -346h-178l252 406h4l-4 2l-252 405h178z" />
    <glyph glyph-name="onequarter" unicode="&#xbc;" horiz-adv-x="1812" 
d="M1460 338v397l-223 -397h223zM1628 0h-168v199h-395v112l418 721h145v-694h125v-139h-125v-199zM573 -41h-167l688 1557h161zM389 451h-166v841l-170 -63v153l219 101h117v-1032z" />
    <glyph glyph-name="onehalf" unicode="&#xbd;" horiz-adv-x="1871" 
d="M1792 139v-139h-625v72q0 270 185 403q27 20 83 56t88 60q31 23 59 65t28 89v43q0 117 -119 117h-35q-117 0 -117 -104v-92h-159v129q0 100 74 154q75 54 210 55h27q285 0 285 -240v-59q0 -109 -52 -180t-214 -169q-160 -98 -181 -260h463zM573 -41h-167l688 1557h161z
M389 451h-166v841l-170 -63v153l219 101h117v-1032z" />
    <glyph glyph-name="threequarters" unicode="&#xbe;" horiz-adv-x="2017" 
d="M1665 338v397l-223 -397h223zM1833 0h-168v199h-395v112l418 721h145v-694h125v-139h-125v-199zM778 -41h-168l688 1557h162zM293 926v127h100q133 0 133 121v69q0 61 -26 87q-27 26 -86 26h-27q-121 0 -121 -107v-73h-155v116q0 98 72 152q73 53 206 53h27
q274 0 274 -235v-88q0 -125 -123 -162q139 -41 140 -197v-108q0 -143 -73 -207t-218 -64h-68q-137 0 -204 49t-66 160v121h158v-76q0 -104 124 -104h58q131 0 131 121v104q0 115 -131 115h-125z" />
    <glyph glyph-name="questiondown" unicode="&#xbf;" horiz-adv-x="993" 
d="M674 891h-195v248h195v-248zM516 752h180v-240q0 -102 -43 -158t-146 -93q-103 -38 -139 -81t-36 -121v-159q0 -190 190 -191h37q193 0 193 191v139h182v-184q0 -147 -101 -225t-274 -76h-37q-174 0 -275 76t-102 223v241q-1 121 49 175q50 55 160 99t136 84t26 101v199z
" />
    <glyph glyph-name="Agrave" unicode="&#xc0;" horiz-adv-x="1138" 
d="M662 1554h-130l-299 336h230zM569 1264l-213 -756h424zM215 0h-190l436 1475h217l436 -1475h-190l-97 340h-518z" />
    <glyph glyph-name="Aacute" unicode="&#xc1;" horiz-adv-x="1138" 
d="M629 1554h-129l186 336h229zM569 1264l-213 -756h424zM215 0h-190l436 1475h217l436 -1475h-190l-97 340h-518z" />
    <glyph glyph-name="Acircumflex" unicode="&#xc2;" horiz-adv-x="1138" 
d="M504 1847h137l268 -293h-174l-162 172l-163 -172h-174zM569 1264l-213 -756h424zM215 0h-190l436 1475h217l436 -1475h-190l-97 340h-518z" />
    <glyph glyph-name="Atilde" unicode="&#xc3;" horiz-adv-x="1138" 
d="M727 1796h135q-2 -115 -49 -178q-47 -64 -121 -64t-138 52q-62 52 -87 53q-61 0 -66 -107h-131q2 113 52 178q50 64 125 64q77 0 141 -51t80 -51q59 0 59 104zM569 1264l-213 -756h424zM215 0h-190l436 1475h217l436 -1475h-190l-97 340h-518z" />
    <glyph glyph-name="Adieresis" unicode="&#xc4;" horiz-adv-x="1138" 
d="M877 1554h-201v224h201v-224zM475 1554h-201v224h201v-224zM569 1264l-213 -756h424zM215 0h-190l436 1475h217l436 -1475h-190l-97 340h-518z" />
    <glyph glyph-name="Aring" unicode="&#xc5;" horiz-adv-x="1138" 
d="M465 1796q0 -111 110 -110q111 0 111 110v8q0 111 -111 111t-110 -111v-8zM811 1833v-68q0 -186 -236 -186t-235 186v68q0 188 236 188t235 -188zM569 1264l-213 -756h424zM215 0h-190l436 1475h217l436 -1475h-190l-97 340h-518z" />
    <glyph glyph-name="AE" unicode="&#xc6;" horiz-adv-x="1679" 
d="M852 502v751l-389 -751h389zM1599 1475v-160h-559v-473h437v-160h-437v-522h559v-160h-747v342h-471l-176 -342h-199l774 1475h819z" />
    <glyph glyph-name="Ccedilla" unicode="&#xc7;" horiz-adv-x="1132" 
d="M326 342q0 -102 61 -148t193 -47q256 0 256 195v190h178v-233q0 -133 -94 -216t-261 -99v-80h11q94 0 137 -40t43 -128t-53 -127t-187 -39h-106v98h112q61 0 84 16t23 54v8q0 41 -23 57t-77 17h-66v160q-197 4 -309 88t-113 231v877q0 152 119 236t323 83q205 0 321 -84
t116 -235v-234h-178v191q0 94 -69 144t-187 50q-254 0 -254 -194v-791z" />
    <glyph glyph-name="Egrave" unicode="&#xc8;" 
d="M623 1554h-129l-299 336h229zM899 160v-160h-747v1475h747v-160h-557v-473h436v-160h-436v-522h557z" />
    <glyph glyph-name="Eacute" unicode="&#xc9;" 
d="M553 1554h-129l186 336h230zM899 160v-160h-747v1475h747v-160h-557v-473h436v-160h-436v-522h557z" />
    <glyph glyph-name="Ecircumflex" unicode="&#xca;" 
d="M465 1847h137l268 -293h-174l-161 172l-164 -172h-174zM899 160v-160h-747v1475h747v-160h-557v-473h436v-160h-436v-522h557z" />
    <glyph glyph-name="Edieresis" unicode="&#xcb;" 
d="M858 1554h-194v248h194v-248zM408 1554h-195v248h195v-248zM899 160v-160h-747v1475h747v-160h-557v-473h436v-160h-436v-522h557z" />
    <glyph glyph-name="Igrave" unicode="&#xcc;" horiz-adv-x="493" 
d="M334 1554h-129l-299 336h229zM342 0h-190v1475h190v-1475z" />
    <glyph glyph-name="Iacute" unicode="&#xcd;" horiz-adv-x="493" 
d="M264 1554h-129l187 336h229zM342 0h-190v1475h190v-1475z" />
    <glyph glyph-name="Icircumflex" unicode="&#xce;" horiz-adv-x="493" 
d="M176 1847h137l269 -293h-174l-162 172l-164 -172h-174zM342 0h-190v1475h190v-1475z" />
    <glyph glyph-name="Idieresis" unicode="&#xcf;" horiz-adv-x="493" 
d="M569 1554h-194v248h194v-248zM119 1554h-195v248h195v-248zM342 0h-190v1475h190v-1475z" />
    <glyph glyph-name="Eth" unicode="&#xd0;" horiz-adv-x="1206" 
d="M573 809v-160h-213v-481h199q172 0 256 54t84 190v626q0 127 -90 198t-270 71l-179 -2v-496h213zM170 0v649h-131v160h131v666h369q283 -1 413 -107t129 -315v-672q0 -199 -122 -290t-400 -91h-389z" />
    <glyph glyph-name="Ntilde" unicode="&#xd1;" horiz-adv-x="1236" 
d="M784 1796h136q-2 -115 -50 -178q-48 -64 -122 -64t-136 52t-88 53q-61 0 -65 -107h-131q2 113 51 178q49 64 125 64t140 -51t81 -51q59 0 59 104zM1085 0h-153l-608 1071l2 -53v-1018h-174v1475h153l608 -1076l-2 76v1000h174v-1475z" />
    <glyph glyph-name="Ograve" unicode="&#xd2;" horiz-adv-x="1175" 
d="M676 1575h-129l-299 336h229zM850 1100q0 121 -64 174t-199 53q-137 0 -199 -53t-62 -174v-725q0 -121 62 -174t198 -53t200 52q63 54 64 175v725zM587 1495q214 0 334 -89t119 -251v-836q0 -163 -120 -251t-333 -88q-214 0 -333 89t-119 250v836q0 162 119 251t333 89z
" />
    <glyph glyph-name="Oacute" unicode="&#xd3;" horiz-adv-x="1175" 
d="M643 1575h-129l186 336h230zM850 1100q0 121 -64 174t-199 53q-137 0 -199 -53t-62 -174v-725q0 -121 62 -174t198 -53t200 52q63 54 64 175v725zM587 1495q214 0 334 -89t119 -251v-836q0 -163 -120 -251t-333 -88q-214 0 -333 89t-119 250v836q0 162 119 251t333 89z
" />
    <glyph glyph-name="Ocircumflex" unicode="&#xd4;" horiz-adv-x="1175" 
d="M518 1868h137l269 -293h-174l-162 172l-164 -172h-174zM850 1100q0 121 -64 174t-199 53q-137 0 -199 -53t-62 -174v-725q0 -121 62 -174t198 -53t200 52q63 54 64 175v725zM587 1495q214 0 334 -89t119 -251v-836q0 -163 -120 -251t-333 -88q-214 0 -333 89t-119 250
v836q0 162 119 251t333 89z" />
    <glyph glyph-name="Otilde" unicode="&#xd5;" horiz-adv-x="1175" 
d="M782 1829h136q-2 -115 -50 -178t-122 -63t-136 51q-62 52 -88 53q-61 0 -65 -107h-131q2 113 51 177t125 65q76 0 140 -51t81 -52q59 1 59 105zM850 1100q0 121 -64 174t-199 53q-137 0 -199 -53t-62 -174v-725q0 -121 62 -174t198 -53t200 52q63 54 64 175v725z
M587 1495q214 0 334 -89t119 -251v-836q0 -163 -120 -251t-333 -88q-214 0 -333 89t-119 250v836q0 162 119 251t333 89z" />
    <glyph glyph-name="Odieresis" unicode="&#xd6;" horiz-adv-x="1175" 
d="M913 1575h-194v248h194v-248zM463 1575h-195v248h195v-248zM850 1100q0 121 -64 174t-199 53q-137 0 -199 -53t-62 -174v-725q0 -121 62 -174t198 -53t200 52q63 54 64 175v725zM587 1495q214 0 334 -89t119 -251v-836q0 -163 -120 -251t-333 -88q-214 0 -333 89
t-119 250v836q0 162 119 251t333 89z" />
    <glyph glyph-name="multiply" unicode="&#xd7;" horiz-adv-x="892" 
d="M686 389l-240 240l-239 -240l-111 111l240 239l-240 240l111 111l239 -240l240 240l111 -111l-240 -240l240 -239z" />
    <glyph glyph-name="Oslash" unicode="&#xd8;" horiz-adv-x="1175" 
d="M602 1327q-150 0 -214 -53q-62 -53 -62 -174v-717l485 864q-59 80 -209 80zM850 375v731l-490 -875q55 -84 209 -84q153 -1 217 53t64 175zM580 1495q207 0 325 -80l60 105h116l-98 -177q57 -80 57 -188v-836q0 -163 -120 -251t-328 -88q-209 0 -328 81l-53 -96h-121
l96 172q-51 80 -51 182v836q0 162 119 251t326 89z" />
    <glyph glyph-name="Ugrave" unicode="&#xd9;" horiz-adv-x="1191" 
d="M684 1554h-129l-299 336h229zM858 1475h191v-1143q0 -166 -121 -259t-331 -93t-332 93t-122 259v1143h191v-1096q0 -231 262 -231t262 231v1096z" />
    <glyph glyph-name="Uacute" unicode="&#xda;" horiz-adv-x="1191" 
d="M651 1554h-129l187 336h229zM858 1475h191v-1143q0 -166 -121 -259t-331 -93t-332 93t-122 259v1143h191v-1096q0 -231 262 -231t262 231v1096z" />
    <glyph glyph-name="Ucircumflex" unicode="&#xdb;" horiz-adv-x="1191" 
d="M526 1847h138l268 -293h-174l-162 172l-164 -172h-174zM858 1475h191v-1143q0 -166 -121 -259t-331 -93t-332 93t-122 259v1143h191v-1096q0 -231 262 -231t262 231v1096z" />
    <glyph glyph-name="Udieresis" unicode="&#xdc;" horiz-adv-x="1191" 
d="M897 1554h-201v224h201v-224zM496 1554h-201v224h201v-224zM858 1475h191v-1143q0 -166 -121 -259t-331 -93t-332 93t-122 259v1143h191v-1096q0 -231 262 -231t262 231v1096z" />
    <glyph glyph-name="Yacute" unicode="&#xdd;" horiz-adv-x="1081" 
d="M594 1554h-129l186 336h230zM635 0h-189v530l-407 945h201l299 -752l301 752h200l-405 -945v-530z" />
    <glyph glyph-name="Thorn" unicode="&#xde;" horiz-adv-x="1069" 
d="M547 954h-209v-794h209q236 0 235 202v390q1 202 -235 202zM338 -369h-186v1844h186v-361h209q197 0 307 -86t111 -254v-434q0 -170 -111 -255t-307 -85h-209v-369z" />
    <glyph glyph-name="germandbls" unicode="&#xdf;" horiz-adv-x="1067" 
d="M322 0h-191v1229q0 174 96 252q97 78 287 78t294 -78t103 -236v-151q0 -158 -131 -213q193 -76 193 -316v-233q-1 -166 -107 -249t-299 -83h-129v160h129q223 0 224 209v178q0 238 -199 237h-154v127h6v19h111q174 0 174 188v86q0 195 -186 195h-27q-195 0 -194 -203
v-1196z" />
    <glyph glyph-name="agrave" unicode="&#xe0;" horiz-adv-x="946" 
d="M551 1247h-129l-299 336h229zM414 133q135 0 227 62v276h-201q-94 0 -137 -35t-43 -114v-46q0 -143 154 -143zM76 266v49q0 295 332 295h233v205q0 82 -42 119t-131 37t-127 -37t-38 -119v-57h-172v82q0 286 345 286t345 -286v-848h-149l-19 78q-131 -82 -283 -82
t-224 70q-70 71 -70 208z" />
    <glyph glyph-name="aacute" unicode="&#xe1;" horiz-adv-x="946" 
d="M518 1247h-129l186 336h230zM414 133q135 0 227 62v276h-201q-94 0 -137 -35t-43 -114v-46q0 -143 154 -143zM76 266v49q0 295 332 295h233v205q0 82 -42 119t-131 37t-127 -37t-38 -119v-57h-172v82q0 286 345 286t345 -286v-848h-149l-19 78q-131 -82 -283 -82t-224 70
q-70 71 -70 208z" />
    <glyph glyph-name="acircumflex" unicode="&#xe2;" horiz-adv-x="946" 
d="M393 1540h137l269 -293h-174l-162 172l-164 -172h-174zM414 133q135 0 227 62v276h-201q-94 0 -137 -35t-43 -114v-46q0 -143 154 -143zM76 266v49q0 295 332 295h233v205q0 82 -42 119t-131 37t-127 -37t-38 -119v-57h-172v82q0 286 345 286t345 -286v-848h-149l-19 78
q-131 -82 -283 -82t-224 70q-70 71 -70 208z" />
    <glyph glyph-name="atilde" unicode="&#xe3;" horiz-adv-x="946" 
d="M616 1489h136q-2 -115 -50 -178t-122 -63t-136 51q-62 52 -88 53q-61 0 -65 -107h-131q2 113 51 177t125 65q76 0 140 -51t81 -52q59 1 59 105zM414 133q135 0 227 62v276h-201q-94 0 -137 -35t-43 -114v-46q0 -143 154 -143zM76 266v49q0 295 332 295h233v205
q0 82 -42 119t-131 37t-127 -37t-38 -119v-57h-172v82q0 286 345 286t345 -286v-848h-149l-19 78q-131 -82 -283 -82t-224 70q-70 71 -70 208z" />
    <glyph glyph-name="adieresis" unicode="&#xe4;" horiz-adv-x="946" 
d="M764 1247h-201v223h201v-223zM362 1247h-200v223h200v-223zM414 133q135 0 227 62v276h-201q-94 0 -137 -35t-43 -114v-46q0 -143 154 -143zM76 266v49q0 295 332 295h233v205q0 82 -42 119t-131 37t-127 -37t-38 -119v-57h-172v82q0 286 345 286t345 -286v-848h-149
l-19 78q-131 -82 -283 -82t-224 70q-70 71 -70 208z" />
    <glyph glyph-name="aring" unicode="&#xe5;" horiz-adv-x="946" 
d="M393 1489q0 -111 111 -111t110 111v8q0 111 -110 111t-111 -111v-8zM739 1526v-68q1 -186 -235 -186t-236 186v68q0 188 236 188t235 -188zM414 133q135 0 227 62v276h-201q-94 0 -137 -35t-43 -114v-46q0 -143 154 -143zM76 266v49q0 295 332 295h233v205q0 82 -42 119
t-131 37t-127 -37t-38 -119v-57h-172v82q0 286 345 286t345 -286v-848h-149l-19 78q-131 -82 -283 -82t-224 70q-70 71 -70 208z" />
    <glyph glyph-name="ae" unicode="&#xe6;" horiz-adv-x="1507" 
d="M412 119q127 0 229 53v242q-93 49 -199 49t-143 -35t-37 -115v-45q0 -149 150 -149zM821 625h404v147q0 199 -207 199q-98 0 -146 -42t-51 -136v-168zM131 758v82q0 137 86 212q87 74 271 74t272 -104q86 104 263 104t279 -84t103 -235v-328h-584v-145q0 -104 47 -152
t150 -47q207 0 207 199v35h180v-70q0 -152 -102 -236q-103 -83 -283 -83t-266 110q-178 -111 -385 -110q-145 0 -222 74q-76 75 -75 212v49q0 139 78 213t222 74t269 -51v256q0 164 -169 164t-169 -164v-49h-172z" />
    <glyph glyph-name="ccedilla" unicode="&#xe7;" horiz-adv-x="972" 
d="M293 330q0 -186 205 -187q92 0 145 46t53 141v104h172v-147q0 -139 -89 -219t-251 -86v-78h11q94 0 137 -40t43 -128t-53 -127t-187 -39h-106v98h112q61 0 84 16t23 54v8q0 41 -23 57t-77 17h-66v164q-152 14 -232 92t-81 211v532q0 147 100 227q101 80 281 80t277 -80
t97 -227v-160h-172v117q0 186 -202 186t-201 -186v-446z" />
    <glyph glyph-name="egrave" unicode="&#xe8;" 
d="M578 1247h-129l-299 336h229zM293 772v-147h403v147q0 199 -207 199q-102 1 -149 -47t-47 -152zM293 334q0 -104 47 -152t149 -47q207 0 207 199v35h181v-70q-1 -152 -103 -236q-102 -83 -284 -83t-279 84q-98 84 -98 235v508q0 151 98 235t279 84q182 0 284 -84
t103 -235v-328h-584v-145z" />
    <glyph glyph-name="eacute" unicode="&#xe9;" 
d="M543 1247h-129l186 336h229zM293 772v-147h403v147q0 199 -207 199q-102 1 -149 -47t-47 -152zM293 334q0 -104 47 -152t149 -47q207 0 207 199v35h181v-70q-1 -152 -103 -236q-102 -83 -284 -83t-279 84q-98 84 -98 235v508q0 151 98 235t279 84q182 0 284 -84t103 -235
v-328h-584v-145z" />
    <glyph glyph-name="ecircumflex" unicode="&#xea;" 
d="M420 1540h137l268 -293h-174l-162 172l-163 -172h-174zM293 772v-147h403v147q0 199 -207 199q-102 1 -149 -47t-47 -152zM293 334q0 -104 47 -152t149 -47q207 0 207 199v35h181v-70q-1 -152 -103 -236q-102 -83 -284 -83t-279 84q-98 84 -98 235v508q0 151 98 235
t279 84q182 0 284 -84t103 -235v-328h-584v-145z" />
    <glyph glyph-name="edieresis" unicode="&#xeb;" 
d="M791 1247h-201v223h201v-223zM389 1247h-201v223h201v-223zM293 772v-147h403v147q0 199 -207 199q-102 1 -149 -47t-47 -152zM293 334q0 -104 47 -152t149 -47q207 0 207 199v35h181v-70q-1 -152 -103 -236q-102 -83 -284 -83t-279 84q-98 84 -98 235v508q0 151 98 235
t279 84q182 0 284 -84t103 -235v-328h-584v-145z" />
    <glyph glyph-name="igrave" unicode="&#xec;" horiz-adv-x="448" 
d="M311 1227h-129l-299 336h230zM313 0h-180v1106h180v-1106z" />
    <glyph glyph-name="iacute" unicode="&#xed;" horiz-adv-x="448" 
d="M279 1227h-129l186 336h229zM313 0h-180v1106h180v-1106z" />
    <glyph glyph-name="icircumflex" unicode="&#xee;" horiz-adv-x="448" 
d="M154 1520h137l268 -293h-174l-162 172l-164 -172h-174zM313 0h-180v1106h180v-1106z" />
    <glyph glyph-name="idieresis" unicode="&#xef;" horiz-adv-x="448" 
d="M526 1227h-200v223h200v-223zM125 1227h-201v223h201v-223zM313 0h-180v1106h180v-1106z" />
    <glyph glyph-name="eth" unicode="&#xf0;" horiz-adv-x="983" 
d="M471 770q-199 0 -199 -172v-256q0 -94 54 -146t155 -53q211 0 211 199v229q-4 103 -57 151t-164 48zM877 299q1 -152 -105 -236q-106 -83 -290 -83t-289 84q-104 84 -105 235v350q0 131 91 205t243 74t242 -80q-39 184 -129 334l-164 -123l-92 123l170 127
q-25 29 -113 123l147 110q66 -57 119 -121l141 107l93 -119l-144 -109q184 -299 185 -753v-248z" />
    <glyph glyph-name="ntilde" unicode="&#xf1;" horiz-adv-x="1011" 
d="M702 1470h136q-2 -115 -50 -178t-122 -63t-136 52t-88 52q-61 0 -65 -106h-131q2 113 51 177t125 64t140 -51t81 -51q59 0 59 104zM311 0h-180v1114h145l23 -94q189 106 323 106q264 0 263 -280v-846h-180v797q0 164 -138 164q-98 -1 -256 -93v-868z" />
    <glyph glyph-name="ograve" unicode="&#xf2;" horiz-adv-x="987" 
d="M569 1247h-129l-299 336h230zM293 776v-446q0 -186 202 -186t201 186v446q0 186 -202 186t-201 -186zM877 819v-532q1 -145 -99 -227t-283 -80q-183 0 -283 80q-99 81 -99 227v532q0 145 99 227q98 82 282 80q184 0 284 -81t99 -226z" />
    <glyph glyph-name="oacute" unicode="&#xf3;" horiz-adv-x="987" 
d="M537 1247h-129l186 336h229zM293 776v-446q0 -186 202 -186t201 186v446q0 186 -202 186t-201 -186zM877 819v-532q1 -145 -99 -227t-283 -80q-183 0 -283 80q-99 81 -99 227v532q0 145 99 227q98 82 282 80q184 0 284 -81t99 -226z" />
    <glyph glyph-name="ocircumflex" unicode="&#xf4;" horiz-adv-x="987" 
d="M412 1540h137l268 -293h-174l-162 172l-164 -172h-174zM293 776v-446q0 -186 202 -186t201 186v446q0 186 -202 186t-201 -186zM877 819v-532q1 -145 -99 -227t-283 -80q-183 0 -283 80q-99 81 -99 227v532q0 145 99 227q98 82 282 80q184 0 284 -81t99 -226z" />
    <glyph glyph-name="otilde" unicode="&#xf5;" horiz-adv-x="987" 
d="M670 1470h135q-2 -115 -49 -178q-48 -63 -122 -63t-136 52t-88 52q-61 0 -66 -106h-131q2 113 51 177t125 64q77 0 141 -51t80 -51q60 0 60 104zM293 776v-446q0 -186 202 -186t201 186v446q0 186 -202 186t-201 -186zM877 819v-532q1 -145 -99 -227t-283 -80
q-183 0 -283 80q-99 81 -99 227v532q0 145 99 227q98 82 282 80q184 0 284 -81t99 -226z" />
    <glyph glyph-name="odieresis" unicode="&#xf6;" horiz-adv-x="987" 
d="M784 1247h-200v223h200v-223zM383 1247h-201v223h201v-223zM293 776v-446q0 -186 202 -186t201 186v446q0 186 -202 186t-201 -186zM877 819v-532q1 -145 -99 -227t-283 -80q-183 0 -283 80q-99 81 -99 227v532q0 145 99 227q98 82 282 80q184 0 284 -81t99 -226z" />
    <glyph glyph-name="divide" unicode="&#xf7;" horiz-adv-x="1036" 
d="M934 618v-157h-834v157h834zM616 807h-194v248h194v-248zM616 0h-194v248h194v-248z" />
    <glyph glyph-name="oslash" unicode="&#xf8;" horiz-adv-x="987" 
d="M293 776v-432l330 590q-51 29 -127 29q-203 -1 -203 -187zM696 776q0 18 -2 29l-346 -623q51 -39 148 -39q201 0 200 187v446zM113 287v532q0 145 99 227t284 80q125 0 213 -41l41 72h141l-80 -143q66 -78 66 -195v-532q1 -145 -99 -227t-262 -80q-162 0 -254 47l-41 -72
h-147l88 158q-49 72 -49 174z" />
    <glyph glyph-name="ugrave" unicode="&#xf9;" horiz-adv-x="993" 
d="M580 1227h-129l-299 336h229zM862 0h-145l-17 78q-176 -98 -309 -98t-199 76t-65 216v834h180v-784q0 -176 139 -177q96 0 236 80v881h180v-1106z" />
    <glyph glyph-name="uacute" unicode="&#xfa;" horiz-adv-x="993" 
d="M547 1227h-129l186 336h230zM862 0h-145l-17 78q-176 -98 -309 -98t-199 76t-65 216v834h180v-784q0 -176 139 -177q96 0 236 80v881h180v-1106z" />
    <glyph glyph-name="ucircumflex" unicode="&#xfb;" horiz-adv-x="993" 
d="M422 1520h137l268 -293h-174l-161 172l-164 -172h-174zM862 0h-145l-17 78q-176 -98 -309 -98t-199 76t-65 216v834h180v-784q0 -176 139 -177q96 0 236 80v881h180v-1106z" />
    <glyph glyph-name="udieresis" unicode="&#xfc;" horiz-adv-x="993" 
d="M793 1227h-201v223h201v-223zM391 1227h-201v223h201v-223zM862 0h-145l-17 78q-176 -98 -309 -98t-199 76t-65 216v834h180v-784q0 -176 139 -177q96 0 236 80v881h180v-1106z" />
    <glyph glyph-name="yacute" unicode="&#xfd;" horiz-adv-x="944" 
d="M549 1227h-129l186 336h230zM180 -387q-74 0 -110 10v156q32 -10 102 -10t125 48t92 179v4l-350 1106h199l241 -881l232 881h198l-346 -1133q-70 -219 -160 -289t-223 -71z" />
    <glyph glyph-name="thorn" unicode="&#xfe;" horiz-adv-x="1015" 
d="M571 963q-80 0 -254 -93v-639q113 -82 242 -81q160 0 160 194v449q-1 170 -148 170zM317 -369h-186v1844h186v-447q182 98 299 98q283 0 283 -295v-526q0 -151 -75 -235q-74 -84 -228 -84t-279 88v-443z" />
    <glyph glyph-name="ydieresis" unicode="&#xff;" horiz-adv-x="944" 
d="M795 1227h-201v223h201v-223zM393 1227h-200v223h200v-223zM180 -387q-74 0 -110 10v156q32 -10 102 -10t125 48t92 179v4l-350 1106h199l241 -881l232 881h198l-346 -1133q-70 -219 -160 -289t-223 -71z" />
    <glyph glyph-name="Amacron" unicode="&#x100;" horiz-adv-x="1138" 
d="M856 1563h-569v141h569v-141zM569 1264l-213 -756h424zM215 0h-190l436 1475h217l436 -1475h-190l-97 340h-518z" />
    <glyph glyph-name="amacron" unicode="&#x101;" horiz-adv-x="946" 
d="M745 1255h-569v142h569v-142zM414 133q135 0 227 62v276h-201q-94 0 -137 -35t-43 -114v-46q0 -143 154 -143zM76 266v49q0 295 332 295h233v205q0 82 -42 119t-131 37t-127 -37t-38 -119v-57h-172v82q0 286 345 286t345 -286v-848h-149l-19 78q-131 -82 -283 -82
t-224 70q-70 71 -70 208z" />
    <glyph glyph-name="Abreve" unicode="&#x102;" horiz-adv-x="1138" 
d="M295 1839h147v-18q0 -129 131 -129t132 129v18h147v-47q0 -111 -71 -170t-208 -59t-207 59t-71 170v47zM569 1264l-213 -756h424zM215 0h-190l436 1475h217l436 -1475h-190l-97 340h-518z" />
    <glyph glyph-name="abreve" unicode="&#x103;" horiz-adv-x="946" 
d="M184 1532h148v-19q0 -129 131 -129t131 129v19h147v-47q-1 -111 -71 -170t-207 -59t-208 58q-71 60 -71 171v47zM414 133q135 0 227 62v276h-201q-94 0 -137 -35t-43 -114v-46q0 -143 154 -143zM76 266v49q0 295 332 295h233v205q0 82 -42 119t-131 37t-127 -37t-38 -119
v-57h-172v82q0 286 345 286t345 -286v-848h-149l-19 78q-131 -82 -283 -82t-224 70q-70 71 -70 208z" />
    <glyph glyph-name="Aogonek" unicode="&#x104;" horiz-adv-x="1138" 
d="M569 1264l-213 -756h424zM811 -272q0 160 160 272h-47l-97 340h-518l-94 -340h-190l436 1475h217l436 -1475h-31q-133 -145 -133 -250q0 -78 88 -78q63 0 123 37l35 -98q-88 -61 -190 -62q-195 1 -195 179z" />
    <glyph glyph-name="aogonek" unicode="&#x105;" horiz-adv-x="946" 
d="M414 133q135 0 227 62v276h-201q-94 0 -137 -35t-43 -114v-46q0 -143 154 -143zM76 266v49q0 295 332 295h233v205q0 82 -42 119t-131 37t-127 -37t-38 -119v-57h-172v82q0 286 345 286t345 -286v-848h-14q-143 -150 -143 -250q0 -86 98 -86q63 0 123 37l35 -90
q-90 -61 -193 -62q-195 0 -195 178q0 152 177 273h-37l-19 78q-131 -82 -283 -82t-224 70q-70 71 -70 208z" />
    <glyph glyph-name="Cacute" unicode="&#x106;" horiz-adv-x="1132" 
d="M596 1575h-129l186 336h230zM326 342q0 -102 61 -148t193 -47q256 0 256 195v190h178v-233q0 -152 -119 -236q-119 -83 -323 -83t-320 84t-117 235v877q0 152 119 236t323 83q205 0 321 -84t116 -235v-234h-178v191q0 94 -69 144t-187 50q-254 0 -254 -194v-791z" />
    <glyph glyph-name="cacute" unicode="&#x107;" horiz-adv-x="972" 
d="M551 1247h-129l186 336h230zM293 330q0 -186 205 -187q92 0 145 46t53 141v104h172v-147q0 -145 -97 -227t-277 -80q-180 0 -281 79q-100 80 -100 228v532q0 147 100 227q101 80 281 80t277 -80t97 -227v-160h-172v117q0 186 -202 186t-201 -186v-446z" />
    <glyph glyph-name="Ccircumflex" unicode="&#x108;" horiz-adv-x="1132" 
d="M508 1868h137l268 -293h-174l-161 172l-164 -172h-174zM326 342q0 -102 61 -148t193 -47q256 0 256 195v190h178v-233q0 -152 -119 -236q-119 -83 -323 -83t-320 84t-117 235v877q0 152 119 236t323 83q205 0 321 -84t116 -235v-234h-178v191q0 94 -69 144t-187 50
q-254 0 -254 -194v-791z" />
    <glyph glyph-name="ccircumflex" unicode="&#x109;" horiz-adv-x="970" 
d="M426 1540h137l268 -293h-174l-161 172l-164 -172h-174zM293 330q0 -186 205 -187q92 0 145 46t53 141v104h172v-147q0 -145 -97 -227t-277 -80q-180 0 -281 79q-100 80 -100 228v532q0 147 100 227q101 80 281 80t277 -80t97 -227v-160h-172v117q0 186 -202 186
t-201 -186v-446z" />
    <glyph glyph-name="Cdotaccent" unicode="&#x10a;" horiz-adv-x="1132" 
d="M678 1575h-195v248h195v-248zM326 342q0 -102 61 -148t193 -47q256 0 256 195v190h178v-233q0 -152 -119 -236q-119 -83 -323 -83t-320 84t-117 235v877q0 152 119 236t323 83q205 0 321 -84t116 -235v-234h-178v191q0 94 -69 144t-187 50q-254 0 -254 -194v-791z" />
    <glyph glyph-name="cdotaccent" unicode="&#x10b;" horiz-adv-x="972" 
d="M598 1247h-195v248h195v-248zM293 330q0 -186 205 -187q92 0 145 46t53 141v104h172v-147q0 -145 -97 -227t-277 -80q-180 0 -281 79q-100 80 -100 228v532q0 147 100 227q101 80 281 80t277 -80t97 -227v-160h-172v117q0 186 -202 186t-201 -186v-446z" />
    <glyph glyph-name="Ccaron" unicode="&#x10c;" horiz-adv-x="1132" 
d="M651 1581h-151l-258 317h190l143 -194l142 194h192zM326 342q0 -102 61 -148t193 -47q256 0 256 195v190h178v-233q0 -152 -119 -236q-119 -83 -323 -83t-320 84t-117 235v877q0 152 119 236t323 83q205 0 321 -84t116 -235v-234h-178v191q0 94 -69 144t-187 50
q-254 0 -254 -194v-791z" />
    <glyph glyph-name="ccaron" unicode="&#x10d;" horiz-adv-x="972" 
d="M569 1253h-151l-258 318h190l144 -195l141 195h192zM293 330q0 -186 205 -187q92 0 145 46t53 141v104h172v-147q0 -145 -97 -227t-277 -80q-180 0 -281 79q-100 80 -100 228v532q0 147 100 227q101 80 281 80t277 -80t97 -227v-160h-172v117q0 186 -202 186t-201 -186
v-446z" />
    <glyph glyph-name="Dcaron" unicode="&#x10e;" horiz-adv-x="1163" 
d="M664 1542h-152l-258 318h190l144 -195l141 195h193zM510 1315h-168v-1155h180q334 0 334 317v520q0 166 -83 242t-263 76zM152 0v1475h358q280 0 404 -117t124 -354v-533q0 -243 -122 -357t-394 -114h-370z" />
    <glyph glyph-name="dcaron" unicode="&#x10f;" horiz-adv-x="1071" 
d="M297 344q0 -194 174 -194q90 0 203 61v686q-104 66 -196 66q-180 0 -181 -170v-449zM854 0h-160l-18 59q-127 -73 -264 -73t-216 84t-79 223v538q0 137 79 217t218 78q139 0 260 -63v412h180v-1475z" />
    <glyph glyph-name="Dcroat" unicode="&#x110;" horiz-adv-x="1198" 
d="M705 825v-159h-330v-506h180q334 0 334 317v520q0 166 -83 242t-263 76h-168v-490h330zM184 825v650h359q279 0 403 -117t125 -354v-533q0 -243 -121 -357t-395 -114h-371v666h-155v159h155z" />
    <glyph glyph-name="dcroat" unicode="&#x111;" horiz-adv-x="985" 
d="M297 344q0 -194 174 -194q90 0 203 61v686q-104 66 -196 66q-180 0 -181 -170v-449zM117 293v538q0 137 79 217t218 78q139 0 260 -63v164h-266v143h266v105h180v-105h125v-143h-125v-1227h-160l-18 59q-127 -73 -264 -73t-216 84t-79 223z" />
    <glyph glyph-name="Emacron" unicode="&#x112;" 
d="M815 1563h-569v141h569v-141zM899 160v-160h-747v1475h747v-160h-557v-473h436v-160h-436v-522h557z" />
    <glyph glyph-name="emacron" unicode="&#x113;" 
d="M770 1255h-569v142h569v-142zM293 772v-147h403v147q0 199 -207 199q-102 1 -149 -47t-47 -152zM293 334q0 -104 47 -152t149 -47q207 0 207 199v35h181v-70q-1 -152 -103 -236q-102 -83 -284 -83t-279 84q-98 84 -98 235v508q0 151 98 235t279 84q182 0 284 -84
t103 -235v-328h-584v-145z" />
    <glyph glyph-name="Ebreve" unicode="&#x114;" 
d="M256 1839h147v-18q-1 -129 131 -129t132 129v18h147v-47q0 -111 -71 -170q-72 -59 -208 -59t-207 59t-71 170v47zM899 160v-160h-747v1475h747v-160h-557v-473h436v-160h-436v-522h557z" />
    <glyph glyph-name="ebreve" unicode="&#x115;" 
d="M211 1532h147v-19q0 -129 131 -129t132 129v19h147v-47q0 -111 -71 -170t-208 -59t-207 58q-70 60 -71 171v47zM293 772v-147h403v147q0 199 -207 199q-102 1 -149 -47t-47 -152zM293 334q0 -104 47 -152t149 -47q207 0 207 199v35h181v-70q-1 -152 -103 -236
q-102 -83 -284 -83t-279 84q-98 84 -98 235v508q0 151 98 235t279 84q182 0 284 -84t103 -235v-328h-584v-145z" />
    <glyph glyph-name="Edotaccent" unicode="&#x116;" 
d="M635 1554h-195v248h195v-248zM899 160v-160h-747v1475h747v-160h-557v-473h436v-160h-436v-522h557z" />
    <glyph glyph-name="edotaccent" unicode="&#x117;" 
d="M590 1247h-195v248h195v-248zM293 772v-147h403v147q0 199 -207 199q-102 1 -149 -47t-47 -152zM293 334q0 -104 47 -152t149 -47q207 0 207 199v35h181v-70q-1 -152 -103 -236q-102 -83 -284 -83t-279 84q-98 84 -98 235v508q0 151 98 235t279 84q182 0 284 -84
t103 -235v-328h-584v-145z" />
    <glyph glyph-name="Eogonek" unicode="&#x118;" 
d="M621 -276q0 160 159 272h113q-133 -145 -133 -250q0 -78 88 -78q63 0 123 37l35 -98q-88 -61 -191 -62q-194 1 -194 179zM899 160v-160h-747v1475h747v-160h-557v-473h436v-160h-436v-522h557z" />
    <glyph glyph-name="eogonek" unicode="&#x119;" 
d="M293 772v-147h403v147q0 199 -207 199q-102 1 -149 -47t-47 -152zM295 -272q0 143 135 254q-152 14 -234 96t-83 221v508q0 151 98 235t279 84q182 0 284 -84t103 -235v-328h-584v-145q0 -104 47 -152t149 -47q207 0 207 199v35h181v-70q0 -139 -86 -221t-240 -94
q-117 -135 -117 -234q0 -78 88 -78q63 0 123 37l35 -98q-88 -61 -191 -62q-194 1 -194 179z" />
    <glyph glyph-name="Ecaron" unicode="&#x11a;" 
d="M608 1561h-151l-258 317h190l143 -195l142 195h192zM899 160v-160h-747v1475h747v-160h-557v-473h436v-160h-436v-522h557z" />
    <glyph glyph-name="ecaron" unicode="&#x11b;" 
d="M563 1253h-151l-258 318h190l143 -195l142 195h192zM293 772v-147h403v147q0 199 -207 199q-102 1 -149 -47t-47 -152zM293 334q0 -104 47 -152t149 -47q207 0 207 199v35h181v-70q-1 -152 -103 -236q-102 -83 -284 -83t-279 84q-98 84 -98 235v508q0 151 98 235t279 84
q182 0 284 -84t103 -235v-328h-584v-145z" />
    <glyph glyph-name="Gcircumflex" unicode="&#x11c;" horiz-adv-x="1153" 
d="M518 1868h137l269 -293h-174l-162 172l-164 -172h-174zM1030 0h-100l-39 100q-103 -120 -315 -120t-326 84t-115 235v877q0 152 121 236t329 83q209 0 327 -84t118 -235v-234h-182v191q0 94 -69 144t-191 50q-262 0 -262 -194v-783q0 -203 257 -203t265 193v235h-260v160
h442v-735z" />
    <glyph glyph-name="gcircumflex" unicode="&#x11d;" horiz-adv-x="985" 
d="M416 1540h137l268 -293h-174l-162 172l-163 -172h-175zM297 344q0 -194 174 -194q90 0 203 61v686q-104 66 -196 66q-180 0 -181 -170v-449zM117 293v538q0 137 79 217t223 78q144 0 275 -73l15 61h145v-1163q0 -340 -455 -340q-141 0 -262 27v157q115 -29 250 -28
q287 0 287 223v67q-127 -71 -263 -71t-215 84t-79 223z" />
    <glyph glyph-name="Gbreve" unicode="&#x11e;" horiz-adv-x="1153" 
d="M309 1860h148v-19q0 -129 131 -129t131 129v19h147v-48q0 -111 -70 -170t-208 -59q-137 0 -208 59t-71 170v48zM1030 0h-100l-39 100q-103 -120 -315 -120t-326 84t-115 235v877q0 152 121 236t329 83q209 0 327 -84t118 -235v-234h-182v191q0 94 -69 144t-191 50
q-262 0 -262 -194v-783q0 -203 257 -203t265 193v235h-260v160h442v-735z" />
    <glyph glyph-name="gbreve" unicode="&#x11f;" horiz-adv-x="985" 
d="M207 1532h147v-19q0 -129 131 -129t131 129v19h148v-47q0 -111 -71 -170t-208 -59t-207 58q-70 60 -71 171v47zM297 344q0 -194 174 -194q90 0 203 61v686q-104 66 -196 66q-180 0 -181 -170v-449zM117 293v538q0 137 79 217t223 78q144 0 275 -73l15 61h145v-1163
q0 -340 -455 -340q-141 0 -262 27v157q115 -29 250 -28q287 0 287 223v67q-127 -71 -263 -71t-215 84t-79 223z" />
    <glyph glyph-name="Gdotaccent" unicode="&#x120;" horiz-adv-x="1153" 
d="M688 1575h-194v248h194v-248zM1030 0h-100l-39 100q-103 -120 -315 -120t-326 84t-115 235v877q0 152 121 236t329 83q209 0 327 -84t118 -235v-234h-182v191q0 94 -69 144t-191 50q-262 0 -262 -194v-783q0 -203 257 -203t265 193v235h-260v160h442v-735z" />
    <glyph glyph-name="gdotaccent" unicode="&#x121;" horiz-adv-x="985" 
d="M588 1247h-195v248h195v-248zM297 344q0 -194 174 -194q90 0 203 61v686q-104 66 -196 66q-180 0 -181 -170v-449zM117 293v538q0 137 79 217t223 78q144 0 275 -73l15 61h145v-1163q0 -340 -455 -340q-141 0 -262 27v157q115 -29 250 -28q287 0 287 223v67
q-127 -71 -263 -71t-215 84t-79 223z" />
    <glyph glyph-name="Gcommaaccent" unicode="&#x122;" horiz-adv-x="1153" 
d="M1030 0h-100l-39 100q-103 -120 -315 -120t-326 84t-115 235v877q0 152 121 236t329 83q209 0 327 -84t118 -235v-234h-182v191q0 94 -69 144t-191 50q-262 0 -262 -194v-783q0 -203 257 -203t265 193v235h-260v160h442v-735z" />
    <glyph glyph-name="gcommaaccent" unicode="&#x123;" horiz-adv-x="985" 
d="M297 344q0 -194 174 -194q90 0 203 61v686q-104 66 -196 66q-180 0 -181 -170v-449zM117 293v538q0 137 79 217t223 78q144 0 275 -73l15 61h145v-1163q0 -340 -455 -340q-141 0 -262 27v157q115 -29 250 -28q287 0 287 223v67q-127 -71 -263 -71t-215 84t-79 223z" />
    <glyph glyph-name="Hcircumflex" unicode="&#x124;" horiz-adv-x="1202" 
d="M520 1829h137l269 -293h-174l-162 172l-164 -172h-174zM342 0h-190v1475h190v-633h520v633h191v-1475h-191v682h-520v-682z" />
    <glyph glyph-name="hcircumflex" unicode="&#x125;" horiz-adv-x="993" 
d="M147 1841h138l268 -293h-174l-162 172l-164 -172h-174zM311 0h-180v1475h180v-437q164 88 295 88t196 -74t64 -206v-846h-180v797q0 164 -139 164q-94 0 -236 -82v-879z" />
    <glyph glyph-name="Hbar" unicode="&#x126;" horiz-adv-x="1216" 
d="M348 1153v-311h520v311h-520zM348 0h-190v1153h-119v158h119v164h190v-164h520v164h191v-164h119v-158h-119v-1153h-191v682h-520v-682z" />
    <glyph glyph-name="hbar" unicode="&#x127;" horiz-adv-x="993" 
d="M311 0h-180v1225h-125v125h125v125h180v-125h264v-125h-264v-189q168 90 297 90t194 -74t64 -206v-846h-180v797q0 164 -139 164q-88 0 -236 -82v-879z" />
    <glyph glyph-name="Itilde" unicode="&#x128;" horiz-adv-x="493" 
d="M399 1796h136q-1 -115 -49 -178q-48 -64 -122 -64t-138 52q-62 52 -87 53q-61 0 -65 -107h-131q2 113 51 178q49 64 125 64q77 0 141 -51t80 -51q59 0 59 104zM342 0h-190v1475h190v-1475z" />
    <glyph glyph-name="itilde" unicode="&#x129;" horiz-adv-x="448" 
d="M377 1468h135q-2 -115 -49 -178t-121 -63t-138 52q-62 52 -87 52q-61 0 -66 -106h-131q2 113 51 177t125 64t141 -51t80 -51q60 0 60 104zM313 0h-180v1106h180v-1106z" />
    <glyph glyph-name="Imacron" unicode="&#x12a;" horiz-adv-x="493" 
d="M526 1563h-569v141h569v-141zM342 0h-190v1475h190v-1475z" />
    <glyph glyph-name="imacron" unicode="&#x12b;" horiz-adv-x="448" 
d="M506 1235h-569v141h569v-141zM313 0h-180v1106h180v-1106z" />
    <glyph glyph-name="Ibreve" unicode="&#x12c;" horiz-adv-x="493" 
d="M-33 1839h148v-18q0 -129 131 -129t131 129v18h147v-47q0 -111 -70 -170t-208 -59q-137 0 -208 59t-71 170v47zM342 0h-190v1475h190v-1475z" />
    <glyph glyph-name="ibreve" unicode="&#x12d;" horiz-adv-x="448" 
d="M-55 1511h147v-18q0 -129 131 -129t131 129v18h148v-47q0 -111 -71 -170t-208 -59t-208 59t-70 170v47zM313 0h-180v1106h180v-1106z" />
    <glyph glyph-name="Iogonek" unicode="&#x12e;" horiz-adv-x="493" 
d="M35 -272q0 160 160 272h-43v1475h190v-1475h-35q-133 -145 -133 -250q0 -78 88 -78q63 0 123 37l35 -98q-88 -61 -191 -62q-194 1 -194 179z" />
    <glyph glyph-name="iogonek" unicode="&#x12f;" horiz-adv-x="448" 
d="M322 1260h-195v247h195v-247zM18 -272q0 160 160 272h-45v1106h180v-1106h-22q-133 -145 -133 -250q0 -78 88 -78q63 0 123 37l34 -98q-88 -61 -190 -62q-195 1 -195 179z" />
    <glyph glyph-name="Idotaccent" unicode="&#x130;" horiz-adv-x="493" 
d="M346 1554h-194v248h194v-248zM342 0h-190v1475h190v-1475z" />
    <glyph glyph-name="dotlessi" unicode="&#x131;" horiz-adv-x="448" 
d="M313 0h-180v1106h180v-1106z" />
    <glyph glyph-name="IJ" unicode="&#x132;" horiz-adv-x="1658" 
d="M803 350q1 -201 239 -202t238 219v1108h190v-1115q0 -188 -112 -284t-313 -96t-313 84t-111 235v238h182v-187zM342 0h-190v1475h190v-1475z" />
    <glyph glyph-name="ij" unicode="&#x133;" horiz-adv-x="907" 
d="M784 1327h-194v248h194v-248zM324 1294h-195v248h195v-248zM313 0h-180v1106h180v-1106zM594 1106h180v-1065q0 -229 -69 -330q-70 -100 -240 -100q-47 0 -90 8v154q74 -6 78 -6q77 0 109 62t32 212v1065z" />
    <glyph glyph-name="Jcircumflex" unicode="&#x134;" horiz-adv-x="1054" 
d="M743 1847h138l268 -293h-174l-162 172l-164 -172h-174zM244 350q0 -201 238 -202t239 219v1108h190v-1115q-1 -188 -113 -284t-312 -96t-312 84t-113 235v238h183v-187z" />
    <glyph glyph-name="jcircumflex" unicode="&#x135;" horiz-adv-x="458" 
d="M166 1520h137l268 -293h-174l-161 172l-164 -172h-174zM145 1106h181v-1065q0 -229 -70 -329t-240 -101q-47 0 -90 8v154q74 -6 78 -6q76 0 109 62t32 212v1065z" />
    <glyph glyph-name="Kcommaaccent" unicode="&#x136;" horiz-adv-x="1052" 
d="M692 -125l-131 -389h-135l66 389h200zM342 0h-190v1475h190v-676l463 676h205l-486 -715l514 -760h-217l-479 707v-707z" />
    <glyph glyph-name="kcommaaccent" unicode="&#x137;" horiz-adv-x="876" 
d="M672 -125l-131 -389h-135l65 389h201zM311 0h-180v1475h180v-816l332 447h203l-393 -504l413 -602h-204l-351 516v-516z" />
    <glyph glyph-name="Lacute" unicode="&#x139;" horiz-adv-x="907" 
d="M342 1554h-129l186 336h230zM874 160v-160h-722v1475h190v-1315h532z" />
    <glyph glyph-name="lacute" unicode="&#x13a;" horiz-adv-x="501" 
d="M279 1595h-129l186 336h229zM131 1475h180v-1133q0 -195 119 -195q47 0 70 11v-154q-36 -12 -146 -12t-167 76q-56 76 -56 251v1156z" />
    <glyph glyph-name="Lcommaaccent" unicode="&#x13b;" horiz-adv-x="907" 
d="M655 -125l-131 -389h-135l66 389h200zM874 160v-160h-722v1475h190v-1315h532z" />
    <glyph glyph-name="lcommaaccent" unicode="&#x13c;" horiz-adv-x="501" 
d="M432 -125l-131 -389h-135l65 389h201zM131 1475h180v-1133q0 -195 119 -195q47 0 70 11v-154q-36 -12 -146 -12t-167 76q-56 76 -56 251v1156z" />
    <glyph glyph-name="Lcaron" unicode="&#x13d;" horiz-adv-x="1011" 
d="M874 160v-160h-722v1475h190v-1315h532z" />
    <glyph glyph-name="lcaron" unicode="&#x13e;" horiz-adv-x="561" 
d="M131 1475h180v-1133q0 -195 119 -195q47 0 70 11v-154q-36 -12 -146 -12t-167 76q-56 76 -56 251v1156z" />
    <glyph glyph-name="Ldot" unicode="&#x13f;" horiz-adv-x="940" 
d="M877 471h-195v248h195v-248zM874 160v-160h-722v1475h190v-1315h532z" />
    <glyph glyph-name="ldot" unicode="&#x140;" horiz-adv-x="673" 
d="M659 471h-194v248h194v-248zM131 1475h180v-1133q0 -195 119 -195q47 0 70 11v-154q-36 -12 -146 -12t-167 76q-56 76 -56 251v1156z" />
    <glyph glyph-name="Lslash" unicode="&#x141;" horiz-adv-x="933" 
d="M178 1475h191v-672l317 198v-190l-317 -199v-452h532v-160h-723v494l-147 -93v191l147 92v791z" />
    <glyph glyph-name="lslash" unicode="&#x142;" horiz-adv-x="751" 
d="M283 1475h180v-623l237 149v-190l-237 -149v-320q0 -195 119 -195q47 0 69 11v-154q-37 -12 -147 -12t-165 76q-56 76 -56 251v230l-238 -148v191l238 147v736z" />
    <glyph glyph-name="Nacute" unicode="&#x143;" horiz-adv-x="1236" 
d="M686 1554h-129l186 336h230zM1085 0h-153l-608 1071l2 -53v-1018h-174v1475h153l608 -1076l-2 76v1000h174v-1475z" />
    <glyph glyph-name="nacute" unicode="&#x144;" horiz-adv-x="993" 
d="M563 1247h-129l187 336h229zM606 1126q131 0 196 -74t64 -206v-846h-180v797q0 164 -139 164q-94 0 -236 -82v-879h-180v1114h145l19 -84q180 96 311 96z" />
    <glyph glyph-name="Ncommaaccent" unicode="&#x145;" horiz-adv-x="1236" 
d="M973 -125l-131 -389h-135l65 389h201zM1085 0h-153l-608 1071l2 -53v-1018h-174v1475h153l608 -1076l-2 76v1000h174v-1475z" />
    <glyph glyph-name="ncommaaccent" unicode="&#x146;" horiz-adv-x="993" 
d="M621 -125l-132 -389h-135l66 389h201zM606 1126q131 0 196 -74t64 -206v-846h-180v797q0 164 -139 164q-94 0 -236 -82v-879h-180v1114h145l19 -84q180 96 311 96z" />
    <glyph glyph-name="Ncaron" unicode="&#x147;" horiz-adv-x="1236" 
d="M705 1561h-152l-258 317h190l144 -195l141 195h193zM1085 0h-153l-608 1071l2 -53v-1018h-174v1475h153l608 -1076l-2 76v1000h174v-1475z" />
    <glyph glyph-name="ncaron" unicode="&#x148;" horiz-adv-x="993" 
d="M584 1253h-152l-258 318h191l143 -195l141 195h193zM606 1126q131 0 196 -74t64 -206v-846h-180v797q0 164 -139 164q-94 0 -236 -82v-879h-180v1114h145l19 -84q180 96 311 96z" />
    <glyph glyph-name="napostrophe" unicode="&#x149;" horiz-adv-x="993" 
d="M621 -100l-132 -389h-135l66 389h201zM606 1126q131 0 196 -74t64 -206v-846h-180v797q0 164 -139 164q-94 0 -236 -82v-879h-180v1114h145l19 -84q180 96 311 96z" />
    <glyph glyph-name="Omacron" unicode="&#x14c;" horiz-adv-x="1175" 
d="M868 1583h-569v141h569v-141zM850 1100q0 121 -64 174t-199 53q-137 0 -199 -53t-62 -174v-725q0 -121 62 -174t198 -53t200 52q63 54 64 175v725zM587 1495q214 0 334 -89t119 -251v-836q0 -163 -120 -251t-333 -88q-214 0 -333 89t-119 250v836q0 162 119 251t333 89z
" />
    <glyph glyph-name="omacron" unicode="&#x14d;" horiz-adv-x="987" 
d="M762 1255h-569v142h569v-142zM293 776v-446q0 -186 202 -186t201 186v446q0 186 -202 186t-201 -186zM877 819v-532q1 -145 -99 -227t-283 -80q-183 0 -283 80q-99 81 -99 227v532q0 145 99 227q98 82 282 80q184 0 284 -81t99 -226z" />
    <glyph glyph-name="Obreve" unicode="&#x14e;" horiz-adv-x="1175" 
d="M309 1860h148v-19q0 -129 131 -129t131 129v19h147v-48q0 -111 -70 -170t-208 -59q-137 0 -208 59t-71 170v48zM850 1100q0 121 -64 174t-199 53q-137 0 -199 -53t-62 -174v-725q0 -121 62 -174t198 -53t200 52q63 54 64 175v725zM587 1495q214 0 334 -89t119 -251v-836
q0 -163 -120 -251t-333 -88q-214 0 -333 89t-119 250v836q0 162 119 251t333 89z" />
    <glyph glyph-name="obreve" unicode="&#x14f;" horiz-adv-x="987" 
d="M203 1532h147v-19q0 -129 131 -129t131 129v19h148v-47q0 -111 -71 -170t-208 -59t-208 58q-71 60 -70 171v47zM293 776v-446q0 -186 202 -186t201 186v446q0 186 -202 186t-201 -186zM877 819v-532q1 -145 -99 -227t-283 -80q-183 0 -283 80q-99 81 -99 227v532
q0 145 99 227q98 82 282 80q184 0 284 -81t99 -226z" />
    <glyph glyph-name="Ohungarumlaut" unicode="&#x150;" horiz-adv-x="1175" 
d="M819 1575h-129l187 336h229zM508 1575h-129l186 336h230zM850 1100q0 121 -64 174t-199 53q-137 0 -199 -53t-62 -174v-725q0 -121 62 -174t198 -53t200 52q63 54 64 175v725zM587 1495q214 0 334 -89t119 -251v-836q0 -163 -120 -251t-333 -88q-214 0 -333 89t-119 250
v836q0 162 119 251t333 89z" />
    <glyph glyph-name="ohungarumlaut" unicode="&#x151;" horiz-adv-x="987" 
d="M713 1247h-129l186 336h229zM401 1247h-129l187 336h229zM293 776v-446q0 -186 202 -186t201 186v446q0 186 -202 186t-201 -186zM877 819v-532q1 -145 -99 -227t-283 -80q-183 0 -283 80q-99 81 -99 227v532q0 145 99 227q98 82 282 80q184 0 284 -81t99 -226z" />
    <glyph glyph-name="OE" unicode="&#x152;" horiz-adv-x="1677" 
d="M850 1100q0 121 -64 174t-199 53q-137 0 -199 -53t-62 -174v-725q0 -121 62 -174t198 -53t198 50q63 50 66 164v738zM1597 160v-160h-747v49q-100 -70 -262 -69q-215 0 -334 89t-119 250v836q0 162 119 251q120 89 308 89t288 -72v52h747v-160h-557v-473h437v-160h-437
v-522h557z" />
    <glyph glyph-name="oe" unicode="&#x153;" horiz-adv-x="1546" 
d="M877 819v-194h387v147q0 199 -207 199q-145 0 -185 -105q5 -29 5 -47zM293 776v-446q0 -186 203 -187q147 0 186 103q-2 16 -2 53v508q0 35 2 53q-37 102 -186 103q-203 -1 -203 -187zM1444 479h-567v-192q0 -16 -5 -49q39 -102 185 -103q207 0 207 199v35h180v-70
q0 -152 -102 -236q-102 -83 -283 -83q-180 0 -279 81q-100 -81 -284 -81t-284 80q-99 81 -99 227v532q0 145 99 227q100 82 284 80q184 0 284 -84q96 84 278 84t283 -84q102 -84 103 -235v-328z" />
    <glyph glyph-name="Racute" unicode="&#x154;" horiz-adv-x="1075" 
d="M641 1554h-129l186 336h230zM500 1315h-158v-588h152q136 0 202 56t66 180v100q0 129 -64 191t-198 61zM342 0h-190v1475h337q244 -1 354 -103t109 -299v-133q0 -276 -245 -346l350 -594h-215l-326 567h-174v-567z" />
    <glyph glyph-name="racute" unicode="&#x155;" horiz-adv-x="796" 
d="M510 1247h-129l186 336h230zM760 668h-176v209q0 90 -79 90t-194 -99v-868h-180v1114h145l19 -102q137 115 274 114q95 0 143 -58t48 -161v-239z" />
    <glyph glyph-name="Rcommaaccent" unicode="&#x156;" horiz-adv-x="1075" 
d="M700 -125l-131 -389h-135l66 389h200zM500 1315h-158v-588h152q136 0 202 56t66 180v100q0 129 -64 191t-198 61zM342 0h-190v1475h337q244 -1 354 -103t109 -299v-133q0 -276 -245 -346l350 -594h-215l-326 567h-174v-567z" />
    <glyph glyph-name="rcommaaccent" unicode="&#x157;" horiz-adv-x="796" 
d="M395 -125l-131 -389h-135l66 389h200zM760 668h-176v209q0 90 -79 90t-194 -99v-868h-180v1114h145l19 -102q137 115 274 114q95 0 143 -58t48 -161v-239z" />
    <glyph glyph-name="Rcaron" unicode="&#x158;" horiz-adv-x="1075" 
d="M639 1561h-152l-258 317h191l143 -195l142 195h192zM500 1315h-158v-588h152q136 0 202 56t66 180v100q0 129 -64 191t-198 61zM342 0h-190v1475h337q244 -1 354 -103t109 -299v-133q0 -276 -245 -346l350 -594h-215l-326 567h-174v-567z" />
    <glyph glyph-name="rcaron" unicode="&#x159;" horiz-adv-x="796" 
d="M528 1253h-151l-258 318h190l144 -195l141 195h192zM760 668h-176v209q0 90 -79 90t-194 -99v-868h-180v1114h145l19 -102q137 115 274 114q95 0 143 -58t48 -161v-239z" />
    <glyph glyph-name="Sacute" unicode="&#x15a;" horiz-adv-x="1054" 
d="M598 1575h-129l186 336h230zM965 449v-101q0 -369 -394 -368h-104q-186 0 -279 70q-92 71 -92 229v174h187v-119q0 -109 44 -148t146 -39h90q111 0 162 39t51 162v105q0 82 -41 131t-143 71l-191 41q-151 31 -217 109t-65 254v90q0 170 95 258t278 88h45q180 0 281 -79
t102 -220v-160h-185v121q0 178 -196 178h-41q-100 0 -146 -45t-45 -153v-68q0 -104 31 -142t129 -61l176 -39q182 -43 252 -127t70 -251z" />
    <glyph glyph-name="sacute" unicode="&#x15b;" horiz-adv-x="917" 
d="M520 1247h-129l187 336h229zM829 369v-90q0 -164 -95 -232t-283 -67q-365 0 -365 266v123h172v-101q0 -76 48 -104t146 -29q98 0 150 29q51 29 51 112v80q0 49 -30 79q-31 30 -103 42l-162 29q-147 23 -199 84t-53 215v59q0 262 353 262q170 0 260 -66t90 -188v-112h-170
v98q0 121 -174 121q-98 0 -143 -29t-46 -92v-53q0 -78 30 -104t120 -42l147 -26q141 -23 199 -81t57 -183z" />
    <glyph glyph-name="Scircumflex" unicode="&#x15c;" horiz-adv-x="1054" 
d="M475 1868h137l269 -293h-174l-162 172l-164 -172h-174zM965 449v-101q0 -369 -394 -368h-104q-186 0 -279 70q-92 71 -92 229v174h187v-119q0 -109 44 -148t146 -39h90q111 0 162 39t51 162v105q0 82 -41 131t-143 71l-191 41q-151 31 -217 109t-65 254v90q0 170 95 258
t278 88h45q180 0 281 -79t102 -220v-160h-185v121q0 178 -196 178h-41q-100 0 -146 -45t-45 -153v-68q0 -104 31 -142t129 -61l176 -39q182 -43 252 -127t70 -251z" />
    <glyph glyph-name="scircumflex" unicode="&#x15d;" horiz-adv-x="917" 
d="M397 1540h138l268 -293h-174l-162 172l-164 -172h-174zM829 369v-90q0 -164 -95 -232t-283 -67q-365 0 -365 266v123h172v-101q0 -76 48 -104t146 -29q98 0 150 29q51 29 51 112v80q0 49 -30 79q-31 30 -103 42l-162 29q-147 23 -199 84t-53 215v59q0 262 353 262
q170 0 260 -66t90 -188v-112h-170v98q0 121 -174 121q-98 0 -143 -29t-46 -92v-53q0 -78 30 -104t120 -42l147 -26q141 -23 199 -81t57 -183z" />
    <glyph glyph-name="Scedilla" unicode="&#x15e;" horiz-adv-x="1054" 
d="M965 449v-101q0 -336 -318 -364v-80h10q93 0 137 -40t44 -128t-54 -127t-186 -39h-106v98h112q61 0 84 16t23 54v8q0 41 -23 57t-78 17h-65v160h-78q-186 0 -279 70q-92 71 -92 229v174h187v-119q0 -109 44 -148t146 -39h90q111 0 162 39t51 162v105q0 82 -41 131
t-143 71l-191 41q-151 31 -217 109t-65 254v90q0 170 95 258t278 88h45q180 0 281 -79t102 -220v-160h-185v121q0 178 -196 178h-41q-100 0 -146 -45t-45 -153v-68q0 -104 31 -142t129 -61l176 -39q182 -43 252 -127t70 -251z" />
    <glyph glyph-name="scedilla" unicode="&#x15f;" horiz-adv-x="917" 
d="M829 369v-90q0 -158 -89 -227t-265 -72v-82h10q93 0 137 -40t44 -128t-54 -127t-186 -39h-107v98h113q61 0 84 15t23 55v8q0 41 -23 57t-78 17h-65v170q-287 27 -287 262v123h172v-101q0 -76 48 -104t146 -29q98 0 150 29q51 29 51 112v80q0 49 -30 79q-31 30 -103 42
l-162 29q-147 23 -199 84t-53 215v59q0 262 353 262q170 0 260 -66t90 -188v-112h-170v98q0 121 -174 121q-98 0 -143 -29t-46 -92v-53q0 -78 30 -104t120 -42l147 -26q141 -23 199 -81t57 -183z" />
    <glyph glyph-name="Scaron" unicode="&#x160;" horiz-adv-x="1054" 
d="M618 1581h-151l-258 317h190l144 -194l141 194h193zM965 449v-101q0 -369 -394 -368h-104q-186 0 -279 70q-92 71 -92 229v174h187v-119q0 -109 44 -148t146 -39h90q111 0 162 39t51 162v105q0 82 -41 131t-143 71l-191 41q-151 31 -217 109t-65 254v90q0 170 95 258
t278 88h45q180 0 281 -79t102 -220v-160h-185v121q0 178 -196 178h-41q-100 0 -146 -45t-45 -153v-68q0 -104 31 -142t129 -61l176 -39q182 -43 252 -127t70 -251z" />
    <glyph glyph-name="scaron" unicode="&#x161;" horiz-adv-x="917" 
d="M541 1253h-152l-258 318h191l143 -195l141 195h193zM829 369v-90q0 -164 -95 -232t-283 -67q-365 0 -365 266v123h172v-101q0 -76 48 -104t146 -29q98 0 150 29q51 29 51 112v80q0 49 -30 79q-31 30 -103 42l-162 29q-147 23 -199 84t-53 215v59q0 262 353 262
q170 0 260 -66t90 -188v-112h-170v98q0 121 -174 121q-98 0 -143 -29t-46 -92v-53q0 -78 30 -104t120 -42l147 -26q141 -23 199 -81t57 -183z" />
    <glyph glyph-name="Tcommaaccent" unicode="&#x162;" horiz-adv-x="940" 
d="M602 -125l-131 -389h-135l65 389h201zM565 0h-190v1315h-342v160h872v-160h-340v-1315z" />
    <glyph glyph-name="tcommaaccent" unicode="&#x163;" horiz-adv-x="655" 
d="M453 -125l-131 -389h-136l66 389h201zM47 958v148h123v246h180v-246h238v-148h-238v-647q0 -86 36 -128t116 -42t127 19v-152q-66 -20 -166 -20q-153 0 -223 74t-70 219v677h-123z" />
    <glyph glyph-name="Tcaron" unicode="&#x164;" horiz-adv-x="940" 
d="M543 1561h-152l-258 317h191l143 -195l141 195h193zM565 0h-190v1315h-342v160h872v-160h-340v-1315z" />
    <glyph glyph-name="tcaron" unicode="&#x165;" horiz-adv-x="655" 
d="M47 958v148h123v246h180v-246h238v-148h-238v-647q0 -86 36 -128t116 -42t127 19v-152q-66 -20 -166 -20q-153 0 -223 74t-70 219v677h-123z" />
    <glyph glyph-name="Tbar" unicode="&#x166;" horiz-adv-x="966" 
d="M512 0h-190v813h-240v160h240v342h-342v160h872v-160h-340v-342h246v-160h-246v-813z" />
    <glyph glyph-name="tbar" unicode="&#x167;" horiz-adv-x="698" 
d="M90 958v148h123v246h180v-246h238v-148h-238v-110h234v-148h-234v-389q0 -86 36 -128t117 -42t126 19v-152q-66 -20 -166 -20q-154 0 -224 74t-69 219v419h-127v148h127v110h-123z" />
    <glyph glyph-name="Utilde" unicode="&#x168;" horiz-adv-x="1191" 
d="M750 1796h135q-2 -115 -49 -178q-47 -64 -122 -64t-137 52t-88 53q-61 0 -65 -107h-131q2 113 51 178q49 64 125 64q77 0 141 -51t80 -51q60 0 60 104zM858 1475h191v-1143q0 -166 -121 -259t-331 -93t-332 93t-122 259v1143h191v-1096q0 -231 262 -231t262 231v1096z
" />
    <glyph glyph-name="utilde" unicode="&#x169;" horiz-adv-x="993" 
d="M680 1468h135q-2 -115 -49 -178q-48 -63 -122 -63t-136 52t-88 52q-61 0 -66 -106h-131q2 113 51 177q50 64 126 64t140 -51t81 -51q59 0 59 104zM862 0h-145l-17 78q-176 -98 -309 -98t-199 76t-65 216v834h180v-784q0 -176 139 -177q96 0 236 80v881h180v-1106z" />
    <glyph glyph-name="Umacron" unicode="&#x16a;" horiz-adv-x="1191" 
d="M877 1563h-570v141h570v-141zM858 1475h191v-1143q0 -166 -121 -259t-331 -93t-332 93t-122 259v1143h191v-1096q0 -231 262 -231t262 231v1096z" />
    <glyph glyph-name="umacron" unicode="&#x16b;" horiz-adv-x="993" 
d="M772 1235h-569v141h569v-141zM862 0h-145l-17 78q-176 -98 -309 -98t-199 76t-65 216v834h180v-784q0 -176 139 -177q96 0 236 80v881h180v-1106z" />
    <glyph glyph-name="Ubreve" unicode="&#x16c;" horiz-adv-x="1191" 
d="M317 1839h148v-18q0 -129 131 -129t131 129v18h147v-47q0 -111 -70 -170t-208 -59q-137 0 -208 59t-71 170v47zM858 1475h191v-1143q0 -166 -121 -259t-331 -93t-332 93t-122 259v1143h191v-1096q0 -231 262 -231t262 231v1096z" />
    <glyph glyph-name="ubreve" unicode="&#x16d;" horiz-adv-x="993" 
d="M213 1511h147v-18q0 -129 132 -129t131 129v18h147v-47q0 -111 -71 -170t-207 -59t-208 59q-71 59 -71 170v47zM862 0h-145l-17 78q-176 -98 -309 -98t-199 76t-65 216v834h180v-784q0 -176 139 -177q96 0 236 80v881h180v-1106z" />
    <glyph glyph-name="Uring" unicode="&#x16e;" horiz-adv-x="1191" 
d="M485 1796q0 -110 111 -110t111 110v8q0 111 -111 111t-111 -111v-8zM831 1833v-68q1 -186 -235 -186t-236 186v68q0 188 236 188t235 -188zM858 1475h191v-1143q0 -166 -121 -259t-331 -93t-332 93t-122 259v1143h191v-1096q0 -231 262 -231t262 231v1096z" />
    <glyph glyph-name="uring" unicode="&#x16f;" horiz-adv-x="993" 
d="M416 1468q0 -111 110 -110q111 0 111 110v9q0 111 -111 110q-111 0 -110 -110v-9zM762 1505v-67q0 -186 -236 -186t-235 186v67q-1 188 235 188t236 -188zM862 0h-145l-17 78q-176 -98 -309 -98t-199 76t-65 216v834h180v-784q0 -176 139 -177q96 0 236 80v881h180v-1106
z" />
    <glyph glyph-name="Uhungarumlaut" unicode="&#x170;" horiz-adv-x="1191" 
d="M827 1554h-129l187 336h229zM516 1554h-129l186 336h230zM858 1475h191v-1143q0 -166 -121 -259t-331 -93t-332 93t-122 259v1143h191v-1096q0 -231 262 -231t262 231v1096z" />
    <glyph glyph-name="uhungarumlaut" unicode="&#x171;" horiz-adv-x="993" 
d="M723 1227h-129l186 336h230zM412 1227h-129l186 336h229zM862 0h-145l-17 78q-176 -98 -309 -98t-199 76t-65 216v834h180v-784q0 -176 139 -177q96 0 236 80v881h180v-1106z" />
    <glyph glyph-name="Uogonek" unicode="&#x172;" horiz-adv-x="1191" 
d="M416 -272q0 143 133 254q-188 10 -297 101t-109 249v1143h191v-1096q0 -231 262 -231t262 231v1096h191v-1143q1 -150 -99 -241t-276 -107q-119 -135 -119 -234q0 -78 88 -78q63 0 123 37l35 -98q-88 -61 -191 -62q-194 1 -194 179z" />
    <glyph glyph-name="uogonek" unicode="&#x173;" horiz-adv-x="993" 
d="M862 0h-2q-143 -150 -143 -258q0 -86 98 -86q63 0 123 37l35 -90q-90 -61 -193 -62q-195 0 -194 178q0 160 176 281h-45l-17 78q-176 -98 -309 -98t-199 76t-65 216v834h180v-784q0 -176 139 -177q96 0 236 80v881h180v-1106z" />
    <glyph glyph-name="Wcircumflex" unicode="&#x174;" horiz-adv-x="1665" 
d="M764 1847h137l268 -293h-174l-161 172l-164 -172h-174zM1423 1475h189l-295 -1475h-225l-258 1206l-259 -1206h-227l-293 1475h187l227 -1280l270 1280h187l270 -1276z" />
    <glyph glyph-name="wcircumflex" unicode="&#x175;" horiz-adv-x="1398" 
d="M631 1520h137l268 -293h-174l-162 172l-163 -172h-175zM51 1106h189l172 -928l196 928h183l196 -928l174 928h189l-256 -1106h-203l-191 879l-190 -879h-205z" />
    <glyph glyph-name="Ycircumflex" unicode="&#x176;" horiz-adv-x="1081" 
d="M469 1847h137l268 -293h-174l-161 172l-164 -172h-174zM635 0h-189v530l-407 945h201l299 -752l301 752h200l-405 -945v-530z" />
    <glyph glyph-name="ycircumflex" unicode="&#x177;" horiz-adv-x="944" 
d="M424 1520h137l268 -293h-174l-161 172l-164 -172h-174zM180 -387q-74 0 -110 10v156q32 -10 102 -10t125 48t92 179v4l-350 1106h199l241 -881l232 881h198l-346 -1133q-70 -219 -160 -289t-223 -71z" />
    <glyph glyph-name="Ydieresis" unicode="&#x178;" horiz-adv-x="1081" 
d="M840 1554h-201v224h201v-224zM438 1554h-200v224h200v-224zM635 0h-189v530l-407 945h201l299 -752l301 752h200l-405 -945v-530z" />
    <glyph glyph-name="Zacute" unicode="&#x179;" horiz-adv-x="985" 
d="M508 1554h-129l186 336h230zM86 1315v160h819v-127l-624 -1188h647v-160h-877v127l631 1188h-596z" />
    <glyph glyph-name="zacute" unicode="&#x17a;" horiz-adv-x="843" 
d="M471 1227h-129l186 336h230zM90 958v148h676v-127l-522 -832h542v-147h-737v127l510 831h-469z" />
    <glyph glyph-name="Zdotaccent" unicode="&#x17b;" horiz-adv-x="985" 
d="M553 1554h-195v248h195v-248zM86 1315v160h819v-127l-624 -1188h647v-160h-877v127l631 1188h-596z" />
    <glyph glyph-name="zdotaccent" unicode="&#x17c;" horiz-adv-x="843" 
d="M518 1227h-194v248h194v-248zM90 958v148h676v-127l-522 -832h542v-147h-737v127l510 831h-469z" />
    <glyph glyph-name="Zcaron" unicode="&#x17d;" horiz-adv-x="985" 
d="M526 1561h-151l-258 317h190l144 -195l141 195h192zM86 1315v160h819v-127l-624 -1188h647v-160h-877v127l631 1188h-596z" />
    <glyph glyph-name="zcaron" unicode="&#x17e;" horiz-adv-x="843" 
d="M489 1233h-151l-258 317h190l144 -194l141 194h193zM90 958v148h676v-127l-522 -832h542v-147h-737v127l510 831h-469z" />
    <glyph glyph-name="florin" unicode="&#x192;" horiz-adv-x="563" 
d="M340 1298v-192h184v-148h-184v-1239q0 -119 -72 -185t-184 -66t-166 20v158q50 -20 116 -20q126 -1 126 112v1220h-103v148h103v201q0 119 72 185t184 64q113 0 166 -20v-158q-51 20 -131 21q-111 0 -111 -101z" />
    <glyph glyph-name="AEacute" unicode="&#x1fc;" horiz-adv-x="1679" 
d="M1010 1552h-129l186 336h229zM852 502v751l-389 -751h389zM1599 1475v-160h-559v-473h437v-160h-437v-522h559v-160h-747v342h-471l-176 -342h-199l774 1475h819z" />
    <glyph glyph-name="aeacute" unicode="&#x1fd;" horiz-adv-x="1507" 
d="M817 1233h-129l186 336h230zM412 119q127 0 229 53v242q-93 49 -199 49t-143 -35t-37 -115v-45q0 -149 150 -149zM821 625h404v147q0 199 -207 199q-98 0 -146 -42t-51 -136v-168zM131 758v82q0 137 86 212q87 74 271 74t272 -104q86 104 263 104t279 -84t103 -235v-328
h-584v-145q0 -104 47 -152t150 -47q207 0 207 199v35h180v-70q0 -152 -102 -236q-103 -83 -283 -83t-266 110q-178 -111 -385 -110q-145 0 -222 74q-76 75 -75 212v49q0 139 78 213t222 74t269 -51v256q0 164 -169 164t-169 -164v-49h-172z" />
    <glyph glyph-name="Oslashacute" unicode="&#x1fe;" horiz-adv-x="1175" 
d="M668 1575h-129l186 336h229zM602 1327q-150 0 -214 -53q-62 -53 -62 -174v-717l485 864q-59 80 -209 80zM850 375v731l-490 -875q55 -84 209 -84q153 -1 217 53t64 175zM580 1495q207 0 325 -80l60 105h116l-98 -177q57 -80 57 -188v-836q0 -163 -120 -251t-328 -88
q-209 0 -328 81l-53 -96h-121l96 172q-51 80 -51 182v836q0 162 119 251t326 89z" />
    <glyph glyph-name="oslashacute" unicode="&#x1ff;" horiz-adv-x="987" 
d="M537 1247h-129l186 336h229zM293 776v-432l330 590q-51 29 -127 29q-203 -1 -203 -187zM696 776q0 18 -2 29l-346 -623q51 -39 148 -39q201 0 200 187v446zM113 287v532q0 145 99 227t284 80q125 0 213 -41l41 72h141l-80 -143q66 -78 66 -195v-532q1 -145 -99 -227
t-262 -80q-162 0 -254 47l-41 -72h-147l88 158q-49 72 -49 174z" />
    <glyph glyph-name="Scommaaccent" unicode="&#x218;" horiz-adv-x="1054" 
d="M965 449v-101q0 -369 -394 -368h-104q-186 0 -279 70q-92 71 -92 229v174h187v-119q0 -109 44 -148t146 -39h90q111 0 162 39t51 162v105q0 82 -41 131t-143 71l-191 41q-151 31 -217 109t-65 254v90q0 170 95 258t278 88h45q180 0 281 -79t102 -220v-160h-185v121
q0 178 -196 178h-41q-100 0 -146 -45t-45 -153v-68q0 -104 31 -142t129 -61l176 -39q182 -43 252 -127t70 -251z" />
    <glyph glyph-name="scommaaccent" unicode="&#x219;" horiz-adv-x="917" 
d="M594 -125l-131 -389h-135l65 389h201zM829 369v-90q0 -164 -95 -232t-283 -67q-365 0 -365 266v123h172v-101q0 -76 48 -104t146 -29q98 0 150 29q51 29 51 112v80q0 49 -30 79q-31 30 -103 42l-162 29q-147 23 -199 84t-53 215v59q0 262 353 262q170 0 260 -66t90 -188
v-112h-170v98q0 121 -174 121q-98 0 -143 -29t-46 -92v-53q0 -78 30 -104t120 -42l147 -26q141 -23 199 -81t57 -183z" />
    <glyph glyph-name="dotlessj" unicode="&#x237;" horiz-adv-x="458" 
d="M145 1106h181v-1065q0 -229 -70 -329t-240 -101q-47 0 -90 8v154q74 -6 78 -6q76 0 109 62t32 212v1065z" />
    <glyph glyph-name="circumflex" unicode="&#x2c6;" horiz-adv-x="1095" 
d="M463 1419h137l268 -293h-174l-162 172l-163 -172h-174z" />
    <glyph glyph-name="caron" unicode="&#x2c7;" horiz-adv-x="1114" 
d="M606 1133h-151l-258 317h190l143 -195l142 195h192z" />
    <glyph glyph-name="uni02C9" unicode="&#x2c9;" horiz-adv-x="454" 
 />
    <glyph glyph-name="breve" unicode="&#x2d8;" horiz-adv-x="821" 
d="M127 1462h147v-18q0 -129 132 -129t131 129v18h147v-47q0 -111 -71 -170t-207 -59t-208 59q-71 59 -71 170v47z" />
    <glyph glyph-name="dotaccent" unicode="&#x2d9;" horiz-adv-x="643" 
d="M365 1167h-195v248h195v-248z" />
    <glyph glyph-name="ring" unicode="&#x2da;" horiz-adv-x="798" 
d="M293 1296q0 -111 110 -110q111 0 111 110v9q0 111 -111 110q-111 0 -110 -110v-9zM639 1333v-67q0 -186 -236 -186t-235 186v67q0 188 236 188t235 -188z" />
    <glyph glyph-name="ogonek" unicode="&#x2db;" horiz-adv-x="1712" 
d="M152 -272q0 160 159 272h113q-133 -145 -133 -250q0 -78 88 -78q63 0 123 37l35 -98q-88 -61 -191 -62q-194 1 -194 179z" />
    <glyph glyph-name="tilde" unicode="&#x2dc;" horiz-adv-x="886" 
d="M606 1419h135q-2 -115 -49 -178q-48 -63 -122 -63t-136 52t-88 52q-61 0 -65 -106h-131q2 114 51 178t125 64t140 -52q64 -51 81 -51q59 0 59 104z" />
    <glyph glyph-name="hungarumlaut" unicode="&#x2dd;" horiz-adv-x="1130" 
d="M711 1126h-129l186 336h229zM399 1126h-129l187 336h229z" />
    <glyph glyph-name="uni03A9" unicode="&#x3a9;" horiz-adv-x="1204" 
 />
    <glyph glyph-name="Wgrave" unicode="&#x1e80;" horiz-adv-x="1665" 
d="M920 1554h-129l-299 336h229zM1423 1475h189l-295 -1475h-225l-258 1206l-259 -1206h-227l-293 1475h187l227 -1280l270 1280h187l270 -1276z" />
    <glyph glyph-name="wgrave" unicode="&#x1e81;" horiz-adv-x="1398" 
d="M788 1227h-129l-299 336h230zM51 1106h189l172 -928l196 928h183l196 -928l174 928h189l-256 -1106h-203l-191 879l-190 -879h-205z" />
    <glyph glyph-name="Wacute" unicode="&#x1e82;" horiz-adv-x="1665" 
d="M887 1554h-129l186 336h230zM1423 1475h189l-295 -1475h-225l-258 1206l-259 -1206h-227l-293 1475h187l227 -1280l270 1280h187l270 -1276z" />
    <glyph glyph-name="wacute" unicode="&#x1e83;" horiz-adv-x="1398" 
d="M754 1227h-129l186 336h229zM51 1106h189l172 -928l196 928h183l196 -928l174 928h189l-256 -1106h-203l-191 879l-190 -879h-205z" />
    <glyph glyph-name="Wdieresis" unicode="&#x1e84;" horiz-adv-x="1665" 
d="M1133 1554h-201v224h201v-224zM731 1554h-201v224h201v-224zM1423 1475h189l-295 -1475h-225l-258 1206l-259 -1206h-227l-293 1475h187l227 -1280l270 1280h187l270 -1276z" />
    <glyph glyph-name="wdieresis" unicode="&#x1e85;" horiz-adv-x="1398" 
d="M1001 1227h-200v223h200v-223zM600 1227h-201v223h201v-223zM51 1106h189l172 -928l196 928h183l196 -928l174 928h189l-256 -1106h-203l-191 879l-190 -879h-205z" />
    <glyph glyph-name="Ygrave" unicode="&#x1ef2;" horiz-adv-x="1081" 
d="M627 1554h-129l-299 336h229zM635 0h-189v530l-407 945h201l299 -752l301 752h200l-405 -945v-530z" />
    <glyph glyph-name="ygrave" unicode="&#x1ef3;" horiz-adv-x="944" 
d="M582 1227h-129l-299 336h229zM180 -387q-74 0 -110 10v156q32 -10 102 -10t125 48t92 179v4l-350 1106h199l241 -881l232 881h198l-346 -1133q-70 -219 -160 -289t-223 -71z" />
    <glyph glyph-name="thinspace" unicode="&#x2009;" horiz-adv-x="122" 
 />
    <glyph glyph-name="uni2010" unicode="&#x2010;" horiz-adv-x="645" 
 />
    <glyph glyph-name="endash" unicode="&#x2013;" horiz-adv-x="954" 
d="M842 842v-158h-729v158h729z" />
    <glyph glyph-name="emdash" unicode="&#x2014;" horiz-adv-x="1058" 
d="M946 842v-158h-833v158h833z" />
    <glyph glyph-name="quoteleft" unicode="&#x2018;" horiz-adv-x="436" 
d="M254 1475h123l-70 -461h-217z" />
    <glyph glyph-name="quoteright" unicode="&#x2019;" horiz-adv-x="436" 
d="M182 1014h-123l70 461h217z" />
    <glyph glyph-name="quotesinglbase" unicode="&#x201a;" horiz-adv-x="438" 
d="M182 -211h-123l70 461h217z" />
    <glyph glyph-name="quotedblleft" unicode="&#x201c;" horiz-adv-x="718" 
d="M537 1475h122l-69 -461h-217zM254 1475h123l-70 -461h-217z" />
    <glyph glyph-name="quotedblright" unicode="&#x201d;" horiz-adv-x="718" 
d="M465 1014h-123l70 461h217zM182 1014h-123l70 461h217z" />
    <glyph glyph-name="quotedblbase" unicode="&#x201e;" horiz-adv-x="720" 
d="M465 -211h-123l70 461h217zM182 -211h-123l70 461h217z" />
    <glyph glyph-name="dagger" unicode="&#x2020;" horiz-adv-x="1052" 
d="M608 -369h-164v1319h-350v156h350v369h164v-369h350v-156h-350v-1319z" />
    <glyph glyph-name="daggerdbl" unicode="&#x2021;" horiz-adv-x="1052" 
d="M444 156v794h-350v156h350v369h164v-369h350v-156h-350v-794h350v-156h-350v-369h-164v369h-350v156h350z" />
    <glyph glyph-name="bullet" unicode="&#x2022;" horiz-adv-x="616" 
d="M147 596q-1 61 47 103t114 42t114 -43q47 -43 47 -103t-47 -102t-115 -42t-114 42t-46 103z" />
    <glyph glyph-name="ellipsis" unicode="&#x2026;" horiz-adv-x="1325" 
d="M1212 0h-194v248h194v-248zM762 0h-195v248h195v-248zM311 0h-194v248h194v-248z" />
    <glyph glyph-name="perthousand" unicode="&#x2030;" horiz-adv-x="2889" 
d="M2322 260q0 -125 151 -125t150 125v512q-1 125 -151 125t-150 -125v-512zM2791 807v-582q0 -113 -86 -176t-233 -63t-234 63q-86 63 -86 176v582q0 113 86 176t234 63t233 -62q86 -64 86 -177zM1540 260q0 -125 151 -125t150 125v512q-1 125 -151 125t-150 -125v-512z
M2009 807v-582q0 -113 -86 -176t-233 -63t-234 63q-86 63 -86 176v582q0 113 86 176t234 63t233 -62q86 -64 86 -177zM266 711q0 -125 151 -125t150 125v512q-1 125 -151 125t-150 -125v-512zM735 1257v-581q0 -113 -86 -176q-86 -64 -233 -64q-148 0 -234 64t-86 176v581
q0 113 86 177t234 63q148 1 233 -63q86 -64 86 -177zM780 -41h-168l688 1557h162z" />
    <glyph glyph-name="guilsinglleft" unicode="&#x2039;" horiz-adv-x="573" 
d="M76 649l231 346h178l-252 -405l-4 -2h4l252 -406h-178l-231 346v121z" />
    <glyph glyph-name="guilsinglright" unicode="&#x203a;" horiz-adv-x="573" 
d="M266 995l232 -346v-121l-232 -346h-178l252 406h4l-4 2l-252 405h178z" />
    <glyph glyph-name="fraction" unicode="&#x2044;" horiz-adv-x="507" 
d="M-4 -41h-168l688 1557h162z" />
    <glyph glyph-name="zerosuperior" unicode="&#x2070;" horiz-adv-x="839" 
d="M270 711q0 -125 151 -125t150 125v512q-1 125 -151 125t-150 -125v-512zM739 1257v-581q0 -113 -86 -176q-86 -64 -233 -64q-148 0 -234 64t-86 176v581q0 113 86 177t234 63q148 1 233 -63q86 -64 86 -177z" />
    <glyph glyph-name="foursuperior" unicode="&#x2074;" horiz-adv-x="778" 
d="M436 788v398l-223 -398h223zM604 451h-168v198h-395v113l418 721h145v-695h125v-139h-125v-198z" />
    <glyph glyph-name="fivesuperior" unicode="&#x2075;" horiz-adv-x="753" 
d="M645 1483v-140h-362l-7 -241l113 2q289 2 289 -266v-131q0 -143 -72 -207t-215 -64h-49q-139 0 -206 51t-66 164v113h159v-53q0 -74 28 -100t89 -25h51q61 0 91 26t30 97v127q0 121 -129 120h-274l14 527h516z" />
    <glyph glyph-name="sixsuperior" unicode="&#x2076;" horiz-adv-x="813" 
d="M557 829q1 115 -143 115t-144 -115v-131q0 -112 144 -112t143 112v131zM458 1083q121 0 194 -54t73 -152v-215q0 -106 -84 -166t-230 -60q-147 0 -229 58t-82 165v615q0 104 84 164t228 59q144 0 229 -57q84 -57 84 -162v-102h-168v63q0 109 -143 109t-144 -113v-203
q67 51 188 51z" />
    <glyph glyph-name="sevensuperior" unicode="&#x2077;" horiz-adv-x="669" 
d="M43 1343v140h586v-117l-361 -915h-168l349 892h-406z" />
    <glyph glyph-name="eightsuperior" unicode="&#x2078;" horiz-adv-x="811" 
d="M406 1366q-141 0 -142 -104v-95q0 -102 142 -102t141 102v95q0 104 -141 104zM407 940q-155 0 -155 -117v-139q0 -117 155 -117t154 117v139q1 117 -154 117zM406 1497q139 0 220 -57t81 -162v-100q0 -127 -113 -177q133 -57 133 -184v-158q0 -104 -86 -163
q-85 -60 -235 -60t-236 60t-86 163v158q0 127 135 184q-115 47 -115 177v100q0 104 81 162q82 57 221 57z" />
    <glyph glyph-name="ninesuperior" unicode="&#x2079;" horiz-adv-x="813" 
d="M545 1235q-1 113 -145 113t-144 -113v-131q0 -113 140 -113t149 101v143zM354 850q-122 0 -194 54t-72 153v215q0 106 84 166t230 59q146 0 228 -58t83 -165v-615q0 -104 -84 -163q-85 -60 -229 -60t-228 58t-84 161v103h168v-64q0 -108 144 -108t145 112v203
q-69 -51 -191 -51z" />
    <glyph glyph-name="zeroinferior" unicode="&#x2080;" horiz-adv-x="839" 
d="M270 -211q0 -125 151 -125t150 125v512q-1 125 -151 125t-150 -125v-512zM739 336v-582q0 -113 -86 -176t-233 -63t-234 63q-86 63 -86 176v582q0 113 86 176t234 63t233 -63q86 -63 86 -176z" />
    <glyph glyph-name="oneinferior" unicode="&#x2081;" horiz-adv-x="493" 
d="M381 -471h-166v842l-170 -64v154l219 100h117v-1032z" />
    <glyph glyph-name="twoinferior" unicode="&#x2082;" horiz-adv-x="770" 
d="M700 -332v-139h-624v72q0 270 184 403q27 20 83 56t88 60q31 24 59 66t28 88v43q0 117 -119 117h-34q-117 0 -117 -104v-92h-160v129q0 100 75 154t210 54h26q285 0 285 -239v-60q0 -110 -52 -180t-213 -168t-181 -260h462z" />
    <glyph glyph-name="threeinferior" unicode="&#x2083;" horiz-adv-x="782" 
d="M285 4v127h100q133 0 133 121v70q0 61 -26 87q-27 26 -86 25h-27q-121 0 -121 -106v-74h-156v117q0 98 73 151t206 53h27q274 0 274 -235v-88q0 -125 -123 -162q139 -41 139 -196v-109q0 -143 -72 -207q-73 -63 -218 -63h-68q-137 0 -204 49t-66 160v120h157v-75
q0 -104 125 -105h58q131 0 131 121v104q0 115 -131 115h-125z" />
    <glyph glyph-name="fourinferior" unicode="&#x2084;" horiz-adv-x="778" 
d="M436 -133v397l-223 -397h223zM604 -471h-168v199h-395v112l418 721h145v-694h125v-139h-125v-199z" />
    <glyph glyph-name="fiveinferior" unicode="&#x2085;" horiz-adv-x="753" 
d="M645 561v-139h-362l-7 -242l113 2q289 2 289 -266v-131q0 -143 -72 -207t-215 -63h-49q-139 0 -206 51t-66 164v112h159v-53q0 -73 28 -99t89 -26h51q61 0 91 27t30 96v127q0 121 -129 121h-274l14 526h516z" />
    <glyph glyph-name="sixinferior" unicode="&#x2086;" horiz-adv-x="813" 
d="M557 -92q1 115 -143 115t-144 -115v-131q0 -113 144 -113t143 113v131zM458 162q121 0 194 -54t73 -153v-215q0 -106 -84 -166t-230 -59q-146 0 -229 58q-82 58 -82 165v614q0 104 84 164t228 59q144 0 229 -57q84 -57 84 -162v-102h-168v63q0 109 -143 109t-144 -113
v-202q67 51 188 51z" />
    <glyph glyph-name="seveninferior" unicode="&#x2087;" horiz-adv-x="669" 
d="M43 422v139h586v-117l-361 -915h-168l349 893h-406z" />
    <glyph glyph-name="eightinferior" unicode="&#x2088;" horiz-adv-x="811" 
d="M406 444q-141 0 -142 -104v-94q0 -102 142 -102t141 102v94q0 104 -141 104zM407 18q-155 0 -155 -116v-140q0 -116 155 -116t154 116v140q1 116 -154 116zM406 575q139 0 220 -57t81 -162v-100q0 -127 -113 -176q133 -57 133 -184v-158q0 -104 -86 -164
q-85 -60 -235 -59q-150 0 -236 59t-86 164v158q0 127 135 184q-115 47 -115 176v100q0 104 81 162q82 57 221 57z" />
    <glyph glyph-name="nineinferior" unicode="&#x2089;" horiz-adv-x="813" 
d="M545 313q-1 113 -145 113t-144 -113v-131q0 -112 140 -112t149 100v143zM354 -72q-122 0 -194 54t-72 153v215q0 106 84 166t230 59q146 0 228 -58t83 -165v-614q0 -104 -84 -164q-85 -60 -229 -59q-144 0 -228 57t-84 162v102h168v-63q0 -109 144 -109t145 113v203
q-69 -52 -191 -52z" />
    <glyph glyph-name="Euro" unicode="&#x20ac;" horiz-adv-x="1222" 
d="M424 342q0 -102 61 -148t193 -47q256 0 256 195v190h178v-233q0 -152 -119 -236q-119 -83 -323 -83t-320 84q-117 84 -117 235v248h-159v135h159v100h-159v136h159v258q0 152 119 236t323 83q205 0 321 -84t116 -235v-234h-178v191q0 94 -69 144t-187 50
q-254 0 -254 -194v-215h215v-136h-215v-100h215v-135h-215v-205z" />
    <glyph glyph-name="trademark" unicode="&#x2122;" horiz-adv-x="1482" 
d="M412 612h-138v738h-217v125h572v-125h-217v-738zM823 612h-137v863h125l207 -453l207 453h127v-863h-138v529l-141 -289h-108l-142 289v-529z" />
    <glyph glyph-name="minus" unicode="&#x2212;" horiz-adv-x="1077" 
d="M954 842v-158h-833v158h833z" />
    <glyph glyph-name="commaaccent" unicode="&#xf6c3;" horiz-adv-x="491" 
d="M379 -125l-131 -389h-135l65 389h201z" />
    <glyph glyph-name="zerooldstyle" unicode="&#xf730;" horiz-adv-x="964" 
d="M482 133q97 0 148 44q50 44 50 120v514q0 78 -50 121t-148 43t-147 -43q-50 -43 -50 -121v-514q0 -76 50 -120t147 -44zM852 840v-572q0 -135 -99 -211q-99 -75 -271 -75t-270 76q-99 76 -99 210v572q0 135 99 211q99 75 270 75t271 -75q99 -76 99 -211z" />
    <glyph glyph-name="oneoldstyle" unicode="&#xf731;" horiz-adv-x="577" 
d="M440 0h-164v938l-221 -84v154l271 118h114v-1126z" />
    <glyph glyph-name="twooldstyle" unicode="&#xf732;" horiz-adv-x="897" 
d="M811 139v-139h-719v72q0 295 203 432q29 20 132 76t150 106q46 49 46 117v47q0 137 -162 137h-33q-78 0 -121 -32t-43 -89v-104h-158v141q0 107 84 165t240 58h33q160 0 245 -64t85 -192v-65q0 -115 -65 -191q-66 -76 -216 -158t-200 -153q-50 -72 -58 -164h557z" />
    <glyph glyph-name="threeoldstyle" unicode="&#xf733;" horiz-adv-x="917" 
d="M344 410v133h107q182 0 182 174v100q0 164 -156 164h-33q-86 0 -126 -36t-39 -116v-106h-158v143q0 125 85 192t240 66h31q322 0 322 -293v-116q0 -162 -154 -217q172 -49 172 -250v-158q0 -174 -85 -252t-255 -78h-80q-161 0 -239 64t-78 205v125h160v-84
q0 -158 161 -158h72q90 0 136 41t46 137v154q0 166 -172 166h-139z" />
    <glyph glyph-name="fouroldstyle" unicode="&#xf734;" horiz-adv-x="933" 
d="M561 141v656l-340 -656h340zM731 -272h-170v272h-514v111l537 1015h147v-985h148v-141h-148v-272z" />
    <glyph glyph-name="fiveoldstyle" unicode="&#xf735;" horiz-adv-x="876" 
d="M754 1126v-143h-445l-8 -367l154 2q332 6 331 -325v-182q0 -176 -83 -253t-246 -77h-60q-161 1 -237 67t-76 213v138h160v-80q0 -107 39 -147t118 -40h60q82 0 123 41t41 142v174q0 182 -172 182h-318l17 655h602z" />
    <glyph glyph-name="sixoldstyle" unicode="&#xf736;" horiz-adv-x="956" 
d="M498 657q-92 0 -146 -42t-55 -123v-185q0 -174 190 -174t191 174v176q0 174 -180 174zM530 801q152 0 235 -71t83 -202v-258q0 -135 -97 -212q-97 -76 -267 -76t-264 74q-93 74 -93 212v791q0 135 96 211t263 76q166 0 264 -73t98 -204v-137h-170v98q0 164 -190 164
t-191 -174v-295q81 76 233 76z" />
    <glyph glyph-name="sevenoldstyle" unicode="&#xf737;" horiz-adv-x="774" 
d="M47 963v143h682v-117l-434 -1210h-164l418 1184h-502z" />
    <glyph glyph-name="eightoldstyle" unicode="&#xf738;" horiz-adv-x="956" 
d="M478 1208q-185 0 -185 -157v-123q0 -156 185 -156t186 156v123q-1 157 -186 157zM684 461q0 182 -206 182t-206 -182v-164q0 -178 206 -178t206 178v164zM479 1346q162 0 254 -73t92 -204v-133q0 -168 -141 -229q170 -74 170 -246v-193q0 -135 -100 -211
q-100 -75 -274 -75t-276 76q-101 76 -102 210v193q0 176 172 246q-145 63 -145 229v133q0 131 94 204t256 73z" />
    <glyph glyph-name="nineoldstyle" unicode="&#xf739;" horiz-adv-x="942" 
d="M653 799q-1 174 -191 174t-190 -174v-176q0 -174 183 -174q90 -1 143 41t55 124v185zM422 305q-152 0 -235 71t-83 202v258q0 137 96 213q96 75 267 75q170 0 263 -74t93 -212v-791q0 -135 -97 -211t-263 -76t-262 73t-97 204v137h168v-98q0 -164 191 -164t190 174v293
q-79 -74 -231 -74z" />
    <glyph glyph-name="ampersand.001" horiz-adv-x="1218" 
d="M428 1063q0 -88 115 -223q121 10 191 68t71 130v95q0 104 -44 151t-145 47q-188 0 -188 -186v-82zM258 524v-194q0 -86 57 -136t148 -51h127q131 0 246 109l-383 442q-195 -16 -195 -170zM430 -20q-168 0 -262 84t-94 235v256q0 219 270 268q-92 125 -92 258v95
q0 150 98 234t268 85q170 0 266 -84t97 -235v-164q0 -111 -87 -192t-241 -109l299 -351l109 103l108 -119l-110 -108l110 -127l-114 -109l-111 127q-78 -74 -148 -111t-182 -36h-184z" />
    <glyph glyph-name="a.superior" horiz-adv-x="743" 
d="M332 805q82 0 137 37v151q-59 27 -135 27q-98 0 -98 -92v-31q0 -92 96 -92zM70 899v27q0 98 53 151t153 53t193 -28v155q0 27 -5 45t-29 34q-24 15 -66 16q-98 0 -99 -95v-36h-159v71q0 94 65 150q66 55 197 55t197 -54t67 -151v-583h-143l-13 47q-95 -62 -201 -62
t-158 54t-52 151z" />
    <glyph glyph-name="o.superior" horiz-adv-x="759" 
d="M256 1237v-287q0 -108 121 -108t121 108v287q0 109 -121 109t-121 -109zM662 1278v-369q0 -102 -75 -159q-75 -58 -209 -58t-210 58t-76 159v369q0 102 76 160t210 57q134 1 209 -57t75 -160z" />
    <glyph glyph-name="undercommaaccent" horiz-adv-x="491" 
d="M379 -125l-131 -389h-135l65 389h201z" />
    <glyph glyph-name="zero.sm" horiz-adv-x="839" 
d="M270 260q0 -125 151 -125t150 125v512q-1 125 -151 125t-150 -125v-512zM739 807v-582q0 -113 -86 -176t-233 -63t-234 63q-86 63 -86 176v582q0 113 86 176t234 63t233 -62q86 -64 86 -177z" />
    <glyph glyph-name="one.sm" horiz-adv-x="493" 
d="M381 0h-166v842l-170 -64v154l219 100h117v-1032z" />
    <glyph glyph-name="two.sm" horiz-adv-x="770" 
d="M700 139v-139h-624v72q0 270 184 403q27 20 83 56t88 60q31 23 59 65t28 89v43q0 117 -119 117h-34q-117 0 -117 -104v-92h-160v129q0 100 75 154t210 55h26q285 0 285 -240v-59q0 -109 -52 -180t-213 -169t-181 -260h462z" />
    <glyph glyph-name="three.sm" horiz-adv-x="782" 
d="M285 475v127h100q133 0 133 121v70q0 61 -26 87q-27 26 -86 25h-27q-121 0 -121 -106v-74h-156v117q0 98 73 151t206 54h27q274 0 274 -236v-88q0 -125 -123 -162q139 -41 139 -196v-109q0 -143 -72 -207q-73 -63 -218 -63h-68q-137 0 -204 49t-66 160v120h157v-75
q0 -104 125 -105h58q131 0 131 121v104q0 115 -131 115h-125z" />
    <glyph glyph-name="four.sm" horiz-adv-x="778" 
d="M436 338v397l-223 -397h223zM604 0h-168v199h-395v112l418 721h145v-694h125v-139h-125v-199z" />
    <glyph glyph-name="five.sm" horiz-adv-x="753" 
d="M645 1032v-139h-362l-7 -242l113 2q289 2 289 -266v-131q0 -142 -72 -206t-215 -64h-49q-139 0 -206 51t-66 164v112h159v-53q0 -74 28 -100t89 -25h51q61 0 91 27t30 96v127q0 121 -129 121h-274l14 526h516z" />
    <glyph glyph-name="six.sm" horiz-adv-x="813" 
d="M557 379q1 115 -143 115t-144 -115v-131q0 -113 144 -113t143 113v131zM458 633q121 0 194 -54t73 -153v-215q0 -105 -84 -165t-230 -60t-229 58q-82 58 -82 165v614q0 103 84 163t228 60t229 -56q84 -58 84 -163v-102h-168v63q0 109 -143 109t-144 -113v-202
q67 51 188 51z" />
    <glyph glyph-name="seven.sm" horiz-adv-x="669" 
d="M43 893v139h586v-117l-361 -915h-168l349 893h-406z" />
    <glyph glyph-name="eight.sm" horiz-adv-x="811" 
d="M406 915q-141 0 -142 -104v-94q0 -103 142 -103t141 103v94q0 104 -141 104zM407 489q-155 0 -155 -116v-140q0 -117 155 -117t154 117v140q1 116 -154 116zM406 1047q139 1 220 -57t81 -163v-100q0 -127 -113 -176q133 -57 133 -184v-158q0 -103 -86 -163
q-85 -60 -235 -60t-236 59t-86 164v158q0 127 135 184q-115 47 -115 176v100q0 104 81 162q82 58 221 58z" />
    <glyph glyph-name="nine.sm" horiz-adv-x="813" 
d="M545 784q-1 113 -145 113t-144 -113v-131q0 -113 140 -113t149 101v143zM354 399q-122 1 -194 55t-72 152v215q0 105 84 165t230 60t228 -58t83 -165v-614q0 -103 -84 -163q-85 -60 -229 -60t-228 57t-84 162v102h168v-63q0 -109 144 -109t145 113v203q-69 -52 -191 -52z
" />
    <glyph glyph-name="a.ital" horiz-adv-x="997" 
d="M297 344q0 -194 176 -194q92 0 213 67v672q-113 74 -207 74q-182 0 -182 -170v-449zM866 0h-159l-19 66q-131 -80 -272 -80t-220 84t-79 223v538q0 137 79 217t221 78q142 0 273 -71l17 71h159v-1126z" />
    <glyph glyph-name="f.ital" horiz-adv-x="620" 
d="M340 1251v-145h246v-148h-246v-958q-6 -207 -77 -298t-230 -91q-47 0 -90 8v154q68 -6 77 -6q76 0 108 62t32 212v917h-103v148h103v151q0 299 309 299q88 0 137 -20v-156q-45 20 -120 20q-74 0 -110 -34q-36 -35 -36 -115z" />
    <glyph glyph-name="e.ital" horiz-adv-x="974" 
d="M293 772v-145h196q207 0 207 164v20q0 160 -207 160q-100 -1 -148 -49t-48 -150zM489 479h-196v-145q0 -104 47 -152t149 -47q207 0 207 199v35h181v-70q-1 -152 -103 -236q-102 -83 -284 -83t-279 84q-98 84 -98 235v508q0 151 98 235t279 84t284 -76q102 -77 103 -219
v-57q0 -141 -103 -218t-285 -77z" />
    <glyph glyph-name="A.SC" horiz-adv-x="950" 
d="M475 995l-162 -581h322zM201 0h-170l348 1180h194l347 -1180h-170l-74 264h-404z" />
    <glyph glyph-name="B.SC" horiz-adv-x="913" 
d="M438 1038h-131v-348h131q180 0 180 148v39q0 161 -180 161zM471 563h-164v-422h164q92 0 144 43t53 127v95q0 157 -197 157zM471 0h-334v1180h301q342 0 342 -273v-67q0 -141 -141 -195q190 -53 190 -233v-123q0 -143 -94 -216t-264 -73z" />
    <glyph glyph-name="C.SC" horiz-adv-x="942" 
d="M293 287q0 -80 46 -117t144 -37q186 0 187 154v139h164v-186q0 -121 -94 -189q-94 -67 -260 -67q-165 0 -261 68t-96 188v700q0 120 96 188t261 68t259 -68t95 -188v-186h-164v139q0 76 -49 115t-138 39q-190 0 -190 -154v-606z" />
    <glyph glyph-name="D.SC" horiz-adv-x="980" 
d="M700 336v491q0 203 -270 203h-125v-880h141q127 0 191 40q63 42 63 146zM137 0v1180h293q224 0 328 -85t104 -253v-537q0 -157 -97 -231t-319 -74h-309z" />
    <glyph glyph-name="E.SC" horiz-adv-x="829" 
d="M653 680v-141h-346v-398h443v-141h-613v1180h613v-142h-443v-358h346z" />
    <glyph glyph-name="F.SC" horiz-adv-x="798" 
d="M307 0h-170v1180h613v-142h-443v-407h346v-142h-346v-489z" />
    <glyph glyph-name="G.SC" horiz-adv-x="958" 
d="M848 0h-88l-31 74q-78 -90 -244 -90t-264 68t-98 188v700q0 120 98 188t266 68q169 0 265 -68t96 -188v-186h-160v149q0 70 -53 107t-146 37q-197 0 -196 -144v-618q0 -152 196 -152q90 0 144 37q53 37 55 106v179h-199v141h359v-596z" />
    <glyph glyph-name="H.SC" horiz-adv-x="997" 
d="M307 0h-170v1180h170v-500h383v500h170v-1180h-170v539h-383v-539z" />
    <glyph glyph-name="I.SC" horiz-adv-x="442" 
d="M307 0h-170v1180h170v-1180z" />
    <glyph glyph-name="J.SC" horiz-adv-x="915" 
d="M618 1180h168v-885q0 -156 -95 -234q-95 -77 -266 -77t-267 68t-97 188v161h162v-129q0 -68 52 -104t145 -35q199 0 198 166v881z" />
    <glyph glyph-name="K.SC" horiz-adv-x="892" 
d="M307 0h-170v1180h170v-539l359 539h180l-377 -574l397 -606h-190l-369 559v-559z" />
    <glyph glyph-name="L.SC" horiz-adv-x="770" 
d="M733 141v-141h-596v1180h170v-1039h426z" />
    <glyph glyph-name="M.SC" horiz-adv-x="1245" 
d="M299 0h-162v1180h178l308 -586l309 586h176v-1180h-160v788l4 121l-272 -516h-115l-272 512l6 -117v-788z" />
    <glyph glyph-name="N.SC" horiz-adv-x="1036" 
d="M899 0h-137l-473 827l2 -43v-784h-154v1180h137l474 -826l-3 58v768h154v-1180z" />
    <glyph glyph-name="O.SC" horiz-adv-x="980" 
d="M490 1047q-103 0 -150 -40t-47 -130v-574q0 -90 47 -130t150 -40t151 40q47 40 47 130v574q0 90 -47 130q-48 40 -151 40zM123 924q0 128 97 200t270 72q172 0 270 -72t98 -200v-668q0 -129 -97 -201q-97 -71 -271 -71t-270 72q-97 72 -97 200v668z" />
    <glyph glyph-name="P.SC" horiz-adv-x="880" 
d="M442 1038h-135v-450h129q205 0 205 178v84q0 188 -199 188zM307 0h-170v1180h299q197 0 285 -82t88 -240v-115q0 -145 -88 -221t-285 -76h-129v-446z" />
    <glyph glyph-name="Q.SC" horiz-adv-x="980" 
d="M490 1047q-103 0 -150 -40t-47 -130v-574q0 -90 47 -130t150 -40t151 40q47 40 47 130v574q0 90 -47 130q-48 40 -151 40zM123 924q0 128 97 200t270 72q172 0 270 -72t98 -200v-668q0 -190 -203 -252l174 -207l-114 -90l-226 277q-172 0 -269 72t-97 200v668z" />
    <glyph glyph-name="R.SC" horiz-adv-x="909" 
d="M428 1038h-121v-450h113q203 0 203 178v84q0 188 -195 188zM307 0h-170v1180h283q197 0 285 -82t88 -240v-115q0 -215 -189 -274l279 -469h-191l-256 446h-129v-446z" />
    <glyph glyph-name="S.SC" horiz-adv-x="897" 
d="M813 358v-73q0 -158 -83 -230t-247 -71h-86q-155 0 -231 57t-76 182v142h166v-89q0 -84 34 -114t113 -29h74q86 0 126 30t40 124v78q0 61 -32 97t-113 52l-152 33q-127 27 -182 90t-55 209v69q0 137 79 209q80 72 232 72h37q151 0 235 -62t84 -178v-125h-166v89
q0 135 -151 135h-35q-78 0 -113 -34t-35 -118v-49q0 -80 24 -109t101 -45l142 -30q154 -33 212 -103t58 -209z" />
    <glyph glyph-name="T.SC" horiz-adv-x="792" 
d="M481 0h-170v1038h-268v142h707v-142h-269v-1038z" />
    <glyph glyph-name="U.SC" horiz-adv-x="995" 
d="M696 1180h168v-908q0 -135 -98 -212q-98 -76 -268 -76t-270 76q-99 77 -99 212v908h170v-869q0 -178 199 -178t198 178v869z" />
    <glyph glyph-name="V.SC" horiz-adv-x="909" 
d="M690 1180h168l-313 -1180h-180l-314 1180h168l236 -975z" />
    <glyph glyph-name="W.SC" horiz-adv-x="1370" 
d="M1145 1180h168l-230 -1180h-200l-197 936l-199 -936h-200l-230 1180h168l170 -1006l209 1006h162l211 -1006z" />
    <glyph glyph-name="X.SC" horiz-adv-x="892" 
d="M63 1180h183l198 -457l203 457h182l-274 -576l311 -604h-184l-236 487l-235 -487h-184l309 602z" />
    <glyph glyph-name="Y.SC" horiz-adv-x="915" 
d="M543 0h-170v422l-334 758h180l238 -590l237 590h180l-331 -758v-422z" />
    <glyph glyph-name="Z.SC" horiz-adv-x="827" 
d="M84 1038v142h661v-117l-489 -922h512v-141h-713v117l496 921h-467z" />
    <glyph glyph-name="A.titl" horiz-adv-x="1044" 
d="M520 1128l-186 -667h375zM207 0h-178l391 1327h205l391 -1327h-178l-86 303h-461z" />
    <glyph glyph-name="B.titl" horiz-adv-x="1009" 
d="M479 1178h-155v-404h155q209 0 209 170v47q0 187 -209 187zM516 639h-192v-489h192q106 0 167 50q60 50 60 150v105q0 184 -227 184zM516 0h-373v1327h336q389 0 389 -305v-78q0 -160 -163 -219q219 -59 219 -264v-135q0 -162 -109 -244t-299 -82z" />
    <glyph glyph-name="C.titl" horiz-adv-x="1038" 
d="M307 322q0 -96 53 -138t170 -43q221 0 222 181v157h172v-211q0 -135 -106 -211q-106 -75 -290 -75t-292 76t-107 210v791q0 135 108 211q107 76 291 76t290 -76t106 -211v-211h-172v160q0 88 -58 133t-164 45q-223 0 -223 -178v-686z" />
    <glyph glyph-name="D.titl" horiz-adv-x="1071" 
d="M481 160q152 0 225 46t72 167v561q0 233 -315 233h-139v-1007h157zM143 0v1327h320q253 0 369 -96t116 -283v-606q0 -178 -110 -260t-357 -82h-338z" />
    <glyph glyph-name="E.titl" horiz-adv-x="901" 
d="M713 760v-150h-389v-460h497v-150h-678v1327h678v-149h-497v-418h389z" />
    <glyph glyph-name="F.titl" horiz-adv-x="868" 
d="M324 0h-181v1327h678v-149h-497v-473h389v-150h-389v-555z" />
    <glyph glyph-name="G.titl" horiz-adv-x="1054" 
d="M940 0h-94l-33 86q-88 -104 -276 -104t-298 76t-110 210v791q0 135 110 211t297 76q188 0 296 -76t108 -211v-211h-170v170q0 82 -61 125t-170 43q-231 0 -232 -168v-701q1 -176 229 -176t234 166v209h-231v150h401v-666z" />
    <glyph glyph-name="H.titl" horiz-adv-x="1089" 
d="M324 0h-181v1327h181v-567h444v567h178v-1327h-178v610h-444v-610z" />
    <glyph glyph-name="I.titl" horiz-adv-x="466" 
d="M324 0h-181v1327h181v-1327z" />
    <glyph glyph-name="J.titl" horiz-adv-x="1005" 
d="M692 1327h178v-999q0 -172 -105 -259t-297 -87t-299 76q-108 76 -108 210v185h170v-150q-1 -80 61 -121t169 -41q231 0 231 191v995z" />
    <glyph glyph-name="K.titl" horiz-adv-x="970" 
d="M324 0h-181v1327h181v-602l411 602h191l-430 -645l454 -682h-202l-424 633v-633z" />
    <glyph glyph-name="L.titl" horiz-adv-x="837" 
d="M803 150v-150h-660v1327h181v-1177h479z" />
    <glyph glyph-name="M.titl" horiz-adv-x="1363" 
d="M313 0h-170v1327h187l352 -668l352 668h187v-1327h-170v911l4 123l-310 -588h-124l-314 592l6 -127v-911z" />
    <glyph glyph-name="N.titl" horiz-adv-x="1134" 
d="M991 0h-145l-541 950l2 -47v-903h-164v1327h144l542 -948l-2 63v885h164v-1327z" />
    <glyph glyph-name="O.titl" horiz-adv-x="1077" 
d="M539 1186q-121 0 -177 -46t-55 -151v-649q0 -106 55 -152q54 -46 176 -47q122 0 177 46t55 153v649q0 105 -55 151t-176 46zM129 1040q-1 142 107 224t302 82t302 -81t108 -225v-753q0 -143 -108 -225q-108 -80 -302 -80t-302 80t-107 225v753z" />
    <glyph glyph-name="P.titl" horiz-adv-x="958" 
d="M477 1178h-155v-521h149q238 0 238 207v92q-1 222 -232 222zM322 0h-179v1327h328q219 0 319 -92t99 -268v-123q0 -164 -99 -250t-319 -86h-149v-508z" />
    <glyph glyph-name="Q.titl" horiz-adv-x="1077" 
d="M539 1186q-121 0 -177 -46t-55 -151v-649q0 -106 55 -152q54 -46 176 -47q122 0 177 46t55 153v649q0 105 -55 151t-176 46zM129 1040q-1 142 107 224t302 82t302 -81t108 -225v-753q0 -215 -227 -283l192 -231l-125 -99l-249 308q-195 0 -303 80t-107 225v753z" />
    <glyph glyph-name="R.titl" horiz-adv-x="991" 
d="M463 1178h-139v-521h129q242 0 241 207v92q0 222 -231 222zM324 0h-181v1327h310q221 0 320 -92t99 -268v-123q0 -248 -219 -312l316 -532h-203l-289 508h-153v-508z" />
    <glyph glyph-name="S.titl" horiz-adv-x="985" 
d="M899 403v-88q0 -334 -367 -333h-96q-172 0 -257 63t-85 205v160h174v-105q0 -96 40 -130t132 -34h84q102 0 149 34q46 34 46 142v93q0 72 -38 114t-130 62l-176 37q-139 27 -201 98q-61 72 -61 231v80q0 154 89 234t257 80h43q166 0 260 -71t94 -198v-143h-174v104
q0 156 -180 156h-37q-90 0 -132 -39t-42 -135v-59q-1 -92 27 -125t118 -54l164 -34q168 -35 234 -113t65 -232z" />
    <glyph glyph-name="T.titl" horiz-adv-x="870" 
d="M524 0h-178v1178h-305v149h788v-149h-305v-1178z" />
    <glyph glyph-name="U.titl" horiz-adv-x="1093" 
d="M778 1327h178v-1026q0 -151 -110 -235t-299 -84q-190 0 -300 85t-110 234v1026h178v-983q-1 -203 231 -203t232 203v983z" />
    <glyph glyph-name="V.titl" horiz-adv-x="999" 
d="M770 1327h178l-352 -1327h-193l-354 1327h178l271 -1104z" />
    <glyph glyph-name="W.titl" horiz-adv-x="1519" 
d="M1286 1327h176l-262 -1327h-211l-229 1075l-228 -1075h-213l-262 1327h176l199 -1143l242 1143h172l239 -1139z" />
    <glyph glyph-name="X.titl" horiz-adv-x="970" 
d="M61 1327h191l233 -522l232 522h192l-309 -647l350 -680h-194l-271 555l-270 -555h-195l351 678z" />
    <glyph glyph-name="Y.titl" horiz-adv-x="1005" 
d="M592 0h-178v479l-375 848h188l275 -674l274 674h189l-373 -848v-479z" />
    <glyph glyph-name="Z.titl" horiz-adv-x="903" 
d="M84 1178v149h741v-121l-559 -1056h580v-150h-793v121l563 1057h-532z" />
    <glyph glyph-name="Ecaron.SC" horiz-adv-x="829" 
d="M524 1253h-151l-258 318h190l144 -195l141 195h192zM653 680v-141h-346v-398h443v-141h-613v1180h613v-142h-443v-358h346z" />
    <glyph glyph-name="Rcaron.SC" horiz-adv-x="909" 
d="M575 1253h-151l-258 318h190l144 -195l141 195h193zM428 1038h-121v-450h113q203 0 203 178v84q0 188 -195 188zM307 0h-170v1180h283q197 0 285 -82t88 -240v-115q0 -215 -189 -274l279 -469h-191l-256 446h-129v-446z" />
    <glyph glyph-name="Ycaron.SC" horiz-adv-x="915" 
d="M530 1253h-151l-258 318h190l144 -195l141 195h192zM543 0h-170v422l-334 758h180l238 -590l237 590h180l-331 -758v-422z" />
    <glyph glyph-name="Aacute.SC" horiz-adv-x="950" 
d="M530 1247h-129l187 336h229zM475 995l-162 -581h322zM201 0h-170l348 1180h194l347 -1180h-170l-74 264h-404z" />
    <glyph glyph-name="Iacute.SC" horiz-adv-x="442" 
d="M276 1247h-129l187 336h229zM307 0h-170v1180h170v-1180z" />
    <glyph glyph-name="Eacute.SC.001" horiz-adv-x="829" 
d="M506 1247h-129l186 336h230zM653 680v-141h-346v-398h443v-141h-613v1180h613v-142h-443v-358h346z" />
    <glyph glyph-name="Tcaron.SC" horiz-adv-x="792" 
d="M469 1253h-152l-258 318h191l143 -195l142 195h192zM481 0h-170v1038h-268v142h707v-142h-269v-1038z" />
    <glyph glyph-name="Dcaron.SC" horiz-adv-x="980" 
d="M575 1253h-151l-258 318h190l144 -195l141 195h193zM700 336v491q0 203 -270 203h-125v-880h141q127 0 191 40q63 42 63 146zM137 0v1180h293q224 0 328 -85t104 -253v-537q0 -157 -97 -231t-319 -74h-309z" />
    <glyph glyph-name="Scaron.SC" horiz-adv-x="897" 
d="M520 1253h-151l-258 318h190l143 -195l142 195h192zM813 358v-73q0 -158 -83 -230t-247 -71h-86q-155 0 -231 57t-76 182v142h166v-89q0 -84 34 -114t113 -29h74q86 0 126 30t40 124v78q0 61 -32 97t-113 52l-152 33q-127 27 -182 90t-55 209v69q0 137 79 209
q80 72 232 72h37q151 0 235 -62t84 -178v-125h-166v89q0 135 -151 135h-35q-78 0 -113 -34t-35 -118v-49q0 -80 24 -109t101 -45l142 -30q154 -33 212 -103t58 -209z" />
    <glyph glyph-name="Ccaron.SC" horiz-adv-x="948" 
d="M555 1253h-152l-258 318h191l143 -195l142 195h192zM293 287q0 -80 46 -117t144 -37q186 0 187 154v139h164v-186q0 -121 -94 -189q-94 -67 -260 -67q-165 0 -261 68t-96 188v700q0 120 96 188t261 68t259 -68t95 -188v-186h-164v139q0 76 -49 115t-138 39
q-190 0 -190 -154v-606z" />
    <glyph glyph-name="Zcaron.SC" horiz-adv-x="827" 
d="M483 1253h-151l-258 318h190l144 -195l141 195h192zM84 1038v142h661v-117l-489 -922h512v-141h-713v117l496 921h-467z" />
    <glyph glyph-name="Uacute.SC" horiz-adv-x="995" 
d="M553 1247h-129l186 336h230zM696 1180h168v-908q0 -135 -98 -212q-98 -76 -268 -76t-270 76q-99 77 -99 212v908h170v-869q0 -178 199 -178t198 178v869z" />
    <glyph glyph-name="Oacute.SC.001" horiz-adv-x="980" 
d="M545 1247h-129l186 336h229zM490 1047q-103 0 -150 -40t-47 -130v-574q0 -90 47 -130t150 -40t151 40q47 40 47 130v574q0 90 -47 130q-48 40 -151 40zM123 924q0 128 97 200t270 72q172 0 270 -72t98 -200v-668q0 -129 -97 -201q-97 -71 -271 -71t-270 72
q-97 72 -97 200v668z" />
    <glyph glyph-name="Aogonek.SC" horiz-adv-x="950" 
d="M475 995l-162 -581h322zM623 -272q0 160 159 272h-32l-74 264h-404l-71 -264h-170l348 1180h194l347 -1180h-25q-133 -145 -133 -250q0 -78 88 -78q63 0 123 37l35 -98q-88 -61 -191 -62q-194 1 -194 179z" />
    <glyph glyph-name="Cacute.SC" horiz-adv-x="948" 
d="M537 1247h-129l186 336h229zM293 287q0 -80 46 -117t144 -37q186 0 187 154v139h164v-186q0 -121 -94 -189q-94 -67 -260 -67q-165 0 -261 68t-96 188v700q0 120 96 188t261 68t259 -68t95 -188v-186h-164v139q0 76 -49 115t-138 39q-190 0 -190 -154v-606z" />
    <glyph glyph-name="Zdotaccent.SC" horiz-adv-x="827" 
d="M512 1247h-195v248h195v-248zM84 1038v142h661v-117l-489 -922h512v-141h-713v117l496 921h-467z" />
    <glyph glyph-name="Zacute.SC" horiz-adv-x="827" 
d="M465 1247h-129l186 336h230zM84 1038v142h661v-117l-489 -922h512v-141h-713v117l496 921h-467z" />
    <glyph glyph-name="Eogonek.SC" horiz-adv-x="829" 
d="M477 -272q0 160 160 272h-500v1180h613v-142h-443v-358h346v-141h-346v-398h443v-141q-133 -145 -134 -250q0 -78 89 -78q63 0 122 37l35 -98q-88 -61 -190 -62q-195 1 -195 179z" />
    <glyph glyph-name="Lslash.SC" horiz-adv-x="868" 
d="M231 1180h170v-414l332 207v-191l-332 -207v-434h426v-141h-596v469l-153 -96v190l153 96v521z" />
    <glyph glyph-name="Nacute.SC" horiz-adv-x="1036" 
d="M582 1247h-129l186 336h229zM899 0h-137l-473 827l2 -43v-784h-154v1180h137l474 -826l-3 58v768h154v-1180z" />
    <glyph glyph-name="Oacute.SC" horiz-adv-x="980" 
d="M545 1247h-129l186 336h229zM490 1047q-103 0 -150 -40t-47 -130v-574q0 -90 47 -130t150 -40t151 40q47 40 47 130v574q0 90 -47 130q-48 40 -151 40zM123 924q0 128 97 200t270 72q172 0 270 -72t98 -200v-668q0 -129 -97 -201q-97 -71 -271 -71t-270 72
q-97 72 -97 200v668z" />
    <glyph glyph-name="Sacute.SC" horiz-adv-x="897" 
d="M502 1247h-129l186 336h229zM813 358v-73q0 -158 -83 -230t-247 -71h-86q-155 0 -231 57t-76 182v142h166v-89q0 -84 34 -114t113 -29h74q86 0 126 30t40 124v78q0 61 -32 97t-113 52l-152 33q-127 27 -182 90t-55 209v69q0 137 79 209q80 72 232 72h37q151 0 235 -62
t84 -178v-125h-166v89q0 135 -151 135h-35q-78 0 -113 -34t-35 -118v-49q0 -80 24 -109t101 -45l142 -30q154 -33 212 -103t58 -209z" />
    <glyph glyph-name="Agrave.SC" horiz-adv-x="950" 
d="M563 1247h-129l-299 336h230zM475 995l-162 -581h322zM201 0h-170l348 1180h194l347 -1180h-170l-74 264h-404z" />
    <glyph glyph-name="Acircumflex.SC" horiz-adv-x="950" 
d="M406 1540h137l268 -293h-174l-162 172l-164 -172h-174zM475 995l-162 -581h322zM201 0h-170l348 1180h194l347 -1180h-170l-74 264h-404z" />
    <glyph glyph-name="AE.SC" horiz-adv-x="1392" 
d="M694 414v561l-284 -561h284zM1313 1180v-148h-443v-350h347v-147h-347v-388h443v-147h-619v266h-360l-133 -266h-187l611 1180h688z" />
    <glyph glyph-name="Ccedilla.SC" horiz-adv-x="948" 
d="M293 287q0 -80 46 -117t144 -37q186 0 187 154v139h164v-186q0 -109 -80 -177t-217 -77v-82h10q94 0 137 -40t43 -128t-53 -127t-187 -39h-106v98h113q61 0 84 16t22 54v8q0 41 -22 57q-23 16 -78 17h-66v166q-145 10 -228 76t-83 178v700q0 120 96 188t261 68t259 -68
t95 -188v-186h-164v139q0 76 -49 115t-138 39q-190 0 -190 -154v-606z" />
    <glyph glyph-name="Egrave.SC" horiz-adv-x="829" 
d="M539 1247h-129l-299 336h229zM653 680v-141h-346v-398h443v-141h-613v1180h613v-142h-443v-358h346z" />
    <glyph glyph-name="Eacute.SC" horiz-adv-x="829" 
d="M506 1247h-129l186 336h230zM653 680v-141h-346v-398h443v-141h-613v1180h613v-142h-443v-358h346z" />
    <glyph glyph-name="Ecircumflex.SC" horiz-adv-x="829" 
d="M381 1540h137l268 -293h-174l-161 172l-164 -172h-174zM653 680v-141h-346v-398h443v-141h-613v1180h613v-142h-443v-358h346z" />
    <glyph glyph-name="Edieresis.SC" horiz-adv-x="829" 
d="M752 1247h-201v223h201v-223zM350 1247h-200v223h200v-223zM653 680v-141h-346v-398h443v-141h-613v1180h613v-142h-443v-358h346z" />
    <glyph glyph-name="Icircumflex.SC" horiz-adv-x="442" 
d="M152 1540h137l268 -293h-174l-162 172l-164 -172h-174zM307 0h-170v1180h170v-1180z" />
    <glyph glyph-name="Idieresis.SC" horiz-adv-x="442" 
d="M522 1247h-200v223h200v-223zM121 1247h-201v223h201v-223zM307 0h-170v1180h170v-1180z" />
    <glyph glyph-name="Ocircumflex.SC" horiz-adv-x="980" 
d="M420 1540h137l268 -293h-174l-162 172l-163 -172h-174zM490 1047q-103 0 -150 -40t-47 -130v-574q0 -90 47 -130t150 -40t151 40q47 40 47 130v574q0 90 -47 130q-48 40 -151 40zM123 924q0 128 97 200t270 72q172 0 270 -72t98 -200v-668q0 -129 -97 -201
q-97 -71 -271 -71t-270 72q-97 72 -97 200v668z" />
    <glyph glyph-name="OE.SC" horiz-adv-x="1386" 
d="M494 1038q-100 0 -148 -39t-47 -125v-569q0 -86 47 -125q46 -39 144 -39t145 34t51 112v587q0 86 -46 125t-146 39zM1305 147v-147h-619v29q-78 -45 -192 -45q-174 0 -273 71q-98 72 -98 201v668q0 128 98 200t273 72q117 0 192 -47v31h619v-148h-441v-350h344v-147h-344
v-388h441z" />
    <glyph glyph-name="Ugrave.SC" horiz-adv-x="995" 
d="M586 1247h-129l-299 336h229zM696 1180h168v-908q0 -135 -98 -212q-98 -76 -268 -76t-270 76q-99 77 -99 212v908h170v-869q0 -178 199 -178t198 178v869z" />
    <glyph glyph-name="Ucircumflex.SC" horiz-adv-x="995" 
d="M428 1540h137l269 -293h-175l-161 172l-164 -172h-174zM696 1180h168v-908q0 -135 -98 -212q-98 -76 -268 -76t-270 76q-99 77 -99 212v908h170v-869q0 -178 199 -178t198 178v869z" />
    <glyph glyph-name="Udieresis.SC.001" horiz-adv-x="995" 
d="M799 1247h-201v223h201v-223zM397 1247h-200v223h200v-223zM696 1180h168v-908q0 -135 -98 -212q-98 -76 -268 -76t-270 76q-99 77 -99 212v908h170v-869q0 -178 199 -178t198 178v869z" />
    <glyph glyph-name="Ydieresis.SC" horiz-adv-x="915" 
d="M758 1247h-201v223h201v-223zM356 1247h-200v223h200v-223zM543 0h-170v422l-334 758h180l238 -590l237 590h180l-331 -758v-422z" />
    <glyph glyph-name="Adieresis.SC" horiz-adv-x="950" 
d="M776 1247h-201v223h201v-223zM375 1247h-201v223h201v-223zM475 995l-162 -581h322zM201 0h-170l348 1180h194l347 -1180h-170l-74 264h-404z" />
    <glyph glyph-name="Odieresis.SC" horiz-adv-x="980" 
d="M791 1247h-201v223h201v-223zM389 1247h-201v223h201v-223zM490 1047q-103 0 -150 -40t-47 -130v-574q0 -90 47 -130t150 -40t151 40q47 40 47 130v574q0 90 -47 130q-48 40 -151 40zM123 924q0 128 97 200t270 72q172 0 270 -72t98 -200v-668q0 -129 -97 -201
q-97 -71 -271 -71t-270 72q-97 72 -97 200v668z" />
    <glyph glyph-name="Udieresis.SC" horiz-adv-x="995" 
d="M799 1247h-201v223h201v-223zM397 1247h-200v223h200v-223zM696 1180h168v-908q0 -135 -98 -212q-98 -76 -268 -76t-270 76q-99 77 -99 212v908h170v-869q0 -178 199 -178t198 178v869z" />
    <glyph glyph-name="a.sm" horiz-adv-x="743" 
d="M326 96q82 0 137 37v152q-59 27 -135 26q-98 0 -99 -92v-31q1 -92 97 -92zM63 190v27q-1 97 53 151t154 54t193 -29v156q0 27 -5 45t-29 34t-67 15q-98 0 -98 -94v-37h-160v72q0 94 66 149t196 55t198 -54q67 -54 67 -150v-584h-144l-12 47q-95 -61 -201 -61t-158 53
t-53 151z" />
    <glyph glyph-name="o.sm" horiz-adv-x="755" 
d="M256 530v-286q0 -109 121 -109t121 109v286q0 109 -121 109t-121 -109zM662 571v-368q0 -101 -75 -159t-209 -58t-210 57t-76 160v368q0 101 76 159t210 58t209 -58t75 -159z" />
    <glyph glyph-name="zero.denominator" horiz-adv-x="839" 
d="M270 260q0 -125 151 -125t150 125v512q-1 125 -151 125t-150 -125v-512zM739 807v-582q0 -113 -86 -176t-233 -63t-234 63q-86 63 -86 176v582q0 113 86 176t234 63t233 -62q86 -64 86 -177z" />
    <glyph glyph-name="one.denominator" horiz-adv-x="493" 
d="M381 0h-166v842l-170 -64v154l219 100h117v-1032z" />
    <glyph glyph-name="two.denominator" horiz-adv-x="770" 
d="M700 139v-139h-624v72q0 270 184 403q27 20 83 56t88 60q31 23 59 65t28 89v43q0 117 -119 117h-34q-117 0 -117 -104v-92h-160v129q0 100 75 154t210 55h26q285 0 285 -240v-59q0 -109 -52 -180t-213 -169t-181 -260h462z" />
    <glyph glyph-name="three.denominator" horiz-adv-x="782" 
d="M285 475v127h100q133 0 133 121v70q0 61 -26 87q-27 26 -86 25h-27q-121 0 -121 -106v-74h-156v117q0 98 73 151t206 54h27q274 0 274 -236v-88q0 -125 -123 -162q139 -41 139 -196v-109q0 -143 -72 -207q-73 -63 -218 -63h-68q-137 0 -204 49t-66 160v120h157v-75
q0 -104 125 -105h58q131 0 131 121v104q0 115 -131 115h-125z" />
    <glyph glyph-name="four.denominator" horiz-adv-x="778" 
d="M436 338v397l-223 -397h223zM604 0h-168v199h-395v112l418 721h145v-694h125v-139h-125v-199z" />
    <glyph glyph-name="five.denominator" horiz-adv-x="753" 
d="M645 1032v-139h-362l-7 -242l113 2q289 2 289 -266v-131q0 -142 -72 -206t-215 -64h-49q-139 0 -206 51t-66 164v112h159v-53q0 -74 28 -100t89 -25h51q61 0 91 27t30 96v127q0 121 -129 121h-274l14 526h516z" />
    <glyph glyph-name="six.denominator" horiz-adv-x="813" 
d="M557 379q1 115 -143 115t-144 -115v-131q0 -113 144 -113t143 113v131zM458 633q121 0 194 -54t73 -153v-215q0 -105 -84 -165t-230 -60t-229 58q-82 58 -82 165v614q0 103 84 163t228 60t229 -56q84 -58 84 -163v-102h-168v63q0 109 -143 109t-144 -113v-202
q67 51 188 51z" />
    <glyph glyph-name="seven.denominator" horiz-adv-x="669" 
d="M43 893v139h586v-117l-361 -915h-168l349 893h-406z" />
    <glyph glyph-name="eight.denominator" horiz-adv-x="811" 
d="M406 915q-141 0 -142 -104v-94q0 -103 142 -103t141 103v94q0 104 -141 104zM407 489q-155 0 -155 -116v-140q0 -117 155 -117t154 117v140q1 116 -154 116zM406 1047q139 1 220 -57t81 -163v-100q0 -127 -113 -176q133 -57 133 -184v-158q0 -103 -86 -163
q-85 -60 -235 -60t-236 59t-86 164v158q0 127 135 184q-115 47 -115 176v100q0 104 81 162q82 58 221 58z" />
    <glyph glyph-name="nine.denominator" horiz-adv-x="813" 
d="M545 784q-1 113 -145 113t-144 -113v-131q0 -113 140 -113t149 101v143zM354 399q-122 1 -194 55t-72 152v215q0 105 84 165t230 60t228 -58t83 -165v-614q0 -103 -84 -163q-85 -60 -229 -60t-228 57t-84 162v102h168v-63q0 -109 144 -109t145 113v203q-69 -52 -191 -52z
" />
    <glyph glyph-name="zero.numerator" horiz-adv-x="839" 
d="M270 711q0 -125 151 -125t150 125v512q-1 125 -151 125t-150 -125v-512zM739 1257v-581q0 -113 -86 -176q-86 -64 -233 -64q-148 0 -234 64t-86 176v581q0 113 86 177t234 63q148 1 233 -63q86 -64 86 -177z" />
    <glyph glyph-name="one.numerator" horiz-adv-x="493" 
d="M381 451h-166v841l-170 -63v153l219 101h117v-1032z" />
    <glyph glyph-name="two.numerator" horiz-adv-x="770" 
d="M700 590v-139h-624v71q0 270 184 404q27 20 83 56t88 60t59 65q28 42 28 89v43q0 117 -119 117h-34q-117 0 -117 -105v-92h-160v129q0 100 75 154t210 55h26q285 0 285 -240v-59q0 -110 -52 -180t-213 -168t-181 -260h462z" />
    <glyph glyph-name="three.numerator" horiz-adv-x="782" 
d="M285 926v127h100q133 0 133 121v69q0 61 -26 87q-27 26 -86 26h-27q-121 0 -121 -107v-73h-156v116q0 98 73 152t206 53h27q274 0 274 -235v-88q0 -125 -123 -162q139 -41 139 -197v-108q0 -143 -72 -207q-73 -63 -218 -64h-68q-137 0 -204 49t-66 160v121h157v-76
q0 -104 125 -104h58q131 0 131 121v104q0 115 -131 115h-125z" />
    <glyph glyph-name="four.numerator" horiz-adv-x="778" 
d="M436 788v398l-223 -398h223zM604 451h-168v198h-395v113l418 721h145v-695h125v-139h-125v-198z" />
    <glyph glyph-name="five.numerator" horiz-adv-x="753" 
d="M645 1483v-140h-362l-7 -241l113 2q289 2 289 -266v-131q0 -143 -72 -207t-215 -64h-49q-139 0 -206 51t-66 164v113h159v-53q0 -74 28 -100t89 -25h51q61 0 91 26t30 97v127q0 121 -129 120h-274l14 527h516z" />
    <glyph glyph-name="six.numerator" horiz-adv-x="813" 
d="M557 829q1 115 -143 115t-144 -115v-131q0 -112 144 -112t143 112v131zM458 1083q121 0 194 -54t73 -152v-215q0 -106 -84 -166t-230 -60q-147 0 -229 58t-82 165v615q0 104 84 164t228 59q144 0 229 -57q84 -57 84 -162v-102h-168v63q0 109 -143 109t-144 -113v-203
q67 51 188 51z" />
    <glyph glyph-name="seven.numerator" horiz-adv-x="669" 
d="M43 1343v140h586v-117l-361 -915h-168l349 892h-406z" />
    <glyph glyph-name="eight.numerator" horiz-adv-x="811" 
d="M406 1366q-141 0 -142 -104v-95q0 -102 142 -102t141 102v95q0 104 -141 104zM407 940q-155 0 -155 -117v-139q0 -117 155 -117t154 117v139q1 117 -154 117zM406 1497q139 0 220 -57t81 -162v-100q0 -127 -113 -177q133 -57 133 -184v-158q0 -104 -86 -163
q-85 -60 -235 -60t-236 60t-86 163v158q0 127 135 184q-115 47 -115 177v100q0 104 81 162q82 57 221 57z" />
    <glyph glyph-name="nine.numerator" horiz-adv-x="813" 
d="M545 1235q-1 113 -145 113t-144 -113v-131q0 -113 140 -113t149 101v143zM354 850q-122 0 -194 54t-72 153v215q0 106 84 166t230 59q146 0 228 -58t83 -165v-615q0 -104 -84 -163q-85 -60 -229 -60t-228 58t-84 161v103h168v-64q0 -108 144 -108t145 112v203
q-69 -51 -191 -51z" />
    <glyph glyph-name="a.uni" horiz-adv-x="1150" 
d="M492 133q188 0 323 94v359q-135 66 -319 65q-113 0 -164 -53t-51 -172v-70q0 -223 211 -223zM78 348v72q0 377 373 377q193 0 364 -64v404q0 76 -52 131t-185 55q-238 0 -238 -186v-117h-184v143q0 150 99 239t321 89t326 -92t106 -236v-1163h-156l-18 88
q-194 -115 -384 -115q-372 0 -372 375z" />
    <glyph glyph-name="e.uni" horiz-adv-x="1110" 
d="M313 1098v-293h498v293q0 115 -68 173t-188 58q-242 0 -242 -231zM313 373q-1 -117 59 -171t183 -55q256 0 256 226v116h178v-137q1 -180 -113 -279t-318 -99t-314 98q-110 100 -111 280v766q0 182 111 280q110 98 314 97q204 0 318 -97t113 -280v-461h-676v-284z" />
    <glyph glyph-name="four.alt" horiz-adv-x="991" 
d="M578 408v704l-342 -704h342zM766 0h-188v248h-531v125l557 1102h162v-1067h164v-160h-164v-248z" />
    <glyph glyph-name="a.alt" horiz-adv-x="946" 
d="M412 127q135 0 229 66v239q-89 39 -197 39t-145 -35t-37 -114v-46q0 -149 150 -149zM72 266v49q0 287 288 287q150 0 281 -45v258q0 156 -170 156q-90 0 -129 -37t-39 -119v-57h-172v82q0 286 345 286t345 -286v-848h-149l-17 74q-141 -86 -291 -86q-292 0 -292 286z" />
    </font>
</defs>
</svg>
