<?xml version="1.0" standalone="no"?>
<!DOCTYPE svg PUBLIC "-//W3C//DTD SVG 1.1//EN" "http://www.w3.org/Graphics/SVG/1.1/DTD/svg11.dtd" >
<svg xmlns="http://www.w3.org/2000/svg">
<metadata>
Created by FontPrep 20130207 at Sun Jun 19 04:07:37 2016
 By Baptiste Briel
Copyright (c) 2016 by Jeremy Dooley. All rights reserved.
</metadata>
<defs>
<font id="c45c3395c7cb692a383b441248501b1c" horiz-adv-x='1024' >
  <font-face 
    font-family="Gineso-ConDem"
    font-weight="700"
    font-stretch="condensed"
    units-per-em="2048"
    panose-1="0 0 0 0 0 0 0 0 0 0"
    ascent="1638"
    descent="-410"
    x-height="1106"
    cap-height="1475"
    bbox="-150 -532.013 2634 2041"
    underline-thickness="102"
    underline-position="-102"
    unicode-range="U+000D-F739"
  />
<missing-glyph horiz-adv-x="921" 
 />
    <glyph glyph-name=".notdef" horiz-adv-x="921" 
 />
    <glyph glyph-name=".null" horiz-adv-x="0" 
 />
    <glyph glyph-name="nonmarkingreturn" horiz-adv-x="681" 
 />
    <glyph glyph-name="NULL" horiz-adv-x="0" 
 />
    <glyph glyph-name="NULL" horiz-adv-x="0" 
 />
    <glyph glyph-name="CR" unicode="&#xd;" horiz-adv-x="337" 
 />
    <glyph glyph-name="space" unicode=" " horiz-adv-x="337" 
 />
    <glyph glyph-name="exclam" unicode="!" horiz-adv-x="458" 
d="M348 0h-239v289h239v-289zM104 1475h250v-508l-55 -586h-141l-54 586v508z" />
    <glyph glyph-name="quotedbl" unicode="&#x22;" horiz-adv-x="694" 
d="M428 969l-63 506h268l-64 -506h-141zM125 969l-64 506h269l-64 -506h-141z" />
    <glyph glyph-name="numbersign" unicode="#" horiz-adv-x="1101" 
d="M465 901l-37 -338h213l39 338h-215zM53 410v153h211l39 338h-199v154h215l48 420h159l-45 -420h215l47 420h160l-45 -420h189v-154h-205l-37 -338h194v-153h-211l-43 -410h-165l45 410h-213l-43 -410h-166l45 410h-195z" />
    <glyph glyph-name="dollar" unicode="$" horiz-adv-x="946" 
d="M508 1679h70v-192q126 -20 198 -95t72 -196v-156h-227v101q0 154 -134 153h-34q-72 0 -101 -38t-28 -136v-55q0 -94 22 -127t96 -53l136 -37q178 -47 244 -132t65 -265v-84q0 -358 -309 -383v-189h-70v185h-45v-185h-70v185q-159 6 -239 78t-80 221v182h227v-103
q0 -98 31 -132t102 -33h72q78 -1 114 33t35 143v92q0 135 -137 168l-149 37q-150 38 -213 120t-64 269v82q0 326 301 354v188h70v-184h20l25 -2v186z" />
    <glyph glyph-name="percent" unicode="%" horiz-adv-x="1964" 
d="M741 -41h-202l618 1557h197zM1401 264q0 -114 117 -114t116 114v385q0 115 -116 115t-117 -115v-385zM1823 692v-471q0 -113 -82 -179t-222 -65q-140 0 -224 66q-83 66 -83 178v471q0 112 83 178t223 66t223 -66q82 -66 82 -178zM262 825q0 -114 118 -114t118 114v385
q0 115 -118 115t-118 -115v-385zM684 1253v-471q0 -112 -82 -178t-222 -66t-222 66t-82 178v471q0 113 82 179t222 66t222 -66t82 -179z" />
    <glyph glyph-name="ampersand" unicode="&#x26;" horiz-adv-x="1165" 
d="M303 516v-164q0 -172 170 -172h90q152 0 152 162v336h-238q-174 0 -174 -162zM1126 860v-182h-192v-363q0 -167 -95 -251t-270 -84h-92q-197 0 -295 91t-98 296v153q0 203 172 264q-150 70 -150 250v123q0 166 96 252t275 86h49q180 0 280 -76t99 -215v-164h-221v103
q0 79 -37 115t-119 36h-47q-79 0 -113 -37t-34 -124v-101q0 -172 174 -172h618z" />
    <glyph glyph-name="quotesingle" unicode="'" horiz-adv-x="391" 
d="M125 969l-64 506h269l-64 -506h-141z" />
    <glyph glyph-name="parenleft" unicode="(" horiz-adv-x="606" 
d="M326 580q0 -276 64 -482t200 -467h-252q-268 441 -268 949t268 948h252q-136 -260 -200 -466t-64 -482z" />
    <glyph glyph-name="parenright" unicode=")" horiz-adv-x="606" 
d="M281 580q0 276 -65 482t-200 466h252q268 -440 268 -948t-268 -949h-252q135 261 200 467t65 482z" />
    <glyph glyph-name="asterisk" unicode="*" horiz-adv-x="839" 
d="M74 1196l86 164l221 -207l-49 317h176l-51 -317l223 205l88 -162l-281 -111l279 -110l-86 -164l-223 205l51 -316h-176l49 316l-221 -203l-88 162l278 110z" />
    <glyph glyph-name="plus" unicode="+" horiz-adv-x="921" 
d="M365 1229h190v-338h305v-197h-305v-340h-190v340h-306v197h306v338z" />
    <glyph glyph-name="comma" unicode="," horiz-adv-x="442" 
d="M201 -217h-150l58 506h266z" />
    <glyph glyph-name="hyphen" unicode="-" horiz-adv-x="825" 
d="M733 797v-199h-639v199h639z" />
    <glyph glyph-name="period" unicode="." horiz-adv-x="419" 
d="M330 0h-240v289h240v-289z" />
    <glyph glyph-name="slash" unicode="/" horiz-adv-x="1056" 
d="M285 -49h-256l747 1573h250z" />
    <glyph glyph-name="zero" unicode="0" horiz-adv-x="999" 
d="M500 186q84 0 127 41t43 117v786q0 76 -43 117t-127 41t-127 -41t-43 -117v-786q0 -76 43 -117t127 -41zM895 1176v-877q-1 -152 -107 -236q-106 -83 -288 -83t-289 83q-106 84 -107 236v877q0 152 106 236t290 83q182 1 288 -83t107 -236z" />
    <glyph glyph-name="one" unicode="1" horiz-adv-x="638" 
d="M516 0h-229v1212l-234 -114v211l303 166h160v-1475z" />
    <glyph glyph-name="two" unicode="2" horiz-adv-x="921" 
d="M852 199v-199h-776v100q-14 217 74 372t266 294q61 47 95 81t62 92q29 58 29 126v63q0 166 -127 166h-33q-131 0 -131 -149v-133h-219v184q0 143 93 221t261 78h31q172 0 264 -87t93 -255v-86q0 -156 -69 -258t-257 -240t-209 -370h553z" />
    <glyph glyph-name="three" unicode="3" 
d="M274 342q0 -151 138 -149h69q152 0 152 172v151q0 162 -148 162h-157v182h133q141 0 141 160v125q0 80 -28 115t-91 34h-32q-72 0 -106 -32t-34 -107v-131h-202v180q0 139 90 215t256 76h30q342 0 342 -338v-123q0 -176 -149 -233q172 -55 172 -281v-153q0 -207 -91 -297
t-274 -90h-79q-170 0 -253 70t-83 229v170h204v-107z" />
    <glyph glyph-name="four" unicode="4" horiz-adv-x="905" 
d="M717 0h-228v236h-452v108l258 1131h227l-239 -1045h206v172l64 250h164v-422h141v-194h-141v-236z" />
    <glyph glyph-name="five" unicode="5" horiz-adv-x="894" 
d="M778 1475v-199h-426l-8 -346l121 2q356 6 356 -379v-186q0 -207 -88 -297t-264 -90h-63q-172 0 -255 72t-83 235v162h219v-78q0 -98 30 -139q31 -40 97 -39h61q63 -1 95 39t32 137v180q0 176 -139 176h-340l16 750h639z" />
    <glyph glyph-name="six" unicode="6" horiz-adv-x="970" 
d="M498 702q-162 0 -162 -161v-187q0 -162 158 -161q158 0 157 161v187q1 161 -153 161zM558 903q142 0 233 -78q90 -78 90 -217v-309q-1 -152 -105 -236q-104 -83 -284 -83t-283 83q-102 84 -103 236v877q0 152 104 236t284 83q180 0 283 -82t104 -229v-148h-230v92
q1 154 -157 154t-158 -162v-280q80 63 222 63z" />
    <glyph glyph-name="seven" unicode="7" horiz-adv-x="802" 
d="M43 1276v199h721v-166l-432 -1309h-230l418 1276h-477z" />
    <glyph glyph-name="eight" unicode="8" horiz-adv-x="968" 
d="M641 1157q0 150 -157 150t-156 -150v-133q0 -147 156 -147t157 147v133zM483 698q-166 0 -166 -168v-196q0 -166 167 -166t167 166v196q0 88 -41 128t-127 40zM483 1495q175 0 277 -82t102 -229v-146q0 -188 -143 -254q164 -80 164 -260v-225q-1 -152 -107 -236
q-106 -83 -292 -83t-291 84q-106 84 -107 235v225q0 182 166 262q-143 72 -143 252v146q0 147 100 229t274 82z" />
    <glyph glyph-name="nine" unicode="9" horiz-adv-x="970" 
d="M473 772q162 0 162 162v186q0 162 -158 162t-158 -162v-186q0 -162 154 -162zM412 571q-142 0 -232 78t-90 217v310q0 152 104 236t285 83q179 0 283 -84t104 -235v-877q0 -152 -104 -236q-104 -83 -284 -83t-284 82q-103 82 -104 229v147h229v-92q0 -154 158 -153
q158 0 158 161v279q-81 -62 -223 -62z" />
    <glyph glyph-name="colon" unicode=":" horiz-adv-x="438" 
d="M342 807h-240v289h240v-289zM342 0h-240v289h240v-289z" />
    <glyph glyph-name="semicolon" unicode=";" horiz-adv-x="483" 
d="M219 -217h-149l57 506h266zM383 807h-240v289h240v-289z" />
    <glyph glyph-name="less" unicode="&#x3c;" horiz-adv-x="761" 
d="M45 545v178l399 547h265l-476 -635l476 -635h-265z" />
    <glyph glyph-name="equal" unicode="=" horiz-adv-x="839" 
d="M739 449v-199h-639v199h639zM739 858v-199h-639v199h639z" />
    <glyph glyph-name="greater" unicode="&#x3e;" horiz-adv-x="761" 
d="M717 723v-178l-400 -545h-264l475 635l-475 635h264z" />
    <glyph glyph-name="question" unicode="?" horiz-adv-x="921" 
d="M506 0h-240v289h240v-289zM494 332h-224v215q0 103 38 161t130 96t125 79t33 116v131q0 90 -33 130t-100 38h-33q-68 0 -100 -38t-33 -130v-129h-225v195q0 145 96 222t264 77h33q172 0 267 -77t95 -224v-242q0 -127 -43 -181t-176 -112q-70 -31 -92 -69t-22 -101v-157z
" />
    <glyph glyph-name="at" unicode="@" horiz-adv-x="1445" 
d="M713 485q92 0 143 74v330q-45 51 -141 51q-121 0 -121 -137v-180q0 -138 119 -138zM1038 537q0 -35 20 -55t53 -21t57 21t24 55v618q0 170 -203 170h-520q-190 0 -190 -170v-866q0 -170 190 -170h786v-152h-804q-160 0 -251 80t-91 223v904q0 143 91 223t251 80h557
q166 0 260 -80t94 -223v-656q0 -100 -71 -154t-205 -54t-195 81q-94 -82 -227 -82t-199 82t-66 209v225q0 129 66 210q65 81 187 81t204 -65v51h182v-565z" />
    <glyph glyph-name="A" unicode="A" horiz-adv-x="1060" 
d="M530 1210l-163 -680h327zM240 0h-232l385 1475h275l387 -1475h-234l-78 319h-428z" />
    <glyph glyph-name="B" unicode="B" horiz-adv-x="1017" 
d="M479 1288h-123v-420h123q180 0 180 183v49q0 188 -180 188zM522 692h-166v-506h166q92 0 142 52t51 153v121q0 180 -193 180zM522 0h-397v1475h354q197 0 305 -85t109 -257v-91q0 -166 -156 -231q211 -63 211 -289v-166q0 -178 -112 -267t-314 -89z" />
    <glyph glyph-name="C" unicode="C" horiz-adv-x="1019" 
d="M342 354q0 -86 45 -124t139 -37q182 0 183 161v178h219v-233q0 -152 -112 -236q-112 -83 -301 -83t-297 84t-107 235v877q-1 152 111 236t301 83q189 0 297 -84t108 -235v-234h-219v178q1 162 -183 162t-184 -162v-766z" />
    <glyph glyph-name="D" unicode="D" horiz-adv-x="1081" 
d="M498 1274h-142v-1073h148q256 0 256 284v504q0 285 -262 285zM125 0v1475h373q254 0 368 -119t113 -357v-524q0 -247 -112 -361t-363 -114h-379z" />
    <glyph glyph-name="E" unicode="E" horiz-adv-x="915" 
d="M848 199v-199h-723v1475h723v-199h-492v-418h383v-199h-383v-460h492z" />
    <glyph glyph-name="F" unicode="F" horiz-adv-x="882" 
d="M356 0h-231v1475h723v-199h-492v-479h383v-199h-383v-598z" />
    <glyph glyph-name="G" unicode="G" horiz-adv-x="1050" 
d="M952 0h-121l-40 86q-95 -106 -283 -106t-293 83q-104 84 -104 236v877q1 152 115 236t308 83q194 0 307 -84q112 -84 111 -235v-234h-221v178q-1 162 -195 162t-194 -162v-760q0 -88 47 -128t150 -39q193 0 192 167v199h-192v199h413v-758z" />
    <glyph glyph-name="H" unicode="H" horiz-adv-x="1097" 
d="M356 0h-231v1475h231v-617h383v617h234v-1475h-234v659h-383v-659z" />
    <glyph glyph-name="I" unicode="I" horiz-adv-x="481" 
d="M356 0h-231v1475h231v-1475z" />
    <glyph glyph-name="J" unicode="J" horiz-adv-x="960" 
d="M610 1475h234v-1094q0 -203 -106 -302t-296 -99t-295 83q-104 84 -104 236v250h219v-174q0 -182 174 -182t174 190v1092z" />
    <glyph glyph-name="K" unicode="K" horiz-adv-x="1001" 
d="M356 0h-231v1475h231v-674l371 674h248l-395 -719l417 -756h-260l-381 698v-698z" />
    <glyph glyph-name="L" unicode="L" horiz-adv-x="858" 
d="M836 199v-199h-711v1475h231v-1276h480z" />
    <glyph glyph-name="M" unicode="M" horiz-adv-x="1398" 
d="M344 0h-219v1475h246l327 -705l330 705h246v-1475h-221v932l4 133l-279 -586h-160l-280 590l6 -137v-932z" />
    <glyph glyph-name="N" unicode="N" horiz-adv-x="1146" 
d="M1022 0h-191l-501 965l2 -33v-932h-207v1475h188l502 -963l-2 51v912h209v-1475z" />
    <glyph glyph-name="O" unicode="O" horiz-adv-x="1075" 
d="M538 1282q-100 0 -148 -45t-48 -145v-709q0 -100 47 -145t149 -45t148 45q47 45 47 145v709q0 100 -47 145t-148 45zM539 1495q201 0 313 -89t113 -251v-836q0 -163 -113 -251q-114 -88 -314 -88t-314 90t-113 249v836q0 160 113 250q114 90 315 90z" />
    <glyph glyph-name="P" unicode="P" horiz-adv-x="985" 
d="M506 1276h-150v-531h146q195 0 194 205v111q0 215 -190 215zM356 0h-231v1475h373q225 -1 327 -103t103 -299v-158q0 -180 -102 -274t-328 -94h-142v-547z" />
    <glyph glyph-name="Q" unicode="Q" horiz-adv-x="1075" 
d="M538 1282q-100 0 -148 -45t-48 -145v-709q0 -100 47 -145t149 -45t148 45q47 45 47 145v709q0 100 -47 145t-148 45zM539 1495q201 0 313 -89t113 -251v-836q0 -225 -211 -305l194 -252l-157 -129l-259 347q-198 2 -310 91t-111 248v836q0 160 113 250q114 90 315 90z
" />
    <glyph glyph-name="R" unicode="R" horiz-adv-x="1013" 
d="M479 1276h-123v-531h121q195 0 195 205v111q0 215 -193 215zM356 0h-231v1475h346q227 -1 329 -103t103 -299v-158q0 -254 -201 -331l312 -584h-260l-275 547h-123v-547z" />
    <glyph glyph-name="S" unicode="S" horiz-adv-x="960" 
d="M891 451v-84q0 -203 -94 -295t-279 -92h-88q-176 0 -264 70t-88 229v182h227v-103q0 -98 31 -132t102 -33h72q78 -1 114 33t35 143v92q0 135 -137 168l-149 37q-150 38 -213 120t-64 269v82q0 176 91 267t266 91h34q169 0 267 -79t98 -220v-156h-227v101q0 154 -133 153
h-35q-72 0 -101 -38t-28 -136v-55q0 -94 22 -127t96 -53l136 -37q178 -47 244 -132t65 -265z" />
    <glyph glyph-name="T" unicode="T" horiz-adv-x="872" 
d="M553 0h-231v1276h-295v199h819v-199h-293v-1276z" />
    <glyph glyph-name="U" unicode="U" horiz-adv-x="1089" 
d="M741 1475h232v-1127q0 -172 -115 -270q-116 -98 -314 -98t-313 98t-114 270v1127h233v-1076q0 -207 195 -206q197 0 196 206v1076z" />
    <glyph glyph-name="V" unicode="V" horiz-adv-x="1003" 
d="M745 1475h230l-348 -1475h-250l-348 1475h229l244 -1186z" />
    <glyph glyph-name="W" unicode="W" horiz-adv-x="1511" 
d="M1245 1475h228l-246 -1475h-266l-205 1098l-203 -1098h-268l-246 1475h227l164 -1209l217 1209h217l217 -1209z" />
    <glyph glyph-name="X" unicode="X" horiz-adv-x="1005" 
d="M47 1475h250l205 -551l207 551h249l-303 -717l346 -758h-256l-241 600l-242 -600h-258l346 760z" />
    <glyph glyph-name="Y" unicode="Y" horiz-adv-x="997" 
d="M614 0h-231v520l-367 955h246l236 -707l237 707h242l-363 -949v-526z" />
    <glyph glyph-name="Z" unicode="Z" horiz-adv-x="915" 
d="M74 1276v199h766v-168l-533 -1108h565v-199h-831v168l543 1108h-510z" />
    <glyph glyph-name="bracketleft" unicode="[" horiz-adv-x="565" 
d="M504 -78v-198h-387v1751h387v-199h-170v-1354h170z" />
    <glyph glyph-name="backslash" unicode="\" horiz-adv-x="1056" 
d="M1028 -49h-256l-741 1573h250z" />
    <glyph glyph-name="bracketright" unicode="]" horiz-adv-x="565" 
d="M61 -276v198h170v1354h-170v199h388v-1751h-388z" />
    <glyph glyph-name="asciicircum" unicode="^" horiz-adv-x="1015" 
d="M291 813h-246l361 657h206l359 -657h-244l-219 461z" />
    <glyph glyph-name="underscore" unicode="_" horiz-adv-x="1036" 
d="M965 0v-199h-891v199h891z" />
    <glyph glyph-name="grave" unicode="`" horiz-adv-x="716" 
d="M401 1126h-155l-275 340h267z" />
    <glyph glyph-name="a" unicode="a" horiz-adv-x="890" 
d="M406 168q100 0 159 45v229h-145q-129 0 -129 -123v-32q0 -119 115 -119zM61 270v41q0 303 304 303h200v187q0 129 -127 129q-121 0 -121 -129v-64h-211v99q0 143 88 217q88 73 252 73q166 0 254 -74t88 -216v-844h-190l-18 78q-112 -82 -250 -82q-270 0 -269 282z" />
    <glyph glyph-name="b" unicode="b" horiz-adv-x="946" 
d="M518 918q-53 0 -186 -80v-576q90 -68 178 -67q121 0 121 170v399q0 154 -113 154zM106 -8v1483h226v-443q160 94 254 94q130 0 198 -78t68 -225v-518q0 -151 -71 -235t-203 -84t-246 86l-19 -80h-207z" />
    <glyph glyph-name="c" unicode="c" horiz-adv-x="897" 
d="M311 346q0 -158 152 -158q145 0 145 158v100h211v-155q0 -150 -93 -231q-93 -80 -268 -80t-273 80q-97 81 -97 231v524q0 150 97 231q97 80 273 80t268 -80q93 -80 93 -231v-164h-211v109q0 158 -145 158q-152 0 -152 -158v-414z" />
    <glyph glyph-name="d" unicode="d" horiz-adv-x="937" 
d="M436 195q84 0 170 55v606q-84 61 -172 62q-117 0 -117 -154v-399q0 -170 119 -170zM829 0h-204l-19 66q-110 -80 -238 -80t-201 85t-73 226v526q0 141 72 223t202 80q130 0 238 -59v408h223v-1475z" />
    <glyph glyph-name="e" unicode="e" horiz-adv-x="911" 
d="M311 764v-119h297v119q0 166 -151 166q-146 0 -146 -166zM311 342q0 -166 146 -166q152 0 151 166v27h223v-70q0 -152 -99 -236q-99 -83 -275 -83t-273 83q-96 84 -96 236v508q0 151 96 235t272 84t276 -84q99 -84 99 -235v-344h-520v-121z" />
    <glyph glyph-name="f" unicode="f" horiz-adv-x="612" 
d="M365 1106h221v-182h-221v-924h-226v924h-92v182h92v131q0 156 83 238t237 81q98 0 145 -18v-197q-41 18 -121 19q-119 0 -118 -133v-121z" />
    <glyph glyph-name="g" unicode="g" horiz-adv-x="921" 
d="M436 215q78 0 154 45v608q-76 49 -156 50q-117 0 -117 -154v-379q0 -170 119 -170zM94 317v506q0 141 72 223t204 80q132 0 246 -65l13 53h184v-1163q0 -166 -115 -253t-338 -87q-133 0 -254 27v196q98 -27 232 -27q252 0 252 203v64q-104 -68 -227 -68t-196 85t-73 226z
" />
    <glyph glyph-name="h" unicode="h" horiz-adv-x="923" 
d="M332 0h-226v1475h226v-424q137 75 252 75t175 -74t60 -210v-842h-223v776q0 141 -104 142q-57 0 -160 -62v-856z" />
    <glyph glyph-name="i" unicode="i" horiz-adv-x="440" 
d="M338 1270h-240v289h240v-289zM334 0h-225v1106h225v-1106z" />
    <glyph glyph-name="j" unicode="j" horiz-adv-x="452" 
d="M356 1278h-239v289h239v-289zM121 63v1043h223v-1040q0 -248 -71 -352t-248 -103l-84 6v197q31 -6 63 -7q63 -1 90 57t27 199z" />
    <glyph glyph-name="k" unicode="k" horiz-adv-x="860" 
d="M332 0h-226v1475h226v-824l260 455h250l-316 -498l334 -608h-250l-278 526v-526z" />
    <glyph glyph-name="l" unicode="l" horiz-adv-x="487" 
d="M104 1475h224v-1119q0 -170 92 -170q41 0 67 11v-191q-53 -16 -161 -16t-165 78q-56 78 -57 254v1153z" />
    <glyph glyph-name="m" unicode="m" horiz-adv-x="1394" 
d="M564 1126q150 0 212 -118q94 119 277 118q117 0 178 -78t61 -214v-834h-223v772q0 152 -98 152q-84 0 -160 -70v-854h-223v772q0 152 -99 152q-88 0 -157 -66v-858h-226v1114h187l20 -84q101 96 251 96z" />
    <glyph glyph-name="n" unicode="n" horiz-adv-x="927" 
d="M585 1126q120 0 180 -74t60 -210v-842h-225v776q0 141 -102 142q-63 0 -166 -66v-852h-226v1114h187l18 -76q154 88 274 88z" />
    <glyph glyph-name="o" unicode="o" horiz-adv-x="917" 
d="M311 760v-414q1 -158 149 -158t148 158v414q0 158 -148 158t-149 -158zM831 815v-524q0 -150 -97 -231q-97 -80 -274 -80t-275 80q-97 81 -97 231v524q0 150 97 231q97 80 275 80t274 -80q97 -80 97 -231z" />
    <glyph glyph-name="p" unicode="p" horiz-adv-x="942" 
d="M514 918q-51 0 -182 -78v-580q84 -66 174 -65q121 0 121 170v399q0 154 -113 154zM332 -369h-226v1483h187l20 -90q174 102 287 102q112 0 180 -78t68 -225v-518q0 -151 -71 -235t-204 -84t-241 84v-439z" />
    <glyph glyph-name="q" unicode="q" horiz-adv-x="944" 
d="M436 195q86 0 176 59v598q-88 66 -178 66q-117 0 -117 -154v-399q0 -170 119 -170zM838 -369h-226v439q-116 -84 -244 -84t-201 85t-73 226v526q0 141 72 223t210 80q138 0 259 -77l16 65h187v-1483z" />
    <glyph glyph-name="r" unicode="r" horiz-adv-x="780" 
d="M756 639h-221v201q1 84 -61 84t-142 -80v-844h-226v1114h187l16 -98q119 111 256 110q190 0 191 -243v-244z" />
    <glyph glyph-name="s" unicode="s" horiz-adv-x="868" 
d="M799 369v-70q0 -174 -94 -247t-279 -72q-360 0 -360 270v119h210v-84q0 -63 37 -86t115 -23t119 25t41 96v59q0 43 -30 67t-101 36l-129 24q-143 25 -194 89q-50 65 -50 229v51q0 135 89 205q89 69 257 69t260 -68t92 -194v-108h-211v86q0 100 -139 100t-139 -100v-41
q-1 -63 25 -86t100 -37l117 -25q156 -27 210 -86t54 -198z" />
    <glyph glyph-name="t" unicode="t" horiz-adv-x="638" 
d="M37 924v182h110v246h224v-246h209v-182h-209v-574q-1 -88 31 -128t105 -40t109 19v-191q-61 -20 -167 -20q-301 0 -302 313v621h-110z" />
    <glyph glyph-name="u" unicode="u" 
d="M827 0h-184l-14 76q-164 -96 -285 -96t-181 76t-61 216v834h226v-768q0 -150 102 -150q70 0 174 70v848h223v-1106z" />
    <glyph glyph-name="v" unicode="v" horiz-adv-x="876" 
d="M618 1106h234l-289 -1106h-248l-288 1106h233l178 -862z" />
    <glyph glyph-name="w" unicode="w" horiz-adv-x="1320" 
d="M31 1106h233l133 -856l150 856h225l150 -856l135 856h233l-239 -1106h-242l-150 815l-149 -815h-242z" />
    <glyph glyph-name="x" unicode="x" horiz-adv-x="837" 
d="M33 1106h237l150 -379l151 379h234l-264 -524l282 -582h-233l-172 403l-170 -403h-234l283 580z" />
    <glyph glyph-name="y" unicode="y" horiz-adv-x="892" 
d="M168 -389q-66 0 -115 14v193q37 -10 99 -10q137 -1 194 192h-4l-322 1106h248l185 -821l184 821h246l-305 -1073q-74 -254 -169 -338t-241 -84z" />
    <glyph glyph-name="z" unicode="z" horiz-adv-x="800" 
d="M76 924v182h659v-162l-463 -762h482v-182h-715v162l453 762h-416z" />
    <glyph glyph-name="braceleft" unicode="{" horiz-adv-x="593" 
d="M387 770q0 -184 -127 -242q127 -61 127 -241v-449q0 -154 152 -153v-197q-201 0 -288 79t-87 236v465q0 162 -129 162v197q129 0 129 161v392q0 158 87 236t288 79v-197q-152 0 -152 -153v-375z" />
    <glyph glyph-name="bar" unicode="|" horiz-adv-x="456" 
d="M340 -512h-223v2048h223v-2048z" />
    <glyph glyph-name="braceright" unicode="}" horiz-adv-x="593" 
d="M209 770v375q0 154 -152 153v197q201 0 288 -79t87 -236v-392q0 -162 129 -161v-197q-129 0 -129 -162v-465q0 -159 -87 -237t-288 -78v197q152 0 152 153v449q0 180 127 241q-127 58 -127 242z" />
    <glyph glyph-name="asciitilde" unicode="~" horiz-adv-x="1015" 
d="M696 707q-72 -1 -123 33t-95 67t-93 33q-88 0 -94 -121h-205q2 160 67 247t181 87q80 0 137 -33t99 -66q42 -32 86 -32t64 33q19 34 21 100h205q-10 -348 -250 -348z" />
    <glyph glyph-name="uni00A0" unicode="&#xa0;" horiz-adv-x="337" 
 />
    <glyph glyph-name="exclamdown" unicode="&#xa1;" horiz-adv-x="458" 
d="M109 1475h241v-289h-241v289zM354 0h-250v459l54 622h143l53 -622v-459z" />
    <glyph glyph-name="cent" unicode="&#xa2;" horiz-adv-x="880" 
d="M502 -266h-109v250q-153 12 -233 91t-80 216v524q0 135 81 214t232 93v209h109v-207q147 -12 228 -92t81 -217v-164h-211v109q0 158 -145 158q-152 0 -152 -158v-414q0 -158 152 -158q145 0 145 158v100h211v-155q0 -137 -81 -217t-228 -92v-248z" />
    <glyph glyph-name="sterling" unicode="&#xa3;" horiz-adv-x="983" 
d="M479 1296q-149 0 -149 -171q0 -131 39 -245t47 -143h227v-196h-207q-8 -162 -102 -346h573v-195h-823v162q121 229 127 379h-127v196h102q-4 14 -25 84q-57 180 -58 340t95 247t277 87h37q184 0 290 -79t105 -220v-147h-225v65q0 96 -39 139t-127 43h-37z" />
    <glyph glyph-name="currency" unicode="&#xa4;" horiz-adv-x="1007" 
d="M330 500q0 -90 114 -90h121q115 0 115 90v327q0 88 -115 88h-121q-115 0 -114 -88v-327zM156 430v467q0 31 4 45l-103 115l115 121l104 -119q57 23 130 22h196q72 0 127 -22l107 119l112 -121l-102 -115q6 -20 6 -45v-467q0 -16 -4 -41l90 -98l-115 -121l-88 96
q-53 -20 -133 -20h-196q-80 0 -134 20l-86 -96l-116 121l90 98q-4 12 -4 41z" />
    <glyph glyph-name="yen" unicode="&#xa5;" horiz-adv-x="1034" 
d="M631 0h-232v188h-247v199h247v133l-2 4h-245v199h170l-289 752h246l235 -707l238 707h241l-288 -752h172v-199h-246v-137h246v-199h-246v-188z" />
    <glyph glyph-name="brokenbar" unicode="&#xa6;" horiz-adv-x="458" 
d="M342 717h-225v819h225v-819zM117 307h225v-819h-225v819z" />
    <glyph glyph-name="section" unicode="&#xa7;" horiz-adv-x="1036" 
d="M428 569q-137 0 -137 -102v-39q-1 -61 25 -83t108 -40l100 -18q12 -4 21 -4h51q78 -1 115 23t37 89v43q0 46 -34 72t-128 49l-49 8q-33 2 -109 2zM975 397q0 -227 -187 -288q12 -49 13 -113v-37q0 -174 -94 -251q-93 -77 -281 -77t-282 67q-93 67 -93 212v90h211v-63
q0 -63 39 -87t117 -22q78 0 118 25t39 96v43q0 47 -33 76q-34 29 -124 45l-113 18q-139 25 -187 85t-48 212v51q0 195 188 252q-14 55 -14 143v60q0 135 91 205q91 69 260 69t265 -68t96 -194v-96h-211v65q0 57 -32 83q-33 26 -111 26q-137 0 -137 -100v-50q-1 -56 25 -80
t102 -40l94 -19q172 -33 230 -91t59 -193v-54z" />
    <glyph glyph-name="dieresis" unicode="&#xa8;" horiz-adv-x="901" 
d="M754 1167h-242v252h242v-252zM373 1167h-244v252h244v-252z" />
    <glyph glyph-name="copyright" unicode="&#xa9;" horiz-adv-x="1380" 
d="M598 541q0 -88 92 -88q41 -1 66 23t24 65v96h150v-141q0 -90 -65 -140t-177 -51q-112 0 -178 50t-66 141v467q0 90 67 140t179 50t176 -50t64 -140v-142h-150v97q0 88 -91 88t-91 -88v-377zM911 1321h-440q-193 0 -192 -154v-860q0 -154 192 -153h440q193 0 193 153v860
q0 154 -193 154zM1272 1196v-917q0 -133 -91 -206t-251 -73h-477q-160 0 -251 73t-91 206v917q0 133 91 206t251 73h477q160 0 251 -73t91 -206z" />
    <glyph glyph-name="ordfeminine" unicode="&#xaa;" horiz-adv-x="733" 
d="M340 825q53 0 88 27v123q-41 20 -88 20q-68 0 -68 -71v-25q0 -74 68 -74zM68 899v21q0 100 51 154t145 54t164 -22v129q0 76 -63 76t-64 -76v-35h-197v88q0 96 69 152t194 55q125 0 197 -55t73 -152v-581h-184l-11 47q-80 -62 -177 -62t-147 54t-50 153z" />
    <glyph glyph-name="guillemotleft" unicode="&#xab;" horiz-adv-x="944" 
d="M459 659l207 353h217l-228 -424l-6 -2l6 -2l228 -424h-217l-207 352v147zM63 659l207 353h217l-227 -424l-6 -2l6 -2l227 -424h-217l-207 352v147z" />
    <glyph glyph-name="logicalnot" unicode="&#xac;" horiz-adv-x="993" 
d="M887 506h-201v145h-592v199h793v-344z" />
    <glyph glyph-name="uni00AD" unicode="&#xad;" horiz-adv-x="825" 
d="M733 797v-199h-639v199h639z" />
    <glyph glyph-name="registered" unicode="&#xae;" horiz-adv-x="1380" 
d="M672 999h-62v-243h56q55 0 82 22t26 78v43q0 100 -102 100zM610 332h-157v801h235q244 0 244 -220v-94q0 -139 -123 -180l135 -307h-176l-117 291h-41v-291zM911 1321h-440q-193 0 -192 -154v-860q0 -154 192 -153h440q193 0 193 153v860q0 154 -193 154zM1272 1196v-917
q0 -133 -91 -206t-251 -73h-477q-160 0 -251 73t-91 206v917q0 133 91 206t251 73h477q160 0 251 -73t91 -206z" />
    <glyph glyph-name="macron" unicode="&#xaf;" horiz-adv-x="1536" 
d="M528 1325h-528v174h528v-174z" />
    <glyph glyph-name="degree" unicode="&#xb0;" horiz-adv-x="710" 
d="M246 1155q0 -113 110 -113t109 113v57q0 113 -110 113t-109 -113v-57zM641 1241v-115q0 -254 -285 -254q-139 0 -213 66t-73 188v115q0 123 73 189q74 66 212 66t212 -66t74 -189z" />
    <glyph glyph-name="plusminus" unicode="&#xb1;" horiz-adv-x="980" 
d="M891 197v-197h-799v197h799zM395 1227h191v-338h305v-197h-305v-340h-191v340h-305v197h305v338z" />
    <glyph glyph-name="twosuperior" unicode="&#xb2;" horiz-adv-x="724" 
d="M670 625v-174h-613v84q0 276 193 413q74 49 118 92q44 42 64 72t21 80v41q0 90 -78 90h-37q-72 0 -72 -84v-92h-192v141q0 100 72 155q73 54 206 54h27q135 0 206 -61t70 -179v-59q0 -114 -46 -184t-187 -170q-137 -94 -162 -219h410z" />
    <glyph glyph-name="threesuperior" unicode="&#xb3;" horiz-adv-x="729" 
d="M246 907v154h112q90 0 91 106v58q-1 55 -17 77t-57 21h-25q-80 0 -80 -92v-60h-188v119q0 98 72 152t200 55h25q266 0 266 -248v-78q0 -121 -110 -159q129 -41 129 -197v-90q0 -153 -71 -221t-214 -68h-62q-135 0 -199 49t-65 160v133h191v-69q0 -86 94 -86h47
q90 0 90 100v88q0 49 -22 73q-23 24 -78 23h-129z" />
    <glyph glyph-name="acute" unicode="&#xb4;" horiz-adv-x="694" 
d="M262 1128h-156l156 338h270z" />
    <glyph glyph-name="mu" unicode="&#xb5;" horiz-adv-x="954" 
d="M340 -512h-225v731q-2 16 -2 53v834h225v-512h2v-299q12 -106 100 -107q70 0 174 70v848h224v-1106h-185l-14 76q-164 -96 -287 -96h-12v-492z" />
    <glyph glyph-name="paragraph" unicode="&#xb6;" horiz-adv-x="946" 
d="M524 -233h-188v890h-57q-107 1 -163 51t-57 142v432q1 92 57 142t163 51h544v-1708h-188v1540h-111v-1540z" />
    <glyph glyph-name="periodcentered" unicode="&#xb7;" horiz-adv-x="440" 
d="M340 471h-240v289h240v-289z" />
    <glyph glyph-name="cedilla" unicode="&#xb8;" horiz-adv-x="694" 
d="M313 16h115v-106h16q166 0 166 -166q0 -96 -58 -137t-190 -41h-102v115h107q57 0 76 13t20 48v10q1 37 -17 52t-67 16h-66v196z" />
    <glyph glyph-name="onesuperior" unicode="&#xb9;" horiz-adv-x="493" 
d="M401 451h-204v788l-160 -61v192l221 113h143v-1032z" />
    <glyph glyph-name="ordmasculine" unicode="&#xba;" horiz-adv-x="733" 
d="M283 1225v-258q-1 -84 79 -84t80 84v258q0 84 -80 84t-79 -84zM643 1276v-361q0 -106 -74 -163q-74 -58 -206 -58q-133 0 -207 58t-74 163v361q0 104 75 162t207 59t205 -57q74 -58 74 -164z" />
    <glyph glyph-name="guillemotright" unicode="&#xbb;" horiz-adv-x="944" 
d="M674 1012l207 -353v-147l-207 -352h-217l227 424l6 2l-6 2l-227 424h217zM281 1012l206 -353v-147l-206 -352h-218l228 424l6 2l-6 2l-228 424h218z" />
    <glyph glyph-name="onequarter" unicode="&#xbc;" horiz-adv-x="1675" 
d="M1313 354v303l-156 -303h156zM1516 0h-203v182h-357v146l381 704h179v-678h112v-172h-112v-182zM580 -41h-203l618 1557h197zM408 451h-205v788l-160 -61v192l221 113h144v-1032z" />
    <glyph glyph-name="onehalf" unicode="&#xbd;" horiz-adv-x="1742" 
d="M1679 174v-174h-612v84q0 276 193 414q77 51 120 92q42 41 62 72t20 79v41q0 90 -78 90h-36q-72 0 -72 -84v-92h-193v142q0 100 73 154t206 55h27q135 1 205 -61t71 -179v-59q0 -113 -46 -184t-187 -171q-137 -94 -162 -219h409zM580 -41h-203l618 1557h197zM408 451
h-205v788l-160 -61v192l221 113h144v-1032z" />
    <glyph glyph-name="threequarters" unicode="&#xbe;" horiz-adv-x="1849" 
d="M1487 354v303l-156 -303h156zM1690 0h-203v182h-357v146l381 704h179v-678h112v-172h-112v-182zM754 -41h-203l618 1557h197zM254 907v154h113q90 0 90 106v58q-1 55 -17 77t-57 21h-25q-80 0 -79 -92v-60h-189v119q0 98 72 152t200 55h25q266 0 266 -248v-78
q0 -121 -110 -159q129 -41 129 -197v-90q0 -153 -71 -221t-214 -68h-61q-135 0 -200 49t-65 160v133h191v-69q0 -86 94 -86h47q90 0 90 100v88q0 49 -22 73q-23 24 -78 23h-129z" />
    <glyph glyph-name="questiondown" unicode="&#xbf;" horiz-adv-x="915" 
d="M653 842h-239v288h239v-288zM446 717h224v-215q0 -104 -38 -162t-130 -95q-92 -38 -124 -79t-32 -117v-131q0 -90 32 -129t99 -39h33q70 0 102 39t31 129v129h227v-194q0 -145 -97 -223t-265 -76h-33q-170 0 -265 76t-95 225v241q0 128 43 182t176 111q70 31 92 69
t20 101v158z" />
    <glyph glyph-name="Agrave" unicode="&#xc0;" horiz-adv-x="1060" 
d="M637 1554h-156l-274 340h266zM530 1210l-163 -680h327zM240 0h-232l385 1475h275l387 -1475h-234l-78 319h-428z" />
    <glyph glyph-name="Aacute" unicode="&#xc1;" horiz-adv-x="1060" 
d="M606 1556h-155l155 338h271zM530 1210l-163 -680h327zM240 0h-232l385 1475h275l387 -1475h-234l-78 319h-428z" />
    <glyph glyph-name="Acircumflex" unicode="&#xc2;" horiz-adv-x="1060" 
d="M451 1851h167l248 -299h-209l-122 160l-123 -160h-207zM530 1210l-163 -680h327zM240 0h-232l385 1475h275l387 -1475h-234l-78 319h-428z" />
    <glyph glyph-name="Atilde" unicode="&#xc3;" horiz-adv-x="1060" 
d="M438 1649q-43 0 -47 -95h-162q3 125 53 195t131 70t162 -71q27 -24 43 -24q46 1 48 99h161q-4 -268 -188 -269q-59 0 -121 48t-80 47zM530 1210l-163 -680h327zM240 0h-232l385 1475h275l387 -1475h-234l-78 319h-428z" />
    <glyph glyph-name="Adieresis" unicode="&#xc4;" horiz-adv-x="1060" 
d="M850 1554h-242v252h242v-252zM469 1554h-244v252h244v-252zM530 1210l-163 -680h327zM240 0h-232l385 1475h275l387 -1475h-234l-78 319h-428z" />
    <glyph glyph-name="Aring" unicode="&#xc5;" horiz-adv-x="1060" 
d="M449 1806q0 -102 88 -102t88 102v6q0 100 -88 101q-88 0 -88 -101v-6zM770 1853v-90q0 -188 -233 -188t-234 188v90q-1 188 233 188t234 -188zM530 1210l-163 -680h327zM240 0h-232l385 1475h275l387 -1475h-234l-78 319h-428z" />
    <glyph glyph-name="AE" unicode="&#xc6;" horiz-adv-x="1554" 
d="M762 526v656l-291 -656h291zM1485 1475v-199h-490v-418h381v-199h-381v-460h490v-199h-723v328h-379l-143 -328h-246l676 1475h815z" />
    <glyph glyph-name="Ccedilla" unicode="&#xc7;" horiz-adv-x="1019" 
d="M342 354q0 -86 45 -124t139 -37q182 0 183 161v178h219v-233q0 -129 -83 -210t-229 -101v-78h17q166 0 166 -166q-1 -96 -59 -137t-189 -41h-102v115h106q57 0 77 13q19 13 19 48v10q0 37 -17 52t-67 16h-65v160q-182 4 -287 87q-104 83 -104 232v877q-1 152 111 236
t301 83q189 0 297 -84t108 -235v-234h-219v178q1 162 -183 162t-184 -162v-766z" />
    <glyph glyph-name="Egrave" unicode="&#xc8;" horiz-adv-x="915" 
d="M598 1554h-156l-274 340h266zM848 199v-199h-723v1475h723v-199h-492v-418h383v-199h-383v-460h492z" />
    <glyph glyph-name="Eacute" unicode="&#xc9;" horiz-adv-x="915" 
d="M512 1556h-156l156 338h270zM848 199v-199h-723v1475h723v-199h-492v-418h383v-199h-383v-460h492z" />
    <glyph glyph-name="Ecircumflex" unicode="&#xca;" horiz-adv-x="915" 
d="M414 1851h168l247 -299h-208l-123 160l-123 -160h-207zM848 199v-199h-723v1475h723v-199h-492v-418h383v-199h-383v-460h492z" />
    <glyph glyph-name="Edieresis" unicode="&#xcb;" horiz-adv-x="915" 
d="M823 1554h-239v289h239v-289zM418 1554h-240v289h240v-289zM848 199v-199h-723v1475h723v-199h-492v-418h383v-199h-383v-460h492z" />
    <glyph glyph-name="Igrave" unicode="&#xcc;" horiz-adv-x="481" 
d="M338 1554h-156l-274 340h266zM356 0h-231v1475h231v-1475z" />
    <glyph glyph-name="Iacute" unicode="&#xcd;" horiz-adv-x="483" 
d="M254 1556h-156l156 338h270zM356 0h-231v1475h231v-1475z" />
    <glyph glyph-name="Icircumflex" unicode="&#xce;" horiz-adv-x="481" 
d="M154 1851h168l247 -299h-209l-122 160l-123 -160h-207zM356 0h-231v1475h231v-1475z" />
    <glyph glyph-name="Idieresis" unicode="&#xcf;" horiz-adv-x="481" 
d="M563 1554h-239v289h239v-289zM158 1554h-240v289h240v-289zM356 0h-231v1475h231v-1475z" />
    <glyph glyph-name="Eth" unicode="&#xd0;" horiz-adv-x="1118" 
d="M555 829v-198h-172v-418h164q125 0 187 46t63 169v602q0 231 -269 232h-145v-433h172zM150 0v631h-123v198h123v646h378q254 -1 371 -107t117 -315v-672q0 -197 -110 -289t-359 -92h-397z" />
    <glyph glyph-name="Ntilde" unicode="&#xd1;" horiz-adv-x="1146" 
d="M494 1649q-43 0 -48 -95h-161q2 125 52 195t130 70t164 -71q27 -24 43 -24q45 1 47 99h162q-4 -268 -189 -269q-58 0 -120 48t-80 47zM1022 0h-191l-501 965l2 -33v-932h-207v1475h188l502 -963l-2 51v912h209v-1475z" />
    <glyph glyph-name="Ograve" unicode="&#xd2;" horiz-adv-x="1075" 
d="M637 1575h-156l-274 340h266zM538 1282q-100 0 -148 -45t-48 -145v-709q0 -100 47 -145t149 -45t148 45q47 45 47 145v709q0 100 -47 145t-148 45zM539 1495q201 0 313 -89t113 -251v-836q0 -163 -113 -251q-114 -88 -314 -88t-314 90t-113 249v836q0 160 113 250
q114 90 315 90z" />
    <glyph glyph-name="Oacute" unicode="&#xd3;" horiz-adv-x="1075" 
d="M604 1577h-155l155 338h270zM538 1282q-100 0 -148 -45t-48 -145v-709q0 -100 47 -145t149 -45t148 45q47 45 47 145v709q0 100 -47 145t-148 45zM539 1495q201 0 313 -89t113 -251v-836q0 -163 -113 -251q-114 -88 -314 -88t-314 90t-113 249v836q0 160 113 250
q114 90 315 90z" />
    <glyph glyph-name="Ocircumflex" unicode="&#xd4;" horiz-adv-x="1075" 
d="M453 1872h168l247 -299h-209l-122 160l-123 -160h-207zM538 1282q-100 0 -148 -45t-48 -145v-709q0 -100 47 -145t149 -45t148 45q47 45 47 145v709q0 100 -47 145t-148 45zM539 1495q201 0 313 -89t113 -251v-836q0 -163 -113 -251q-114 -88 -314 -88t-314 90t-113 249
v836q0 160 113 250q114 90 315 90z" />
    <glyph glyph-name="Otilde" unicode="&#xd5;" horiz-adv-x="1075" 
d="M676 1587q-58 0 -120 47t-81 47q-43 0 -47 -94h-162q2 125 52 195t132 70t162 -71q27 -24 43 -24q45 0 47 98h162q-4 -268 -188 -268zM538 1282q-100 0 -148 -45t-48 -145v-709q0 -100 47 -145t149 -45t148 45q47 45 47 145v709q0 100 -47 145t-148 45zM539 1495
q201 0 313 -89t113 -251v-836q0 -163 -113 -251q-114 -88 -314 -88t-314 90t-113 249v836q0 160 113 250q114 90 315 90z" />
    <glyph glyph-name="Odieresis" unicode="&#xd6;" horiz-adv-x="1075" 
d="M862 1575h-239v289h239v-289zM457 1575h-240v289h240v-289zM538 1282q-100 0 -148 -45t-48 -145v-709q0 -100 47 -145t149 -45t148 45q47 45 47 145v709q0 100 -47 145t-148 45zM539 1495q201 0 313 -89t113 -251v-836q0 -163 -113 -251q-114 -88 -314 -88t-314 90
t-113 249v836q0 160 113 250q114 90 315 90z" />
    <glyph glyph-name="multiply" unicode="&#xd7;" horiz-adv-x="837" 
d="M635 367l-215 239l-217 -239l-133 137l215 239l-215 240l133 137l217 -239l215 239l131 -137l-215 -240l215 -239z" />
    <glyph glyph-name="Oslash" unicode="&#xd8;" horiz-adv-x="1075" 
d="M552 1282q-114 0 -162 -45t-48 -145v-609l365 725q-41 74 -155 74zM539 193q100 0 147 45t47 145v643l-375 -745q40 -88 181 -88zM524 1495q186 0 293 -68l47 93h117l-82 -162q66 -82 66 -203v-836q0 -163 -113 -251t-303 -88t-303 73l-45 -88h-121l84 168
q-53 78 -53 186v836q0 160 113 250q114 90 300 90z" />
    <glyph glyph-name="Ugrave" unicode="&#xd9;" horiz-adv-x="1089" 
d="M645 1554h-156l-274 340h266zM741 1475h232v-1127q0 -172 -115 -270q-116 -98 -314 -98t-313 98t-114 270v1127h233v-1076q0 -207 195 -206q197 0 196 206v1076z" />
    <glyph glyph-name="Uacute" unicode="&#xda;" horiz-adv-x="1089" 
d="M614 1556h-155l155 338h271zM741 1475h232v-1127q0 -172 -115 -270q-116 -98 -314 -98t-313 98t-114 270v1127h233v-1076q0 -207 195 -206q197 0 196 206v1076z" />
    <glyph glyph-name="Ucircumflex" unicode="&#xdb;" horiz-adv-x="1089" 
d="M459 1851h168l247 -299h-208l-123 160l-123 -160h-207zM741 1475h232v-1127q0 -172 -115 -270q-116 -98 -314 -98t-313 98t-114 270v1127h233v-1076q0 -207 195 -206q197 0 196 206v1076z" />
    <glyph glyph-name="Udieresis" unicode="&#xdc;" horiz-adv-x="1089" 
d="M858 1554h-242v252h242v-252zM477 1554h-244v252h244v-252zM741 1475h232v-1127q0 -172 -115 -270q-116 -98 -314 -98t-313 98t-114 270v1127h233v-1076q0 -207 195 -206q197 0 196 206v1076z" />
    <glyph glyph-name="Yacute" unicode="&#xdd;" horiz-adv-x="997" 
d="M565 1556h-155l155 338h271zM614 0h-231v520l-367 955h246l236 -707l237 707h242l-363 -949v-526z" />
    <glyph glyph-name="Thorn" unicode="&#xde;" horiz-adv-x="1019" 
d="M535 913h-185v-712h185q180 0 180 174v364q0 174 -180 174zM350 -369h-225v1844h225v-361h185q188 0 294 -86t107 -254v-434q0 -170 -106 -255t-295 -85h-185v-369z" />
    <glyph glyph-name="germandbls" unicode="&#xdf;" horiz-adv-x="1005" 
d="M340 0h-234v1225q0 174 94 254t283 80t291 -79t103 -241v-164q0 -137 -115 -198q170 -82 170 -308v-229q0 -170 -104 -255t-291 -85h-103v201h103q174 0 174 182v166q0 205 -164 205h-113v166h8v12h62q152 0 151 176v76q0 92 -33 132q-34 40 -106 40h-24
q-152 0 -152 -178v-1178z" />
    <glyph glyph-name="agrave" unicode="&#xe0;" horiz-adv-x="890" 
d="M537 1247h-156l-275 340h267zM406 168q100 0 159 45v229h-145q-129 0 -129 -123v-32q0 -119 115 -119zM61 270v41q0 303 304 303h200v187q0 129 -127 129q-121 0 -121 -129v-64h-211v99q0 143 88 217q88 73 252 73q166 0 254 -74t88 -216v-844h-190l-18 78
q-112 -82 -250 -82q-270 0 -269 282z" />
    <glyph glyph-name="aacute" unicode="&#xe1;" horiz-adv-x="890" 
d="M506 1249h-156l156 338h270zM406 168q100 0 159 45v229h-145q-129 0 -129 -123v-32q0 -119 115 -119zM61 270v41q0 303 304 303h200v187q0 129 -127 129q-121 0 -121 -129v-64h-211v99q0 143 88 217q88 73 252 73q166 0 254 -74t88 -216v-844h-190l-18 78
q-112 -82 -250 -82q-270 0 -269 282z" />
    <glyph glyph-name="acircumflex" unicode="&#xe2;" horiz-adv-x="890" 
d="M352 1544h168l248 -299h-209l-123 160l-123 -160h-207zM406 168q100 0 159 45v229h-145q-129 0 -129 -123v-32q0 -119 115 -119zM61 270v41q0 303 304 303h200v187q0 129 -127 129q-121 0 -121 -129v-64h-211v99q0 143 88 217q88 73 252 73q166 0 254 -74t88 -216v-844
h-190l-18 78q-112 -82 -250 -82q-270 0 -269 282z" />
    <glyph glyph-name="atilde" unicode="&#xe3;" horiz-adv-x="890" 
d="M338 1341q-43 0 -47 -94h-162q2 125 52 195t132 70t162 -71q27 -24 43 -24q45 1 47 99h162q-4 -268 -188 -269q-59 0 -121 47t-80 47zM406 168q100 0 159 45v229h-145q-129 0 -129 -123v-32q0 -119 115 -119zM61 270v41q0 303 304 303h200v187q0 129 -127 129
q-121 0 -121 -129v-64h-211v99q0 143 88 217q88 73 252 73q166 0 254 -74t88 -216v-844h-190l-18 78q-112 -82 -250 -82q-270 0 -269 282z" />
    <glyph glyph-name="adieresis" unicode="&#xe4;" horiz-adv-x="890" 
d="M750 1247h-242v252h242v-252zM369 1247h-244v252h244v-252zM406 168q100 0 159 45v229h-145q-129 0 -129 -123v-32q0 -119 115 -119zM61 270v41q0 303 304 303h200v187q0 129 -127 129q-121 0 -121 -129v-64h-211v99q0 143 88 217q88 73 252 73q166 0 254 -74t88 -216
v-844h-190l-18 78q-112 -82 -250 -82q-270 0 -269 282z" />
    <glyph glyph-name="aring" unicode="&#xe5;" horiz-adv-x="890" 
d="M375 1499q0 -102 88 -102t88 102v6q0 100 -88 101q-88 0 -88 -101v-6zM696 1546v-90q0 -188 -233 -188t-234 188v90q-1 188 233 188t234 -188zM406 168q100 0 159 45v229h-145q-129 0 -129 -123v-32q0 -119 115 -119zM61 270v41q0 303 304 303h200v187q0 129 -127 129
q-121 0 -121 -129v-64h-211v99q0 143 88 217q88 73 252 73q166 0 254 -74t88 -216v-844h-190l-18 78q-112 -82 -250 -82q-270 0 -269 282z" />
    <glyph glyph-name="ae" unicode="&#xe6;" horiz-adv-x="1390" 
d="M406 152q90 0 159 30v209q-59 39 -157 39q-113 0 -113 -123v-33q0 -122 111 -122zM788 764v-119h297v119q-1 166 -149 166t-148 -166zM106 737v99q0 139 86 215q86 75 256 75t263 -88q77 88 239 88t260 -84t99 -235v-344h-521v-121q0 -166 149 -166t148 166v27h224v-70
q-1 -152 -99 -236q-98 -83 -267 -83t-247 102q-160 -102 -354 -102q-139 0 -214 76t-75 214v41q0 141 76 216t207 75t229 -49v235q0 141 -123 142q-125 0 -125 -142v-51h-211z" />
    <glyph glyph-name="ccedilla" unicode="&#xe7;" horiz-adv-x="901" 
d="M311 346q0 -158 152 -158q145 0 145 158v100h211v-155q0 -139 -83 -219t-234 -90v-72h16q166 0 166 -166q0 -96 -58 -137t-190 -41h-102v115h106q57 0 77 13q19 13 20 48v10q1 37 -17 52t-67 16h-66v164q-143 14 -221 94t-78 213v524q0 150 97 231q97 80 273 80t268 -80
q93 -80 93 -231v-164h-211v109q0 158 -145 158q-152 0 -152 -158v-414z" />
    <glyph glyph-name="egrave" unicode="&#xe8;" horiz-adv-x="911" 
d="M551 1247h-156l-274 340h266zM311 764v-119h297v119q0 166 -151 166q-146 0 -146 -166zM311 342q0 -166 146 -166q152 0 151 166v27h223v-70q0 -152 -99 -236q-99 -83 -275 -83t-273 83q-96 84 -96 236v508q0 151 96 235t272 84t276 -84q99 -84 99 -235v-344h-520v-121z
" />
    <glyph glyph-name="eacute" unicode="&#xe9;" horiz-adv-x="911" 
d="M518 1249h-156l156 338h270zM311 764v-119h297v119q0 166 -151 166q-146 0 -146 -166zM311 342q0 -166 146 -166q152 0 151 166v27h223v-70q0 -152 -99 -236q-99 -83 -275 -83t-273 83q-96 84 -96 236v508q0 151 96 235t272 84t276 -84q99 -84 99 -235v-344h-520v-121z
" />
    <glyph glyph-name="ecircumflex" unicode="&#xea;" horiz-adv-x="911" 
d="M367 1544h168l247 -299h-209l-122 160l-123 -160h-207zM311 764v-119h297v119q0 166 -151 166q-146 0 -146 -166zM311 342q0 -166 146 -166q152 0 151 166v27h223v-70q0 -152 -99 -236q-99 -83 -275 -83t-273 83q-96 84 -96 236v508q0 151 96 235t272 84t276 -84
q99 -84 99 -235v-344h-520v-121z" />
    <glyph glyph-name="edieresis" unicode="&#xeb;" horiz-adv-x="911" 
d="M764 1247h-242v252h242v-252zM383 1247h-244v252h244v-252zM311 764v-119h297v119q0 166 -151 166q-146 0 -146 -166zM311 342q0 -166 146 -166q152 0 151 166v27h223v-70q0 -152 -99 -236q-99 -83 -275 -83t-273 83q-96 84 -96 236v508q0 151 96 235t272 84t276 -84
q99 -84 99 -235v-344h-520v-121z" />
    <glyph glyph-name="igrave" unicode="&#xec;" horiz-adv-x="442" 
d="M319 1227h-155l-275 340h267zM334 0h-225v1106h225v-1106z" />
    <glyph glyph-name="iacute" unicode="&#xed;" horiz-adv-x="442" 
d="M287 1229h-156l156 338h270zM334 0h-225v1106h225v-1106z" />
    <glyph glyph-name="icircumflex" unicode="&#xee;" horiz-adv-x="442" 
d="M133 1524h168l248 -299h-209l-123 159l-123 -159h-207zM334 0h-225v1106h225v-1106z" />
    <glyph glyph-name="idieresis" unicode="&#xef;" horiz-adv-x="442" 
d="M532 1227h-241v252h241v-252zM152 1227h-244v252h244v-252zM334 0h-225v1106h225v-1106z" />
    <glyph glyph-name="eth" unicode="&#xf0;" horiz-adv-x="931" 
d="M453 729q-156 0 -156 -147v-228q0 -166 162 -166t162 166v195q0 94 -40 137t-128 43zM850 547v-248q0 -152 -104 -236q-104 -83 -287 -83q-182 0 -287 83q-104 84 -104 236v350q0 131 86 205t221 74t215 -68q-29 139 -90 262l-117 -94l-115 158l129 104q-12 14 -88 109
l187 143q53 -53 90 -100l112 90l115 -154l-121 -98q158 -289 158 -733z" />
    <glyph glyph-name="ntilde" unicode="&#xf1;" horiz-adv-x="944" 
d="M616 1229q-59 0 -120 47t-80 47q-43 0 -47 -94h-162q2 125 52 195t130 69q80 0 164 -71q27 -24 43 -23q45 0 47 98h162q-4 -268 -189 -268zM602 1126q119 0 179 -74t61 -210v-842h-224v776q0 141 -104 142q-61 0 -182 -78v-840h-226v1114h187l20 -86q170 98 289 98z" />
    <glyph glyph-name="ograve" unicode="&#xf2;" horiz-adv-x="917" 
d="M528 1247h-155l-275 340h267zM311 760v-414q1 -158 149 -158t148 158v414q0 158 -148 158t-149 -158zM831 815v-524q0 -150 -97 -231q-97 -80 -274 -80t-275 80q-97 81 -97 231v524q0 150 97 231q97 80 275 80t274 -80q97 -80 97 -231z" />
    <glyph glyph-name="oacute" unicode="&#xf3;" horiz-adv-x="917" 
d="M496 1249h-156l156 338h270zM311 760v-414q1 -158 149 -158t148 158v414q0 158 -148 158t-149 -158zM831 815v-524q0 -150 -97 -231q-97 -80 -274 -80t-275 80q-97 81 -97 231v524q0 150 97 231q97 80 275 80t274 -80q97 -80 97 -231z" />
    <glyph glyph-name="ocircumflex" unicode="&#xf4;" horiz-adv-x="917" 
d="M342 1544h168l248 -299h-209l-123 160l-123 -160h-207zM311 760v-414q1 -158 149 -158t148 158v414q0 158 -148 158t-149 -158zM831 815v-524q0 -150 -97 -231q-97 -80 -274 -80t-275 80q-97 81 -97 231v524q0 150 97 231q97 80 275 80t274 -80q97 -80 97 -231z" />
    <glyph glyph-name="otilde" unicode="&#xf5;" horiz-adv-x="917" 
d="M563 1229q-59 0 -121 47t-80 47q-43 0 -47 -94h-161q2 125 52 195t130 69q80 0 164 -71q27 -24 43 -23q45 0 47 98h162q-4 -268 -189 -268zM311 760v-414q1 -158 149 -158t148 158v414q0 158 -148 158t-149 -158zM831 815v-524q0 -150 -97 -231q-97 -80 -274 -80t-275 80
q-97 81 -97 231v524q0 150 97 231q97 80 275 80t274 -80q97 -80 97 -231z" />
    <glyph glyph-name="odieresis" unicode="&#xf6;" horiz-adv-x="919" 
d="M743 1247h-241v252h241v-252zM362 1247h-243v252h243v-252zM311 760v-414q1 -158 149 -158t148 158v414q0 158 -148 158t-149 -158zM831 815v-524q0 -150 -97 -231q-97 -80 -274 -80t-275 80q-97 81 -97 231v524q0 150 97 231q97 80 275 80t274 -80q97 -80 97 -231z" />
    <glyph glyph-name="divide" unicode="&#xf7;" horiz-adv-x="942" 
d="M870 655v-196h-798v196h798zM592 807h-240v289h240v-289zM592 0h-240v289h240v-289z" />
    <glyph glyph-name="oslash" unicode="&#xf8;" horiz-adv-x="917" 
d="M311 760v-285l217 430q-31 12 -67 13q-150 0 -150 -158zM461 188q147 0 147 158v397l-260 -518q35 -37 113 -37zM88 291v524q0 150 97 231t276 80q96 0 166 -24l28 55h160l-63 -129q80 -80 79 -213v-524q0 -150 -97 -231t-273 -80q-127 0 -215 40l-33 -65h-166l84 166
q-43 72 -43 170z" />
    <glyph glyph-name="ugrave" unicode="&#xf9;" 
d="M561 1227h-155l-275 340h266zM827 0h-184l-14 76q-164 -96 -285 -96t-181 76t-61 216v834h226v-768q0 -150 102 -150q70 0 174 70v848h223v-1106z" />
    <glyph glyph-name="uacute" unicode="&#xfa;" 
d="M528 1229h-155l155 338h271zM827 0h-184l-14 76q-164 -96 -285 -96t-181 76t-61 216v834h226v-768q0 -150 102 -150q70 0 174 70v848h223v-1106z" />
    <glyph glyph-name="ucircumflex" unicode="&#xfb;" 
d="M377 1524h168l248 -299h-209l-123 159l-123 -159h-207zM827 0h-184l-14 76q-164 -96 -285 -96t-181 76t-61 216v834h226v-768q0 -150 102 -150q70 0 174 70v848h223v-1106z" />
    <glyph glyph-name="udieresis" unicode="&#xfc;" 
d="M774 1227h-242v252h242v-252zM393 1227h-243v252h243v-252zM827 0h-184l-14 76q-164 -96 -285 -96t-181 76t-61 216v834h226v-768q0 -150 102 -150q70 0 174 70v848h223v-1106z" />
    <glyph glyph-name="yacute" unicode="&#xfd;" horiz-adv-x="892" 
d="M528 1229h-155l155 338h271zM168 -389q-66 0 -115 14v193q37 -10 99 -10q137 -1 194 192h-4l-322 1106h248l185 -821l184 821h246l-305 -1073q-74 -254 -169 -338t-241 -84z" />
    <glyph glyph-name="thorn" unicode="&#xfe;" horiz-adv-x="944" 
d="M516 918q-51 0 -182 -78v-580q86 -66 172 -65q121 0 121 170v399q0 154 -111 154zM334 -369h-228v1844h228v-441q158 92 250 92q130 0 198 -78t68 -225v-518q0 -151 -71 -235t-206 -84t-239 84v-439z" />
    <glyph glyph-name="ydieresis" unicode="&#xff;" horiz-adv-x="892" 
d="M772 1227h-242v252h242v-252zM391 1227h-244v252h244v-252zM168 -389q-66 0 -115 14v193q37 -10 99 -10q137 -1 194 192h-4l-322 1106h248l185 -821l184 821h246l-305 -1073q-74 -254 -169 -338t-241 -84z" />
    <glyph glyph-name="Amacron" unicode="&#x100;" horiz-adv-x="1060" 
d="M799 1550h-529v174h529v-174zM530 1210l-163 -680h327zM240 0h-232l385 1475h275l387 -1475h-234l-78 319h-428z" />
    <glyph glyph-name="amacron" unicode="&#x101;" horiz-adv-x="890" 
d="M698 1243h-528v174h528v-174zM406 168q100 0 159 45v229h-145q-129 0 -129 -123v-32q0 -119 115 -119zM61 270v41q0 303 304 303h200v187q0 129 -127 129q-121 0 -121 -129v-64h-211v99q0 143 88 217q88 73 252 73q166 0 254 -74t88 -216v-844h-190l-18 78
q-112 -82 -250 -82q-270 0 -269 282z" />
    <glyph glyph-name="Abreve" unicode="&#x102;" horiz-adv-x="1060" 
d="M258 1843h176v-22q0 -117 102 -117t103 117v22h176v-59q0 -115 -72 -176q-73 -62 -207 -62t-206 62t-72 176v59zM530 1210l-163 -680h327zM240 0h-232l385 1475h275l387 -1475h-234l-78 319h-428z" />
    <glyph glyph-name="abreve" unicode="&#x103;" horiz-adv-x="890" 
d="M160 1536h176v-23q0 -117 102 -116q102 0 103 116v23h176v-59q0 -115 -72 -177t-207 -61q-135 0 -207 61t-71 177v59zM406 168q100 0 159 45v229h-145q-129 0 -129 -123v-32q0 -119 115 -119zM61 270v41q0 303 304 303h200v187q0 129 -127 129q-121 0 -121 -129v-64h-211
v99q0 143 88 217q88 73 252 73q166 0 254 -74t88 -216v-844h-190l-18 78q-112 -82 -250 -82q-270 0 -269 282z" />
    <glyph glyph-name="Aogonek" unicode="&#x104;" horiz-adv-x="1060" 
d="M530 1210l-163 -680h327zM735 -274q0 86 45 158t111 116h-70l-78 319h-428l-75 -319h-232l385 1475h275l387 -1475h-45q-115 -143 -115 -246q0 -74 78 -73q55 0 106 32l33 -119q-82 -59 -184 -59q-193 1 -193 191z" />
    <glyph glyph-name="aogonek" unicode="&#x105;" horiz-adv-x="890" 
d="M406 168q100 0 159 45v229h-145q-129 0 -129 -123v-32q0 -119 115 -119zM61 270v41q0 303 304 303h200v187q0 129 -127 129q-121 0 -121 -129v-64h-211v99q0 143 88 217q88 73 252 73q166 0 254 -74t88 -216v-844h-20q-129 -150 -129 -243t90 -93q59 0 107 33l32 -107
q-78 -59 -182 -59q-195 0 -194 190q0 170 163 279h-57l-18 78q-112 -82 -250 -82q-270 0 -269 282z" />
    <glyph glyph-name="Cacute" unicode="&#x106;" horiz-adv-x="1019" 
d="M537 1577h-156l156 338h270zM342 354q0 -86 45 -124t139 -37q182 0 183 161v178h219v-233q0 -152 -112 -236q-112 -83 -301 -83t-297 84t-107 235v877q-1 152 111 236t301 83q189 0 297 -84t108 -235v-234h-219v178q1 162 -183 162t-184 -162v-766z" />
    <glyph glyph-name="cacute" unicode="&#x107;" horiz-adv-x="901" 
d="M528 1249h-155l155 338h271zM311 346q0 -158 152 -158q145 0 145 158v100h211v-155q0 -150 -93 -231q-93 -80 -268 -80t-273 80q-97 81 -97 231v524q0 150 97 231q97 80 273 80t268 -80q93 -80 93 -231v-164h-211v109q0 158 -145 158q-152 0 -152 -158v-414z" />
    <glyph glyph-name="Ccircumflex" unicode="&#x108;" horiz-adv-x="1019" 
d="M436 1872h168l248 -299h-209l-123 160l-123 -160h-207zM342 354q0 -86 45 -124t139 -37q182 0 183 161v178h219v-233q0 -152 -112 -236q-112 -83 -301 -83t-297 84t-107 235v877q-1 152 111 236t301 83q189 0 297 -84t108 -235v-234h-219v178q1 162 -183 162t-184 -162
v-766z" />
    <glyph glyph-name="ccircumflex" unicode="&#x109;" horiz-adv-x="901" 
d="M373 1544h168l247 -299h-208l-123 160l-123 -160h-207zM311 346q0 -158 152 -158q145 0 145 158v100h211v-155q0 -150 -93 -231q-93 -80 -268 -80t-273 80q-97 81 -97 231v524q0 150 97 231q97 80 273 80t268 -80q93 -80 93 -231v-164h-211v109q0 158 -145 158
q-152 0 -152 -158v-414z" />
    <glyph glyph-name="Cdotaccent" unicode="&#x10a;" horiz-adv-x="1019" 
d="M647 1575h-239v289h239v-289zM342 354q0 -86 45 -124t139 -37q182 0 183 161v178h219v-233q0 -152 -112 -236q-112 -83 -301 -83t-297 84t-107 235v877q-1 152 111 236t301 83q189 0 297 -84t108 -235v-234h-219v178q1 162 -183 162t-184 -162v-766z" />
    <glyph glyph-name="cdotaccent" unicode="&#x10b;" horiz-adv-x="901" 
d="M584 1247h-240v289h240v-289zM311 346q0 -158 152 -158q145 0 145 158v100h211v-155q0 -150 -93 -231q-93 -80 -268 -80t-273 80q-97 81 -97 231v524q0 150 97 231q97 80 273 80t268 -80q93 -80 93 -231v-164h-211v109q0 158 -145 158q-152 0 -152 -158v-414z" />
    <glyph glyph-name="Ccaron" unicode="&#x10c;" horiz-adv-x="1019" 
d="M616 1583h-190l-248 324h240l102 -176l103 176h239zM342 354q0 -86 45 -124t139 -37q182 0 183 161v178h219v-233q0 -152 -112 -236q-112 -83 -301 -83t-297 84t-107 235v877q-1 152 111 236t301 83q189 0 297 -84t108 -235v-234h-219v178q1 162 -183 162t-184 -162v-766
z" />
    <glyph glyph-name="ccaron" unicode="&#x10d;" horiz-adv-x="901" 
d="M553 1255h-191l-247 324h239l103 -176l102 176h240zM311 346q0 -158 152 -158q145 0 145 158v100h211v-155q0 -150 -93 -231q-93 -80 -268 -80t-273 80q-97 81 -97 231v524q0 150 97 231q97 80 273 80t268 -80q93 -80 93 -231v-164h-211v109q0 158 -145 158
q-152 0 -152 -158v-414z" />
    <glyph glyph-name="Dcaron" unicode="&#x10e;" horiz-adv-x="1081" 
d="M639 1544h-190l-248 324h239l103 -176l102 176h240zM498 1274h-142v-1073h148q256 0 256 284v504q0 285 -262 285zM125 0v1475h373q254 0 368 -119t113 -357v-524q0 -247 -112 -361t-363 -114h-379z" />
    <glyph glyph-name="dcaron" unicode="&#x10f;" horiz-adv-x="1036" 
d="M436 195q82 0 164 51v614q-80 57 -166 58q-117 0 -117 -154v-399q0 -170 119 -170zM823 0h-205l-16 61q-110 -75 -236 -75t-199 85t-73 226v526q0 141 72 223t199 80q127 0 235 -57v406h223v-1475z" />
    <glyph glyph-name="Dcroat" unicode="&#x110;" horiz-adv-x="1114" 
d="M662 834v-199h-273v-434h148q254 0 254 284v504q0 147 -65 216t-196 69h-141v-440h273zM158 834v641h372q254 0 368 -119t114 -357v-524q0 -247 -112 -361t-363 -114h-379v635h-135v199h135z" />
    <glyph glyph-name="dcroat" unicode="&#x111;" horiz-adv-x="929" 
d="M436 195q82 0 164 51v614q-80 57 -166 58q-117 0 -117 -154v-399q0 -170 119 -170zM94 297v526q0 141 72 223t199 80q127 0 235 -57v137h-231v174h231v95h223v-95h92v-174h-92v-1206h-205l-16 61q-110 -75 -236 -75t-199 85t-73 226z" />
    <glyph glyph-name="Emacron" unicode="&#x112;" horiz-adv-x="915" 
d="M760 1550h-529v174h529v-174zM848 199v-199h-723v1475h723v-199h-492v-418h383v-199h-383v-460h492z" />
    <glyph glyph-name="emacron" unicode="&#x113;" horiz-adv-x="911" 
d="M713 1243h-529v174h529v-174zM311 764v-119h297v119q0 166 -151 166q-146 0 -146 -166zM311 342q0 -166 146 -166q152 0 151 166v27h223v-70q0 -152 -99 -236q-99 -83 -275 -83t-273 83q-96 84 -96 236v508q0 151 96 235t272 84t276 -84q99 -84 99 -235v-344h-520v-121z
" />
    <glyph glyph-name="Ebreve" unicode="&#x114;" horiz-adv-x="915" 
d="M221 1843h176v-22q1 -117 103 -117t102 117v22h176v-59q0 -115 -72 -176q-72 -62 -206 -62q-135 0 -207 62t-72 176v59zM848 199v-199h-723v1475h723v-199h-492v-418h383v-199h-383v-460h492z" />
    <glyph glyph-name="ebreve" unicode="&#x115;" horiz-adv-x="911" 
d="M172 1536h176v-23q0 -117 103 -116q102 0 102 116v23h176v-59q0 -115 -72 -177q-73 -62 -207 -61q-134 0 -206 61t-72 177v59zM311 764v-119h297v119q0 166 -151 166q-146 0 -146 -166zM311 342q0 -166 146 -166q152 0 151 166v27h223v-70q0 -152 -99 -236
q-99 -83 -275 -83t-273 83q-96 84 -96 236v508q0 151 96 235t272 84t276 -84q99 -84 99 -235v-344h-520v-121z" />
    <glyph glyph-name="Edotaccent" unicode="&#x116;" horiz-adv-x="915" 
d="M623 1554h-240v289h240v-289zM848 199v-199h-723v1475h723v-199h-492v-418h383v-199h-383v-460h492z" />
    <glyph glyph-name="edotaccent" unicode="&#x117;" horiz-adv-x="911" 
d="M578 1247h-240v289h240v-289zM311 764v-119h297v119q0 166 -151 166q-146 0 -146 -166zM311 342q0 -166 146 -166q152 0 151 166v27h223v-70q0 -152 -99 -236q-99 -83 -275 -83t-273 83q-96 84 -96 236v508q0 151 96 235t272 84t276 -84q99 -84 99 -235v-344h-520v-121z
" />
    <glyph glyph-name="Eogonek" unicode="&#x118;" horiz-adv-x="915" 
d="M567 -279q0 86 45 159t111 116h119q-115 -143 -115 -246q0 -74 78 -74q55 0 106 33l33 -119q-82 -59 -184 -59q-193 0 -193 190zM848 199v-199h-723v1475h723v-199h-492v-418h383v-199h-383v-460h492z" />
    <glyph glyph-name="eogonek" unicode="&#x119;" horiz-adv-x="911" 
d="M311 764v-119h297v119q0 166 -151 166q-146 0 -146 -166zM260 -274q0 154 131 258q-145 14 -224 96t-79 219v508q0 151 96 235t272 84t276 -84q99 -84 99 -235v-344h-520v-121q0 -166 146 -166q152 0 151 166v27h223v-70q1 -137 -81 -219t-230 -96q-100 -133 -100 -230
q0 -74 78 -73q55 0 106 32l33 -119q-82 -59 -184 -59q-193 1 -193 191z" />
    <glyph glyph-name="Ecaron" unicode="&#x11a;" horiz-adv-x="915" 
d="M594 1563h-191l-247 323h239l103 -176l102 176h240zM848 199v-199h-723v1475h723v-199h-492v-418h383v-199h-383v-460h492z" />
    <glyph glyph-name="ecaron" unicode="&#x11b;" horiz-adv-x="911" 
d="M547 1255h-191l-247 324h239l103 -176l102 176h240zM311 764v-119h297v119q0 166 -151 166q-146 0 -146 -166zM311 342q0 -166 146 -166q152 0 151 166v27h223v-70q0 -152 -99 -236q-99 -83 -275 -83t-273 83q-96 84 -96 236v508q0 151 96 235t272 84t276 -84
q99 -84 99 -235v-344h-520v-121z" />
    <glyph glyph-name="Gcircumflex" unicode="&#x11c;" horiz-adv-x="1050" 
d="M453 1872h168l247 -299h-209l-122 160l-123 -160h-207zM952 0h-121l-40 86q-95 -106 -283 -106t-293 83q-104 84 -104 236v877q1 152 115 236t308 83q194 0 307 -84q112 -84 111 -235v-234h-221v178q-1 162 -195 162t-194 -162v-760q0 -88 47 -128t150 -39q193 0 192 167
v199h-192v199h413v-758z" />
    <glyph glyph-name="gcircumflex" unicode="&#x11d;" horiz-adv-x="929" 
d="M373 1544h168l247 -299h-208l-123 160l-123 -160h-207zM436 195q82 0 164 51v614q-80 57 -166 58q-117 0 -117 -154v-399q0 -170 119 -170zM94 297v526q0 141 72 223t206 80q134 0 253 -71l14 59h184v-1163q-1 -166 -115 -253t-337 -87q-133 0 -254 27v196
q98 -27 231 -27q252 0 252 203v49q-112 -73 -236 -73t-197 85t-73 226z" />
    <glyph glyph-name="Gbreve" unicode="&#x11e;" horiz-adv-x="1050" 
d="M258 1864h176v-23q0 -117 102 -117t103 117v23h176v-60q0 -115 -72 -176q-73 -61 -207 -61t-206 61t-72 176v60zM952 0h-121l-40 86q-95 -106 -283 -106t-293 83q-104 84 -104 236v877q1 152 115 236t308 83q194 0 307 -84q112 -84 111 -235v-234h-221v178
q-1 162 -195 162t-194 -162v-760q0 -88 47 -128t150 -39q193 0 192 167v199h-192v199h413v-758z" />
    <glyph glyph-name="gbreve" unicode="&#x11f;" horiz-adv-x="929" 
d="M180 1536h176v-23q0 -117 103 -116q102 0 102 116v23h176v-59q0 -115 -71 -177q-72 -61 -207 -61t-207 61t-72 177v59zM436 195q82 0 164 51v614q-80 57 -166 58q-117 0 -117 -154v-399q0 -170 119 -170zM94 297v526q0 141 72 223t206 80q134 0 253 -71l14 59h184v-1163
q-1 -166 -115 -253t-337 -87q-133 0 -254 27v196q98 -27 231 -27q252 0 252 203v49q-112 -73 -236 -73t-197 85t-73 226z" />
    <glyph glyph-name="Gdotaccent" unicode="&#x120;" horiz-adv-x="1050" 
d="M662 1575h-240v289h240v-289zM952 0h-121l-40 86q-95 -106 -283 -106t-293 83q-104 84 -104 236v877q1 152 115 236t308 83q194 0 307 -84q112 -84 111 -235v-234h-221v178q-1 162 -195 162t-194 -162v-760q0 -88 47 -128t150 -39q193 0 192 167v199h-192v199h413v-758z
" />
    <glyph glyph-name="gdotaccent" unicode="&#x121;" horiz-adv-x="929" 
d="M582 1247h-240v289h240v-289zM436 195q82 0 164 51v614q-80 57 -166 58q-117 0 -117 -154v-399q0 -170 119 -170zM94 297v526q0 141 72 223t206 80q134 0 253 -71l14 59h184v-1163q-1 -166 -115 -253t-337 -87q-133 0 -254 27v196q98 -27 231 -27q252 0 252 203v49
q-112 -73 -236 -73t-197 85t-73 226z" />
    <glyph glyph-name="Gcommaaccent" unicode="&#x122;" horiz-adv-x="1050" 
d="M952 0h-121l-40 86q-95 -106 -283 -106t-293 83q-104 84 -104 236v877q1 152 115 236t308 83q194 0 307 -84q112 -84 111 -235v-234h-221v178q-1 162 -195 162t-194 -162v-760q0 -88 47 -128t150 -39q193 0 192 167v199h-192v199h413v-758z" />
    <glyph glyph-name="gcommaaccent" unicode="&#x123;" horiz-adv-x="929" 
d="M436 195q82 0 164 51v614q-80 57 -166 58q-117 0 -117 -154v-399q0 -170 119 -170zM94 297v526q0 141 72 223t206 80q134 0 253 -71l14 59h184v-1163q-1 -166 -115 -253t-337 -87q-133 0 -254 27v196q98 -27 231 -27q252 0 252 203v49q-112 -73 -236 -73t-197 85t-73 226
z" />
    <glyph glyph-name="Hcircumflex" unicode="&#x124;" horiz-adv-x="1120" 
d="M467 1833h168l248 -299h-209l-123 160l-123 -160h-207zM356 0h-231v1475h231v-617h408v617h231v-1475h-231v659h-408v-659z" />
    <glyph glyph-name="hcircumflex" unicode="&#x125;" 
d="M129 1845h168l248 -299h-209l-123 160l-123 -160h-207zM332 0h-226v1475h226v-431q150 82 266 82t174 -74q59 -74 59 -210v-842h-223v776q0 141 -104 142q-66 0 -172 -70v-848z" />
    <glyph glyph-name="Hbar" unicode="&#x126;" horiz-adv-x="1136" 
d="M365 1116v-258h407v258h-407zM365 0h-232v1116h-104v197h104v162h232v-162h407v162h232v-162h106v-197h-106v-1116h-232v659h-407v-659z" />
    <glyph glyph-name="hbar" unicode="&#x127;" 
d="M330 0h-224v1202h-106v150h106v123h224v-123h198v-150h-198v-160q150 84 266 84t175 -74q60 -74 60 -210v-842h-221v776q0 141 -104 142q-61 0 -176 -72v-846z" />
    <glyph glyph-name="Itilde" unicode="&#x128;" horiz-adv-x="481" 
d="M141 1649q-43 0 -47 -95h-162q2 125 52 195t131 70q80 0 164 -71q27 -24 43 -24q45 1 47 99h161q-4 -268 -188 -269q-58 0 -120 48t-81 47zM356 0h-231v1475h231v-1475z" />
    <glyph glyph-name="itilde" unicode="&#x129;" horiz-adv-x="442" 
d="M322 1227q-58 0 -120 47t-81 47q-43 0 -47 -94h-162q2 125 52 195t130 69q80 0 164 -71q27 -24 43 -23q45 0 47 98h162q-4 -268 -188 -268zM334 0h-225v1106h225v-1106z" />
    <glyph glyph-name="Imacron" unicode="&#x12a;" horiz-adv-x="481" 
d="M500 1550h-529v174h529v-174zM356 0h-231v1475h231v-1475z" />
    <glyph glyph-name="imacron" unicode="&#x12b;" horiz-adv-x="442" 
d="M481 1223h-528v174h528v-174zM334 0h-225v1106h225v-1106z" />
    <glyph glyph-name="Ibreve" unicode="&#x12c;" horiz-adv-x="481" 
d="M-39 1843h176v-22q1 -117 103 -117t102 117v22h176v-59q0 -115 -72 -176q-72 -62 -206 -62t-207 62q-72 62 -72 176v59zM356 0h-231v1475h231v-1475z" />
    <glyph glyph-name="ibreve" unicode="&#x12d;" horiz-adv-x="442" 
d="M-59 1516h176v-23q0 -117 102 -117t103 117v23h176v-60q0 -115 -72 -176t-207 -61t-207 61t-71 176v60zM334 0h-225v1106h225v-1106z" />
    <glyph glyph-name="Iogonek" unicode="&#x12e;" horiz-adv-x="481" 
d="M37 -274q0 86 45 158t111 116h-68v1475h231v-1475h-45q-115 -143 -114 -246q0 -74 77 -73q55 0 107 32l33 -119q-82 -59 -185 -59q-192 1 -192 191z" />
    <glyph glyph-name="iogonek" unicode="&#x12f;" horiz-adv-x="440" 
d="M338 1235h-240v289h240v-289zM18 -274q0 86 45 158t111 116h-65v1106h225v-1106h-41q-115 -143 -115 -246q0 -74 78 -73q55 0 106 32l33 -119q-82 -59 -184 -59q-193 1 -193 191z" />
    <glyph glyph-name="Idotaccent" unicode="&#x130;" horiz-adv-x="481" 
d="M362 1554h-239v289h239v-289zM356 0h-231v1475h231v-1475z" />
    <glyph glyph-name="dotlessi" unicode="&#x131;" horiz-adv-x="442" 
d="M334 0h-225v1106h225v-1106z" />
    <glyph glyph-name="IJ" unicode="&#x132;" horiz-adv-x="1519" 
d="M1130 1475h234v-1094q0 -203 -106 -302t-296 -99t-294 84t-105 235v250h219v-174q0 -182 174 -182t174 190v1092zM356 0h-231v1475h231v-1475z" />
    <glyph glyph-name="ij" unicode="&#x133;" horiz-adv-x="892" 
d="M797 1327h-240v289h240v-289zM338 1278h-240v289h240v-289zM334 0h-225v1106h225v-1106zM559 1106h223v-1040q0 -248 -70 -352q-71 -103 -247 -103q-4 0 -84 6v197q31 -6 61 -7q63 -1 90 57t27 199v1043z" />
    <glyph glyph-name="Jcircumflex" unicode="&#x134;" horiz-adv-x="960" 
d="M643 1851h168l248 -299h-209l-123 160l-123 -160h-207zM610 1475h234v-1094q0 -203 -106 -302t-296 -99t-295 83q-104 84 -104 236v250h219v-174q0 -182 174 -182t174 190v1092z" />
    <glyph glyph-name="jcircumflex" unicode="&#x135;" horiz-adv-x="452" 
d="M145 1524h168l248 -299h-209l-123 159l-123 -159h-206zM121 63v1043h223v-1040q0 -248 -71 -352t-248 -103l-84 6v197q31 -6 63 -7q63 -1 90 57t27 199z" />
    <glyph glyph-name="Kcommaaccent" unicode="&#x136;" horiz-adv-x="1001" 
d="M694 -117l-121 -397h-167l45 397h243zM356 0h-231v1475h231v-674l371 674h248l-395 -719l417 -756h-260l-381 698v-698z" />
    <glyph glyph-name="kcommaaccent" unicode="&#x137;" horiz-adv-x="833" 
d="M657 -117l-120 -397h-168l45 397h243zM332 0h-226v1475h226v-781l235 412h248l-313 -498l332 -608h-250l-252 479v-479z" />
    <glyph glyph-name="Lacute" unicode="&#x139;" horiz-adv-x="858" 
d="M342 1556h-156l156 338h270zM836 199v-199h-711v1475h231v-1276h480z" />
    <glyph glyph-name="lacute" unicode="&#x13a;" horiz-adv-x="487" 
d="M285 1597h-156l156 338h270zM104 1475h224v-1119q0 -170 92 -170q41 0 67 11v-191q-53 -16 -161 -16t-165 78q-56 78 -57 254v1153z" />
    <glyph glyph-name="Lcommaaccent" unicode="&#x13b;" horiz-adv-x="858" 
d="M629 -117l-121 -397h-168l45 397h244zM836 199v-199h-711v1475h231v-1276h480z" />
    <glyph glyph-name="lcommaaccent" unicode="&#x13c;" horiz-adv-x="487" 
d="M436 -117l-121 -397h-168l46 397h243zM104 1475h224v-1119q0 -170 92 -170q41 0 67 11v-191q-53 -16 -161 -16t-165 78q-56 78 -57 254v1153z" />
    <glyph glyph-name="Lcaron" unicode="&#x13d;" horiz-adv-x="956" 
d="M836 199v-199h-711v1475h231v-1276h480z" />
    <glyph glyph-name="lcaron" unicode="&#x13e;" horiz-adv-x="550" 
d="M104 1475h224v-1119q0 -170 92 -170q41 0 67 11v-191q-53 -16 -161 -16t-165 78q-56 78 -57 254v1153z" />
    <glyph glyph-name="Ldot" unicode="&#x13f;" horiz-adv-x="888" 
d="M840 471h-240v289h240v-289zM836 199v-199h-711v1475h231v-1276h480z" />
    <glyph glyph-name="ldot" unicode="&#x140;" horiz-adv-x="706" 
d="M692 471h-239v289h239v-289zM104 1475h224v-1119q0 -170 92 -170q41 0 67 11v-191q-53 -16 -161 -16t-165 78q-56 78 -57 254v1153z" />
    <glyph glyph-name="Lslash" unicode="&#x141;" horiz-adv-x="890" 
d="M156 1475h233v-615l270 182v-237l-270 -184v-422h477v-199h-710v463l-133 -90v241l133 88v773z" />
    <glyph glyph-name="lslash" unicode="&#x142;" horiz-adv-x="712" 
d="M242 1475h223v-572l207 139v-237l-207 -141v-308q0 -170 92 -170q41 0 68 11v-191q-53 -16 -162 -16t-165 78t-56 254v190l-205 -139v241l205 138v723z" />
    <glyph glyph-name="Nacute" unicode="&#x143;" horiz-adv-x="1146" 
d="M659 1556h-155l155 338h271zM1022 0h-191l-501 965l2 -33v-932h-207v1475h188l502 -963l-2 51v912h209v-1475z" />
    <glyph glyph-name="nacute" unicode="&#x144;" 
d="M553 1249h-156l156 338h270zM592 1126q121 0 180 -74t59 -210v-842h-223v776q0 141 -104 142q-66 0 -172 -70v-848h-226v1114h187l20 -80q158 92 279 92z" />
    <glyph glyph-name="Ncommaaccent" unicode="&#x145;" horiz-adv-x="1146" 
d="M918 -117l-121 -397h-168l45 397h244zM1022 0h-191l-501 965l2 -33v-932h-207v1475h188l502 -963l-2 51v912h209v-1475z" />
    <glyph glyph-name="ncommaaccent" unicode="&#x146;" 
d="M610 -117l-121 -397h-167l45 397h243zM592 1126q121 0 180 -74t59 -210v-842h-223v776q0 141 -104 142q-66 0 -172 -70v-848h-226v1114h187l20 -80q158 92 279 92z" />
    <glyph glyph-name="Ncaron" unicode="&#x147;" horiz-adv-x="1146" 
d="M686 1563h-190l-248 323h239l103 -176l102 176h240zM1022 0h-191l-501 965l2 -33v-932h-207v1475h188l502 -963l-2 51v912h209v-1475z" />
    <glyph glyph-name="ncaron" unicode="&#x148;" 
d="M580 1255h-191l-248 324h240l102 -176l103 176h239zM592 1126q121 0 180 -74t59 -210v-842h-223v776q0 141 -104 142q-66 0 -172 -70v-848h-226v1114h187l20 -80q158 92 279 92z" />
    <glyph glyph-name="napostrophe" unicode="&#x149;" 
d="M608 -92l-121 -397h-168l46 397h243zM592 1126q121 0 180 -74t59 -210v-842h-223v776q0 141 -104 142q-66 0 -172 -70v-848h-226v1114h187l20 -80q158 92 279 92z" />
    <glyph glyph-name="Omacron" unicode="&#x14c;" horiz-adv-x="1075" 
d="M797 1571h-529v174h529v-174zM538 1282q-100 0 -148 -45t-48 -145v-709q0 -100 47 -145t149 -45t148 45q47 45 47 145v709q0 100 -47 145t-148 45zM539 1495q201 0 313 -89t113 -251v-836q0 -163 -113 -251q-114 -88 -314 -88t-314 90t-113 249v836q0 160 113 250
q114 90 315 90z" />
    <glyph glyph-name="omacron" unicode="&#x14d;" horiz-adv-x="917" 
d="M690 1243h-528v174h528v-174zM311 760v-414q1 -158 149 -158t148 158v414q0 158 -148 158t-149 -158zM831 815v-524q0 -150 -97 -231q-97 -80 -274 -80t-275 80q-97 81 -97 231v524q0 150 97 231q97 80 275 80t274 -80q97 -80 97 -231z" />
    <glyph glyph-name="Obreve" unicode="&#x14e;" horiz-adv-x="1075" 
d="M258 1864h176v-23q0 -117 102 -117t103 117v23h176v-60q0 -115 -72 -176q-73 -61 -207 -61t-206 61t-72 176v60zM538 1282q-100 0 -148 -45t-48 -145v-709q0 -100 47 -145t149 -45t148 45q47 45 47 145v709q0 100 -47 145t-148 45zM539 1495q201 0 313 -89t113 -251v-836
q0 -163 -113 -251q-114 -88 -314 -88t-314 90t-113 249v836q0 160 113 250q114 90 315 90z" />
    <glyph glyph-name="obreve" unicode="&#x14f;" horiz-adv-x="917" 
d="M150 1536h176v-23q0 -117 102 -116q102 0 102 116v23h177v-59q0 -115 -72 -177t-207 -61q-135 0 -207 61t-71 177v59zM311 760v-414q1 -158 149 -158t148 158v414q0 158 -148 158t-149 -158zM831 815v-524q0 -150 -97 -231q-97 -80 -274 -80t-275 80q-97 81 -97 231v524
q0 150 97 231q97 80 275 80t274 -80q97 -80 97 -231z" />
    <glyph glyph-name="Ohungarumlaut" unicode="&#x150;" horiz-adv-x="1075" 
d="M780 1577h-155l155 338h271zM459 1577h-156l156 338h270zM538 1282q-100 0 -148 -45t-48 -145v-709q0 -100 47 -145t149 -45t148 45q47 45 47 145v709q0 100 -47 145t-148 45zM539 1495q201 0 313 -89t113 -251v-836q0 -163 -113 -251q-114 -88 -314 -88t-314 90
t-113 249v836q0 160 113 250q114 90 315 90z" />
    <glyph glyph-name="ohungarumlaut" unicode="&#x151;" horiz-adv-x="917" 
d="M672 1249h-156l156 338h270zM350 1249h-155l155 338h271zM311 760v-414q1 -158 149 -158t148 158v414q0 158 -148 158t-149 -158zM831 815v-524q0 -150 -97 -231q-97 -80 -274 -80t-275 80q-97 81 -97 231v524q0 150 97 231q97 80 275 80t274 -80q97 -80 97 -231z" />
    <glyph glyph-name="OE" unicode="&#x152;" horiz-adv-x="1525" 
d="M538 1282q-100 0 -148 -45t-48 -145v-709q0 -100 47 -145t149 -45t148 45q47 45 47 145v709q0 100 -47 145t-148 45zM1456 199v-199h-723v25q-84 -45 -194 -45q-201 0 -315 90t-113 249v836q0 160 113 250q114 90 315 90q111 0 194 -45v25h723v-199h-491v-418h383v-199
h-383v-460h491z" />
    <glyph glyph-name="oe" unicode="&#x153;" horiz-adv-x="1396" 
d="M831 815v-170h263v119q0 166 -152 166q-80 0 -117 -47q6 -35 6 -68zM311 760v-414q0 -158 150 -158q80 0 117 45q-4 41 -5 66v508q0 23 5 63q-35 47 -117 48q-150 0 -150 -158zM1317 463h-486v-172q0 -37 -6 -68q35 -47 117 -47q152 0 152 166v27h223v-70
q0 -152 -99 -236q-99 -83 -260 -83t-256 59q-94 -59 -256 -59t-261 80q-97 81 -97 231v524q0 150 97 231q97 80 260 80t257 -59q94 59 255 59t261 -84t99 -235v-344z" />
    <glyph glyph-name="Racute" unicode="&#x154;" horiz-adv-x="1013" 
d="M635 1556h-156l156 338h270zM479 1276h-123v-531h121q195 0 195 205v111q0 215 -193 215zM356 0h-231v1475h346q227 -1 329 -103t103 -299v-158q0 -254 -201 -331l312 -584h-260l-275 547h-123v-547z" />
    <glyph glyph-name="racute" unicode="&#x155;" horiz-adv-x="780" 
d="M506 1249h-156l156 338h270zM756 639h-221v201q1 84 -61 84t-142 -80v-844h-226v1114h187l16 -98q119 111 256 110q190 0 191 -243v-244z" />
    <glyph glyph-name="Rcommaaccent" unicode="&#x156;" horiz-adv-x="1013" 
d="M672 -117l-121 -397h-168l45 397h244zM479 1276h-123v-531h121q195 0 195 205v111q0 215 -193 215zM356 0h-231v1475h346q227 -1 329 -103t103 -299v-158q0 -254 -201 -331l312 -584h-260l-275 547h-123v-547z" />
    <glyph glyph-name="rcommaaccent" unicode="&#x157;" horiz-adv-x="780" 
d="M403 -117l-120 -397h-168l45 397h243zM756 639h-221v201q1 84 -61 84t-142 -80v-844h-226v1114h187l16 -98q119 111 256 110q190 0 191 -243v-244z" />
    <glyph glyph-name="Rcaron" unicode="&#x158;" horiz-adv-x="1013" 
d="M653 1563h-190l-248 323h240l102 -176l102 176h240zM479 1276h-123v-531h121q195 0 195 205v111q0 215 -193 215zM356 0h-231v1475h346q227 -1 329 -103t103 -299v-158q0 -254 -201 -331l312 -584h-260l-275 547h-123v-547z" />
    <glyph glyph-name="rcaron" unicode="&#x159;" horiz-adv-x="778" 
d="M530 1255h-190l-248 324h240l102 -176l103 176h239zM756 639h-221v201q1 84 -61 84t-142 -80v-844h-226v1114h187l16 -98q119 111 256 110q190 0 191 -243v-244z" />
    <glyph glyph-name="Sacute" unicode="&#x15a;" horiz-adv-x="960" 
d="M563 1577h-155l155 338h271zM891 451v-84q0 -203 -94 -295t-279 -92h-88q-176 0 -264 70t-88 229v182h227v-103q0 -98 31 -132t102 -33h72q78 -1 114 33t35 143v92q0 135 -137 168l-149 37q-150 38 -213 120t-64 269v82q0 176 91 267t266 91h34q169 0 267 -79t98 -220
v-156h-227v101q0 154 -133 153h-35q-72 0 -101 -38t-28 -136v-55q0 -94 22 -127t96 -53l136 -37q178 -47 244 -132t65 -265z" />
    <glyph glyph-name="sacute" unicode="&#x15b;" horiz-adv-x="868" 
d="M508 1249h-156l156 338h270zM799 369v-70q0 -174 -94 -247t-279 -72q-360 0 -360 270v119h210v-84q0 -63 37 -86t115 -23t119 25t41 96v59q0 43 -30 67t-101 36l-129 24q-143 25 -194 89q-50 65 -50 229v51q0 135 89 205q89 69 257 69t260 -68t92 -194v-108h-211v86
q0 100 -139 100t-139 -100v-41q-1 -63 25 -86t100 -37l117 -25q156 -27 210 -86t54 -198z" />
    <glyph glyph-name="Scircumflex" unicode="&#x15c;" horiz-adv-x="960" 
d="M410 1872h168l247 -299h-209l-122 160l-123 -160h-207zM891 451v-84q0 -203 -94 -295t-279 -92h-88q-176 0 -264 70t-88 229v182h227v-103q0 -98 31 -132t102 -33h72q78 -1 114 33t35 143v92q0 135 -137 168l-149 37q-150 38 -213 120t-64 269v82q0 176 91 267t266 91h34
q169 0 267 -79t98 -220v-156h-227v101q0 154 -133 153h-35q-72 0 -101 -38t-28 -136v-55q0 -94 22 -127t96 -53l136 -37q178 -47 244 -132t65 -265z" />
    <glyph glyph-name="scircumflex" unicode="&#x15d;" horiz-adv-x="868" 
d="M352 1544h168l248 -299h-209l-123 160l-123 -160h-207zM799 369v-70q0 -174 -94 -247t-279 -72q-360 0 -360 270v119h210v-84q0 -63 37 -86t115 -23t119 25t41 96v59q0 43 -30 67t-101 36l-129 24q-143 25 -194 89q-50 65 -50 229v51q0 135 89 205q89 69 257 69t260 -68
t92 -194v-108h-211v86q0 100 -139 100t-139 -100v-41q-1 -63 25 -86t100 -37l117 -25q156 -27 210 -86t54 -198z" />
    <glyph glyph-name="Scedilla" unicode="&#x15e;" horiz-adv-x="960" 
d="M891 451v-84q0 -346 -289 -381v-76h16q166 0 166 -166q0 -96 -58 -137t-189 -41h-103v115h107q57 0 76 13t20 48v10q0 37 -17 52t-67 16h-66v160h-57q-176 0 -264 70t-88 229v182h227v-103q0 -98 31 -132t102 -33h72q78 -1 114 33t35 143v92q0 135 -137 168l-149 37
q-150 38 -213 120t-64 269v82q0 176 91 267t266 91h34q169 0 267 -79t98 -220v-156h-227v101q0 154 -133 153h-35q-72 0 -101 -38t-28 -136v-55q0 -94 22 -127t96 -53l136 -37q178 -47 244 -132t65 -265z" />
    <glyph glyph-name="scedilla" unicode="&#x15f;" horiz-adv-x="866" 
d="M799 369v-70q0 -170 -90 -243t-267 -76v-76h17q166 0 166 -166q-1 -96 -59 -137t-189 -41h-103v114h107q57 0 77 14t19 48v10q0 37 -17 52t-67 16h-65v172q-262 33 -262 264v119h210v-84q0 -63 37 -86t115 -23t119 25t41 96v59q0 43 -30 67t-101 36l-129 24
q-143 25 -194 89q-50 65 -50 229v51q0 135 89 205q89 69 257 69t260 -68t92 -194v-108h-211v86q0 100 -139 100t-139 -100v-41q-1 -63 25 -86t100 -37l117 -25q156 -27 210 -86t54 -198z" />
    <glyph glyph-name="Scaron" unicode="&#x160;" horiz-adv-x="960" 
d="M590 1583h-191l-247 324h239l103 -176l102 176h240zM891 451v-84q0 -203 -94 -295t-279 -92h-88q-176 0 -264 70t-88 229v182h227v-103q0 -98 31 -132t102 -33h72q78 -1 114 33t35 143v92q0 135 -137 168l-149 37q-150 38 -213 120t-64 269v82q0 176 91 267t266 91h34
q169 0 267 -79t98 -220v-156h-227v101q0 154 -133 153h-35q-72 0 -101 -38t-28 -136v-55q0 -94 22 -127t96 -53l136 -37q178 -47 244 -132t65 -265z" />
    <glyph glyph-name="scaron" unicode="&#x161;" horiz-adv-x="868" 
d="M532 1255h-190l-248 324h240l102 -176l103 176h239zM799 369v-70q0 -174 -94 -247t-279 -72q-360 0 -360 270v119h210v-84q0 -63 37 -86t115 -23t119 25t41 96v59q0 43 -30 67t-101 36l-129 24q-143 25 -194 89q-50 65 -50 229v51q0 135 89 205q89 69 257 69t260 -68
t92 -194v-108h-211v86q0 100 -139 100t-139 -100v-41q-1 -63 25 -86t100 -37l117 -25q156 -27 210 -86t54 -198z" />
    <glyph glyph-name="Tcommaaccent" unicode="&#x162;" horiz-adv-x="872" 
d="M582 -117l-121 -397h-168l45 397h244zM553 0h-231v1276h-295v199h819v-199h-293v-1276z" />
    <glyph glyph-name="tcommaaccent" unicode="&#x163;" horiz-adv-x="638" 
d="M477 -117l-121 -397h-168l45 397h244zM37 924v182h110v246h224v-246h209v-182h-209v-574q-1 -88 31 -128t105 -40t109 19v-191q-61 -20 -167 -20q-301 0 -302 313v621h-110z" />
    <glyph glyph-name="Tcaron" unicode="&#x164;" horiz-adv-x="872" 
d="M530 1563h-190l-248 323h240l102 -176l103 176h239zM553 0h-231v1276h-295v199h819v-199h-293v-1276z" />
    <glyph glyph-name="tcaron" unicode="&#x165;" horiz-adv-x="638" 
d="M37 924v182h110v246h224v-246h209v-182h-209v-574q-1 -88 31 -128t105 -40t109 19v-191q-61 -20 -167 -20q-301 0 -302 313v621h-110z" />
    <glyph glyph-name="Tbar" unicode="&#x166;" horiz-adv-x="897" 
d="M506 0h-232v739h-200v199h200v338h-297v199h822v-199h-293v-338h207v-199h-207v-739z" />
    <glyph glyph-name="tbar" unicode="&#x167;" horiz-adv-x="669" 
d="M70 924v182h110v246h223v-246h209v-182h-209v-101h205v-182h-205v-291q0 -88 32 -128t105 -40t109 19v-191q-61 -20 -168 -20q-301 0 -301 313v338h-114v182h114v101h-110z" />
    <glyph glyph-name="Utilde" unicode="&#x168;" horiz-adv-x="1089" 
d="M446 1649q-43 0 -47 -95h-161q2 125 52 195t130 70t164 -71q27 -24 43 -24q45 1 47 99h162q-4 -268 -189 -269q-59 0 -121 48t-80 47zM741 1475h232v-1127q0 -172 -115 -270q-116 -98 -314 -98t-313 98t-114 270v1127h233v-1076q0 -207 195 -206q197 0 196 206v1076z" />
    <glyph glyph-name="utilde" unicode="&#x169;" 
d="M612 1227q-59 0 -120 47t-80 47q-43 0 -47 -94h-162q2 125 52 195t130 69q80 0 164 -71q27 -24 43 -23q45 0 47 98h162q-4 -268 -189 -268zM827 0h-184l-14 76q-164 -96 -285 -96t-181 76t-61 216v834h226v-768q0 -150 102 -150q70 0 174 70v848h223v-1106z" />
    <glyph glyph-name="Umacron" unicode="&#x16a;" horiz-adv-x="1089" 
d="M807 1550h-528v174h528v-174zM741 1475h232v-1127q0 -172 -115 -270q-116 -98 -314 -98t-313 98t-114 270v1127h233v-1076q0 -207 195 -206q197 0 196 206v1076z" />
    <glyph glyph-name="umacron" unicode="&#x16b;" 
d="M723 1223h-528v174h528v-174zM827 0h-184l-14 76q-164 -96 -285 -96t-181 76t-61 216v834h226v-768q0 -150 102 -150q70 0 174 70v848h223v-1106z" />
    <glyph glyph-name="Ubreve" unicode="&#x16c;" horiz-adv-x="1089" 
d="M268 1843h176v-22q0 -117 102 -117t103 117v22h176v-59q1 -115 -71 -176q-72 -62 -207 -62t-207 62t-72 176v59zM741 1475h232v-1127q0 -172 -115 -270q-116 -98 -314 -98t-313 98t-114 270v1127h233v-1076q0 -207 195 -206q197 0 196 206v1076z" />
    <glyph glyph-name="ubreve" unicode="&#x16d;" 
d="M182 1516h176v-23q0 -117 102 -117t103 117v23h176v-60q1 -115 -71 -176t-207 -61t-207 61t-72 176v60zM827 0h-184l-14 76q-164 -96 -285 -96t-181 76t-61 216v834h226v-768q0 -150 102 -150q70 0 174 70v848h223v-1106z" />
    <glyph glyph-name="Uring" unicode="&#x16e;" horiz-adv-x="1089" 
d="M459 1806q0 -102 88 -102t88 102v6q0 100 -88 101q-88 0 -88 -101v-6zM780 1853v-90q0 -188 -233 -188t-234 188v90q-1 188 233 188t234 -188zM741 1475h232v-1127q0 -172 -115 -270q-116 -98 -314 -98t-313 98t-114 270v1127h233v-1076q0 -207 195 -206q197 0 196 206
v1076z" />
    <glyph glyph-name="uring" unicode="&#x16f;" 
d="M422 1479q0 -102 88 -103q88 0 88 103v6q0 100 -88 100t-88 -100v-6zM743 1526v-90q0 -188 -233 -188t-234 188v90q0 188 234 188t233 -188zM827 0h-184l-14 76q-164 -96 -285 -96t-181 76t-61 216v834h226v-768q0 -150 102 -150q70 0 174 70v848h223v-1106z" />
    <glyph glyph-name="Uhungarumlaut" unicode="&#x170;" horiz-adv-x="1089" 
d="M788 1556h-155l155 338h271zM467 1556h-156l156 338h270zM741 1475h232v-1127q0 -172 -115 -270q-116 -98 -314 -98t-313 98t-114 270v1127h233v-1076q0 -207 195 -206q197 0 196 206v1076z" />
    <glyph glyph-name="uhungarumlaut" unicode="&#x171;" 
d="M705 1229h-156l156 338h270zM385 1229h-156l156 338h270zM827 0h-184l-14 76q-164 -96 -285 -96t-181 76t-61 216v834h226v-768q0 -150 102 -150q70 0 174 70v848h223v-1106z" />
    <glyph glyph-name="Uogonek" unicode="&#x172;" horiz-adv-x="1089" 
d="M371 -274q0 150 129 256q-180 10 -282 106q-101 96 -101 260v1127h233v-1076q0 -207 195 -206q197 0 196 206v1076h232v-1127q0 -152 -90 -247t-250 -115q-102 -135 -103 -232q0 -74 78 -73q55 0 107 32l33 -119q-82 -59 -185 -59q-192 1 -192 191z" />
    <glyph glyph-name="uogonek" unicode="&#x173;" 
d="M827 0h-2q-127 -150 -127 -258q0 -86 88 -86q57 0 109 33l31 -107q-78 -59 -183 -59q-193 0 -192 190q0 90 48 166t116 121h-72l-14 76q-164 -96 -285 -96t-181 76t-61 216v834h226v-768q0 -150 102 -150q70 0 174 70v848h223v-1106z" />
    <glyph glyph-name="Wcircumflex" unicode="&#x174;" horiz-adv-x="1511" 
d="M670 1851h168l247 -299h-208l-123 160l-123 -160h-207zM1245 1475h228l-246 -1475h-266l-205 1098l-203 -1098h-268l-246 1475h227l164 -1209l217 1209h217l217 -1209z" />
    <glyph glyph-name="wcircumflex" unicode="&#x175;" horiz-adv-x="1320" 
d="M573 1524h168l248 -299h-209l-123 159l-122 -159h-207zM31 1106h233l133 -856l150 856h225l150 -856l135 856h233l-239 -1106h-242l-150 815l-149 -815h-242z" />
    <glyph glyph-name="Ycircumflex" unicode="&#x176;" horiz-adv-x="997" 
d="M410 1851h168l247 -299h-209l-122 160l-123 -160h-207zM614 0h-231v520l-367 955h246l236 -707l237 707h242l-363 -949v-526z" />
    <glyph glyph-name="ycircumflex" unicode="&#x177;" horiz-adv-x="892" 
d="M375 1524h168l248 -299h-209l-123 159l-123 -159h-207zM168 -389q-66 0 -115 14v193q37 -10 99 -10q137 -1 194 192h-4l-322 1106h248l185 -821l184 821h246l-305 -1073q-74 -254 -169 -338t-241 -84z" />
    <glyph glyph-name="Ydieresis" unicode="&#x178;" horiz-adv-x="997" 
d="M809 1554h-242v252h242v-252zM428 1554h-244v252h244v-252zM614 0h-231v520l-367 955h246l236 -707l237 707h242l-363 -949v-526z" />
    <glyph glyph-name="Zacute" unicode="&#x179;" horiz-adv-x="915" 
d="M471 1556h-156l156 338h270zM74 1276v199h766v-168l-533 -1108h565v-199h-831v168l543 1108h-510z" />
    <glyph glyph-name="zacute" unicode="&#x17a;" horiz-adv-x="800" 
d="M444 1229h-155l155 338h271zM76 924v182h659v-162l-463 -762h482v-182h-715v162l453 762h-416z" />
    <glyph glyph-name="Zdotaccent" unicode="&#x17b;" horiz-adv-x="915" 
d="M526 1554h-239v289h239v-289zM74 1276v199h766v-168l-533 -1108h565v-199h-831v168l543 1108h-510z" />
    <glyph glyph-name="zdotaccent" unicode="&#x17c;" horiz-adv-x="800" 
d="M502 1227h-240v289h240v-289zM76 924v182h659v-162l-463 -762h482v-182h-715v162l453 762h-416z" />
    <glyph glyph-name="Zcaron" unicode="&#x17d;" horiz-adv-x="915" 
d="M498 1563h-191l-248 323h240l102 -176l103 176h239zM74 1276v199h766v-168l-533 -1108h565v-199h-831v168l543 1108h-510z" />
    <glyph glyph-name="zcaron" unicode="&#x17e;" horiz-adv-x="800" 
d="M473 1235h-190l-248 324h239l103 -177l102 177h240zM76 924v182h659v-162l-463 -762h482v-182h-715v162l453 762h-416z" />
    <glyph glyph-name="florin" unicode="&#x192;" horiz-adv-x="559" 
d="M362 1106h166v-182h-166v-1168q0 -137 -78 -213t-223 -75q-100 0 -149 20v199q45 -20 123 -21q106 0 106 109v1149h-92v182h92v164q0 137 79 212t222 74q99 0 148 -20v-199q-45 20 -123 21q-104 0 -105 -101v-151z" />
    <glyph glyph-name="AEacute" unicode="&#x1fc;" horiz-adv-x="1554" 
d="M932 1563h-156l156 338h270zM762 526v656l-291 -656h291zM1485 1475v-199h-490v-418h381v-199h-381v-460h490v-199h-723v328h-379l-143 -328h-246l676 1475h815z" />
    <glyph glyph-name="aeacute" unicode="&#x1fd;" horiz-adv-x="1390" 
d="M780 1235h-155l155 338h271zM406 152q90 0 159 30v209q-59 39 -157 39q-113 0 -113 -123v-33q0 -122 111 -122zM788 764v-119h297v119q-1 166 -149 166t-148 -166zM106 737v99q0 139 86 215q86 75 256 75t263 -88q77 88 239 88t260 -84t99 -235v-344h-521v-121
q0 -166 149 -166t148 166v27h224v-70q-1 -152 -99 -236q-98 -83 -267 -83t-247 102q-160 -102 -354 -102q-139 0 -214 76t-75 214v41q0 141 76 216t207 75t229 -49v235q0 141 -123 142q-125 0 -125 -142v-51h-211z" />
    <glyph glyph-name="Oslashacute" unicode="&#x1fe;" horiz-adv-x="1075" 
d="M616 1577h-155l155 338h271zM552 1282q-114 0 -162 -45t-48 -145v-609l365 725q-41 74 -155 74zM539 193q100 0 147 45t47 145v643l-375 -745q40 -88 181 -88zM524 1495q186 0 293 -68l47 93h117l-82 -162q66 -82 66 -203v-836q0 -163 -113 -251t-303 -88t-303 73
l-45 -88h-121l84 168q-53 78 -53 186v836q0 160 113 250q114 90 300 90z" />
    <glyph glyph-name="oslashacute" unicode="&#x1ff;" horiz-adv-x="917" 
d="M311 760v-285l217 430q-31 12 -67 13q-150 0 -150 -158zM461 188q147 0 147 158v397l-260 -518q35 -37 113 -37zM496 1249h-156l156 338h270zM88 291v524q0 150 97 231t276 80q96 0 166 -24l28 55h160l-63 -129q80 -80 79 -213v-524q0 -150 -97 -231t-273 -80
q-127 0 -215 40l-33 -65h-166l84 166q-43 72 -43 170z" />
    <glyph glyph-name="Scommaaccent" unicode="&#x218;" horiz-adv-x="960" 
d="M891 451v-84q0 -203 -94 -295t-279 -92h-88q-176 0 -264 70t-88 229v182h227v-103q0 -98 31 -132t102 -33h72q78 -1 114 33t35 143v92q0 135 -137 168l-149 37q-150 38 -213 120t-64 269v82q0 176 91 267t266 91h34q169 0 267 -79t98 -220v-156h-227v101q0 154 -133 153
h-35q-72 0 -101 -38t-28 -136v-55q0 -94 22 -127t96 -53l136 -37q178 -47 244 -132t65 -265z" />
    <glyph glyph-name="scommaaccent" unicode="&#x219;" horiz-adv-x="868" 
d="M582 -117l-121 -397h-168l45 397h244zM799 369v-70q0 -174 -94 -247t-279 -72q-360 0 -360 270v119h210v-84q0 -63 37 -86t115 -23t119 25t41 96v59q0 43 -30 67t-101 36l-129 24q-143 25 -194 89q-50 65 -50 229v51q0 135 89 205q89 69 257 69t260 -68t92 -194v-108
h-211v86q0 100 -139 100t-139 -100v-41q-1 -63 25 -86t100 -37l117 -25q156 -27 210 -86t54 -198z" />
    <glyph glyph-name="dotlessj" unicode="&#x237;" horiz-adv-x="452" 
d="M121 63v1043h223v-1040q0 -248 -71 -352t-248 -103l-84 6v197q31 -6 63 -7q63 -1 90 57t27 199z" />
    <glyph glyph-name="circumflex" unicode="&#x2c6;" horiz-adv-x="970" 
d="M393 1423h168l248 -299h-209l-123 160l-123 -160h-207z" />
    <glyph glyph-name="caron" unicode="&#x2c7;" horiz-adv-x="1005" 
d="M573 1135h-190l-248 323h240l102 -176l103 176h239z" />
    <glyph glyph-name="uni02C9" unicode="&#x2c9;" horiz-adv-x="409" 
 />
    <glyph glyph-name="breve" unicode="&#x2d8;" horiz-adv-x="739" 
d="M86 1466h176v-22q0 -117 102 -117t103 117v22h176v-59q0 -115 -72 -176q-73 -61 -207 -61t-206 60q-72 62 -72 177v59z" />
    <glyph glyph-name="dotaccent" unicode="&#x2d9;" horiz-adv-x="579" 
d="M362 1167h-239v289h239v-289z" />
    <glyph glyph-name="ring" unicode="&#x2da;" horiz-adv-x="710" 
d="M276 1266q0 -102 89 -103q88 0 88 103v6q0 100 -88 100t-89 -100v-6zM598 1313v-90q0 -189 -233 -189t-234 189v90q-1 188 233 188t234 -188z" />
    <glyph glyph-name="ogonek" unicode="&#x2db;" horiz-adv-x="1540" 
d="M117 -274q0 86 45 158t110 116h119q-115 -143 -115 -246q0 -74 78 -73q55 0 107 32l33 -119q-82 -59 -185 -59q-192 1 -192 191z" />
    <glyph glyph-name="tilde" unicode="&#x2dc;" horiz-adv-x="802" 
d="M510 1178q-58 0 -120 47t-81 47q-43 0 -47 -94h-162q2 124 52 194t132 70q81 0 162 -71q27 -24 43 -23q46 0 48 98h161q-4 -268 -188 -268z" />
    <glyph glyph-name="hungarumlaut" unicode="&#x2dd;" horiz-adv-x="1017" 
d="M684 1128h-158l158 338h268zM362 1128h-155l155 338h271z" />
    <glyph glyph-name="uni03A9" unicode="&#x3a9;" horiz-adv-x="1083" 
 />
    <glyph glyph-name="Wgrave" unicode="&#x1e80;" horiz-adv-x="1511" 
d="M854 1554h-156l-274 340h266zM1245 1475h228l-246 -1475h-266l-205 1098l-203 -1098h-268l-246 1475h227l164 -1209l217 1209h217l217 -1209z" />
    <glyph glyph-name="wgrave" unicode="&#x1e81;" horiz-adv-x="1320" 
d="M760 1227h-156l-274 340h266zM31 1106h233l133 -856l150 856h225l150 -856l135 856h233l-239 -1106h-242l-150 815l-149 -815h-242z" />
    <glyph glyph-name="Wacute" unicode="&#x1e82;" horiz-adv-x="1511" 
d="M821 1556h-155l155 338h271zM1245 1475h228l-246 -1475h-266l-205 1098l-203 -1098h-268l-246 1475h227l164 -1209l217 1209h217l217 -1209z" />
    <glyph glyph-name="wacute" unicode="&#x1e83;" horiz-adv-x="1320" 
d="M727 1229h-156l156 338h270zM31 1106h233l133 -856l150 856h225l150 -856l135 856h233l-239 -1106h-242l-150 815l-149 -815h-242z" />
    <glyph glyph-name="Wdieresis" unicode="&#x1e84;" horiz-adv-x="1511" 
d="M1067 1554h-242v252h242v-252zM686 1554h-244v252h244v-252zM1245 1475h228l-246 -1475h-266l-205 1098l-203 -1098h-268l-246 1475h227l164 -1209l217 1209h217l217 -1209z" />
    <glyph glyph-name="wdieresis" unicode="&#x1e85;" horiz-adv-x="1320" 
d="M973 1227h-242v252h242v-252zM592 1227h-244v252h244v-252zM31 1106h233l133 -856l150 856h225l150 -856l135 856h233l-239 -1106h-242l-150 815l-149 -815h-242z" />
    <glyph glyph-name="Ygrave" unicode="&#x1ef2;" horiz-adv-x="997" 
d="M596 1554h-156l-274 340h266zM614 0h-231v520l-367 955h246l236 -707l237 707h242l-363 -949v-526z" />
    <glyph glyph-name="ygrave" unicode="&#x1ef3;" horiz-adv-x="892" 
d="M559 1227h-156l-274 340h266zM168 -389q-66 0 -115 14v193q37 -10 99 -10q137 -1 194 192h-4l-322 1106h248l185 -821l184 821h246l-305 -1073q-74 -254 -169 -338t-241 -84z" />
    <glyph glyph-name="thinspace" unicode="&#x2009;" horiz-adv-x="59" 
 />
    <glyph glyph-name="uni2010" unicode="&#x2010;" horiz-adv-x="581" 
 />
    <glyph glyph-name="endash" unicode="&#x2013;" horiz-adv-x="892" 
d="M801 858v-196h-707v196h707z" />
    <glyph glyph-name="emdash" unicode="&#x2014;" horiz-adv-x="987" 
d="M893 858v-196h-799v196h799z" />
    <glyph glyph-name="quoteleft" unicode="&#x2018;" horiz-adv-x="440" 
d="M238 1475h149l-57 -506h-267z" />
    <glyph glyph-name="quoteright" unicode="&#x2019;" horiz-adv-x="440" 
d="M201 969h-150l58 506h266z" />
    <glyph glyph-name="quotesinglbase" unicode="&#x201a;" horiz-adv-x="442" 
d="M201 -217h-150l58 506h266z" />
    <glyph glyph-name="quotedblleft" unicode="&#x201c;" horiz-adv-x="755" 
d="M555 1475h150l-58 -506h-266zM238 1475h149l-57 -506h-267z" />
    <glyph glyph-name="quotedblright" unicode="&#x201d;" horiz-adv-x="755" 
d="M514 969h-149l57 506h266zM201 969h-150l58 506h266z" />
    <glyph glyph-name="quotedblbase" unicode="&#x201e;" horiz-adv-x="757" 
d="M514 -217h-149l57 506h266zM201 -217h-150l58 506h266z" />
    <glyph glyph-name="dagger" unicode="&#x2020;" horiz-adv-x="985" 
d="M592 -369h-199v1280h-315v195h315v369h199v-369h315v-195h-315v-1280z" />
    <glyph glyph-name="daggerdbl" unicode="&#x2021;" horiz-adv-x="985" 
d="M393 195v716h-315v195h315v369h199v-369h315v-195h-315v-716h315v-195h-315v-369h-199v369h-315v195h315z" />
    <glyph glyph-name="bullet" unicode="&#x2022;" horiz-adv-x="589" 
d="M115 595q0 71 52 122t127 51t128 -51t53 -122t-54 -121t-128 -50t-126 50t-52 121z" />
    <glyph glyph-name="ellipsis" unicode="&#x2026;" horiz-adv-x="1234" 
d="M1145 0h-240v289h240v-289zM739 0h-239v289h239v-289zM334 0h-240v289h240v-289z" />
    <glyph glyph-name="perthousand" unicode="&#x2030;" horiz-adv-x="2711" 
d="M2429 752q0 110 -109 108q-110 0 -108 -108v-471q-1 -109 108 -109t109 109v471zM2634 799v-566q0 -117 -84 -183t-230 -64q-146 0 -229 66q-84 66 -84 181v566q0 117 84 183t229 65q146 1 230 -65t84 -183zM1686 752q0 110 -109 108q-55 0 -82 -26t-27 -82v-471
q0 -109 109 -109t109 109v471zM1890 799v-566q0 -117 -84 -183t-229 -64q-145 0 -229 66t-84 181v566q0 117 84 183t229 65q145 1 229 -65t84 -183zM500 1202q0 109 -109 109t-108 -109v-471q-1 -108 108 -108t109 108v471zM705 1249v-565q0 -116 -84 -182q-83 -66 -229 -66
t-230 66t-84 182v565q0 117 84 183t229 66t230 -66q84 -66 84 -183zM766 -41h-203l619 1557h196z" />
    <glyph glyph-name="guilsinglleft" unicode="&#x2039;" horiz-adv-x="550" 
d="M63 659l207 353h217l-227 -424l-6 -2l6 -2l227 -424h-217l-207 352v147z" />
    <glyph glyph-name="guilsinglright" unicode="&#x203a;" horiz-adv-x="550" 
d="M281 1012l206 -353v-147l-206 -352h-218l228 424l6 2l-6 2l-228 424h218z" />
    <glyph glyph-name="fraction" unicode="&#x2044;" horiz-adv-x="518" 
d="M53 -41h-203l619 1557h197z" />
    <glyph glyph-name="zerosuperior" unicode="&#x2070;" horiz-adv-x="782" 
d="M500 1202q0 109 -109 109t-108 -109v-471q-1 -108 108 -108t109 108v471zM705 1249v-565q0 -116 -84 -182q-83 -66 -229 -66t-230 66t-84 182v565q0 117 84 183t229 66t230 -66q84 -66 84 -183z" />
    <glyph glyph-name="foursuperior" unicode="&#x2074;" horiz-adv-x="741" 
d="M387 805v303l-156 -303h156zM590 451h-203v182h-356v145l381 705h178v-678h112v-172h-112v-182z" />
    <glyph glyph-name="fivesuperior" unicode="&#x2075;" horiz-adv-x="698" 
d="M604 1483v-174h-313l-4 -191l75 2q279 6 279 -278v-117q0 -153 -69 -221t-207 -68h-48q-135 0 -199 49t-65 162v121h191v-45q0 -61 18 -81t62 -19h49q41 0 59 20t19 82v113q0 102 -89 102h-268l12 543h498z" />
    <glyph glyph-name="sixsuperior" unicode="&#x2076;" horiz-adv-x="755" 
d="M483 831q0 89 -98 89t-102 -80v-129q0 -88 100 -88t100 88v120zM444 1094q102 0 174 -52q70 -52 70 -147v-236q0 -104 -82 -163q-82 -60 -223 -60t-223 60t-82 163v615q0 104 82 164t223 59q141 0 223 -58t82 -163v-100h-205v51q0 84 -100 84t-100 -86v-168q59 37 161 37
z" />
    <glyph glyph-name="sevensuperior" unicode="&#x2077;" horiz-adv-x="628" 
d="M39 1309v174h559v-146l-326 -886h-200l315 858h-348z" />
    <glyph glyph-name="eightsuperior" unicode="&#x2078;" horiz-adv-x="745" 
d="M475 1251q0 84 -101 84t-102 -84v-88q0 -84 102 -84t101 84v88zM479 840q0 88 -104 88t-105 -88v-154q0 -88 104 -88t105 88v154zM80 1276q0 104 79 162t215 59q136 0 214 -58t78 -163v-98q0 -129 -99 -179q113 -55 113 -172v-168q0 -104 -82 -163q-82 -60 -225 -60
t-225 60t-82 163v168q0 121 114 174q-100 49 -100 177v98z" />
    <glyph glyph-name="ninesuperior" unicode="&#x2079;" horiz-adv-x="755" 
d="M374 1014q101 0 101 88v123q0 86 -101 86t-102 -86v-123q1 -88 102 -88zM314 840q-102 0 -174 52q-71 52 -70 146v236q0 104 82 164t223 59q141 0 222 -58t81 -165v-615q0 -104 -82 -163q-82 -60 -223 -60t-222 58t-81 163v101h202v-51q0 -84 102 -84t101 88v166
q-59 -37 -161 -37z" />
    <glyph glyph-name="zeroinferior" unicode="&#x2080;" horiz-adv-x="782" 
d="M500 281q0 110 -109 108q-110 0 -108 -108v-471q-1 -109 108 -109t109 109v471zM705 328v-566q0 -116 -84 -182q-83 -66 -229 -66t-230 66t-84 182v566q0 116 84 182t229 66t229 -66q84 -65 85 -182z" />
    <glyph glyph-name="oneinferior" unicode="&#x2081;" horiz-adv-x="493" 
d="M401 -471h-204v788l-160 -61v193l221 112h143v-1032z" />
    <glyph glyph-name="twoinferior" unicode="&#x2082;" horiz-adv-x="724" 
d="M670 -297v-174h-613v84q0 276 193 414q77 51 120 92q42 41 62 71t21 80v41q0 90 -78 90h-37q-72 0 -72 -84v-92h-192v142q0 100 72 154q73 54 206 54h27q135 0 206 -61t70 -178v-60q0 -114 -46 -184t-187 -170q-137 -94 -162 -219h410z" />
    <glyph glyph-name="threeinferior" unicode="&#x2083;" horiz-adv-x="729" 
d="M246 -14v153h112q90 0 91 107v57q-1 55 -17 77t-57 21h-25q-80 0 -80 -92v-59h-188v119q0 98 72 152t200 54h25q266 0 266 -247v-78q0 -121 -110 -160q129 -41 129 -196v-91q0 -153 -71 -221t-214 -67h-62q-135 0 -199 49t-65 160v133h191v-70q0 -86 94 -86h47
q90 0 90 100v88q0 49 -22 73q-23 24 -78 24h-129z" />
    <glyph glyph-name="fourinferior" unicode="&#x2084;" horiz-adv-x="741" 
d="M387 -117v303l-156 -303h156zM590 -471h-203v182h-356v146l381 704h178v-678h112v-172h-112v-182z" />
    <glyph glyph-name="fiveinferior" unicode="&#x2085;" horiz-adv-x="698" 
d="M604 561v-174h-313l-4 -190l75 2q279 6 279 -279v-117q0 -153 -69 -221t-207 -67h-48q-135 0 -199 49t-65 162v120h191v-45q0 -61 18 -81t62 -19h49q41 0 59 20t19 82v113q0 102 -89 102h-268l12 543h498z" />
    <glyph glyph-name="sixinferior" unicode="&#x2086;" horiz-adv-x="755" 
d="M483 -90q0 88 -98 88t-102 -80v-129q0 -88 100 -88t100 88v121zM444 172q102 0 174 -52q70 -52 70 -147v-235q0 -104 -82 -164t-223 -59q-141 0 -223 59t-82 164v614q0 104 82 164t223 59q141 0 223 -58t82 -163v-100h-205v51q0 84 -100 84t-100 -86v-168q59 37 161 37z
" />
    <glyph glyph-name="seveninferior" unicode="&#x2087;" horiz-adv-x="628" 
d="M39 387v174h559v-145l-326 -887h-200l315 858h-348z" />
    <glyph glyph-name="eightinferior" unicode="&#x2088;" horiz-adv-x="745" 
d="M475 330q0 84 -101 84t-102 -84v-88q0 -84 102 -84t101 84v88zM479 -82q0 88 -104 88t-105 -88v-154q0 -88 104 -88t105 88v154zM80 354q0 104 79 162t215 59q136 0 214 -58t78 -163v-98q0 -129 -99 -178q113 -55 113 -172v-168q0 -104 -82 -164t-225 -59q-143 0 -226 59
q-82 59 -81 164v168q0 121 114 174q-100 49 -100 176v98z" />
    <glyph glyph-name="nineinferior" unicode="&#x2089;" horiz-adv-x="755" 
d="M374 92q101 0 101 88v123q0 86 -101 86t-102 -86v-123q1 -88 102 -88zM314 -82q-104 0 -174 52q-71 52 -70 147v235q0 104 82 164t223 59q141 0 222 -58t81 -165v-614q0 -104 -82 -164t-223 -59q-141 0 -222 58t-81 163v100h202v-51q0 -84 102 -84t101 88v166
q-57 -37 -161 -37z" />
    <glyph glyph-name="Euro" unicode="&#x20ac;" horiz-adv-x="1091" 
d="M420 354q0 -86 45 -124t139 -37q182 0 182 161v178h220v-233q0 -152 -112 -236q-112 -83 -301 -83t-297 84t-108 235v229h-129v162h129v84h-129v162h129v240q0 152 112 236t301 83q189 0 297 -84t108 -235v-234h-220v178q0 162 -183 162t-183 -162v-184h174v-162h-174
v-84h174v-162h-174v-174z" />
    <glyph glyph-name="trademark" unicode="&#x2122;" horiz-adv-x="1411" 
d="M403 612h-163v711h-195v152h553v-152h-195v-711zM811 612h-162v863h150l176 -402l176 402h152v-863h-160v471l-113 -231h-106l-113 229v-469z" />
    <glyph glyph-name="minus" unicode="&#x2212;" horiz-adv-x="1001" 
d="M901 858v-196h-799v196h799z" />
    <glyph glyph-name="commaaccent" unicode="&#xf6c3;" horiz-adv-x="442" 
d="M367 -117l-121 -397h-168l45 397h244z" />
    <glyph glyph-name="zerooldstyle" unicode="&#xf730;" horiz-adv-x="894" 
d="M447 170q151 0 151 139v490q0 139 -151 139t-150 -139v-490q-1 -139 150 -139zM805 840v-572q0 -135 -96 -211q-95 -75 -261 -75t-262 76t-96 210v572q0 135 96 211q96 75 261 75t262 -75q96 -76 96 -211z" />
    <glyph glyph-name="oneoldstyle" unicode="&#xf731;" horiz-adv-x="565" 
d="M455 0h-205v885l-205 -84v194l266 131h144v-1126z" />
    <glyph glyph-name="twooldstyle" unicode="&#xf732;" horiz-adv-x="837" 
d="M768 172v-172h-696v84q0 297 209 442q23 16 87 58t94 66q28 22 56 64q29 42 29 87v41q0 111 -117 110h-31q-121 0 -120 -98v-96h-191v143q0 109 83 167t232 58h29q156 0 238 -66t82 -192v-63q0 -119 -58 -197t-228 -183q-171 -105 -196 -253h498z" />
    <glyph glyph-name="threeoldstyle" unicode="&#xf733;" horiz-adv-x="851" 
d="M438 -49q144 0 144 155v140q0 147 -140 147h-143v160h119q137 0 137 156v92q0 79 -27 113t-88 34h-30q-62 0 -92 -33t-29 -104v-86h-193v139q0 125 83 194t235 68h26q315 0 316 -303v-112q0 -160 -142 -211q162 -49 162 -250v-141q0 -183 -84 -265t-252 -82h-71
q-158 0 -234 64t-76 205v125h193v-70q0 -135 123 -135h63z" />
    <glyph glyph-name="fouroldstyle" unicode="&#xf734;" horiz-adv-x="864" 
d="M483 176v524l-241 -524h241zM688 -256h-205v256h-446v143l471 981h180v-948h133v-176h-133v-256z" />
    <glyph glyph-name="fiveoldstyle" unicode="&#xf735;" horiz-adv-x="808" 
d="M698 1126v-176h-385l-6 -315l113 2q164 2 240 -85t77 -255v-170q0 -184 -79 -265t-236 -81h-55q-156 -1 -230 65t-74 211v146h193v-72q0 -94 28 -128t89 -34h55q59 0 88 36t29 126v162q0 160 -127 160h-305l14 673h571z" />
    <glyph glyph-name="sixoldstyle" unicode="&#xf736;" horiz-adv-x="884" 
d="M594 485q0 150 -140 150t-147 -135v-181q0 -150 144 -149q143 0 143 149v166zM507 813q127 0 209 -71t83 -195v-279q0 -135 -94 -211q-93 -75 -257 -75t-254 76t-92 210v791q0 135 94 211t255 76q162 0 255 -74t93 -207v-133h-205v86q0 139 -143 139t-144 -147v-254
q73 57 200 57z" />
    <glyph glyph-name="sevenoldstyle" unicode="&#xf737;" horiz-adv-x="718" 
d="M37 930v176h649v-148l-391 -1179h-201l377 1151h-434z" />
    <glyph glyph-name="eightoldstyle" unicode="&#xf738;" horiz-adv-x="878" 
d="M438 1180q-141 0 -141 -138v-120q0 -134 141 -134t142 134v120q-1 138 -142 138zM590 477q0 154 -151 154t-150 -154v-178q1 -152 151 -152t150 152v178zM102 1065q0 133 91 207t246 74t245 -74t90 -207v-129q0 -170 -125 -229q145 -74 146 -236v-203q1 -135 -95 -211
q-96 -75 -261 -75t-260 76t-95 210v203q0 166 147 236q-129 66 -129 229v129z" />
    <glyph glyph-name="nineoldstyle" unicode="&#xf739;" horiz-adv-x="872" 
d="M424 471q137 0 147 135v182q0 147 -141 148q-143 0 -143 -148v-167q0 -150 137 -150zM372 293q-128 0 -209 71t-81 195v279q0 135 93 211q93 75 256 75t254 -76t91 -210v-791q0 -135 -93 -211t-254 -76t-254 74t-93 207v133h205v-86q0 -139 142 -139t142 149v250
q-71 -55 -199 -55z" />
    <glyph glyph-name="ampersand.001" horiz-adv-x="1130" 
d="M438 1047q0 -72 84 -187q80 18 132 68t53 108v84q0 86 -33 126t-103 40q-133 0 -133 -158v-81zM549 188q106 0 192 86l-325 404q-127 -20 -127 -146v-186q0 -76 42 -117t115 -41h103zM588 -20h-191q-160 0 -250 84t-90 235v281q0 201 238 256q-74 115 -74 237v103
q0 152 94 236t257 83q163 0 256 -84t94 -235v-177q0 -104 -75 -181t-202 -111l234 -295l88 90l133 -148l-96 -102l96 -119l-137 -133l-91 111q-131 -131 -284 -131z" />
    <glyph glyph-name="a.superior" horiz-adv-x="704" 
d="M324 825q53 0 88 27v123q-41 20 -88 20q-68 0 -68 -71v-25q0 -74 68 -74zM51 899v21q0 100 51 154q52 54 146 54t164 -22v129q0 76 -64 76t-63 -76v-35h-197v88q0 96 69 152t193 55q124 0 198 -55q73 -55 73 -152v-581h-185l-10 47q-80 -62 -177 -62t-148 54
q-50 55 -50 153z" />
    <glyph glyph-name="o.superior" horiz-adv-x="712" 
d="M272 1225v-258q0 -84 80 -84t80 84v258q0 84 -80 84t-80 -84zM633 1276v-361q0 -106 -74 -163q-74 -58 -206 -58t-207 58t-74 163v361q0 104 74 163q75 58 207 58q132 1 206 -57t74 -164z" />
    <glyph glyph-name="undercommaaccent" horiz-adv-x="442" 
d="M367 -117l-121 -397h-168l45 397h244z" />
    <glyph glyph-name="zero.sm" horiz-adv-x="782" 
d="M500 752q0 110 -109 108q-110 0 -108 -108v-471q-1 -109 108 -109t109 109v471zM705 799v-566q0 -117 -84 -183q-83 -66 -229 -64q-146 0 -230 66t-84 181v566q0 117 84 183t229 65q145 1 229 -65t85 -183z" />
    <glyph glyph-name="one.sm" horiz-adv-x="493" 
d="M401 0h-204v788l-160 -61v193l221 112h143v-1032z" />
    <glyph glyph-name="two.sm" horiz-adv-x="724" 
d="M670 174v-174h-613v84q0 276 193 414q77 51 120 92q42 41 62 71t21 80v41q0 90 -78 90h-37q-72 0 -72 -84v-92h-192v142q0 100 72 154q73 54 206 55h27q135 1 206 -61t70 -179v-59q0 -113 -46 -184t-187 -171q-137 -94 -162 -219h410z" />
    <glyph glyph-name="three.sm" horiz-adv-x="729" 
d="M246 457v153h112q90 0 91 107v57q-1 55 -17 77t-57 21h-25q-80 0 -80 -92v-59h-188v119q0 98 72 152t200 55h25q266 0 266 -248v-78q0 -121 -110 -160q129 -41 129 -196v-91q0 -154 -71 -222t-214 -66h-62q-135 0 -199 49t-65 160v133h191v-70q0 -86 94 -86h47
q90 0 90 100v88q0 49 -22 73q-23 24 -78 24h-129z" />
    <glyph glyph-name="four.sm" horiz-adv-x="741" 
d="M387 354v303l-156 -303h156zM590 0h-203v182h-356v146l381 704h178v-678h112v-172h-112v-182z" />
    <glyph glyph-name="five.sm" horiz-adv-x="698" 
d="M604 1032v-174h-313l-4 -190l75 2q279 6 279 -279v-117q0 -154 -69 -222t-207 -66h-48q-135 0 -199 49t-65 162v120h191v-45q0 -60 18 -80t62 -20h49q41 0 59 20t19 82v113q0 102 -89 102h-268l12 543h498z" />
    <glyph glyph-name="six.sm" horiz-adv-x="755" 
d="M483 381q0 88 -98 88t-102 -80v-129q0 -88 100 -88t100 88v121zM444 643q102 0 174 -52q70 -52 70 -147v-235q0 -103 -82 -163t-223 -60t-223 59t-82 164v614q0 103 82 163t223 60t223 -58t82 -163v-100h-205v51q0 84 -100 84t-100 -86v-168q59 37 161 37z" />
    <glyph glyph-name="seven.sm" horiz-adv-x="628" 
d="M39 858v174h559v-145l-326 -887h-200l315 858h-348z" />
    <glyph glyph-name="eight.sm" horiz-adv-x="745" 
d="M475 801q0 84 -101 84t-102 -84v-88q0 -84 102 -84t101 84v88zM479 389q0 88 -104 88t-105 -88v-153q0 -88 104 -88t105 88v153zM374 1047q136 -1 214 -59t78 -163v-98q0 -129 -99 -178q113 -55 113 -172v-168q0 -103 -82 -163t-225 -60t-226 59q-82 59 -81 164v168
q0 121 114 174q-100 49 -100 176v98q0 104 79 163t215 59z" />
    <glyph glyph-name="nine.sm" horiz-adv-x="755" 
d="M374 563q101 0 101 88v123q0 86 -101 86t-102 -86v-123q1 -88 102 -88zM314 389q-104 0 -174 52q-71 52 -70 147v235q0 103 82 163t223 60t222 -58t81 -165v-614q0 -103 -82 -163t-223 -60t-222 58t-81 163v100h202v-51q0 -84 102 -84t101 88v166q-57 -37 -161 -37z" />
    <glyph glyph-name="a.ital" horiz-adv-x="937" 
d="M436 195q84 0 170 55v606q-84 61 -172 62q-117 0 -117 -154v-399q0 -170 119 -170zM829 0h-204l-19 66q-110 -80 -238 -80t-201 85t-73 226v526q0 141 72 223t201 80q129 0 243 -63l15 63h204v-1126z" />
    <glyph glyph-name="f.ital" horiz-adv-x="612" 
d="M141 924h-92v182h92v131q0 156 82 238t238 81q94 0 143 -20v-197q-41 20 -121 21q-119 0 -118 -133v-121h221v-182h-221v-924h-3q-8 -209 -80 -299t-237 -90l-84 6v197q31 -6 62 -7q67 -1 93 57t25 199v861z" />
    <glyph glyph-name="e.ital" horiz-adv-x="907" 
d="M311 764v-117h146q152 0 151 133v21q0 129 -151 129q-146 0 -146 -166zM457 463h-146v-121q0 -166 146 -166q152 0 151 166v27h223v-70q0 -152 -99 -236q-99 -83 -275 -83t-273 83q-96 84 -96 236v508q0 151 96 235t272 84t276 -80q99 -80 99 -223v-57q0 -143 -99 -223
t-275 -80z" />
    <glyph glyph-name="A.SC" horiz-adv-x="884" 
d="M442 948l-120 -514h241zM219 0h-205l308 1180h241l307 -1180h-204l-60 248h-330z" />
    <glyph glyph-name="B.SC" horiz-adv-x="839" 
d="M401 1006h-84v-308h84q135 0 136 127v39q-1 142 -136 142zM440 545h-123v-369h123q141 0 142 139v97q-1 133 -142 133zM440 0h-327v1180h288q156 0 243 -68t87 -207v-74q0 -131 -121 -184q164 -55 164 -223v-141q0 -141 -88 -212t-246 -71z" />
    <glyph glyph-name="C.SC" horiz-adv-x="843" 
d="M303 293q0 -123 131 -123t131 123v133h195v-186q0 -121 -88 -189q-88 -67 -241 -67t-243 68t-90 188v700q0 120 90 188t243 68t241 -68t88 -188v-186h-195v133q0 123 -131 123t-131 -123v-594z" />
    <glyph glyph-name="D.SC" horiz-adv-x="909" 
d="M438 186q92 0 136 35t44 127v473q0 172 -194 172l-109 -2v-805h123zM113 0v1180h311q203 0 296 -85t93 -253v-537q0 -157 -88 -231t-287 -74h-325z" />
    <glyph glyph-name="E.SC" horiz-adv-x="772" 
d="M618 692v-174h-301v-342h390v-176h-594v1180h594v-174h-390v-314h301z" />
    <glyph glyph-name="F.SC" horiz-adv-x="745" 
d="M317 0h-204v1180h594v-174h-390v-363h301v-174h-301v-469z" />
    <glyph glyph-name="G.SC" horiz-adv-x="870" 
d="M780 0h-104l-31 59q-69 -75 -215 -75t-239 68t-93 188v700q0 120 93 188t252 68t248 -68t89 -188v-186h-192v137q0 119 -142 119t-143 -119v-600q0 -121 138 -121t147 109v161h-142v174h334v-614z" />
    <glyph glyph-name="H.SC" horiz-adv-x="917" 
d="M317 0h-204v1180h204v-488h285v488h203v-1180h-203v518h-285v-518z" />
    <glyph glyph-name="I.SC" horiz-adv-x="430" 
d="M317 0h-204v1180h204v-1180z" />
    <glyph glyph-name="J.SC" horiz-adv-x="829" 
d="M520 1180h205v-867q0 -330 -350 -329q-156 0 -245 68t-89 188v159h192v-112q-1 -117 143 -117t144 143v867z" />
    <glyph glyph-name="K.SC" horiz-adv-x="847" 
d="M317 0h-204v1180h204v-535l281 535h219l-305 -574l322 -606h-230l-287 549v-549z" />
    <glyph glyph-name="L.SC" horiz-adv-x="727" 
d="M700 176v-176h-587v1180h204v-1004h383z" />
    <glyph glyph-name="M.SC" horiz-adv-x="1167" 
d="M305 0h-192v1180h215l256 -551l256 551h215v-1180h-191v705l4 122l-217 -452h-135l-215 448l4 -116v-707z" />
    <glyph glyph-name="N.SC" horiz-adv-x="958" 
d="M846 0h-166l-389 739l2 -26v-713h-180v1180h166l387 -738v738h180v-1180z" />
    <glyph glyph-name="O.SC" horiz-adv-x="892" 
d="M446 1010q-74 0 -108 -33t-35 -107v-561q0 -139 143 -139t144 139v561q0 74 -35 107t-109 33zM446 1196q162 0 255 -72t94 -200v-668q1 -129 -93 -201q-94 -71 -256 -71t-255 72t-93 200v668q0 128 93 200t255 72z" />
    <glyph glyph-name="P.SC" horiz-adv-x="829" 
d="M432 1006h-115v-402h109q145 0 145 152v90q0 160 -139 160zM317 0h-204v1180h313q184 0 267 -82t83 -240v-137q0 -143 -83 -217t-267 -74h-109v-430z" />
    <glyph glyph-name="Q.SC" horiz-adv-x="892" 
d="M446 1010q-74 0 -108 -33t-35 -107v-561q0 -139 143 -139t144 139v561q0 74 -35 107t-109 33zM446 1196q162 0 255 -72t94 -200v-668q0 -172 -160 -240l160 -204l-138 -113l-211 285q-162 0 -255 72t-93 200v668q0 128 93 200t255 72z" />
    <glyph glyph-name="R.SC" horiz-adv-x="854" 
d="M410 1006h-93v-402h84q145 0 146 152v90q0 160 -137 160zM317 0h-204v1180h288q187 0 269 -82t82 -240v-137q0 -195 -150 -258l244 -463h-230l-213 430h-86v-430z" />
    <glyph glyph-name="S.SC" horiz-adv-x="823" 
d="M760 362v-61q0 -166 -80 -242t-238 -75h-73q-297 0 -297 239v148h198v-76q0 -73 25 -99t82 -26h59q61 0 90 26t29 105v70q0 96 -111 123l-120 28q-127 31 -183 100q-55 69 -55 220v61q0 145 78 219t223 74h31q143 0 225 -62t82 -178v-122h-199v73q0 61 -24 87
q-25 26 -80 26h-31q-55 0 -78 -28t-22 -101v-41q0 -70 18 -94t78 -41l109 -27q154 -38 209 -106t55 -220z" />
    <glyph glyph-name="T.SC" horiz-adv-x="733" 
d="M469 0h-205v1006h-231v174h667v-174h-231v-1006z" />
    <glyph glyph-name="U.SC" horiz-adv-x="907" 
d="M598 1180h203v-895q0 -141 -92 -221t-254 -80t-256 80t-95 221v895h207v-852q-1 -158 143 -158t144 158v852z" />
    <glyph glyph-name="V.SC" horiz-adv-x="837" 
d="M604 1180h201l-277 -1180h-219l-278 1180h202l185 -924z" />
    <glyph glyph-name="W.SC" horiz-adv-x="1239" 
d="M997 1180h201l-190 -1180h-234l-153 844l-156 -844h-234l-190 1180h201l116 -947l166 947h189l166 -949z" />
    <glyph glyph-name="X.SC" horiz-adv-x="847" 
d="M47 1180h221l154 -432l156 432h221l-240 -566l277 -614h-230l-182 469l-184 -469h-228l273 608z" />
    <glyph glyph-name="Y.SC" horiz-adv-x="847" 
d="M526 0h-204v412l-304 768h215l191 -553l188 553h217l-303 -768v-412z" />
    <glyph glyph-name="Z.SC" horiz-adv-x="765" 
d="M72 1006v174h620v-150l-413 -854h444v-176h-678v150l424 856h-397z" />
    <glyph glyph-name="A.titl" horiz-adv-x="972" 
d="M485 1077l-141 -596h285zM229 0h-219l348 1327h256l347 -1327h-218l-67 285h-379z" />
    <glyph glyph-name="B.titl" 
d="M438 1141h-100v-359h100q160 0 160 150v45q0 84 -39 124t-121 40zM481 621h-143v-435h143q80 0 124 42t44 124v111q0 158 -168 158zM481 0h-362v1327h319q379 0 379 -307v-82q0 -154 -145 -211q195 -61 194 -254v-154q0 -159 -102 -239t-283 -80z" />
    <glyph glyph-name="C.titl" horiz-adv-x="933" 
d="M322 328q0 -78 38 -113t119 -35q158 0 158 148v151h207v-211q0 -135 -98 -211q-98 -75 -269 -75q-172 0 -272 76t-101 210v791q0 135 100 211t273 76q172 0 269 -76t98 -211v-211h-207v151q0 72 -42 110t-116 38q-158 0 -157 -148v-671z" />
    <glyph glyph-name="D.titl" horiz-adv-x="993" 
d="M690 389v537q0 203 -231 202l-121 -2v-927h137q109 1 162 41t53 149zM119 0v1327h340q227 0 331 -96t105 -283v-606q0 -178 -98 -260t-322 -82h-356z" />
    <glyph glyph-name="E.titl" horiz-adv-x="841" 
d="M678 776v-186h-342v-404h438v-186h-657v1327h657v-186h-438v-365h342z" />
    <glyph glyph-name="F.titl" horiz-adv-x="811" 
d="M336 0h-219v1327h657v-186h-438v-420h342v-186h-342v-535z" />
    <glyph glyph-name="G.titl" horiz-adv-x="960" 
d="M866 0h-112l-33 70q-77 -88 -243 -88t-270 75q-103 76 -104 211v791q0 135 104 211t280 76q178 0 278 -76t100 -211v-211h-204v158q0 141 -170 141t-170 -141v-680q0 -146 170 -146t170 146v174h-170v186h374v-686z" />
    <glyph glyph-name="H.titl" horiz-adv-x="1005" 
d="M336 0h-219v1327h219v-551h334v551h217v-1327h-217v590h-334v-590z" />
    <glyph glyph-name="I.titl" horiz-adv-x="452" 
d="M336 0h-219v1327h219v-1327z" />
    <glyph glyph-name="J.titl" horiz-adv-x="915" 
d="M586 1327h219v-981q0 -365 -389 -364q-172 0 -273 75q-100 76 -100 211v183h205v-134q0 -137 169 -137t169 170v977z" />
    <glyph glyph-name="K.titl" horiz-adv-x="923" 
d="M336 0h-219v1327h219v-604l326 604h233l-354 -647l372 -680h-243l-334 625v-625z" />
    <glyph glyph-name="L.titl" horiz-adv-x="792" 
d="M766 186v-186h-649v1327h219v-1141h430z" />
    <glyph glyph-name="M.titl" horiz-adv-x="1282" 
d="M324 0h-207v1327h229l293 -627l295 627h229v-1327h-207v819l5 127l-246 -518h-148l-248 520l5 -127v-821z" />
    <glyph glyph-name="N.titl" horiz-adv-x="1050" 
d="M934 0h-180l-445 854l2 -31v-823h-194v1327h178l442 -848v848h197v-1327z" />
    <glyph glyph-name="O.titl" horiz-adv-x="985" 
d="M492 1147q-86 0 -128 -40t-42 -126v-635q0 -86 42 -126t128 -40q172 0 172 166v635q0 166 -172 166zM492 1346q180 0 283 -81t104 -225v-753q1 -143 -103 -225t-284 -80q-180 0 -284 80q-103 81 -104 225v753q0 142 104 224t284 82z" />
    <glyph glyph-name="P.titl" horiz-adv-x="905" 
d="M467 1141h-133v-467h127q172 0 172 178v102q0 187 -166 187zM334 0h-217v1327h344q205 0 297 -92t92 -268v-148q0 -164 -92 -248t-297 -84h-127v-487z" />
    <glyph glyph-name="Q.titl" horiz-adv-x="985" 
d="M492 1147q-86 0 -128 -40t-42 -126v-635q0 -86 42 -126t128 -40q172 0 172 166v635q0 166 -172 166zM492 1346q180 0 283 -81t104 -225v-753q0 -195 -181 -269l179 -231l-150 -123l-235 318q-180 0 -284 80q-103 81 -104 225v753q0 142 104 224t284 82z" />
    <glyph glyph-name="R.titl" horiz-adv-x="933" 
d="M444 1141h-106v-467h98q174 0 174 178v102q0 187 -166 187zM338 0h-221v1327h319q207 0 299 -92t92 -268v-148q0 -225 -174 -297l279 -522h-246l-244 487h-104v-487z" />
    <glyph glyph-name="S.titl" horiz-adv-x="905" 
d="M840 408v-72q0 -186 -88 -270t-265 -84h-81q-166 0 -249 63t-83 205v166h213v-90q1 -86 29 -116t96 -30h67q74 0 108 30t34 126v80q0 119 -129 147l-142 31q-139 32 -199 108t-61 246v72q0 160 87 243t249 83h35q160 0 250 -71t90 -198v-141h-213v90q0 133 -125 133h-33
q-66 0 -94 -33t-27 -118v-50q0 -84 22 -114t91 -45l125 -31q169 -38 231 -116t62 -244z" />
    <glyph glyph-name="T.titl" horiz-adv-x="806" 
d="M512 0h-217v1141h-264v186h743v-186h-262v-1141z" />
    <glyph glyph-name="U.titl" horiz-adv-x="999" 
d="M672 1327h215v-1012q1 -157 -103 -245t-284 -88t-284 88q-103 88 -103 245v1012h217v-965q0 -182 171 -182t171 182v965z" />
    <glyph glyph-name="V.titl" horiz-adv-x="921" 
d="M676 1327h215l-313 -1327h-234l-313 1327h215l215 -1055z" />
    <glyph glyph-name="W.titl" horiz-adv-x="1374" 
d="M1122 1327h213l-219 -1327h-250l-178 971l-180 -971h-250l-219 1327h215l141 -1087l193 1087h200l193 -1075z" />
    <glyph glyph-name="X.titl" horiz-adv-x="921" 
d="M45 1327h234l182 -491l180 491h236l-273 -641l311 -686h-241l-213 535l-213 -535h-242l309 684z" />
    <glyph glyph-name="Y.titl" 
d="M575 0h-217v469l-340 858h230l219 -629l219 629h232l-343 -858v-469z" />
    <glyph glyph-name="Z.titl" horiz-adv-x="839" 
d="M72 1141v186h696v-158l-475 -983h502v-186h-752v158l483 983h-454z" />
    <glyph glyph-name="Ecaron.SC" horiz-adv-x="772" 
d="M514 1255h-190l-248 324h239l103 -176l102 176h240zM618 692v-174h-301v-342h390v-176h-594v1180h594v-174h-390v-314h301z" />
    <glyph glyph-name="Rcaron.SC" horiz-adv-x="854" 
d="M561 1255h-190l-248 324h239l103 -176l102 176h240zM410 1006h-93v-402h84q145 0 146 152v90q0 160 -137 160zM317 0h-204v1180h288q187 0 269 -82t82 -240v-137q0 -195 -150 -258l244 -463h-230l-213 430h-86v-430z" />
    <glyph glyph-name="Ycaron.SC" horiz-adv-x="847" 
d="M518 1255h-190l-248 324h239l103 -176l102 176h240zM526 0h-204v412l-304 768h215l191 -553l188 553h217l-303 -768v-412z" />
    <glyph glyph-name="Aacute.SC" horiz-adv-x="884" 
d="M510 1249h-156l156 338h270zM442 948l-120 -514h241zM219 0h-205l308 1180h241l307 -1180h-204l-60 248h-330z" />
    <glyph glyph-name="Iacute.SC" horiz-adv-x="430" 
d="M281 1249h-156l156 338h270zM317 0h-204v1180h204v-1180z" />
    <glyph glyph-name="Eacute.SC.001" horiz-adv-x="772" 
d="M487 1249h-155l155 338h271zM618 692v-174h-301v-342h390v-176h-594v1180h594v-174h-390v-314h301z" />
    <glyph glyph-name="Tcaron.SC" horiz-adv-x="733" 
d="M459 1255h-191l-248 324h240l102 -176l103 176h240zM469 0h-205v1006h-231v174h667v-174h-231v-1006z" />
    <glyph glyph-name="Dcaron.SC" horiz-adv-x="909" 
d="M561 1255h-190l-248 324h239l103 -176l102 176h240zM438 186q92 0 136 35t44 127v473q0 172 -194 172l-109 -2v-805h123zM113 0v1180h311q203 0 296 -85t93 -253v-537q0 -157 -88 -231t-287 -74h-325z" />
    <glyph glyph-name="Scaron.SC" horiz-adv-x="823" 
d="M502 1255h-191l-248 324h240l103 -176l102 176h240zM760 362v-61q0 -166 -80 -242t-238 -75h-73q-297 0 -297 239v148h198v-76q0 -73 25 -99t82 -26h59q61 0 90 26t29 105v70q0 96 -111 123l-120 28q-127 31 -183 100q-55 69 -55 220v61q0 145 78 219t223 74h31
q143 0 225 -62t82 -178v-122h-199v73q0 61 -24 87q-25 26 -80 26h-31q-55 0 -78 -28t-22 -101v-41q0 -70 18 -94t78 -41l109 -27q154 -38 209 -106t55 -220z" />
    <glyph glyph-name="Ccaron.SC" horiz-adv-x="854" 
d="M528 1255h-190l-248 324h240l102 -176l103 176h239zM303 293q0 -123 131 -123t131 123v133h195v-186q0 -121 -88 -189q-88 -67 -241 -67t-243 68t-90 188v700q0 120 90 188t243 68t241 -68t88 -188v-186h-195v133q0 123 -131 123t-131 -123v-594z" />
    <glyph glyph-name="Zcaron.SC" horiz-adv-x="765" 
d="M475 1255h-190l-248 324h239l103 -176l102 176h240zM72 1006v174h620v-150l-413 -854h444v-176h-678v150l424 856h-397z" />
    <glyph glyph-name="Uacute.SC" horiz-adv-x="907" 
d="M520 1249h-155l155 338h271zM598 1180h203v-895q0 -141 -92 -221t-254 -80t-256 80t-95 221v895h207v-852q-1 -158 143 -158t144 158v852z" />
    <glyph glyph-name="Oacute.SC.001" horiz-adv-x="892" 
d="M514 1249h-156l156 338h270zM446 1010q-74 0 -108 -33t-35 -107v-561q0 -139 143 -139t144 139v561q0 74 -35 107t-109 33zM446 1196q162 0 255 -72t94 -200v-668q1 -129 -93 -201q-94 -71 -256 -71t-255 72t-93 200v668q0 128 93 200t255 72z" />
    <glyph glyph-name="Aogonek.SC" horiz-adv-x="884" 
d="M442 948l-120 -514h241zM557 -274q0 86 45 158t111 116h-47l-60 248h-330l-57 -248h-205l308 1180h241l307 -1180h-39q-115 -143 -114 -246q0 -74 78 -73q55 0 106 32l33 -119q-82 -59 -184 -59q-193 1 -193 191z" />
    <glyph glyph-name="Cacute.SC" horiz-adv-x="854" 
d="M502 1249h-156l156 338h270zM303 293q0 -123 131 -123t131 123v133h195v-186q0 -121 -88 -189q-88 -67 -241 -67t-243 68t-90 188v700q0 120 90 188t243 68t241 -68t88 -188v-186h-195v133q0 123 -131 123t-131 -123v-594z" />
    <glyph glyph-name="Zdotaccent.SC" horiz-adv-x="765" 
d="M504 1247h-240v289h240v-289zM72 1006v174h620v-150l-413 -854h444v-176h-678v150l424 856h-397z" />
    <glyph glyph-name="Zacute.SC" horiz-adv-x="765" 
d="M449 1249h-156l156 338h270zM72 1006v174h620v-150l-413 -854h444v-176h-678v150l424 856h-397z" />
    <glyph glyph-name="Eogonek.SC" horiz-adv-x="772" 
d="M430 -274q0 86 45 158t111 116h-473v1180h594v-174h-390v-314h301v-174h-301v-342h390v-176h-2q-115 -143 -115 -246q0 -74 78 -73q55 0 106 32l33 -119q-82 -59 -184 -59q-193 1 -193 191z" />
    <glyph glyph-name="Lslash.SC" horiz-adv-x="813" 
d="M197 1180h204v-367l291 197v-238l-291 -197v-399h383v-176h-587v436l-142 -96v242l142 94v504z" />
    <glyph glyph-name="Nacute.SC" horiz-adv-x="958" 
d="M561 1249h-155l155 338h270zM846 0h-166l-389 739l2 -26v-713h-180v1180h166l387 -738v738h180v-1180z" />
    <glyph glyph-name="Oacute.SC" horiz-adv-x="892" 
d="M514 1249h-156l156 338h270zM446 1010q-74 0 -108 -33t-35 -107v-561q0 -139 143 -139t144 139v561q0 74 -35 107t-109 33zM446 1196q162 0 255 -72t94 -200v-668q1 -129 -93 -201q-94 -71 -256 -71t-255 72t-93 200v668q0 128 93 200t255 72z" />
    <glyph glyph-name="Sacute.SC" horiz-adv-x="823" 
d="M475 1249h-156l156 338h270zM760 362v-61q0 -166 -80 -242t-238 -75h-73q-297 0 -297 239v148h198v-76q0 -73 25 -99t82 -26h59q61 0 90 26t29 105v70q0 96 -111 123l-120 28q-127 31 -183 100q-55 69 -55 220v61q0 145 78 219t223 74h31q143 0 225 -62t82 -178v-122
h-199v73q0 61 -24 87q-25 26 -80 26h-31q-55 0 -78 -28t-22 -101v-41q0 -70 18 -94t78 -41l109 -27q154 -38 209 -106t55 -220z" />
    <glyph glyph-name="Agrave.SC" horiz-adv-x="884" 
d="M543 1247h-156l-274 340h266zM442 948l-120 -514h241zM219 0h-205l308 1180h241l307 -1180h-204l-60 248h-330z" />
    <glyph glyph-name="Acircumflex.SC" horiz-adv-x="884" 
d="M356 1544h168l248 -299h-209l-123 160l-123 -160h-206zM442 948l-120 -514h241zM219 0h-205l308 1180h241l307 -1180h-204l-60 248h-330z" />
    <glyph glyph-name="AE.SC" horiz-adv-x="1290" 
d="M618 438v469l-202 -469h202zM1225 1180v-185h-389v-299h301v-184h-301v-328h389v-184h-607v252h-282l-109 -252h-227l530 1180h695z" />
    <glyph glyph-name="Ccedilla.SC" horiz-adv-x="854" 
d="M303 293q0 -123 131 -123t131 123v133h195v-186q0 -110 -73 -176t-200 -76v-78h17q166 0 166 -166q0 -96 -58 -137t-190 -41h-103v115h107q57 0 77 13q19 13 19 48v10q0 37 -17 52t-67 16h-65v168q-129 12 -202 78t-73 174v700q0 120 90 188t243 68t241 -68t88 -188v-186
h-195v133q0 123 -131 123t-131 -123v-594z" />
    <glyph glyph-name="Egrave.SC" horiz-adv-x="772" 
d="M520 1247h-155l-275 340h266zM618 692v-174h-301v-342h390v-176h-594v1180h594v-174h-390v-314h301z" />
    <glyph glyph-name="Eacute.SC" horiz-adv-x="772" 
d="M487 1249h-155l155 338h271zM618 692v-174h-301v-342h390v-176h-594v1180h594v-174h-390v-314h301z" />
    <glyph glyph-name="Ecircumflex.SC" horiz-adv-x="772" 
d="M334 1544h168l248 -299h-209l-123 160l-123 -160h-207zM618 692v-174h-301v-342h390v-176h-594v1180h594v-174h-390v-314h301z" />
    <glyph glyph-name="Edieresis.SC" horiz-adv-x="772" 
d="M733 1247h-241v252h241v-252zM352 1247h-243v252h243v-252zM618 692v-174h-301v-342h390v-176h-594v1180h594v-174h-390v-314h301z" />
    <glyph glyph-name="Icircumflex.SC" horiz-adv-x="430" 
d="M127 1544h168l248 -299h-209l-123 160l-123 -160h-207zM317 0h-204v1180h204v-1180z" />
    <glyph glyph-name="Idieresis.SC" horiz-adv-x="430" 
d="M526 1247h-241v252h241v-252zM145 1247h-243v252h243v-252zM317 0h-204v1180h204v-1180z" />
    <glyph glyph-name="Ocircumflex.SC" horiz-adv-x="892" 
d="M360 1544h168l248 -299h-209l-123 160l-122 -160h-207zM446 1010q-74 0 -108 -33t-35 -107v-561q0 -139 143 -139t144 139v561q0 74 -35 107t-109 33zM446 1196q162 0 255 -72t94 -200v-668q1 -129 -93 -201q-94 -71 -256 -71t-255 72t-93 200v668q0 128 93 200t255 72z
" />
    <glyph glyph-name="OE.SC" horiz-adv-x="1257" 
d="M447 999q-133 0 -134 -131v-557q1 -131 137 -131t136 131v570q-6 118 -139 118zM1190 184v-184h-604v10q-63 -27 -135 -26q-164 0 -258 72t-95 200v668q0 128 94 200t259 72q72 0 135 -27v11h604v-185h-387v-299h301v-184h-301v-328h387z" />
    <glyph glyph-name="Ugrave.SC" horiz-adv-x="907" 
d="M553 1247h-156l-274 340h266zM598 1180h203v-895q0 -141 -92 -221t-254 -80t-256 80t-95 221v895h207v-852q-1 -158 143 -158t144 158v852z" />
    <glyph glyph-name="Ucircumflex.SC" horiz-adv-x="907" 
d="M369 1544h168l247 -299h-209l-122 160l-123 -160h-207zM598 1180h203v-895q0 -141 -92 -221t-254 -80t-256 80t-95 221v895h207v-852q-1 -158 143 -158t144 158v852z" />
    <glyph glyph-name="Udieresis.SC.001" horiz-adv-x="907" 
d="M766 1247h-242v252h242v-252zM385 1247h-244v252h244v-252zM598 1180h203v-895q0 -141 -92 -221t-254 -80t-256 80t-95 221v895h207v-852q-1 -158 143 -158t144 158v852z" />
    <glyph glyph-name="Ydieresis.SC" horiz-adv-x="847" 
d="M735 1247h-241v252h241v-252zM354 1247h-243v252h243v-252zM526 0h-204v412l-304 768h215l191 -553l188 553h217l-303 -768v-412z" />
    <glyph glyph-name="Adieresis.SC" horiz-adv-x="884" 
d="M754 1247h-242v252h242v-252zM373 1247h-244v252h244v-252zM442 948l-120 -514h241zM219 0h-205l308 1180h241l307 -1180h-204l-60 248h-330z" />
    <glyph glyph-name="Odieresis.SC" horiz-adv-x="892" 
d="M760 1247h-242v252h242v-252zM379 1247h-244v252h244v-252zM446 1010q-74 0 -108 -33t-35 -107v-561q0 -139 143 -139t144 139v561q0 74 -35 107t-109 33zM446 1196q162 0 255 -72t94 -200v-668q1 -129 -93 -201q-94 -71 -256 -71t-255 72t-93 200v668q0 128 93 200
t255 72z" />
    <glyph glyph-name="Udieresis.SC" horiz-adv-x="907" 
d="M766 1247h-242v252h242v-252zM385 1247h-244v252h244v-252zM598 1180h203v-895q0 -141 -92 -221t-254 -80t-256 80t-95 221v895h207v-852q-1 -158 143 -158t144 158v852z" />
    <glyph glyph-name="a.sm" horiz-adv-x="704" 
d="M319 119q53 0 89 26v123q-41 20 -89 21q-68 0 -67 -72v-24q-1 -74 67 -74zM47 193v20q0 101 51 155q52 54 146 54t164 -23v129q0 76 -64 76t-63 -76v-34h-197v88q0 96 69 151t193 55t198 -55q73 -55 72 -151v-582h-184l-10 47q-80 -61 -177 -61t-148 54q-50 55 -50 153z
" />
    <glyph glyph-name="o.sm" horiz-adv-x="706" 
d="M272 516v-258q0 -84 80 -84t80 84v258q0 84 -80 84t-80 -84zM633 567v-360q0 -105 -74 -163t-206 -58t-207 58t-74 163v360q0 104 74 163q75 58 207 58t206 -58t74 -163z" />
    <glyph glyph-name="zero.denominator" horiz-adv-x="782" 
d="M500 752q0 110 -109 108q-110 0 -108 -108v-471q-1 -109 108 -109t109 109v471zM705 799v-566q0 -117 -84 -183q-83 -66 -229 -64q-146 0 -230 66t-84 181v566q0 117 84 183t229 65q145 1 229 -65t85 -183z" />
    <glyph glyph-name="one.denominator" horiz-adv-x="493" 
d="M401 0h-204v788l-160 -61v193l221 112h143v-1032z" />
    <glyph glyph-name="two.denominator" horiz-adv-x="724" 
d="M670 174v-174h-613v84q0 276 193 414q77 51 120 92q42 41 62 71t21 80v41q0 90 -78 90h-37q-72 0 -72 -84v-92h-192v142q0 100 72 154q73 54 206 55h27q135 1 206 -61t70 -179v-59q0 -113 -46 -184t-187 -171q-137 -94 -162 -219h410z" />
    <glyph glyph-name="three.denominator" horiz-adv-x="729" 
d="M246 457v153h112q90 0 91 107v57q-1 55 -17 77t-57 21h-25q-80 0 -80 -92v-59h-188v119q0 98 72 152t200 55h25q266 0 266 -248v-78q0 -121 -110 -160q129 -41 129 -196v-91q0 -154 -71 -222t-214 -66h-62q-135 0 -199 49t-65 160v133h191v-70q0 -86 94 -86h47
q90 0 90 100v88q0 49 -22 73q-23 24 -78 24h-129z" />
    <glyph glyph-name="four.denominator" horiz-adv-x="741" 
d="M387 354v303l-156 -303h156zM590 0h-203v182h-356v146l381 704h178v-678h112v-172h-112v-182z" />
    <glyph glyph-name="five.denominator" horiz-adv-x="698" 
d="M604 1032v-174h-313l-4 -190l75 2q279 6 279 -279v-117q0 -154 -69 -222t-207 -66h-48q-135 0 -199 49t-65 162v120h191v-45q0 -60 18 -80t62 -20h49q41 0 59 20t19 82v113q0 102 -89 102h-268l12 543h498z" />
    <glyph glyph-name="six.denominator" horiz-adv-x="755" 
d="M483 381q0 88 -98 88t-102 -80v-129q0 -88 100 -88t100 88v121zM444 643q102 0 174 -52q70 -52 70 -147v-235q0 -103 -82 -163t-223 -60t-223 59t-82 164v614q0 103 82 163t223 60t223 -58t82 -163v-100h-205v51q0 84 -100 84t-100 -86v-168q59 37 161 37z" />
    <glyph glyph-name="seven.denominator" horiz-adv-x="628" 
d="M39 858v174h559v-145l-326 -887h-200l315 858h-348z" />
    <glyph glyph-name="eight.denominator" horiz-adv-x="745" 
d="M475 801q0 84 -101 84t-102 -84v-88q0 -84 102 -84t101 84v88zM479 389q0 88 -104 88t-105 -88v-153q0 -88 104 -88t105 88v153zM374 1047q136 -1 214 -59t78 -163v-98q0 -129 -99 -178q113 -55 113 -172v-168q0 -103 -82 -163t-225 -60t-226 59q-82 59 -81 164v168
q0 121 114 174q-100 49 -100 176v98q0 104 79 163t215 59z" />
    <glyph glyph-name="nine.denominator" horiz-adv-x="755" 
d="M374 563q101 0 101 88v123q0 86 -101 86t-102 -86v-123q1 -88 102 -88zM314 389q-104 0 -174 52q-71 52 -70 147v235q0 103 82 163t223 60t222 -58t81 -165v-614q0 -103 -82 -163t-223 -60t-222 58t-81 163v100h202v-51q0 -84 102 -84t101 88v166q-57 -37 -161 -37z" />
    <glyph glyph-name="zero.numerator" horiz-adv-x="782" 
d="M500 1202q0 109 -109 109t-108 -109v-471q-1 -108 108 -108t109 108v471zM705 1249v-565q0 -116 -84 -182q-83 -66 -229 -66t-230 66t-84 182v565q0 117 84 183t229 66t230 -66q84 -66 84 -183z" />
    <glyph glyph-name="one.numerator" horiz-adv-x="493" 
d="M401 451h-204v788l-160 -61v192l221 113h143v-1032z" />
    <glyph glyph-name="two.numerator" horiz-adv-x="724" 
d="M670 625v-174h-613v84q0 276 193 413q74 49 118 92q44 42 64 72t21 80v41q0 90 -78 90h-37q-72 0 -72 -84v-92h-192v141q0 100 72 155q73 54 206 54h27q135 0 206 -61t70 -179v-59q0 -114 -46 -184t-187 -170q-137 -94 -162 -219h410z" />
    <glyph glyph-name="three.numerator" horiz-adv-x="729" 
d="M246 907v154h112q90 0 91 106v58q-1 55 -17 77t-57 21h-25q-80 0 -80 -92v-60h-188v119q0 98 72 152t200 55h25q266 0 266 -248v-78q0 -121 -110 -159q129 -41 129 -197v-90q0 -153 -71 -221t-214 -68h-62q-135 0 -199 49t-65 160v133h191v-69q0 -86 94 -86h47
q90 0 90 100v88q0 49 -22 73q-23 24 -78 23h-129z" />
    <glyph glyph-name="four.numerator" horiz-adv-x="741" 
d="M387 805v303l-156 -303h156zM590 451h-203v182h-356v145l381 705h178v-678h112v-172h-112v-182z" />
    <glyph glyph-name="five.numerator" horiz-adv-x="698" 
d="M604 1483v-174h-313l-4 -191l75 2q279 6 279 -278v-117q0 -153 -69 -221t-207 -68h-48q-135 0 -199 49t-65 162v121h191v-45q0 -61 18 -81t62 -19h49q41 0 59 20t19 82v113q0 102 -89 102h-268l12 543h498z" />
    <glyph glyph-name="six.numerator" horiz-adv-x="755" 
d="M483 831q0 89 -98 89t-102 -80v-129q0 -88 100 -88t100 88v120zM444 1094q102 0 174 -52q70 -52 70 -147v-236q0 -104 -82 -163q-82 -60 -223 -60t-223 60t-82 163v615q0 104 82 164t223 59q141 0 223 -58t82 -163v-100h-205v51q0 84 -100 84t-100 -86v-168q59 37 161 37
z" />
    <glyph glyph-name="seven.numerator" horiz-adv-x="628" 
d="M39 1309v174h559v-146l-326 -886h-200l315 858h-348z" />
    <glyph glyph-name="eight.numerator" horiz-adv-x="745" 
d="M475 1251q0 84 -101 84t-102 -84v-88q0 -84 102 -84t101 84v88zM479 840q0 88 -104 88t-105 -88v-154q0 -88 104 -88t105 88v154zM80 1276q0 104 79 162t215 59q136 0 214 -58t78 -163v-98q0 -129 -99 -179q113 -55 113 -172v-168q0 -104 -82 -163q-82 -60 -225 -60
t-225 60t-82 163v168q0 121 114 174q-100 49 -100 177v98z" />
    <glyph glyph-name="nine.numerator" horiz-adv-x="755" 
d="M374 1014q101 0 101 88v123q0 86 -101 86t-102 -86v-123q1 -88 102 -88zM314 840q-102 0 -174 52q-71 52 -70 146v236q0 104 82 164t223 59q141 0 222 -58t81 -165v-615q0 -104 -82 -163q-82 -60 -223 -60t-222 58t-81 163v101h202v-51q0 -84 102 -84t101 88v166
q-59 -37 -161 -37z" />
    <glyph glyph-name="a.uni" horiz-adv-x="1060" 
d="M469 170q145 0 240 82v317q-94 51 -236 52q-86 -1 -124 -47t-38 -150v-59q0 -195 158 -195zM59 352v64q0 186 85 282t247 96t318 -57v381q0 68 -41 115t-140 47q-178 0 -178 -162v-119h-223v162q0 150 99 239t303 89q205 0 309 -91t104 -237v-1161h-197l-18 88
q-160 -115 -331 -115q-171 1 -254 99t-83 280z" />
    <glyph glyph-name="e.uni" horiz-adv-x="1019" 
d="M326 1092v-267h383v267q-1 94 -53 144t-144 50q-186 1 -186 -194zM326 381q0 -188 192 -188t191 188v108h217v-129q0 -184 -110 -285t-302 -101t-298 100q-106 102 -107 286v750q0 184 105 284t300 101q196 0 304 -100t108 -285v-467h-600v-262z" />
    <glyph glyph-name="four.alt" horiz-adv-x="940" 
d="M512 432v578l-256 -578h256zM743 0h-231v233h-475v162l506 1080h200v-1043h150v-199h-150v-233z" />
    <glyph glyph-name="a.alt" horiz-adv-x="890" 
d="M406 164q100 0 159 53v197q-57 29 -157 28q-113 0 -113 -123v-32q0 -123 111 -123zM53 270v41q0 141 69 216t200 75t243 -41v240q0 129 -124 129t-124 -129v-64h-211v99q0 141 86 216t248 74q348 0 348 -290v-844h-190l-16 76q-118 -88 -256 -88t-206 76t-67 214z" />
    </font>
</defs>
</svg>
