#  ==========================================================================
#  
#  Wavefront OBJ format exported by Red-i Productions' "Riptide Pro"
#     (a commercial plugin for Cinema 4D PC & Mac, R9.6 or later)
#  
#  Red-i Productions
#  http://skinprops.com
#  
#  ==========================================================================
mtllib Jury_3D_icon.mtl
v -92.465 66.2969 7.5
v -92.465 185.544 7.5
v 92.4649 66.2969 7.5
v 92.4649 185.544 7.5
v 92.4649 66.2969 -7.5
v 92.4649 185.544 -7.5
v -92.465 66.2969 -7.5
v -92.465 185.544 -7.5
v -69.972 50.7044 -7.5
v -70.0278 50.7044 7.5
v 69.987 50.7044 7.5
v 69.9461 50.7044 -7.5
v 67.1508 50.9879 -7.5
v 41.1508 50.9879 -7.5
v 41.1508 50.9879 7.5
v 67.1508 50.9879 7.5
v 67.1508 24.8568 -7.5
v 41.1508 26.2219 -7.5
v 41.1508 26.2219 7.5
v 67.1508 24.8568 7.5
v 66.8844 22.4306 -7.5
v 41.1599 26.205 -7.5
v 41.1599 26.205 7.5
v 66.8844 22.4306 7.5
v 66.2811 19.1739 -7.5
v 40.9685 25.249 -7.5
v 40.9685 25.249 7.5
v 66.2811 19.1739 7.5
v 65.078 15.0622 -7.5
v 40.5182 23.7098 -7.5
v 40.5182 23.7098 7.5
v 65.078 15.0622 7.5
v 63.4884 11.2217 -7.5
v 39.9597 22.3606 -7.5
v 39.9597 22.3606 7.5
v 63.4884 11.2217 7.5
v 61.7854 8.04321 -7.5
v 39.4665 21.4401 -7.5
v 39.4665 21.4401 7.5
v 61.7854 8.04321 7.5
v 59.6561 4.85854 -7.5
v 38.8241 20.4793 -7.5
v 38.8241 20.4793 7.5
v 59.6561 4.85854 7.5
v 57.0057 1.69566 -7.5
v 38.0606 19.5681 -7.5
v 38.0606 19.5681 7.5
v 57.0057 1.69566 7.5
v 53.796 -1.32892 -7.5
v 37.1478 18.708 -7.5
v 37.1478 18.708 7.5
v 53.796 -1.32892 7.5
v 50.0151 -4.09069 -7.5
v 36.0308 17.8921 -7.5
v 36.0308 17.8921 7.5
v 50.0151 -4.09069 7.5
v 45.6802 -6.4717 -7.5
v 34.6259 17.1204 -7.5
v 34.6259 17.1204 7.5
v 45.6802 -6.4717 7.5
v 40.8296 -8.37587 -7.5
v 32.8281 16.4147 -7.5
v 32.8281 16.4147 7.5
v 40.8296 -8.37587 7.5
v 35.6263 -9.70632 -7.5
v 30.4079 15.7959 -7.5
v 30.4079 15.7959 7.5
v 35.6263 -9.70632 7.5
v 31.5892 -10.3303 -7.5
v 28.7881 15.5455 -7.5
v 28.7881 15.5455 7.5
v 31.5892 -10.3303 7.5
v 25.8953 -10.6793 -7.5
v 25.0852 15.3081 -7.5
v 25.0852 15.3081 7.5
v 25.8953 -10.6793 7.5
v -21.0041 -10.6847 -7.5
v -21.3014 15.3136 -7.5
v -21.3014 15.3136 7.5
v -21.0041 -10.6847 7.5
v -25.0357 -10.7661 -7.5
v -24.5279 15.2289 -7.5
v -24.5279 15.2289 7.5
v -25.0357 -10.7661 7.5
v -31.942 -10.3495 -7.5
v -29.068 15.5222 -7.5
v -29.068 15.5222 7.5
v -31.942 -10.3495 7.5
v -38.1688 -9.34892 -7.5
v -32.7449 16.113 -7.5
v -32.7449 16.113 7.5
v -38.1688 -9.34892 7.5
v -43.598 -7.9021 -7.5
v -35.6286 16.8815 -7.5
v -35.6286 16.8815 7.5
v -43.598 -7.9021 7.5
v -47.9611 -6.25087 -7.5
v -37.4448 17.5689 -7.5
v -37.4448 17.5689 7.5
v -47.9611 -6.25087 7.5
v -52.1699 -4.11439 -7.5
v -39.1656 18.4424 -7.5
v -39.1656 18.4424 7.5
v -52.1699 -4.11439 7.5
v -55.147 -2.17998 -7.5
v -39.9132 18.9281 -7.5
v -39.9132 18.9281 7.5
v -55.147 -2.17998 7.5
v -57.9363 0.0484401 -7.5
v -40.6027 19.479 -7.5
v -40.6027 19.479 7.5
v -57.9363 0.0484401 7.5
v -60.5742 2.67247 -7.5
v -41.1442 20.0177 -7.5
v -41.1442 20.0177 7.5
v -60.5742 2.67247 7.5
v -62.9745 5.70523 -7.5
v -41.5698 20.5554 -7.5
v -41.5698 20.5554 7.5
v -62.9745 5.70523 7.5
v -65.0451 9.13178 -7.5
v -41.9178 21.1313 -7.5
v -41.9178 21.1313 7.5
v -65.0451 9.13178 7.5
v -66.7026 12.9076 -7.5
v -42.2176 21.8142 -7.5
v -42.2176 21.8142 7.5
v -66.7026 12.9076 7.5
v -67.8883 16.9681 -7.5
v -42.4742 22.693 -7.5
v -42.4742 22.693 7.5
v -67.8883 16.9681 7.5
v -68.5745 21.2466 -7.5
v -42.6612 23.8587 -7.5
v -42.6612 23.8587 7.5
v -68.5745 21.2466 7.5
v -68.7409 25.3002 -7.5
v -42.7452 25.7784 -7.5
v -42.7452 25.7784 7.5
v -68.7409 25.3002 7.5
v -68.6188 49.6147 -7.5
v -42.6202 49.8904 -7.5
v -42.6202 49.8904 7.5
v -68.6188 49.6147 7.5
v -68.7386 54.1049 -7.5
v -42.7475 54.7889 -7.5
v -42.7475 54.7889 7.5
v -68.7386 54.1049 7.5
v 67.1508 50.9879 -7.5
v 41.1508 50.9879 -7.5
v 41.1508 50.9879 7.5
v 67.1508 50.9879 7.5
v -68.7386 54.1049 -7.5
v -42.7475 54.7889 -7.5
v -42.7475 54.7889 7.5
v -68.7386 54.1049 7.5
v -18.644 -21.9834 7.5
v -18.644 -10.4311 7.5
v 18.856 -21.9834 7.5
v 18.856 -10.4311 7.5
v 18.856 -21.9834 -7.5
v 18.856 -10.4311 -7.5
v -18.644 -21.9834 -7.5
v -18.644 -10.4311 -7.5
v -4.6394e-05 -102.152 -18.75
v -4.6394e-05 -102.152 18.75
v 82.5 -102.152 -18.75
v 82.5 -102.152 -18.75
v 82.5 -102.152 18.75
v 82.5 -102.152 18.75
v 76.22 -70.5803 -18.75
v 76.22 -70.5803 -18.75
v 76.22 -70.5803 18.75
v 76.22 -70.5803 18.75
v 58.3363 -43.8154 -18.75
v 58.3363 -43.8154 -18.75
v 58.3363 -43.8154 18.75
v 58.3363 -43.8154 18.75
v 31.5713 -25.9316 -18.75
v 31.5713 -25.9316 -18.75
v 31.5713 -25.9316 18.75
v 31.5713 -25.9316 18.75
v -4.6394e-05 -19.6517 -18.75
v -4.6394e-05 -19.6517 -18.75
v -4.6394e-05 -19.6517 18.75
v -4.6394e-05 -19.6517 18.75
v -31.5714 -25.9316 -18.75
v -31.5714 -25.9316 -18.75
v -31.5714 -25.9316 18.75
v -31.5714 -25.9316 18.75
v -58.3364 -43.8154 -18.75
v -58.3364 -43.8154 -18.75
v -58.3364 -43.8154 18.75
v -58.3364 -43.8154 18.75
v -76.2201 -70.5803 -18.75
v -76.2201 -70.5803 -18.75
v -76.2201 -70.5803 18.75
v -76.2201 -70.5803 18.75
v -82.5 -102.152 -18.75
v -82.5 -102.152 -18.75
v -82.5 -102.152 18.75
v -82.5 -102.152 18.75
v -76.2201 -133.723 -18.75
v -76.2201 -133.723 -18.75
v -76.2201 -133.723 18.75
v -76.2201 -133.723 18.75
v -58.3364 -160.488 -18.75
v -58.3364 -160.488 -18.75
v -58.3364 -160.488 18.75
v -58.3364 -160.488 18.75
v -31.5714 -178.372 -18.75
v -31.5714 -178.372 -18.75
v -31.5714 -178.372 18.75
v -31.5714 -178.372 18.75
v -4.6394e-05 -184.652 -18.75
v -4.6394e-05 -184.652 -18.75
v -4.6394e-05 -184.652 18.75
v -4.6394e-05 -184.652 18.75
v 31.5713 -178.372 -18.75
v 31.5713 -178.372 -18.75
v 31.5713 -178.372 18.75
v 31.5713 -178.372 18.75
v 58.3363 -160.488 -18.75
v 58.3363 -160.488 -18.75
v 58.3363 -160.488 18.75
v 58.3363 -160.488 18.75
v 76.22 -133.723 -18.75
v 76.22 -133.723 -18.75
v 76.22 -133.723 18.75
v 76.22 -133.723 18.75
# 230 vertices

vt 0.00000 0.00000
vt 0.00000 1.00000
vt 0.15908 0.00000
vt 1.00000 1.00000
vt 1.00000 0.00000
vt 0.17476 0.00000
vt 0.15908 1.00000
vt 0.80922 1.00000
vt 0.82524 0.00000
vt 0.15613 0.00000
vt 0.84387 0.00000
vt 0.80922 0.00000
vt 0.25000 1.00000
vt 0.25000 0.86548
vt 0.00000 0.86548
vt 0.50000 1.00000
vt 0.50000 0.86548
vt 0.75000 1.00000
vt 0.75000 0.86548
vt 1.00000 0.86548
vt 0.25000 0.85899
vt 0.00000 0.85899
vt 0.50000 0.85899
vt 0.75000 0.85899
vt 1.00000 0.85899
vt 0.25000 0.84766
vt 0.00000 0.84766
vt 0.50000 0.84766
vt 0.75000 0.84766
vt 1.00000 0.84766
vt 0.25000 0.83210
vt 0.00000 0.83210
vt 0.50000 0.83210
vt 0.75000 0.83210
vt 1.00000 0.83210
vt 0.25000 0.81725
vt 0.00000 0.81725
vt 0.50000 0.81725
vt 0.75000 0.81725
vt 1.00000 0.81725
vt 0.25000 0.80496
vt 0.00000 0.80496
vt 0.50000 0.80496
vt 0.75000 0.80496
vt 1.00000 0.80496
vt 0.25000 0.79178
vt 0.00000 0.79178
vt 0.50000 0.79178
vt 0.75000 0.79178
vt 1.00000 0.79178
vt 0.25000 0.77774
vt 0.00000 0.77774
vt 0.50000 0.77774
vt 0.75000 0.77774
vt 1.00000 0.77774
vt 0.25000 0.76276
vt 0.00000 0.76276
vt 0.50000 0.76276
vt 0.75000 0.76276
vt 1.00000 0.76276
vt 0.25000 0.74673
vt 0.00000 0.74673
vt 0.50000 0.74673
vt 0.75000 0.74673
vt 1.00000 0.74673
vt 0.25000 0.72943
vt 0.00000 0.72943
vt 0.50000 0.72943
vt 0.75000 0.72943
vt 1.00000 0.72943
vt 0.25000 0.71055
vt 0.00000 0.71055
vt 0.50000 0.71055
vt 0.75000 0.71055
vt 1.00000 0.71055
vt 0.25000 0.68975
vt 0.00000 0.68975
vt 0.50000 0.68975
vt 0.75000 0.68975
vt 1.00000 0.68975
vt 0.25000 0.67462
vt 0.00000 0.67462
vt 0.50000 0.67462
vt 0.75000 0.67462
vt 1.00000 0.67462
vt 0.25000 0.64974
vt 0.00000 0.64974
vt 0.50000 0.64974
vt 0.75000 0.64974
vt 1.00000 0.64974
vt 0.25000 0.40319
vt 0.00000 0.40319
vt 0.50000 0.40319
vt 0.75000 0.40319
vt 1.00000 0.40319
vt 0.25000 0.38400
vt 0.00000 0.38400
vt 0.50000 0.38400
vt 0.75000 0.38400
vt 1.00000 0.38400
vt 0.25000 0.35369
vt 0.00000 0.35369
vt 0.50000 0.35369
vt 0.75000 0.35369
vt 1.00000 0.35369
vt 0.25000 0.32718
vt 0.00000 0.32718
vt 0.50000 0.32718
vt 0.75000 0.32718
vt 1.00000 0.32718
vt 0.25000 0.30445
vt 0.00000 0.30445
vt 0.50000 0.30445
vt 0.75000 0.30445
vt 1.00000 0.30445
vt 0.25000 0.28698
vt 0.00000 0.28698
vt 0.50000 0.28698
vt 0.75000 0.28698
vt 1.00000 0.28698
vt 0.25000 0.26941
vt 0.00000 0.26941
vt 0.50000 0.26941
vt 0.75000 0.26941
vt 1.00000 0.26941
vt 0.25000 0.25767
vt 0.00000 0.25767
vt 0.50000 0.25767
vt 0.75000 0.25767
vt 1.00000 0.25767
vt 0.25000 0.24590
vt 0.00000 0.24590
vt 0.50000 0.24590
vt 0.75000 0.24590
vt 1.00000 0.24590
vt 0.25000 0.23405
vt 0.00000 0.23405
vt 0.50000 0.23405
vt 0.75000 0.23405
vt 1.00000 0.23405
vt 0.25000 0.22201
vt 0.00000 0.22201
vt 0.50000 0.22201
vt 0.75000 0.22201
vt 1.00000 0.22201
vt 0.25000 0.20965
vt 0.00000 0.20965
vt 0.50000 0.20965
vt 0.75000 0.20965
vt 1.00000 0.20965
vt 0.25000 0.19679
vt 0.00000 0.19679
vt 0.50000 0.19679
vt 0.75000 0.19679
vt 1.00000 0.19679
vt 0.25000 0.18319
vt 0.00000 0.18319
vt 0.50000 0.18319
vt 0.75000 0.18319
vt 1.00000 0.18319
vt 0.25000 0.16861
vt 0.00000 0.16861
vt 0.50000 0.16861
vt 0.75000 0.16861
vt 1.00000 0.16861
vt 0.25000 0.15281
vt 0.00000 0.15281
vt 0.50000 0.15281
vt 0.75000 0.15281
vt 1.00000 0.15281
vt 0.25000 0.02482
vt 0.00000 0.02482
vt 0.50000 0.02482
vt 0.75000 0.02482
vt 1.00000 0.02482
vt 0.25000 0.00000
vt 0.50000 0.00000
vt 0.75000 0.00000
vt 1.00000 0.42308
vt 0.00000 0.42308
vt 0.31250 0.00000
vt 0.31250 1.00000
vt 0.37500 1.00000
vt 0.37500 0.00000
vt 0.06250 1.00000
vt 0.06250 0.00000
vt 0.43750 1.00000
vt 0.43750 0.00000
vt 0.12500 1.00000
vt 0.12500 0.00000
vt 0.56250 1.00000
vt 0.56250 0.00000
vt 0.62500 1.00000
vt 0.62500 0.00000
vt 0.18750 1.00000
vt 0.18750 0.00000
vt 0.68750 1.00000
vt 0.68750 0.00000
vt 0.81250 1.00000
vt 0.81250 0.00000
vt 0.87500 1.00000
vt 0.87500 0.00000
vt 0.93750 1.00000
vt 0.93750 0.00000
vt 0.30866 0.03806
vt 0.69134 0.03806
vt 0.96194 0.30866
vt 0.69134 0.96194
vt 0.03806 0.69134
vt 0.03806 0.30866
vt 0.00000 0.50000
vt 0.14645 0.14645
vt 0.85355 0.14645
vt 1.00000 0.50000
vt 0.96194 0.69134
vt 0.85355 0.85355
vt 0.30866 0.96194
vt 0.14645 0.85355
# 218 texture coordinates

vn -0.771869 -0.403836 0.491055
vn -0.408248 0.408248 0.816497
vn -0.206304 -0.659052 0.723249
vn 0.771642 -0.404057 0.491229
vn 0.408248 0.408248 0.816497
vn 0.408248 0.408248 -0.816497
vn 0.771353 -0.403906 -0.491807
vn 0.205989 -0.658845 -0.723528
vn -0.771474 -0.403629 -0.491846
vn -0.408248 0.408248 -0.816497
vn 0.206072 -0.659112 0.72326
vn -0.20619 -0.658687 -0.723614
vn 0.707107 0 -0.707107
vn -0.707107 0 -0.707107
vn -0.674808 -0.17069 -0.717983
vn 0.705522 -0.0386084 -0.707635
vn -0.707107 0 0.707107
vn -0.674808 -0.17069 0.717983
vn 0.707107 0 0.707107
vn 0.705522 -0.0386084 0.707635
vn -0.677538 -0.101691 -0.728424
vn 0.699318 -0.103024 -0.707348
vn -0.677538 -0.101691 0.728424
vn 0.699318 -0.103024 0.707348
vn -0.68633 0.168752 -0.707442
vn 0.687406 -0.163797 -0.707562
vn -0.68633 0.168752 0.707442
vn 0.687406 -0.163797 0.707562
vn -0.666485 0.234672 -0.707621
vn 0.666485 -0.234672 -0.707621
vn -0.666485 0.234672 0.707621
vn 0.666485 -0.234672 0.707621
vn -0.63871 0.302377 -0.707544
vn 0.63871 -0.302377 -0.707544
vn -0.63871 0.302377 0.707544
vn 0.63871 -0.302377 0.707544
vn -0.605912 0.363699 -0.707527
vn 0.605912 -0.363699 -0.707527
vn -0.605912 0.363699 0.707527
vn 0.605912 -0.363699 0.707527
vn -0.565314 0.423898 -0.707623
vn 0.565314 -0.423898 -0.707623
vn -0.565314 0.423898 0.707623
vn 0.565314 -0.423898 0.707623
vn -0.513903 0.484807 -0.707718
vn 0.513903 -0.484807 -0.707718
vn -0.513903 0.484807 0.707718
vn 0.513903 -0.484807 0.707718
vn -0.45145 0.54334 -0.707796
vn 0.45145 -0.54334 -0.707796
vn -0.45145 0.54334 0.707796
vn 0.45145 -0.54334 0.707796
vn -0.379143 0.596 -0.707838
vn 0.379143 -0.596 -0.707838
vn -0.379143 0.596 0.707838
vn 0.379143 -0.596 0.707838
vn -0.299711 0.639645 -0.707833
vn 0.299711 -0.639645 -0.707833
vn -0.299711 0.639645 0.707833
vn 0.299711 -0.639645 0.707833
vn -0.216985 0.67228 -0.707784
vn 0.216985 -0.67228 -0.707784
vn -0.216985 0.67228 0.707784
vn 0.216985 -0.67228 0.707784
vn -0.141669 0.692345 -0.707523
vn 0.141669 -0.692345 -0.707523
vn -0.141669 0.692345 0.707523
vn 0.141669 -0.692345 0.707523
vn -0.0766608 0.702584 -0.707459
vn 0.0756721 -0.702669 -0.707482
vn -0.0766608 0.702584 0.707459
vn 0.0756721 -0.702669 0.707482
vn -0.0225842 0.706564 -0.707289
vn 0.0216757 -0.706609 -0.707272
vn -0.0225842 0.706564 0.707289
vn 0.0216757 -0.706609 0.707272
vn -0.00923108 0.707016 -0.707137
vn 0.00717723 -0.707053 -0.707125
vn -0.00923108 0.707016 0.707137
vn 0.00717723 -0.707053 0.707125
vn 0.0135244 0.706613 -0.707471
vn -0.0141573 -0.706679 -0.707393
vn 0.0135244 0.706613 0.707471
vn -0.0141573 -0.706679 0.707393
vn 0.0789283 0.702288 -0.707504
vn -0.0774292 -0.702418 -0.707541
vn 0.0789283 0.702288 0.707504
vn -0.0774292 -0.702418 0.707541
vn 0.147229 0.691147 -0.707559
vn -0.147229 -0.691147 -0.707559
vn 0.147229 0.691147 0.707559
vn -0.147229 -0.691147 0.707559
vn 0.216321 0.672728 -0.707561
vn -0.216321 -0.672728 -0.707561
vn 0.216321 0.672728 0.707561
vn -0.216321 -0.672728 0.707561
vn 0.285382 0.646397 -0.707622
vn -0.285382 -0.646397 -0.707622
vn 0.285382 0.646397 0.707622
vn -0.285382 -0.646397 0.707622
vn 0.35292 0.612159 -0.707608
vn -0.35292 -0.612159 -0.707608
vn 0.35292 0.612159 0.707608
vn -0.35292 -0.612159 0.707608
vn 0.413562 0.573034 -0.70753
vn -0.413562 -0.573034 -0.70753
vn 0.413562 0.573034 0.70753
vn -0.413562 -0.573034 0.70753
vn 0.470368 0.527271 -0.707629
vn -0.470368 -0.527271 -0.707629
vn 0.470368 0.527271 0.707629
vn -0.470368 -0.527271 0.707629
vn 0.527033 0.470487 -0.707727
vn -0.527033 -0.470487 -0.707727
vn 0.527033 0.470487 0.707727
vn -0.527033 -0.470487 0.707727
vn 0.5804 0.40267 -0.707808
vn -0.5804 -0.40267 -0.707808
vn 0.5804 0.40267 0.707808
vn -0.5804 -0.40267 0.707808
vn 0.62699 0.325312 -0.707853
vn -0.62699 -0.325312 -0.707853
vn 0.62699 0.325312 0.707853
vn -0.62699 -0.325312 0.707853
vn 0.66381 0.241467 -0.707849
vn -0.66381 -0.241467 -0.707849
vn 0.66381 0.241467 0.707849
vn -0.66381 -0.241467 0.707849
vn 0.689146 0.155242 -0.707798
vn -0.689146 -0.155242 -0.707798
vn 0.689146 0.155242 0.707798
vn -0.689146 -0.155242 0.707798
vn 0.70289 0.0715173 -0.707694
vn -0.702959 -0.0705475 -0.707723
vn 0.70289 0.0715173 0.707694
vn -0.702959 -0.0705475 0.707723
vn 0.706869 0.0136333 -0.707213
vn -0.706899 -0.012719 -0.7072
vn 0.706869 0.0136333 0.707213
vn -0.706899 -0.012719 0.7072
vn 0.707026 0.0073527 -0.70715
vn -0.707021 -0.00765248 -0.707151
vn 0.707026 0.0073527 0.70715
vn -0.707021 -0.00765248 0.707151
vn 0.706868 0.0183703 -0.707107
vn -0.706855 -0.0188539 -0.707107
vn 0.706868 0.0183703 0.707107
vn -0.706855 -0.0188539 0.707107
vn -3.66509e-24 1 4.37114e-08
vn -0.0263067 0.999654 -4.36963e-08
vn -0.57735 -0.57735 0.57735
vn -0.57735 0.57735 0.57735
vn 0.57735 0.57735 0.57735
vn 0.57735 -0.57735 0.57735
vn 0.57735 0.57735 -0.57735
vn 0.57735 -0.57735 -0.57735
vn -0.57735 0.57735 -0.57735
vn -0.57735 -0.57735 -0.57735
vn -0.209426 0.505598 -0.836966
vn -0.168495 0.406784 0.897851
vn -0.629968 0.629968 0.454182
vn -0.629968 0.629968 -0.454182
vn 0.890909 -8.82425e-17 -0.454182
vn 0.890909 1.26061e-17 0.454182
vn 0.406784 0.168495 0.897851
vn 0.505598 0.209426 -0.836966
vn -0.646914 0.26796 0.713933
vn -0.406784 0.168495 -0.897851
vn -0.890909 2.14303e-16 0.454182
vn -0.890909 1.13455e-16 -0.454182
vn 0.629968 0.629968 0.454182
vn 0.629968 0.629968 -0.454182
vn -0.406784 -0.168495 0.897851
vn -0.505598 -0.209426 -0.836966
vn -0.629968 -0.629968 0.454182
vn -0.629968 -0.629968 -0.454182
vn 0.26796 0.646914 0.713933
vn 0.168495 0.406784 -0.897851
vn -0.26796 -0.646914 0.713933
vn -0.209426 -0.505598 -0.836966
vn 0 -0.890909 0.454182
vn 0 -0.890909 -0.454182
vn -1.26061e-17 0.890909 0.454182
vn -1.26061e-17 0.890909 -0.454182
vn 0.168495 -0.406784 0.897851
vn 0.139761 -0.337414 -0.930923
vn 0.629968 -0.629968 0.454182
vn 0.629968 -0.629968 -0.454182
vn 0.646914 -0.26796 0.713933
vn 0.505598 -0.209426 -0.836966
# 190 vertex normals

f 10/3/3 11/12/11 3/5/4 4/4/5 2/2/2 1/1/1
f 5/5/7 6/4/6 4/2/5 3/1/4
f 12/6/8 9/11/12 7/5/9 8/4/10 6/2/6 5/1/7
f 1/5/1 2/4/2 8/2/10 7/1/9
f 4/5/5 6/4/6 8/2/10 2/1/2
f 9/10/12 12/9/8 11/8/11 10/7/3
f 10/7/3 1/2/1 7/1/9 9/10/12
f 12/9/8 5/5/7 3/4/4 11/8/11
f 17/15/16 18/14/15 14/13/14 13/2/13
f 18/14/15 19/17/18 15/16/17 14/13/14
f 19/17/18 20/19/20 16/18/19 15/16/17
f 20/19/20 17/20/16 13/4/13 16/18/19
f 21/22/22 22/21/21 18/14/15 17/15/16
f 22/21/21 23/23/23 19/17/18 18/14/15
f 23/23/23 24/24/24 20/19/20 19/17/18
f 24/24/24 21/25/22 17/20/16 20/19/20
f 25/27/26 26/26/25 22/21/21 21/22/22
f 26/26/25 27/28/27 23/23/23 22/21/21
f 27/28/27 28/29/28 24/24/24 23/23/23
f 28/29/28 25/30/26 21/25/22 24/24/24
f 29/32/30 30/31/29 26/26/25 25/27/26
f 30/31/29 31/33/31 27/28/27 26/26/25
f 31/33/31 32/34/32 28/29/28 27/28/27
f 32/34/32 29/35/30 25/30/26 28/29/28
f 33/37/34 34/36/33 30/31/29 29/32/30
f 34/36/33 35/38/35 31/33/31 30/31/29
f 35/38/35 36/39/36 32/34/32 31/33/31
f 36/39/36 33/40/34 29/35/30 32/34/32
f 37/42/38 38/41/37 34/36/33 33/37/34
f 38/41/37 39/43/39 35/38/35 34/36/33
f 39/43/39 40/44/40 36/39/36 35/38/35
f 40/44/40 37/45/38 33/40/34 36/39/36
f 41/47/42 42/46/41 38/41/37 37/42/38
f 42/46/41 43/48/43 39/43/39 38/41/37
f 43/48/43 44/49/44 40/44/40 39/43/39
f 44/49/44 41/50/42 37/45/38 40/44/40
f 45/52/46 46/51/45 42/46/41 41/47/42
f 46/51/45 47/53/47 43/48/43 42/46/41
f 47/53/47 48/54/48 44/49/44 43/48/43
f 48/54/48 45/55/46 41/50/42 44/49/44
f 49/57/50 50/56/49 46/51/45 45/52/46
f 50/56/49 51/58/51 47/53/47 46/51/45
f 51/58/51 52/59/52 48/54/48 47/53/47
f 52/59/52 49/60/50 45/55/46 48/54/48
f 53/62/54 54/61/53 50/56/49 49/57/50
f 54/61/53 55/63/55 51/58/51 50/56/49
f 55/63/55 56/64/56 52/59/52 51/58/51
f 56/64/56 53/65/54 49/60/50 52/59/52
f 57/67/58 58/66/57 54/61/53 53/62/54
f 58/66/57 59/68/59 55/63/55 54/61/53
f 59/68/59 60/69/60 56/64/56 55/63/55
f 60/69/60 57/70/58 53/65/54 56/64/56
f 61/72/62 62/71/61 58/66/57 57/67/58
f 62/71/61 63/73/63 59/68/59 58/66/57
f 63/73/63 64/74/64 60/69/60 59/68/59
f 64/74/64 61/75/62 57/70/58 60/69/60
f 65/77/66 66/76/65 62/71/61 61/72/62
f 66/76/65 67/78/67 63/73/63 62/71/61
f 67/78/67 68/79/68 64/74/64 63/73/63
f 68/79/68 65/80/66 61/75/62 64/74/64
f 69/82/70 70/81/69 66/76/65 65/77/66
f 70/81/69 71/83/71 67/78/67 66/76/65
f 71/83/71 72/84/72 68/79/68 67/78/67
f 72/84/72 69/85/70 65/80/66 68/79/68
f 73/87/74 74/86/73 70/81/69 69/82/70
f 74/86/73 75/88/75 71/83/71 70/81/69
f 75/88/75 76/89/76 72/84/72 71/83/71
f 76/89/76 73/90/74 69/85/70 72/84/72
f 77/92/78 78/91/77 74/86/73 73/87/74
f 78/91/77 79/93/79 75/88/75 74/86/73
f 79/93/79 80/94/80 76/89/76 75/88/75
f 80/94/80 77/95/78 73/90/74 76/89/76
f 81/97/82 82/96/81 78/91/77 77/92/78
f 82/96/81 83/98/83 79/93/79 78/91/77
f 83/98/83 84/99/84 80/94/80 79/93/79
f 84/99/84 81/100/82 77/95/78 80/94/80
f 85/102/86 86/101/85 82/96/81 81/97/82
f 86/101/85 87/103/87 83/98/83 82/96/81
f 87/103/87 88/104/88 84/99/84 83/98/83
f 88/104/88 85/105/86 81/100/82 84/99/84
f 89/107/90 90/106/89 86/101/85 85/102/86
f 90/106/89 91/108/91 87/103/87 86/101/85
f 91/108/91 92/109/92 88/104/88 87/103/87
f 92/109/92 89/110/90 85/105/86 88/104/88
f 93/112/94 94/111/93 90/106/89 89/107/90
f 94/111/93 95/113/95 91/108/91 90/106/89
f 95/113/95 96/114/96 92/109/92 91/108/91
f 96/114/96 93/115/94 89/110/90 92/109/92
f 97/117/98 98/116/97 94/111/93 93/112/94
f 98/116/97 99/118/99 95/113/95 94/111/93
f 99/118/99 100/119/100 96/114/96 95/113/95
f 100/119/100 97/120/98 93/115/94 96/114/96
f 101/122/102 102/121/101 98/116/97 97/117/98
f 102/121/101 103/123/103 99/118/99 98/116/97
f 103/123/103 104/124/104 100/119/100 99/118/99
f 104/124/104 101/125/102 97/120/98 100/119/100
f 105/127/106 106/126/105 102/121/101 101/122/102
f 106/126/105 107/128/107 103/123/103 102/121/101
f 107/128/107 108/129/108 104/124/104 103/123/103
f 108/129/108 105/130/106 101/125/102 104/124/104
f 109/132/110 110/131/109 106/126/105 105/127/106
f 110/131/109 111/133/111 107/128/107 106/126/105
f 111/133/111 112/134/112 108/129/108 107/128/107
f 112/134/112 109/135/110 105/130/106 108/129/108
f 113/137/114 114/136/113 110/131/109 109/132/110
f 114/136/113 115/138/115 111/133/111 110/131/109
f 115/138/115 116/139/116 112/134/112 111/133/111
f 116/139/116 113/140/114 109/135/110 112/134/112
f 117/142/118 118/141/117 114/136/113 113/137/114
f 118/141/117 119/143/119 115/138/115 114/136/113
f 119/143/119 120/144/120 116/139/116 115/138/115
f 120/144/120 117/145/118 113/140/114 116/139/116
f 121/147/122 122/146/121 118/141/117 117/142/118
f 122/146/121 123/148/123 119/143/119 118/141/117
f 123/148/123 124/149/124 120/144/120 119/143/119
f 124/149/124 121/150/122 117/145/118 120/144/120
f 125/152/126 126/151/125 122/146/121 121/147/122
f 126/151/125 127/153/127 123/148/123 122/146/121
f 127/153/127 128/154/128 124/149/124 123/148/123
f 128/154/128 125/155/126 121/150/122 124/149/124
f 129/157/130 130/156/129 126/151/125 125/152/126
f 130/156/129 131/158/131 127/153/127 126/151/125
f 131/158/131 132/159/132 128/154/128 127/153/127
f 132/159/132 129/160/130 125/155/126 128/154/128
f 133/162/134 134/161/133 130/156/129 129/157/130
f 134/161/133 135/163/135 131/158/131 130/156/129
f 135/163/135 136/164/136 132/159/132 131/158/131
f 136/164/136 133/165/134 129/160/130 132/159/132
f 137/167/138 138/166/137 134/161/133 133/162/134
f 138/166/137 139/168/139 135/163/135 134/161/133
f 139/168/139 140/169/140 136/164/136 135/163/135
f 140/169/140 137/170/138 133/165/134 136/164/136
f 141/172/142 142/171/141 138/166/137 137/167/138
f 142/171/141 143/173/143 139/168/139 138/166/137
f 143/173/143 144/174/144 140/169/140 139/168/139
f 144/174/144 141/175/142 137/170/138 140/169/140
f 145/1/146 146/176/145 142/171/141 141/172/142
f 146/176/145 147/177/147 143/173/143 142/171/141
f 147/177/147 148/178/148 144/174/144 143/173/143
f 148/178/148 145/5/146 141/175/142 144/174/144
f 150/2/149 151/180/149 152/179/149
f 149/4/149 150/2/149 152/179/149
f 155/180/150 154/2/150 153/4/150
f 156/179/150 155/180/150 153/4/150
f 159/5/154 160/4/153 158/2/152 157/1/151
f 161/5/156 162/4/155 160/2/153 159/1/154
f 163/5/158 164/4/157 162/2/155 161/1/156
f 157/5/151 158/4/152 164/2/157 163/1/158
f 160/5/153 162/4/155 164/2/157 158/1/152
f 161/5/156 159/4/154 157/2/151 163/1/158
f 192/184/162 193/183/161 189/182/160 188/181/159
f 172/186/166 173/185/165 169/2/164 168/1/163
f 196/188/168 197/187/167 193/183/161 192/184/162
f 200/177/170 201/16/169 197/187/167 196/188/168
f 176/190/172 177/189/171 173/185/165 172/186/166
f 204/192/174 205/191/173 201/16/169 200/177/170
f 208/194/176 209/193/175 205/191/173 204/192/174
f 180/196/178 181/195/177 177/189/171 176/190/172
f 212/198/180 213/197/179 209/193/175 208/194/176
f 216/178/182 217/18/181 213/197/179 212/198/180
f 184/176/184 185/13/183 181/195/177 180/196/178
f 220/200/186 221/199/185 217/18/181 216/178/182
f 224/202/188 225/201/187 221/199/185 220/200/186
f 188/181/159 189/182/160 185/13/183 184/176/184
f 228/204/190 229/203/189 225/201/187 224/202/188
f 168/5/163 169/4/164 229/203/189 228/204/190
f 193/212/161 197/210/167 201/211/169 205/209/173 209/218/175 213/217/179 217/16/181 221/208/185 225/216/187 229/215/189 169/214/164 173/207/165 177/213/171 181/206/177 185/177/183 189/205/160
f 205/209/173 221/208/185 173/207/165 189/205/160
f 204/209/174 200/211/170 196/210/168 192/212/162 188/205/159 184/177/184 180/206/178 176/213/172 172/207/166 168/214/163 228/215/190 224/216/188 220/208/186 216/16/182 212/217/180 208/218/176
f 196/210/168 220/208/186 212/217/180 204/209/174
f 172/207/166 228/215/190 220/208/186 180/206/178
f 196/210/168 188/205/159 180/206/178 220/208/186
# 172 facets

